<svg width="1920" height="1356" viewBox="0 0 1920 1356" fill="none" xmlns="http://www.w3.org/2000/svg">
<g clip-path="url(#clip0_5_1486)">
<path d="M1759.4 279.8H1758.4V310.12H1759.4V279.8Z" fill="#E7ECF1"></path>
<path d="M1792.52 251H1791.52V278.8H1792.52V251Z" fill="#E7ECF1"></path>
<path d="M1864.74 250H1737.54V251H1864.74V250Z" fill="#E7ECF1"></path>
<path d="M1828.25 278.8H1739.53V279.8H1828.25V278.8Z" fill="#E7ECF1"></path>
<path d="M1808.94 310.12H1722.54V311.12H1808.94V310.12Z" fill="#E7ECF1"></path>
<path d="M1785.68 678.06H1784.68V708.38H1785.68V678.06Z" fill="#E7ECF1"></path>
<path d="M1752.56 709.38H1751.56V737.18H1752.56V709.38Z" fill="#E7ECF1"></path>
<path d="M1806.54 737.18H1679.34V738.18H1806.54V737.18Z" fill="#E7ECF1"></path>
<path d="M1804.56 708.38H1715.84V709.38H1804.56V708.38Z" fill="#E7ECF1"></path>
<path d="M1821.54 677.06H1735.14V678.06H1821.54V677.06Z" fill="#E7ECF1"></path>
<path d="M162.34 473.64H161.34V503.96H162.34V473.64Z" fill="#E7ECF1"></path>
<path d="M129.22 504.96H128.22V532.76H129.22V504.96Z" fill="#E7ECF1"></path>
<path d="M183.2 532.76H56V533.76H183.2V532.76Z" fill="#E7ECF1"></path>
<path d="M181.22 503.96H92.5V504.96H181.22V503.96Z" fill="#E7ECF1"></path>
<path d="M198.2 472.64H111.8V473.64H198.2V472.64Z" fill="#E7ECF1"></path>
<path d="M401.57 297.01H400.57V327.33H401.57V297.01Z" fill="#E7ECF1"></path>
<path d="M434.69 328.33H433.69V356.13H434.69V328.33Z" fill="#E7ECF1"></path>
<path d="M506.91 356.13H379.71V357.13H506.91V356.13Z" fill="#E7ECF1"></path>
<path d="M470.41 327.33H381.69V328.33H470.41V327.33Z" fill="#E7ECF1"></path>
<path d="M451.11 296.01H364.71V297.01H451.11V296.01Z" fill="#E7ECF1"></path>
<path d="M200.43 802.69H199.43V833.01H200.43V802.69Z" fill="#E7ECF1"></path>
<path d="M233.55 773.89H232.55V801.69H233.55V773.89Z" fill="#E7ECF1"></path>
<path d="M305.77 772.89H178.57V773.89H305.77V772.89Z" fill="#E7ECF1"></path>
<path d="M269.28 801.69H180.56V802.69H269.28V801.69Z" fill="#E7ECF1"></path>
<path d="M249.97 833.01H163.57V834.01H249.97V833.01Z" fill="#E7ECF1"></path>
<path d="M1511.51 444.69H1510.51V475.01H1511.51V444.69Z" fill="#E7ECF1"></path>
<path d="M1478.39 415.89H1477.39V443.69H1478.39V415.89Z" fill="#E7ECF1"></path>
<path d="M1532.37 414.89H1405.17V415.89H1532.37V414.89Z" fill="#E7ECF1"></path>
<path d="M1530.39 443.69H1441.67V444.69H1530.39V443.69Z" fill="#E7ECF1"></path>
<path d="M1547.37 475.01H1460.97V476.01H1547.37V475.01Z" fill="#E7ECF1"></path>
<path d="M1821.54 1103.47H119.46V1106.47H1821.54V1103.47Z" fill="#D7DCE0"></path>
<path d="M1377.3 726.11V338.67C1377.3 331.987 1371.88 326.57 1365.2 326.57L575.81 326.57C569.127 326.57 563.71 331.987 563.71 338.67V726.11C563.71 732.793 569.127 738.21 575.81 738.21H1365.2C1371.88 738.21 1377.3 732.793 1377.3 726.11Z" fill="#D7DCE0"></path>
<path d="M1194.85 698.9H1113.96C1112.82 698.9 1111.9 699.822 1111.9 700.96V736.08C1111.9 737.218 1112.82 738.14 1113.96 738.14H1194.85C1195.99 738.14 1196.91 737.218 1196.91 736.08V700.96C1196.91 699.822 1195.99 698.9 1194.85 698.9Z" fill="#c1272d" class="changeColor"></path>
<path d="M1365.2 316.57H575.81C563.605 316.57 553.71 326.464 553.71 338.67V726.11C553.71 738.315 563.605 748.21 575.81 748.21H1365.2C1377.41 748.21 1387.3 738.315 1387.3 726.11V338.67C1387.3 326.464 1377.41 316.57 1365.2 316.57Z" stroke="#282827" stroke-width="4" stroke-miterlimit="10"></path>
<path d="M1125.71 690.96L1079.9 736.77L1067.44 724.29L1113.23 678.47L1125.71 690.96Z" fill="#282827"></path>
<path d="M1125.71 690.955C1128.21 688.452 1127.45 683.627 1124 680.179C1120.55 676.73 1115.73 675.964 1113.22 678.468C1110.72 680.971 1111.49 685.796 1114.94 689.244C1118.38 692.692 1123.21 693.458 1125.71 690.955Z" fill="#515252"></path>
<path d="M1079.9 736.77C1082.4 734.267 1081.64 729.442 1078.19 725.994C1074.74 722.546 1069.92 721.779 1067.41 724.283C1064.91 726.786 1065.68 731.611 1069.13 735.059C1072.57 738.507 1077.4 739.273 1079.9 736.77Z" fill="#515252"></path>
<path d="M455.8 785.92H322.46C321.101 785.92 320 787.021 320 788.38V818.52C320 819.879 321.101 820.98 322.46 820.98H455.8C457.159 820.98 458.26 819.879 458.26 818.52V788.38C458.26 787.021 457.159 785.92 455.8 785.92Z" fill="#E7EDF2"></path>
<path d="M398.4 785.92H379.85C378.491 785.92 377.39 787.021 377.39 788.38V818.52C377.39 819.879 378.491 820.98 379.85 820.98H398.4C399.759 820.98 400.86 819.879 400.86 818.52V788.38C400.86 787.021 399.759 785.92 398.4 785.92Z" fill="#c1272d" class="changeColor"></path>
<path d="M502.594 793.276L400.181 707.888C399.137 707.018 397.586 707.158 396.716 708.202L377.242 731.559C376.372 732.602 376.513 734.153 377.556 735.023L479.97 820.411C481.013 821.281 482.564 821.141 483.434 820.097L502.908 796.741C503.778 795.697 503.638 794.146 502.594 793.276Z" fill="#E7EDF2"></path>
<path d="M458.507 756.518L444.26 744.639C443.216 743.769 441.665 743.91 440.795 744.953L421.321 768.31C420.451 769.353 420.592 770.905 421.635 771.775L435.883 783.654C436.926 784.524 438.478 784.383 439.348 783.34L458.822 759.983C459.692 758.939 459.551 757.388 458.507 756.518Z" fill="#c1272d" class="changeColor"></path>
<path d="M877.72 820.98H327.95C323.913 820.98 320.64 824.253 320.64 828.29V838.85C320.64 842.887 323.913 846.16 327.95 846.16H877.72C881.757 846.16 885.03 842.887 885.03 838.85V828.29C885.03 824.253 881.757 820.98 877.72 820.98Z" fill="#282827"></path>
<path d="M366.8 1103.47V833.57H360.01V1103.47H366.8Z" fill="#282827"></path>
<path d="M844.38 1103.47V833.57H837.59V1103.47H844.38Z" fill="#282827"></path>
<path d="M667.07 983.31H537.46C521.99 983.31 508.61 978.65 505.33 972.13L465.67 893.37C462.67 887.46 474.26 882.07 488.15 882.9C521.71 884.9 576.22 887.9 603.69 887.9C631 887.9 684.34 884.9 717.5 882.9C731.44 882.05 743.04 887.49 739.97 893.42L699.15 972.24C695.79 978.7 682.46 983.31 667.07 983.31Z" fill="#D7DCE0"></path>
<path d="M668.96 1070.94L663.25 981.41L672.82 981.52L678.49 1070.33C678.531 1070.98 678.438 1071.63 678.218 1072.25C677.997 1072.86 677.653 1073.42 677.207 1073.9C676.762 1074.37 676.223 1074.75 675.625 1075.01C675.027 1075.27 674.382 1075.41 673.73 1075.41C672.516 1075.41 671.347 1074.95 670.461 1074.12C669.576 1073.29 669.039 1072.15 668.96 1070.94Z" fill="#D7DCE0"></path>
<path d="M675.91 983.31H528.45C519.909 983.309 511.625 980.386 504.975 975.027C498.324 969.668 493.707 962.196 491.89 953.85L446.78 746.33C445.993 742.719 446.09 738.972 447.063 735.407C448.037 731.842 449.858 728.566 452.372 725.857C454.885 723.148 458.017 721.087 461.499 719.849C464.981 718.612 468.711 718.235 472.37 718.75C510.55 724.06 572.57 731.96 603.83 731.96C634.9 731.96 695.59 724.16 733.32 718.85C736.99 718.333 740.731 718.714 744.222 719.961C747.713 721.207 750.849 723.282 753.362 726.006C755.875 728.731 757.69 732.024 758.651 735.604C759.612 739.184 759.691 742.943 758.88 746.56L712.44 954.07C710.584 962.372 705.954 969.792 699.312 975.108C692.671 980.424 684.417 983.317 675.91 983.31Z" fill="#E7EDF2"></path>
<path d="M708.14 1100.24L662.68 981.56L673.03 980.06L717.66 1096.61C717.9 1097.23 718.014 1097.9 717.996 1098.57C717.977 1099.24 717.827 1099.9 717.554 1100.51C717.281 1101.12 716.89 1101.67 716.404 1102.13C715.917 1102.58 715.345 1102.94 714.72 1103.18C713.457 1103.66 712.055 1103.62 710.822 1103.07C709.588 1102.52 708.624 1101.5 708.14 1100.24Z" fill="#E7EDF2"></path>
<path d="M522.69 1075.41C521.99 1075.41 521.299 1075.26 520.664 1074.97C520.028 1074.67 519.463 1074.25 519.008 1073.72C518.552 1073.19 518.216 1072.56 518.023 1071.89C517.83 1071.22 517.785 1070.51 517.89 1069.82L531.3 981.41L541.1 981.52L527.49 1071.24C527.324 1072.4 526.748 1073.45 525.867 1074.22C524.985 1074.98 523.858 1075.41 522.69 1075.41Z" fill="#D7DCE0"></path>
<path d="M484.72 1103.1C484.106 1102.86 483.546 1102.49 483.073 1102.03C482.601 1101.56 482.225 1101.01 481.967 1100.4C481.71 1099.79 481.576 1099.14 481.573 1098.48C481.57 1097.82 481.698 1097.16 481.95 1096.55L530.69 979.91L540.69 980.03L491.37 1100.34C490.848 1101.58 489.857 1102.57 488.612 1103.09C487.367 1103.6 485.969 1103.61 484.72 1103.1Z" fill="#E7EDF2"></path>
<path d="M1613.7 820.98H1063.93C1059.89 820.98 1056.62 824.253 1056.62 828.29V838.85C1056.62 842.887 1059.89 846.16 1063.93 846.16H1613.7C1617.74 846.16 1621.01 842.887 1621.01 838.85V828.29C1621.01 824.253 1617.74 820.98 1613.7 820.98Z" fill="#282827"></path>
<path d="M1102.79 1103.47V846.16H1096V1103.47H1102.79Z" fill="#282827"></path>
<path d="M1580.37 1103.47V846.16H1573.58V1103.47H1580.37Z" fill="#282827"></path>
<path d="M1402.87 981.81H1273.26C1257.79 981.81 1244.42 977.15 1241.13 970.63L1201.48 891.87C1198.48 885.96 1210.07 880.57 1223.95 881.4C1257.51 883.4 1312.02 886.4 1339.5 886.4C1366.8 886.4 1420.15 883.4 1453.31 881.4C1467.25 880.55 1478.85 885.99 1475.77 891.92L1434.96 970.67C1431.6 977.24 1418.26 981.81 1402.87 981.81Z" fill="#D7DCE0"></path>
<path d="M1404.76 1069.44L1399.05 979.91L1408.63 980.02L1414.29 1068.83C1414.33 1069.48 1414.24 1070.13 1414.02 1070.75C1413.8 1071.36 1413.46 1071.93 1413.01 1072.4C1412.56 1072.88 1412.03 1073.26 1411.43 1073.52C1410.83 1073.78 1410.18 1073.91 1409.53 1073.91C1408.32 1073.91 1407.15 1073.44 1406.26 1072.62C1405.38 1071.79 1404.84 1070.65 1404.76 1069.44Z" fill="#D7DCE0"></path>
<path d="M1411.72 981.81H1264.26C1255.72 981.809 1247.44 978.886 1240.78 973.527C1234.13 968.168 1229.52 960.696 1227.7 952.35L1182.59 744.83C1181.8 741.221 1181.9 737.476 1182.87 733.913C1183.84 730.349 1185.66 727.073 1188.17 724.364C1190.68 721.654 1193.81 719.591 1197.29 718.351C1200.76 717.111 1204.49 716.73 1208.15 717.24C1246.34 722.55 1308.35 730.45 1339.61 730.45C1370.68 730.45 1431.37 722.65 1469.1 717.34C1472.77 716.823 1476.51 717.204 1480 718.451C1483.49 719.697 1486.63 721.772 1489.14 724.496C1491.66 727.221 1493.47 730.514 1494.43 734.094C1495.39 737.674 1495.47 741.433 1494.66 745.05L1448.22 952.56C1446.37 960.858 1441.74 968.278 1435.11 973.595C1428.47 978.912 1420.22 981.81 1411.72 981.81Z" fill="#E7EDF2"></path>
<path d="M1443.94 1100.24L1398.49 981.56L1408.83 980.06L1453.47 1096.61C1453.95 1097.87 1453.91 1099.27 1453.36 1100.5C1452.81 1101.74 1451.79 1102.7 1450.53 1103.18C1449.27 1103.66 1447.86 1103.62 1446.63 1103.07C1445.39 1102.52 1444.43 1101.5 1443.94 1100.24Z" fill="#E7EDF2"></path>
<path d="M1258.5 1073.91C1257.8 1073.91 1257.11 1073.76 1256.47 1073.47C1255.84 1073.17 1255.27 1072.75 1254.81 1072.22C1254.36 1071.69 1254.02 1071.06 1253.83 1070.39C1253.63 1069.72 1253.59 1069.01 1253.69 1068.32L1267.1 979.91L1276.91 980.02L1263.3 1069.78C1263.13 1070.93 1262.55 1071.98 1261.66 1072.73C1260.78 1073.49 1259.66 1073.91 1258.5 1073.91Z" fill="#D7DCE0"></path>
<path d="M1220.92 1103.1C1220.31 1102.86 1219.75 1102.49 1219.27 1102.03C1218.8 1101.56 1218.43 1101.01 1218.17 1100.4C1217.91 1099.79 1217.78 1099.14 1217.77 1098.48C1217.77 1097.82 1217.9 1097.16 1218.15 1096.55L1266.89 979.91L1276.89 980.03L1227.56 1100.34C1227.04 1101.58 1226.05 1102.57 1224.81 1103.08C1223.56 1103.6 1222.17 1103.6 1220.92 1103.1Z" fill="#E7EDF2"></path>
<path d="M485.22 415.33H206.94V610.57H485.22V415.33Z" fill="#D7DCE0"></path>
<path d="M476.64 425.29H215.52V600.61H476.64V425.29Z" fill="#E7EDF2"></path>
<path d="M283.33 460.01H237.85V505.5H283.33V460.01Z" fill="white"></path>
<path d="M283.37 506.14H237.84C237.67 506.14 237.507 506.073 237.387 505.953C237.267 505.833 237.2 505.67 237.2 505.5V460.01C237.2 459.84 237.267 459.678 237.387 459.558C237.507 459.437 237.67 459.37 237.84 459.37H283.37C283.454 459.369 283.538 459.384 283.617 459.416C283.695 459.448 283.766 459.495 283.826 459.555C283.885 459.614 283.932 459.685 283.964 459.764C283.996 459.842 284.011 459.926 284.01 460.01V505.5C284.011 505.584 283.996 505.668 283.964 505.747C283.932 505.825 283.885 505.896 283.826 505.956C283.766 506.015 283.695 506.062 283.617 506.094C283.538 506.126 283.454 506.141 283.37 506.14ZM238.54 504.86H282.73V460.65H238.49L238.54 504.86Z" fill="#D7DCE0"></path>
<path d="M280.33 463H241.25V493.11H280.33V463Z" fill="#E7EDF2"></path>
<path d="M280.37 493.76H241.25C241.081 493.757 240.92 493.689 240.8 493.57C240.681 493.45 240.613 493.289 240.61 493.12V463.01C240.613 462.841 240.681 462.68 240.8 462.56C240.92 462.441 241.081 462.373 241.25 462.37H280.37C280.542 462.37 280.707 462.437 280.83 462.556C280.953 462.676 281.025 462.838 281.03 463.01V493.12C281.025 493.292 280.953 493.454 280.83 493.574C280.707 493.693 280.542 493.76 280.37 493.76ZM241.93 492.48H279.75V463.65H241.89L241.93 492.48Z" fill="#D7DCE0"></path>
<path d="M287.27 560.1L242.61 568.78L233.93 524.14L278.56 515.46L287.27 560.1Z" fill="white"></path>
<path d="M242.61 569.42C242.461 569.423 242.315 569.374 242.198 569.281C242.081 569.188 242 569.056 241.97 568.91L233.29 524.24C233.26 524.073 233.297 523.901 233.393 523.761C233.488 523.621 233.634 523.524 233.8 523.49L278.46 514.81C278.625 514.783 278.794 514.822 278.932 514.917C279.07 515.012 279.166 515.156 279.2 515.32L287.88 559.97C287.897 560.053 287.898 560.138 287.881 560.221C287.865 560.304 287.832 560.383 287.784 560.453C287.737 560.523 287.675 560.583 287.604 560.629C287.533 560.675 287.453 560.706 287.37 560.72L242.74 569.4L242.61 569.42ZM234.67 524.64L243.12 568.04L286.5 559.61L278.07 516.24L234.67 524.64Z" fill="#D7DCE0"></path>
<path d="M401.86 457.77H357.02V497.8H401.86V457.77Z" fill="#FCF6BD"></path>
<path d="M401.85 498.44H357.02C356.847 498.443 356.679 498.377 356.554 498.257C356.428 498.138 356.355 497.973 356.35 497.8V457.8C356.355 457.627 356.428 457.462 356.554 457.343C356.679 457.223 356.847 457.157 357.02 457.16H401.85C402.02 457.16 402.183 457.227 402.303 457.347C402.423 457.467 402.49 457.63 402.49 457.8V497.8C402.491 497.884 402.476 497.968 402.444 498.047C402.412 498.125 402.365 498.196 402.306 498.256C402.246 498.315 402.175 498.362 402.096 498.394C402.018 498.426 401.934 498.441 401.85 498.44ZM357.66 497.16H401.21V458.41H357.66V497.16Z" fill="#E0D6AA"></path>
<path d="M401.86 457.77H357.02V497.8H401.86V457.77Z" fill="white"></path>
<path d="M401.85 498.44H357.02C356.847 498.443 356.679 498.377 356.554 498.257C356.428 498.138 356.355 497.973 356.35 497.8V457.8C356.355 457.627 356.428 457.462 356.554 457.343C356.679 457.223 356.847 457.157 357.02 457.16H401.85C402.02 457.16 402.183 457.227 402.303 457.347C402.423 457.467 402.49 457.63 402.49 457.8V497.8C402.491 497.884 402.476 497.968 402.444 498.047C402.412 498.125 402.365 498.196 402.306 498.256C402.246 498.315 402.175 498.362 402.096 498.394C402.018 498.426 401.934 498.441 401.85 498.44ZM357.66 497.16H401.21V458.41H357.66V497.16Z" fill="#D7DCE0"></path>
<path d="M401.86 503.84H357.02V543.89H401.86V503.84Z" fill="white"></path>
<path d="M401.85 544.52H357.02C356.848 544.523 356.682 544.459 356.557 544.341C356.432 544.223 356.358 544.062 356.35 543.89V503.89C356.355 503.717 356.428 503.553 356.554 503.433C356.679 503.313 356.847 503.247 357.02 503.25H401.85C401.934 503.249 402.018 503.264 402.096 503.296C402.175 503.328 402.246 503.375 402.306 503.435C402.365 503.494 402.412 503.565 402.444 503.644C402.476 503.722 402.491 503.806 402.49 503.89V543.89C402.49 543.974 402.473 544.056 402.441 544.134C402.409 544.211 402.362 544.28 402.302 544.339C402.242 544.398 402.172 544.444 402.094 544.475C402.017 544.506 401.934 544.521 401.85 544.52ZM357.66 543.24H401.21V504.49H357.66V543.24Z" fill="#D7DCE0"></path>
<path d="M458.24 473.73H413.38V513.76H458.24V473.73Z" fill="white"></path>
<path d="M458.24 514.42H413.37C413.2 514.415 413.039 514.344 412.92 514.223C412.8 514.102 412.732 513.94 412.73 513.77V473.77C412.732 473.6 412.8 473.438 412.92 473.317C413.039 473.196 413.2 473.125 413.37 473.12H458.24C458.41 473.125 458.571 473.196 458.69 473.317C458.81 473.438 458.878 473.6 458.88 473.77V513.77C458.878 513.94 458.81 514.102 458.69 514.223C458.571 514.344 458.41 514.415 458.24 514.42ZM414.01 513.14H457.6V474.38H414.01V513.14Z" fill="#D7DCE0"></path>
<path d="M344.19 459.17H299.35V534.85H344.19V459.17Z" fill="white"></path>
<path d="M344.19 535.3H299.37C299.01 535.3 298.73 535.1 298.73 534.86V459.18C298.73 458.93 299.01 458.73 299.37 458.73H344.21C344.57 458.73 344.85 458.93 344.85 459.18V534.86C344.83 535.1 344.55 535.3 344.19 535.3ZM299.99 534.4H343.55V459.62H299.99V534.4Z" fill="#D7DCE0"></path>
<path d="M340.34 479.86H305.75V481.14H340.34V479.86Z" fill="#D7DCE0"></path>
<path d="M333.89 486.91H305.75V488.19H333.89V486.91Z" fill="#D7DCE0"></path>
<path d="M340.34 500.98H305.75V502.26H340.34V500.98Z" fill="#D7DCE0"></path>
<path d="M332.3 515.06H305.75V516.34H332.3V515.06Z" fill="#D7DCE0"></path>
<path d="M321.72 472.82H305.75V474.1H321.72V472.82Z" fill="#D7DCE0"></path>
<path d="M328.94 493.93H305.75V495.21H328.94V493.93Z" fill="#D7DCE0"></path>
<path d="M319.46 508.02H305.75V509.3H319.46V508.02Z" fill="#D7DCE0"></path>
<path d="M315.56 522.1H305.75V523.38H315.56V522.1Z" fill="#D7DCE0"></path>
<path d="M334.75 465.92C332.879 468.054 331.177 470.331 329.66 472.73C329.447 472.024 329.137 471.351 328.74 470.73C328.48 470.41 327.74 471.2 327.99 471.51C328.61 472.35 328.43 473.4 328.99 474.25C329.27 474.66 329.75 474.17 329.91 473.91C330.86 472.52 331.7 471.11 332.73 469.79C333.62 468.67 335.08 467.54 335.47 466.16C335.68 465.49 335.06 465.56 334.75 465.92Z" fill="#D7DCE0"></path>
<path d="M323.05 461.03C324.077 461.03 324.91 460.197 324.91 459.17C324.91 458.143 324.077 457.31 323.05 457.31C322.023 457.31 321.19 458.143 321.19 459.17C321.19 460.197 322.023 461.03 323.05 461.03Z" fill="#D7DCE0"></path>
<path d="M253.03 522.11C254.057 522.11 254.89 521.277 254.89 520.25C254.89 519.223 254.057 518.39 253.03 518.39C252.003 518.39 251.17 519.223 251.17 520.25C251.17 521.277 252.003 522.11 253.03 522.11Z" fill="#D7DCE0"></path>
<path d="M260.8 461.48C261.827 461.48 262.66 460.647 262.66 459.62C262.66 458.593 261.827 457.76 260.8 457.76C259.773 457.76 258.94 458.593 258.94 459.62C258.94 460.647 259.773 461.48 260.8 461.48Z" fill="#D7DCE0"></path>
<path d="M380.4 458.73C381.427 458.73 382.26 457.897 382.26 456.87C382.26 455.843 381.427 455.01 380.4 455.01C379.373 455.01 378.54 455.843 378.54 456.87C378.54 457.897 379.373 458.73 380.4 458.73Z" fill="#D7DCE0"></path>
<path d="M379.44 505.7C380.467 505.7 381.3 504.867 381.3 503.84C381.3 502.813 380.467 501.98 379.44 501.98C378.413 501.98 377.58 502.813 377.58 503.84C377.58 504.867 378.413 505.7 379.44 505.7Z" fill="#D7DCE0"></path>
<path d="M434.34 475.59C435.367 475.59 436.2 474.757 436.2 473.73C436.2 472.703 435.367 471.87 434.34 471.87C433.313 471.87 432.48 472.703 432.48 473.73C432.48 474.757 433.313 475.59 434.34 475.59Z" fill="#D7DCE0"></path>
</g>
<defs>
<clipPath id="clip0_5_1486">
<rect width="1808.74" height="856.47" fill="white" transform="translate(56 250)"></rect>
</clipPath>
</defs>
</svg>