<svg width="1920" height="1337" viewBox="0 0 1920 1337" fill="none" xmlns="http://www.w3.org/2000/svg">
<g clip-path="url(#clip0_37_481)">
<path d="M792.406 1010.06C1136.7 1010.06 1415.81 811.035 1415.81 565.529C1415.81 320.022 1136.7 121 792.406 121C448.108 121 169 320.022 169 565.529C169 811.035 448.108 1010.06 792.406 1010.06Z" fill="#F5F5FF"/>
<path d="M1465.42 1191.64C1622.59 1191.64 1750 1173.95 1750 1152.14C1750 1130.33 1622.59 1112.65 1465.42 1112.65C1308.24 1112.65 1180.83 1130.33 1180.83 1152.14C1180.83 1173.95 1308.24 1191.64 1465.42 1191.64Z" fill="#DFDFEB"/>
<path d="M868.902 1215C1152.85 1215 1383.03 1195.39 1383.03 1171.19C1383.03 1147 1152.85 1127.39 868.902 1127.39C584.958 1127.39 354.776 1147 354.776 1171.19C354.776 1195.39 584.958 1215 868.902 1215Z" fill="#DFDFEB"/>
<path d="M967.201 394.935C967.201 394.935 957.692 450.183 888.347 521.266C888.347 521.266 880.687 511.781 893.945 472.502C907.204 433.223 963.237 381.565 967.201 394.935Z" fill="#7E9E6E"/>
<path d="M967.201 394.935C967.201 394.935 904.847 439.573 888.347 521.266C888.347 521.266 885.16 549.292 894.776 573.567" stroke="black" stroke-miterlimit="10" stroke-linecap="round"/>
<path d="M799.53 439.546C799.53 439.546 817.021 426.284 786.915 393.167C758.309 361.685 727.989 333.471 668.85 323.129C668.85 323.129 686.715 403.322 725.284 422.425C748.342 433.894 773.78 439.76 799.53 439.546Z" fill="#7E9E6E"/>
<path d="M655.886 498.518C655.886 498.518 717.624 511.915 822.351 477.084C822.351 477.084 815.842 466.366 769.05 462.615C722.258 458.864 643.699 489.516 655.886 498.518Z" fill="#7E9E6E"/>
<path d="M655.886 498.519C655.886 498.519 729.944 459.293 822.351 477.084C822.351 477.084 831.859 479.469 841.528 492.41" stroke="black" stroke-miterlimit="10" stroke-linecap="round"/>
<path d="M707.044 554.49C707.044 554.49 773.121 598.002 877.848 563.037C870.602 551.502 860.753 541.828 849.091 534.792C837.429 527.756 824.28 523.555 810.7 522.526C763.908 518.882 694.857 545.487 707.044 554.49Z" fill="#7E9E6E"/>
<path d="M707.044 554.49C707.044 554.49 778.264 521.239 877.848 563.037C886.299 567.341 893.634 573.551 899.275 581.176" stroke="black" stroke-miterlimit="10" stroke-linecap="round"/>
<path d="M930.72 342.635C930.72 342.635 950.219 340.304 902.624 384.325C857.706 425.908 863.411 426.23 863.411 426.23C863.411 426.23 880.446 364.016 930.72 342.635Z" fill="black"/>
<path d="M830.708 447.29C830.708 447.29 845.278 452.916 871.554 428.802C897.829 404.688 907.605 350.941 930.72 342.635C930.72 342.635 872.705 361.363 830.708 447.29Z" fill="#7E9E6E"/>
<path d="M926.274 631.976C892.224 562.803 849.664 498.159 799.584 439.546C799.584 439.546 785.844 421.541 737.98 374.894C690.116 328.247 668.796 323.129 668.796 323.129" stroke="black" stroke-miterlimit="10" stroke-linecap="round"/>
<path d="M923.863 345.502C923.863 345.502 868.715 369.616 830.708 447.317C821.52 466.072 832.529 481.049 841.421 492.383" stroke="black" stroke-miterlimit="10" stroke-linecap="round"/>
<path d="M1426.77 989.882C1426.77 989.882 1380.67 1023.91 1274.47 998.938C1274.47 998.938 1274.74 981.898 1312.85 965.5C1350.97 949.103 1432.79 974.101 1426.77 989.882Z" fill="#7E9E6E"/>
<path d="M1423.47 986.801C1423.47 986.801 1350.73 962.473 1274.95 997.09C1274.95 997.09 1250.39 1010.97 1236.38 1032.99" stroke="black" stroke-miterlimit="10" stroke-linecap="round"/>
<path d="M1273.08 915.048C1273.08 915.048 1294.08 921.425 1303.24 877.538C1311.92 835.901 1316.98 794.826 1290.59 740.891C1290.59 740.891 1236.2 802.516 1243.35 844.876C1247.62 870.276 1257.8 894.315 1273.08 915.048Z" fill="#7E9E6E"/>
<path d="M1429.31 931.473C1429.31 931.473 1445.52 942.565 1380.72 944.333C1319.52 946.021 1323.59 950.014 1323.59 950.014C1323.59 950.014 1377.4 914.459 1429.31 931.473Z" fill="black"/>
<path d="M1285.18 944.333C1285.18 944.333 1292.44 958.159 1328.04 957.301C1363.64 956.444 1406.46 922.47 1429.31 931.473C1429.31 931.473 1373.36 907.359 1285.18 944.333Z" fill="#7E9E6E"/>
<path d="M1191.73 1130.6C1227.73 1062.42 1255.06 990.011 1273.08 915.048C1273.08 915.048 1279.59 893.346 1289.34 827.273C1299.09 761.201 1290.59 740.865 1290.59 740.865" stroke="black" stroke-miterlimit="10" stroke-linecap="round"/>
<path d="M1422.27 929.115C1422.27 929.115 1364.92 910.869 1285.13 944.333C1265.82 952.371 1260.33 965.232 1252.16 988.944" stroke="black" stroke-miterlimit="10" stroke-linecap="round"/>
<path d="M692.206 596.502C677.287 596.506 662.841 591.272 651.386 581.712L619.62 555.186C608.797 545.871 595.033 540.68 580.756 540.531H422.942C416.073 540.531 409.485 543.26 404.628 548.119C399.771 552.978 397.042 559.568 397.042 566.44V1137.65C397.042 1149.51 401.751 1160.89 410.134 1169.28C418.516 1177.67 429.887 1182.39 441.745 1182.39H1228C1237.23 1182.39 1246.09 1178.72 1252.62 1172.19C1259.15 1165.66 1262.82 1156.8 1262.82 1147.56V631.306C1262.82 622.069 1259.15 613.209 1252.62 606.677C1246.09 600.145 1237.23 596.475 1228 596.475L692.206 596.502Z" fill="#9E1B25"/>
<path d="M1262.79 1150.51C1262.79 1150.51 1209.22 1050.09 1203.87 1038.57L1057.62 740.543C1055.83 736.662 1052.96 733.375 1049.36 731.073C1045.76 728.77 1041.57 727.547 1037.3 727.548H493.921C474.154 727.548 445.575 717.179 430.415 704.533L408.479 686.233C397.635 676.9 383.839 671.708 369.534 671.577H219.542C215.857 671.581 212.23 672.492 208.98 674.231C205.731 675.969 202.96 678.482 200.911 681.545C198.862 684.609 197.598 688.131 197.232 691.799C196.866 695.466 197.408 699.168 198.811 702.577L380.329 1141.72C385.3 1153.74 393.717 1164.01 404.518 1171.25C415.32 1178.49 428.021 1182.37 441.022 1182.39H1253.04C1255.67 1182.36 1258.19 1181.33 1260.08 1179.5C1261.98 1177.67 1263.1 1175.19 1263.22 1172.56L1262.79 1150.51Z" fill="#C1282D"/>
<path d="M1041.77 755.896L1256.34 1173.18" stroke="black" stroke-linejoin="round"/>
<path d="M953.326 827.809H768.514C766.042 827.817 763.607 827.206 761.432 826.031C759.256 824.856 757.409 823.156 756.059 821.084C754.653 818.874 753.87 816.324 753.795 813.705C753.719 811.086 754.353 808.495 755.63 806.207C756.907 803.92 758.778 802.02 761.046 800.71C763.315 799.399 765.895 798.728 768.514 798.765H953.326C955.795 798.755 958.227 799.365 960.399 800.54C962.57 801.715 964.412 803.417 965.754 805.49C967.159 807.699 967.942 810.246 968.018 812.863C968.095 815.479 967.463 818.068 966.19 820.355C964.916 822.642 963.049 824.542 960.784 825.854C958.52 827.166 955.943 827.842 953.326 827.809Z" stroke="black" stroke-linejoin="round"/>
<path d="M607.567 971.207L751.479 1056.97" stroke="black" stroke-linecap="round" stroke-linejoin="round"/>
<path d="M725.231 967.081L634.807 1057.51" stroke="black" stroke-linecap="round" stroke-linejoin="round"/>
<path d="M781.987 1042.17C794.022 998.645 757.084 950.44 699.484 934.504C641.884 918.568 585.435 940.936 573.4 984.464C561.365 1027.99 598.303 1076.2 655.903 1092.13C713.502 1108.07 769.952 1085.7 781.987 1042.17Z" stroke="black" stroke-linecap="round" stroke-linejoin="round"/>
<path d="M1662.17 1090.06L1654.14 1119.19C1654.14 1119.19 1595.43 1182.87 1604.08 1182.87C1612.73 1182.87 1709.13 1143.43 1709.13 1143.43L1696.78 1082.77L1662.17 1090.06Z" fill="black"/>
<path d="M1422.8 596.797C1426.26 581.873 1410.37 563.251 1395.35 566.199C1388.39 567.492 1381.59 569.494 1375.05 572.173C1371.22 573.433 1342.53 571.557 1339.24 576.353C1336.88 579.81 1351.82 583.802 1361.39 584.74C1361.82 584.775 1362.24 584.948 1362.57 585.235C1362.9 585.521 1363.13 585.905 1363.23 586.332C1363.33 586.759 1363.29 587.206 1363.11 587.608C1362.94 588.011 1362.65 588.348 1362.27 588.571C1352.87 594.412 1334.15 606.255 1332.54 609.175C1330.42 613.114 1320.7 628.386 1323.43 630.074C1326.16 631.762 1334.47 624.153 1339.85 618.714C1345.23 613.274 1360.96 608.72 1360.96 608.72C1360.96 608.72 1333.61 636.183 1329.99 643.846C1324.64 655.206 1340.2 650.223 1340.2 650.223C1337.76 656.626 1350.54 655.233 1353.59 652.902C1359.56 648.133 1378.02 625.867 1378.07 628.145C1378.13 630.422 1359 654.67 1360.93 660.297C1362.86 665.924 1370.6 658.877 1375.07 652.875C1379.55 646.873 1392.67 630.208 1392.67 630.208C1403.34 621.835 1412.59 611.803 1420.07 600.494C1420.12 600.199 1422.75 596.957 1422.8 596.797Z" fill="#DB9C7F"/>
<path d="M1340.9 649.553L1367.01 618.419" stroke="black" stroke-miterlimit="10" stroke-linecap="round"/>
<path d="M1226.53 508.512L1320.46 449.889C1321.04 449.501 1321.59 449.081 1322.12 448.629L1353.08 416.772C1354.67 415.375 1356.53 414.334 1358.55 413.719C1360.57 413.103 1362.7 412.928 1364.79 413.205C1366.89 413.482 1368.9 414.204 1370.69 415.323C1372.48 416.442 1374.01 417.932 1375.18 419.692L1390.37 442.467C1391.95 444.835 1392.83 447.611 1392.88 450.461C1392.93 453.312 1392.16 456.118 1390.66 458.543L1368.86 493.803C1367.25 496.401 1364.89 498.44 1362.08 499.644C1344.57 507.146 1277.55 535.467 1237.59 546.747C1235.28 547.392 1232.86 547.469 1230.52 546.971C1228.17 546.473 1225.99 545.415 1224.15 543.887C1222.3 542.36 1220.86 540.408 1219.93 538.2C1219.01 535.991 1218.63 533.592 1218.84 531.206L1219.83 519.605C1220.03 517.369 1220.74 515.209 1221.9 513.288C1223.06 511.366 1224.64 509.733 1226.53 508.512Z" fill="#C1282D"/>
<path d="M1442.81 1094.14L1437.85 1127.89C1437.85 1127.89 1344.81 1163.64 1353.43 1164.17C1362.06 1164.71 1495.79 1156.89 1495.79 1156.89L1487.91 1095.64L1442.81 1094.14Z" fill="black"/>
<path d="M1468.74 548.006C1468.74 548.006 1476.16 619.383 1481.73 623.027C1485.75 625.502 1490.12 627.37 1494.69 628.574L1482.64 546.988L1468.74 548.006Z" stroke="#424242" stroke-miterlimit="10"/>
<path d="M1615.7 498.92C1615.7 498.92 1653.42 575.764 1642.49 618.553L1433.41 589.804L1437.86 509.879L1615.7 498.92Z" fill="#312E41"/>
<path d="M1621.43 514.487C1621.43 514.487 1591.97 569.226 1535.32 573.62" stroke="#424242" stroke-miterlimit="10" stroke-linecap="round"/>
<path d="M1574.13 561.938C1574.13 561.938 1585.57 597.413 1618.84 598.163" stroke="#424242" stroke-miterlimit="10" stroke-linecap="round"/>
<path d="M1433.38 589.804C1433.38 589.804 1377.35 789.28 1375.9 853.504L1416.83 1100.94C1416.83 1100.94 1455.88 1120.34 1496.54 1104.66C1498.2 1104.02 1475.94 976.325 1474.36 844.769L1591.25 600.092L1433.38 589.804Z" fill="#312E41"/>
<path d="M1643.37 610.193L1635.15 850.932L1727.13 1102.6C1727.13 1102.6 1688.58 1135.18 1639.92 1105.55L1539.96 865.882L1550.35 691.511L1506.77 665.12L1500.29 589.616L1643.37 610.193Z" fill="#312E41"/>
<path d="M1481.59 566.199L1525.98 599.637L1589.62 528.581L1435.04 550.659L1472.86 600.843L1481.59 566.199Z" fill="white"/>
<path d="M1608.18 532.975C1608.18 532.975 1633.57 595.403 1615.27 857.309C1615.27 857.309 1679.4 998.51 1712.66 1110.18" stroke="#424242" stroke-miterlimit="10" stroke-linecap="round"/>
<path d="M1514.86 671.363L1450.87 849.699L1478.33 1110.18" stroke="#424242" stroke-miterlimit="10" stroke-linecap="round"/>
<path d="M1235.74 543.719C1235.74 543.719 1236.97 549.962 1223.15 554.731C1209.33 559.5 1201.19 557.973 1201.19 557.973C1201.19 557.973 1170.17 521.4 1168.81 520.114C1167.44 518.828 1169.77 504.735 1178.96 499.108C1184.53 495.679 1206.12 501.252 1222.24 506.182C1227.67 507.845 1232.31 511.424 1235.3 516.254C1238.29 521.083 1239.43 526.835 1238.5 532.439C1238 536.29 1237.08 540.074 1235.74 543.719Z" fill="#DB9C7F"/>
<path d="M1210.19 533.993C1210.19 533.993 1184.82 530.322 1174.11 521.48C1174.11 521.48 1158.04 518.265 1154.72 520.275C1150.77 523.392 1146.11 525.498 1141.16 526.41C1133.8 527.643 1136.02 522.74 1143.84 515.693C1146.07 513.683 1151.88 506.556 1157.1 505.592C1164.49 503.769 1171.79 501.569 1178.96 499.001L1208.93 534.85" fill="#DB9C7F"/>
<path d="M1201.19 558.107C1201.19 558.107 1190.9 564.564 1187.29 564.403C1183.67 564.243 1180.27 562.072 1179.39 556.124C1179.39 556.124 1160.24 559.634 1166.29 545.139C1166.29 545.139 1154.74 543.263 1154.42 535.708C1154.42 535.708 1144.16 530.59 1146.39 522.311C1148.61 514.032 1180.86 514.836 1180.86 514.836L1215.04 532.198L1201.19 558.107Z" fill="#DB9C7F"/>
<path d="M1193.93 559.366C1193.93 559.366 1203.71 550.685 1203.14 547.229C1202.58 543.773 1200.79 541.87 1198.56 542.487C1195.59 543.397 1184.26 552.025 1179.39 555.883" stroke="#1A1C30" stroke-width="0.78" stroke-linecap="round" stroke-linejoin="round"/>
<path d="M1166.29 545.005C1166.29 545.005 1192.32 540.932 1192.56 536.967C1192.8 533.002 1190.98 528.018 1185.55 529.09C1179.09 530.376 1160.56 534.824 1154.42 534.69" stroke="#1A1C30" stroke-width="0.78" stroke-linecap="round" stroke-linejoin="round"/>
<path d="M1198.56 542.486C1198.56 542.486 1203.33 539.539 1201.46 536.217C1199.58 532.894 1196.98 531.742 1191.44 533.162" stroke="#1A1C30" stroke-width="0.78" stroke-linecap="round" stroke-linejoin="round"/>
<path d="M1153.94 523.972C1154.99 522.643 1156.14 521.389 1157.37 520.221" stroke="#1A1C30" stroke-width="0.78" stroke-linecap="round" stroke-linejoin="round"/>
<path d="M1132.37 449.477L1145.52 442.086L1213.12 562.395C1214.07 564.08 1214.3 566.072 1213.78 567.933C1213.26 569.794 1212.02 571.372 1210.34 572.319L1209.89 572.568C1209.06 573.037 1208.14 573.337 1207.19 573.451C1206.24 573.565 1205.28 573.491 1204.36 573.233C1203.44 572.974 1202.58 572.537 1201.82 571.946C1201.07 571.354 1200.44 570.621 1199.97 569.786L1132.37 449.477Z" fill="#333969"/>
<path d="M1165.75 468.751L1171.43 478.825C1171.82 479.415 1172.08 480.074 1172.21 480.766C1172.34 481.458 1172.34 482.169 1172.19 482.858C1172.05 483.548 1171.77 484.202 1171.37 484.783C1170.97 485.365 1170.47 485.862 1169.88 486.247L1157.61 493.133C1156.33 493.74 1154.86 493.816 1153.53 493.344C1152.19 492.872 1151.1 491.891 1150.49 490.614L1144.57 480.085" fill="#333969"/>
<path d="M1139.53 369.937C1116.07 326.425 1086.66 296.443 1067.96 294.916L1068.61 290.79L1058.83 297.14C1042.04 308.58 1050.96 359.648 1078.76 411.226C1106.56 462.803 1142.66 495.303 1159.46 483.889L1168.62 477.754L1165.94 474.217C1172.45 454.39 1162.38 412.351 1139.53 369.937Z" fill="#333969"/>
<path d="M1167.95 478.484C1185.85 469.158 1178.4 419.448 1151.32 367.453C1124.24 315.459 1087.78 280.87 1069.89 290.196C1051.99 299.522 1059.44 349.232 1086.52 401.226C1113.6 453.22 1150.06 487.81 1167.95 478.484Z" fill="#7584F1"/>
<path d="M1159.13 460.723C1171.54 454.189 1163.59 414.68 1141.39 372.476C1119.18 330.273 1091.12 301.357 1078.71 307.891C1066.3 314.424 1074.24 353.934 1096.45 396.137C1118.66 438.341 1146.72 467.257 1159.13 460.723Z" fill="#D3DDF7"/>
<path d="M1210.19 533.993C1210.19 533.993 1184.82 530.322 1174.11 521.48C1174.11 521.48 1158.04 518.265 1154.72 520.275C1150.77 523.392 1146.11 525.498 1141.16 526.41C1133.8 527.643 1136.02 522.74 1143.84 515.693C1146.07 513.683 1151.88 506.556 1157.1 505.592C1164.49 503.769 1171.79 501.569 1178.96 499.001L1208.93 534.85" fill="#DB9C7F"/>
<path d="M1210.19 533.993C1210.19 533.993 1184.82 530.322 1174.11 521.48C1174.11 521.48 1158.04 518.265 1154.72 520.275C1150.77 523.392 1146.11 525.498 1141.17 526.41" stroke="#1A1C30" stroke-width="0.78" stroke-linecap="round" stroke-linejoin="round"/>
<path d="M1140.01 369.91C1117.41 327.925 1089.63 300.248 1077.95 308.286C1077.02 308.97 1076.22 309.824 1075.6 310.804C1088.99 311.608 1112.64 337.222 1132.33 373.715C1153.14 412.378 1162.3 449.728 1154.53 461.597C1156.42 461.782 1158.31 461.308 1159.89 460.258C1171.51 452.327 1162.62 411.869 1140.01 369.91Z" fill="#333969"/>
<path d="M1134.46 401.781C1141.05 398.307 1136.82 377.286 1125.01 354.829C1113.19 332.372 1098.26 316.983 1091.67 320.457C1085.07 323.93 1089.3 344.951 1101.12 367.408C1112.93 389.865 1127.86 405.254 1134.46 401.781Z" fill="white"/>
<path d="M1574.08 425.292L1555.33 358.711C1548.37 334.259 1536.52 311.473 1520.51 291.727C1492.44 256.628 1418.73 259.816 1418.73 259.816L1362.06 300.891L1361.52 301.185C1328.04 319.646 1321.96 347.993 1322.84 391.988L1324.91 451.228L1363.34 414.494L1373.04 427.891C1373.04 427.516 1373.04 427.141 1373.04 426.793L1377.62 434.027L1373.14 427.891C1374.51 440.109 1380.88 471.243 1410.51 485.792L1427.38 512.344L1422.91 549.078C1581.29 606.683 1620.74 493.535 1620.74 493.535L1574.08 425.292Z" fill="#C1282D"/>
<path d="M1355.2 408.279L1375.96 433.652C1375.96 433.652 1373.12 472.77 1412.49 485.309" stroke="black" stroke-miterlimit="10" stroke-linecap="round"/>
<path d="M1512.61 459.936L1392.08 564.993C1392.08 564.993 1415.95 598.431 1426.71 599.61L1571.13 507.682" fill="#C1282D"/>
<path d="M1427.86 532.761C1427.86 532.761 1493.51 458.73 1516.25 447.986" stroke="black" stroke-miterlimit="10" stroke-linecap="round"/>
<path d="M1481.43 380.092C1481.43 380.092 1484.57 396.65 1505.54 454.845" stroke="black" stroke-miterlimit="10" stroke-linecap="round"/>
<path d="M1443.37 590.071C1443.37 590.071 1578.26 504.118 1579.44 479.04C1580.62 453.961 1545.42 337.544 1545.42 337.544" stroke="black" stroke-miterlimit="10" stroke-linecap="round"/>
<path d="M1458.16 468.296C1458.16 468.296 1490.62 471.35 1500.66 441.877" stroke="black" stroke-miterlimit="10" stroke-linecap="round"/>
<path d="M1326.7 446.352C1327.89 445.13 1329.33 444.181 1330.92 443.57C1332.51 442.959 1334.22 442.701 1335.92 442.813C1337.62 442.925 1339.28 443.405 1340.77 444.219C1342.27 445.034 1343.57 446.164 1344.59 447.531" stroke="black" stroke-miterlimit="10" stroke-linecap="round"/>
<path d="M1220.47 505.458L1239.65 496.482C1239.65 496.482 1262.93 521.856 1254.57 543.665L1231.29 550.524C1231.29 550.524 1241.98 526.652 1220.47 505.458Z" fill="white"/>
<path d="M1399.66 551.569C1399.66 551.569 1424.73 562.287 1442.52 593.206L1423.26 607.969C1423.26 607.969 1399.53 573.942 1383.08 568.583L1399.66 551.569Z" fill="white"/>
<path d="M1378.64 256.065L1457.7 261.88C1457.7 261.88 1460.7 305.392 1412.95 343.76L1391.52 322.915L1379.81 348.288C1379.81 348.288 1361.68 338.08 1359.24 308.768L1363.1 273.186L1378.64 256.065Z" fill="white"/>
<path d="M1418.81 259.924C1420.23 261.134 1421.3 262.692 1421.93 264.445C1422.56 266.197 1422.72 268.083 1422.4 269.918C1419.72 284.065 1412.2 318.333 1396.79 322.647C1377.35 328.006 1365.19 289.638 1365.19 289.638L1374.91 222.467L1418.81 259.924Z" fill="#DB9C7F"/>
<path d="M1357.15 275.839L1356.91 285.618C1356.75 285.618 1353.43 314.609 1363.13 315.707C1403.65 308.393 1406.2 269.944 1409.68 231.791C1409.68 231.791 1353.22 268.23 1357.15 275.839Z" fill="black"/>
<path d="M1289.68 203.845C1289.68 203.845 1279.83 298.024 1338.27 314.287C1396.71 330.551 1410.78 235.086 1408.77 202.103C1406.76 169.121 1392.05 156.823 1351.05 155.349C1290.54 153.072 1289.68 203.845 1289.68 203.845Z" fill="#DB9C7F"/>
<path d="M1342.24 249.34C1342.4 252.743 1340.79 255.556 1338.62 255.663C1336.45 255.771 1334.6 252.984 1334.41 249.742C1334.23 246.5 1335.86 243.499 1338.03 243.392C1340.2 243.285 1342.05 245.937 1342.24 249.34Z" fill="black"/>
<path d="M1348.64 231.978C1348.64 231.978 1329.33 240.391 1327.42 225.789" stroke="black" stroke-miterlimit="10" stroke-linecap="round"/>
<path d="M1303.93 232.032C1303.93 232.032 1297.53 243.124 1290.19 238.194" stroke="black" stroke-miterlimit="10" stroke-linecap="round"/>
<path d="M1293.7 251.725C1296.81 251.112 1300.03 251.696 1302.73 253.359" stroke="black" stroke-miterlimit="10" stroke-linecap="round"/>
<path d="M1350.97 286.851C1353.75 284.177 1357.02 282.074 1360.61 280.662" stroke="black" stroke-miterlimit="10" stroke-linecap="round"/>
<path d="M1311.46 262.576C1311 263.65 1310.77 264.81 1310.78 265.979C1310.79 267.149 1311.05 268.302 1311.54 269.365C1312.03 270.428 1312.73 271.377 1313.61 272.151C1314.48 272.924 1315.51 273.505 1316.63 273.856" stroke="black" stroke-miterlimit="10" stroke-linecap="round"/>
<path d="M1288.99 224.074C1288.99 224.074 1289.98 196.504 1302.19 180.937C1302.19 180.937 1318.99 219.117 1391.36 226.887L1412.44 222.466C1412.44 222.466 1421.06 178.257 1390.82 160.842C1360.58 143.426 1314.33 153.045 1299.46 168.719C1292.28 175.775 1287.42 184.86 1285.55 194.755C1283.68 204.65 1284.88 214.88 1288.99 224.074Z" fill="black"/>
<path d="M1377.32 221.85L1389.86 246.607L1398.7 218.796L1377.32 221.85Z" fill="black"/>
<path d="M1420.97 244.272C1424.67 231.143 1420.28 218.408 1411.16 215.829C1402.03 213.249 1391.63 221.802 1387.92 234.931C1384.21 248.06 1388.6 260.794 1397.73 263.374C1406.85 265.953 1417.26 257.401 1420.97 244.272Z" fill="#DB9C7F"/>
<path d="M1411.87 232.568C1411.87 232.568 1401.56 223.699 1395.94 239.909C1395.94 239.909 1401.96 246.313 1398.16 251.323C1399.86 251.68 1401.63 251.497 1403.22 250.801C1404.8 250.104 1406.14 248.929 1407.03 247.438" stroke="black" stroke-linecap="round" stroke-linejoin="round"/>
<path d="M1407.43 238.784C1406.66 235.829 1405.08 233.152 1402.85 231.067" stroke="black" stroke-linecap="round" stroke-linejoin="round"/>
<path d="M1412.44 263.032C1412.44 264.802 1411.91 266.532 1410.93 268.004C1409.95 269.475 1408.55 270.622 1406.91 271.3C1405.28 271.977 1403.48 272.154 1401.75 271.809C1400.01 271.463 1398.42 270.611 1397.17 269.36C1395.91 268.108 1395.06 266.514 1394.72 264.778C1394.37 263.042 1394.55 261.242 1395.23 259.607C1395.9 257.972 1397.05 256.574 1398.52 255.591C1399.99 254.608 1401.72 254.083 1403.49 254.083C1405.86 254.083 1408.14 255.026 1409.82 256.704C1411.49 258.382 1412.44 260.658 1412.44 263.032Z" fill="white"/>
<path d="M1387.39 172.282C1387.39 172.282 1398.38 114.864 1424.03 125.876C1449.69 136.888 1461.29 191.842 1436.86 196.129C1422 198.581 1406.73 195.997 1393.5 188.787L1387.39 172.282Z" fill="black"/>
<path d="M1387.69 188.868C1387.69 188.868 1430.14 224.315 1443.94 191.547" stroke="black" stroke-miterlimit="10" stroke-linecap="round"/>
<path d="M1548.1 690.145L1498.98 662.414" stroke="#424242" stroke-miterlimit="10" stroke-linecap="round"/>
<path d="M432.88 325.889C453.095 326.444 472.7 332.935 489.255 344.553C505.811 356.17 518.585 372.402 525.987 391.227C533.39 410.053 535.094 430.641 530.888 450.428C526.682 470.215 516.751 488.327 502.331 502.511C500.842 503.959 499.725 505.746 499.077 507.72C498.428 509.693 498.268 511.795 498.608 513.844L506.269 559.045L459.262 531.662C456.594 530.083 453.439 529.539 450.397 530.135C436.16 532.999 421.479 532.823 407.315 529.618C393.151 526.412 379.823 520.251 368.204 511.536C356.586 502.822 346.938 491.75 339.893 479.047C332.848 466.344 328.565 452.296 327.324 437.823C326.082 423.349 327.911 408.776 332.69 395.059C337.469 381.341 345.09 368.788 355.055 358.221C365.02 347.654 377.104 339.311 390.515 333.739C403.927 328.168 418.363 325.493 432.88 325.889Z" fill="#D3DDF7"/>
<path d="M425.407 464.732L425.139 440.056C428.527 439.263 431.822 438.113 434.969 436.626C437.769 435.334 440.397 433.695 442.79 431.75C444.958 429.971 446.845 427.876 448.388 425.534C449.898 423.266 451.055 420.782 451.816 418.165C452.608 415.468 453.005 412.67 452.995 409.859C453.003 405.665 451.918 401.542 449.847 397.896C447.775 394.249 444.789 391.207 441.183 389.068C437.061 386.69 432.36 385.502 427.603 385.638C422.035 385.614 416.584 387.236 411.934 390.3C406.552 394.194 402.659 399.808 400.899 406.215L398.221 404.447C400.079 397.913 404.031 392.171 409.47 388.103C414.266 384.784 419.878 382.839 425.699 382.481C431.52 382.122 437.328 383.362 442.495 386.067C446.747 388.395 450.28 391.843 452.712 396.037C455.143 400.232 456.381 405.012 456.289 409.859C456.321 413.593 455.658 417.3 454.334 420.791C453.03 424.2 451.155 427.362 448.79 430.142C446.303 433.051 443.364 435.539 440.085 437.51C436.512 439.673 432.627 441.272 428.567 442.253L428.273 464.732H425.407ZM423.532 483.086C423.495 481.954 423.855 480.845 424.55 479.951C424.923 479.574 425.368 479.275 425.857 479.071C426.347 478.867 426.872 478.762 427.402 478.762C427.933 478.762 428.458 478.867 428.947 479.071C429.437 479.275 429.881 479.574 430.255 479.951C430.874 480.904 431.174 482.03 431.112 483.166C431.123 484.265 430.795 485.341 430.174 486.247C429.845 486.683 429.414 487.03 428.919 487.259C428.424 487.488 427.88 487.591 427.335 487.56C426.799 487.598 426.261 487.512 425.764 487.307C425.267 487.103 424.824 486.786 424.469 486.381C423.781 485.426 423.45 484.26 423.532 483.086Z" fill="black"/>
</g>
<defs>
<clipPath id="clip0_37_481">
<rect width="1581" height="1094" fill="white" transform="translate(169 121)"/>
</clipPath>
</defs>
</svg>
