<svg width="1920" height="1356" viewBox="0 0 1920 1356" fill="none" xmlns="http://www.w3.org/2000/svg">
<path d="M744.409 533.656H196.489C190.126 533.656 184.969 538.513 184.969 544.504C184.969 550.495 190.126 555.352 196.489 555.352H744.409C750.771 555.352 755.929 550.495 755.929 544.504C755.929 538.513 750.771 533.656 744.409 533.656Z" fill="#E6EAED"></path>
<path d="M637.905 766.898H296.625V846.224H637.905V766.898Z" fill="#E6EAED"></path>
<path d="M318.945 511.945H296.625V985.189H318.945V511.945Z" fill="#E6EAED"></path>
<path d="M637.789 511.945H615.469V985.189H637.789V511.945Z" fill="#E6EAED"></path>
<path d="M412.054 745.008H527.614C538.222 745.008 548.397 748.976 555.898 756.04C563.399 763.104 567.614 772.685 567.614 782.674H372.094C372.094 772.691 376.303 763.116 383.795 756.053C391.288 748.991 401.452 745.018 412.054 745.008Z" fill="#E6EAED"></path>
<path d="M231.799 460.63C231.799 454.889 226.856 450.234 220.759 450.234C214.662 450.234 209.719 454.889 209.719 460.63V626.552C209.719 632.294 214.662 636.948 220.759 636.948C226.856 636.948 231.799 632.294 231.799 626.552V460.63Z" fill="#E6EAED"></path>
<path d="M255.611 460.63C255.611 454.889 250.668 450.234 244.571 450.234C238.474 450.234 233.531 454.889 233.531 460.63V626.552C233.531 632.294 238.474 636.948 244.571 636.948C250.668 636.948 255.611 632.294 255.611 626.552V460.63Z" fill="#E6EAED"></path>
<path d="M279.33 460.63C279.33 454.889 274.387 450.234 268.29 450.234C262.193 450.234 257.25 454.889 257.25 460.63V626.552C257.25 632.294 262.193 636.948 268.29 636.948C274.387 636.948 279.33 632.294 279.33 626.552V460.63Z" fill="#E6EAED"></path>
<path d="M680.58 460.63C680.58 454.889 675.637 450.234 669.54 450.234C663.443 450.234 658.5 454.889 658.5 460.63V626.552C658.5 632.294 663.443 636.948 669.54 636.948C675.637 636.948 680.58 632.294 680.58 626.552V460.63Z" fill="#E6EAED"></path>
<path d="M704.299 460.63C704.299 454.889 699.356 450.234 693.259 450.234C687.162 450.234 682.219 454.889 682.219 460.63V626.552C682.219 632.294 687.162 636.948 693.259 636.948C699.356 636.948 704.299 632.294 704.299 626.552V460.63Z" fill="#E6EAED"></path>
<path d="M728.111 460.63C728.111 454.889 723.168 450.234 717.071 450.234C710.974 450.234 706.031 454.889 706.031 460.63V626.552C706.031 632.294 710.974 636.948 717.071 636.948C723.168 636.948 728.111 632.294 728.111 626.552V460.63Z" fill="#E6EAED"></path>
<path d="M1796.67 982.484H104.25C102.179 982.484 100.5 984.065 100.5 986.016C100.5 987.966 102.179 989.547 104.25 989.547H1796.67C1798.74 989.547 1800.42 987.966 1800.42 986.016C1800.42 984.065 1798.74 982.484 1796.67 982.484Z" fill="#D5DADE"></path>
<path d="M1668.86 927.039H1458.47V935.627H1668.86V927.039Z" fill="#E6EAED"></path>
<path d="M1481.24 880.25H1464.74C1461.28 880.25 1458.47 882.893 1458.47 886.154V976.724C1458.47 979.985 1461.28 982.628 1464.74 982.628H1481.24C1484.7 982.628 1487.51 979.985 1487.51 976.724V886.154C1487.51 882.893 1484.7 880.25 1481.24 880.25Z" fill="#E6EAED"></path>
<path d="M1448.49 883.25H1442.46C1440.01 883.25 1438.03 885.118 1438.03 887.422V975.223C1438.03 977.527 1440.01 979.394 1442.46 979.394H1448.49C1450.94 979.394 1452.92 977.527 1452.92 975.223V887.422C1452.92 885.118 1450.94 883.25 1448.49 883.25Z" fill="#E6EAED"></path>
<path d="M1429.27 891.992H1428.6C1426.87 891.992 1425.47 893.312 1425.47 894.94V967.815C1425.47 969.443 1426.87 970.763 1428.6 970.763H1429.27C1431 970.763 1432.4 969.443 1432.4 967.815V894.94C1432.4 893.312 1431 891.992 1429.27 891.992Z" fill="#E6EAED"></path>
<path d="M1412.77 927.656H1432.34V935.067H1412.77C1412.16 935.067 1411.57 934.839 1411.14 934.433C1410.71 934.027 1410.47 933.476 1410.47 932.901V929.85C1410.46 929.564 1410.52 929.279 1410.64 929.013C1410.75 928.747 1410.92 928.505 1411.13 928.301C1411.35 928.096 1411.6 927.934 1411.88 927.824C1412.16 927.713 1412.46 927.656 1412.77 927.656Z" fill="#E6EAED"></path>
<path d="M1646.82 982.484H1663.32C1666.79 982.484 1669.59 979.841 1669.59 976.58V886.011C1669.59 882.75 1666.79 880.106 1663.32 880.106H1646.82C1643.36 880.106 1640.55 882.75 1640.55 886.011V976.58C1640.55 979.841 1643.36 982.484 1646.82 982.484Z" fill="#E6EAED"></path>
<path d="M1679.65 979.484H1685.69C1688.14 979.484 1690.12 977.617 1690.12 975.313V887.512C1690.12 885.208 1688.14 883.34 1685.69 883.34H1679.65C1677.21 883.34 1675.22 885.208 1675.22 887.512V975.313C1675.22 977.617 1677.21 979.484 1679.65 979.484Z" fill="#E6EAED"></path>
<path d="M1698.79 970.742H1699.46C1701.19 970.742 1702.59 969.423 1702.59 967.795V894.919C1702.59 893.291 1701.19 891.972 1699.46 891.972H1698.79C1697.07 891.972 1695.66 893.291 1695.66 894.919V967.795C1695.66 969.423 1697.07 970.742 1698.79 970.742Z" fill="#E6EAED"></path>
<path d="M1715.29 935.078H1695.72V927.667H1715.29C1715.9 927.667 1716.49 927.895 1716.92 928.302C1717.35 928.708 1717.59 929.259 1717.59 929.833V932.884C1717.6 933.171 1717.54 933.456 1717.43 933.722C1717.31 933.988 1717.14 934.23 1716.93 934.434C1716.72 934.638 1716.46 934.8 1716.18 934.911C1715.9 935.021 1715.6 935.078 1715.29 935.078Z" fill="#E6EAED"></path>
<path d="M1513.97 309.422H1489.97V489.77H1513.97V309.422Z" fill="#E6EAED"></path>
<path d="M1686.75 309.422H1662.75V489.77H1686.75V309.422Z" fill="#E6EAED"></path>
<path d="M1732.6 399.648H1442.32C1437.88 399.648 1434.28 403.038 1434.28 407.219C1434.28 411.401 1437.88 414.79 1442.32 414.79H1732.6C1737.04 414.79 1740.64 411.401 1740.64 407.219C1740.64 403.038 1737.04 399.648 1732.6 399.648Z" fill="#E6EAED"></path>
<path d="M1602.48 414.484H1572.42C1568.1 414.484 1564.59 417.786 1564.59 421.858C1564.59 425.93 1568.1 429.231 1572.42 429.231H1602.48C1606.81 429.231 1610.31 425.93 1610.31 421.858C1610.31 417.786 1606.81 414.484 1602.48 414.484Z" fill="#E6EAED"></path>
<path d="M1589.68 428.609H1585.12V442.96H1589.68V428.609Z" fill="#E6EAED"></path>
<path d="M1594.3 442.82H1580.53V463.311H1594.3V442.82Z" fill="#E6EAED"></path>
<path d="M1632.12 520.739C1632.12 531.957 1627.39 542.716 1618.96 550.649C1610.54 558.582 1599.11 563.038 1587.2 563.038C1575.29 563.038 1563.86 558.582 1555.44 550.649C1547.01 542.716 1542.28 531.957 1542.28 520.739C1542.28 510.757 1544.86 505.672 1552.1 494.372C1559.34 483.072 1580.32 463.297 1580.32 463.297H1594.05C1603.88 471.301 1617.4 488.213 1622.31 494.475C1627.22 500.738 1632.12 510.813 1632.12 520.739Z" fill="#E6EAED"></path>
<path d="M950.404 376.633C988.545 376.633 1019.46 347.518 1019.46 311.602C1019.46 275.686 988.545 246.57 950.404 246.57C912.263 246.57 881.344 275.686 881.344 311.602C881.344 347.518 912.263 376.633 950.404 376.633Z" fill="#E6EAED"></path>
<path d="M950.506 364.995C981.766 364.995 1007.11 341.133 1007.11 311.697C1007.11 282.261 981.766 258.398 950.506 258.398C919.247 258.398 893.906 282.261 893.906 311.697C893.906 341.133 919.247 364.995 950.506 364.995Z" fill="white"></path>
<path d="M950.685 269.808L953.315 314.612L947.625 314.547L950.455 269.789L950.685 269.808Z" fill="#E6EAED"></path>
<path d="M916.811 311.904L953.841 308.984L953.751 314.342L916.781 312.12L916.811 311.904Z" fill="#E6EAED"></path>
<path d="M952.368 311.665C952.358 312.026 952.236 312.376 952.015 312.672C951.795 312.967 951.487 313.195 951.13 313.327C950.773 313.459 950.383 313.489 950.008 313.413C949.633 313.337 949.29 313.158 949.023 312.899C948.755 312.641 948.574 312.314 948.503 311.959C948.431 311.604 948.473 311.237 948.622 310.904C948.771 310.572 949.021 310.288 949.34 310.088C949.66 309.888 950.035 309.781 950.418 309.781C950.679 309.78 950.937 309.828 951.178 309.923C951.418 310.018 951.636 310.157 951.818 310.333C952 310.509 952.143 310.717 952.237 310.946C952.332 311.175 952.376 311.419 952.368 311.665Z" fill="#D5DADE"></path>
<path d="M791.919 1037.75C790.415 1037.75 788.926 1038.03 787.537 1038.57C786.148 1039.11 784.886 1039.91 783.822 1040.91C782.759 1041.91 781.916 1043.1 781.34 1044.41C780.765 1045.71 780.469 1047.12 780.469 1048.53V1098.66C780.474 1101.51 781.683 1104.25 783.829 1106.27C785.976 1108.29 788.885 1109.42 791.919 1109.42H792.059C793.563 1109.42 795.053 1109.14 796.444 1108.6C797.834 1108.06 799.097 1107.27 800.162 1106.27C801.226 1105.26 802.07 1104.08 802.646 1102.77C803.222 1101.46 803.519 1100.05 803.519 1098.64V1048.51C803.515 1047.1 803.215 1045.69 802.635 1044.39C802.055 1043.08 801.208 1041.89 800.141 1040.89C799.074 1039.89 797.809 1039.1 796.417 1038.56C795.025 1038.02 793.534 1037.75 792.029 1037.75H791.919Z" fill="#D5DADE"></path>
<path d="M780.54 1064.76H681.75V1078.73H780.54V1064.76Z" fill="#D5DADE"></path>
<path d="M815.904 1041.8H814.964C809.375 1041.8 804.844 1046.07 804.844 1051.33V1095.78C804.844 1101.04 809.375 1105.31 814.964 1105.31H815.904C821.493 1105.31 826.024 1101.04 826.024 1095.78V1051.33C826.024 1046.07 821.493 1041.8 815.904 1041.8Z" fill="#D5DADE"></path>
<path d="M674.54 1037.75C676.046 1037.74 677.539 1038.02 678.932 1038.56C680.326 1039.09 681.593 1039.88 682.662 1040.88C683.73 1041.88 684.578 1043.07 685.158 1044.38C685.738 1045.69 686.037 1047.1 686.04 1048.51V1098.64C686.041 1100.05 685.746 1101.46 685.171 1102.77C684.596 1104.07 683.753 1105.26 682.689 1106.27C681.626 1107.27 680.363 1108.06 678.973 1108.6C677.583 1109.14 676.094 1109.42 674.59 1109.42H674.45C671.413 1109.42 668.501 1108.28 666.354 1106.26C664.206 1104.24 663 1101.5 663 1098.64V1048.51C663.005 1045.67 664.207 1042.93 666.343 1040.92C668.479 1038.9 671.375 1037.76 674.4 1037.75H674.54Z" fill="#D5DADE"></path>
<path d="M650.534 1105.28H651.474C657.063 1105.28 661.594 1101.01 661.594 1095.75V1051.3C661.594 1046.04 657.063 1041.78 651.474 1041.78H650.534C644.945 1041.78 640.414 1046.04 640.414 1051.3V1095.75C640.414 1101.01 644.945 1105.28 650.534 1105.28Z" fill="#D5DADE"></path>
<path d="M646.089 721.17C646.089 721.17 639.309 752.64 649.479 771.332C659.649 790.024 671.269 800.524 673.209 805.995C675.149 811.466 675.629 848.37 682.409 861.629C689.189 874.887 686.279 881.696 686.279 881.696C686.279 881.696 676.599 925.474 684.829 942.348C693.059 959.223 694.509 990.694 697.899 1003.46C700.516 1014.27 702.298 1025.25 703.229 1036.3C703.229 1038.12 699.839 1060.01 697.419 1061.84C694.999 1063.66 688.219 1061.84 687.729 1069.13C687.239 1076.43 687.729 1091.48 689.189 1093.3C690.649 1095.12 695.479 1096.49 697.899 1095.58C699.284 1095.03 700.759 1094.71 702.259 1094.63H725.509C728.419 1094.63 736.159 1094.17 740.509 1090.53C744.859 1086.88 744.389 1073.19 743.419 1066.81C742.449 1060.42 737.609 1041.27 737.609 1020.75C737.609 1000.23 746.319 952.801 746.319 930.003C746.319 907.205 740.509 880.293 739.539 875.735C738.569 871.177 734.219 827.851 736.639 810.976C739.059 794.102 737.639 784.977 698.379 752.141C659.119 719.305 658.189 710.228 646.089 721.17Z" fill="#FFB5A3"></path>
<path d="M687.281 867.973C688.776 870.089 690.702 871.904 692.947 873.314C695.192 874.723 697.712 875.699 700.361 876.185C709.561 878.012 718.761 876.646 717.791 857.031" fill="#FFB5A3"></path>
<path d="M886.219 871.834C886.219 871.834 1011.07 952.196 1049.91 959.701C1088.75 967.206 1143.38 971.001 1143.38 971.001C1143.38 971.001 1176.69 984.796 1214 996.087C1251.31 1007.38 1261 1001.27 1278.81 1008.71C1296.62 1016.16 1334.54 1020.96 1349.81 1036.7C1365.08 1052.45 1374.98 1057.42 1380.42 1068.14C1385.86 1078.87 1377.86 1092.7 1385.85 1098.97C1393.84 1105.24 1392.59 1082.48 1395.85 1068.14C1399.11 1053.8 1399.14 1028.72 1399.14 1012.41C1399.14 996.096 1400.47 981.039 1384.48 978.506C1368.49 975.973 1370.11 983.035 1348.48 977.253C1326.85 971.472 1259.21 952.158 1259.21 952.158L918.109 843L886.219 871.834Z" fill="#FFB5A3"></path>
<path d="M886.219 871.853C886.219 871.853 1011.07 952.214 1049.91 959.72C1069.91 963.59 1094.21 966.462 1112.98 968.336C1130.16 958.232 1126.06 944.625 1126.06 944.625L1104.48 902.617L918.199 843L886.219 871.853Z" fill="#c1272d" class="changeColor"></path>
<path d="M876.097 869.692C876.097 869.692 955.867 903.592 972.367 911.37C988.867 919.148 1071.37 946.325 1090.91 948.265C1110.45 950.205 1147.61 956.024 1147.61 956.024C1147.61 956.024 1183.69 976.411 1205.34 983.21C1226.99 990.009 1295.02 1005.54 1308.42 1009.42C1321.82 1013.3 1377.49 1045.33 1382.65 1049.22C1387.81 1053.11 1403.26 1084.17 1402.23 1091.93C1401.2 1099.68 1408.42 1110.37 1412.54 1109.4C1416.66 1108.43 1433.16 1064.75 1430.06 1047.25C1426.96 1029.76 1417.69 1014.29 1417.69 1005.52C1417.69 996.742 1419.76 986.101 1409.45 985.131C1399.14 984.161 1391.45 989.557 1379.07 989.557C1366.69 989.557 1349.66 989.981 1326.98 971.543C1304.3 953.105 1283.68 931.739 1247.6 923.979C1211.52 916.22 1178.54 911.351 1167.2 906.502C1155.86 901.652 1102.2 868.647 1099.2 865.728C1096.2 862.809 1036.32 810.405 1036.32 810.405C1036.32 810.405 995.087 768.661 968.317 767.691C941.547 766.721 911.227 774.734 911.227 774.734C911.227 774.734 875.707 832.864 876.097 869.692Z" fill="#FFB5A3"></path>
<path d="M1037.59 808.696C1037.59 808.696 996.017 765.511 968.997 764.513C941.977 763.515 911.437 771.802 911.437 771.802C911.437 771.802 875.707 831.908 876.097 870.008C876.097 870.008 956.527 905.094 973.157 913.127C989.787 921.159 1072.93 949.277 1092.68 951.283C1099.31 951.961 1107.93 953.091 1116.46 954.287C1138.66 928.382 1141.46 904.228 1141.09 891.77C1122.84 880.602 1102.85 867.729 1100.99 865.931C1097.87 862.917 1037.59 808.696 1037.59 808.696Z" fill="#c1272d" class="changeColor"></path>
<path d="M494.611 630.907C494.611 630.907 464.331 685.1 471.681 698.538C479.031 711.975 487.681 716.872 487.681 716.872C487.681 716.872 512.341 736.845 516.681 738.879C521.021 740.913 535.681 738.06 535.681 738.06L542.601 742.137C542.601 742.137 554.281 757.618 557.311 757.204C560.341 756.789 571.591 748.239 571.591 748.239C571.591 748.239 612.691 752.721 615.721 747.834C618.751 742.947 619.181 728.276 619.181 728.276H638.181C638.181 728.276 655.351 730.526 657.751 753.107C659.691 771.348 671.311 790.049 693.561 806.5C701.321 812.244 752.841 841.954 780.561 850.909C808.281 859.864 876.181 869.658 876.181 869.658C876.181 869.658 899.551 847.651 906.041 814.24C912.531 780.83 911.231 774.69 911.231 774.69C911.231 774.69 885.701 754.322 878.351 746.987C871.001 739.651 817.351 693.613 779.701 673.245C742.051 652.876 703.111 657.349 684.511 661.003C665.911 664.657 630.861 663.442 624.801 656.926C618.741 650.409 575.081 613.797 556.921 608.091C538.761 602.384 506.731 609.72 494.611 630.907Z" fill="#FFB5A3"></path>
<path d="M619.217 728.806C619.061 728.796 618.916 728.73 618.811 728.621C618.706 728.512 618.651 728.369 618.657 728.222L619.957 705.811C619.958 705.737 619.975 705.664 620.007 705.597C620.04 705.529 620.086 705.469 620.144 705.42C620.203 705.37 620.271 705.332 620.345 705.309C620.42 705.286 620.498 705.277 620.577 705.283C620.654 705.287 620.73 705.305 620.8 705.336C620.87 705.368 620.933 705.412 620.985 705.466C621.037 705.52 621.077 705.583 621.103 705.652C621.129 705.721 621.141 705.794 621.137 705.867L619.837 728.279C619.834 728.352 619.816 728.424 619.783 728.491C619.75 728.558 619.704 728.617 619.646 728.667C619.588 728.716 619.52 728.754 619.446 728.778C619.373 728.801 619.294 728.811 619.217 728.806Z" fill="#1A2E35"></path>
<path d="M624.691 656.803C618.131 649.891 574.961 613.731 556.921 608.072C538.881 602.413 506.731 609.701 494.611 630.889C494.611 630.889 464.331 685.082 471.681 698.519C474.845 704.558 479.179 709.988 484.461 714.527L484.661 714.424C484.661 714.424 485.961 696.09 495.481 684.677C505.001 673.264 519.281 687.502 522.741 694.461C526.201 701.419 536.151 700.977 540.911 697.286C545.671 693.594 550.861 687.502 555.621 688.726C560.381 689.95 566.441 691.984 563.841 686.692C561.241 681.4 547.841 673.65 556.051 663.461C564.261 653.272 586.341 664.685 588.501 671.616L590.671 678.537C597.239 676.457 603.491 673.583 609.271 669.987C616.001 665.872 621.541 662.472 624.691 656.803Z" fill="#2F2E41"></path>
<path d="M674.536 740.634C674.401 740.635 674.271 740.592 674.166 740.512C665.716 734.146 638.346 728.854 638.066 728.807C637.912 728.777 637.777 728.691 637.691 728.567C637.605 728.444 637.574 728.293 637.606 728.148C637.638 728.003 637.73 727.876 637.861 727.795C637.992 727.714 638.152 727.685 638.306 727.715C639.446 727.931 666.236 733.11 674.906 739.636C675 739.71 675.067 739.809 675.099 739.919C675.132 740.03 675.128 740.147 675.088 740.256C675.047 740.364 674.973 740.458 674.875 740.526C674.776 740.594 674.658 740.631 674.536 740.634Z" fill="#2F2E41"></path>
<path d="M716.916 796.79C716.85 796.804 716.781 796.804 716.715 796.79C707.055 793.466 696.546 784.492 689.416 777.552C689.307 777.445 689.247 777.303 689.25 777.155C689.253 777.008 689.318 776.868 689.431 776.765C689.543 776.663 689.695 776.607 689.851 776.609C690.008 776.612 690.157 776.673 690.266 776.779C697.266 783.635 707.676 792.496 717.116 795.745C717.189 795.769 717.257 795.807 717.316 795.856C717.374 795.905 717.421 795.965 717.455 796.031C717.488 796.098 717.507 796.17 717.511 796.244C717.514 796.318 717.502 796.391 717.475 796.46C717.427 796.561 717.348 796.646 717.248 796.704C717.148 796.763 717.033 796.792 716.916 796.79Z" fill="#2F2E41"></path>
<path d="M684.258 772.021C684.175 772.02 684.093 772.003 684.017 771.971C683.941 771.938 683.874 771.892 683.818 771.833C680.278 768.066 678.048 765.354 678.028 765.326C677.933 765.209 677.891 765.06 677.911 764.914C677.932 764.767 678.014 764.634 678.138 764.545C678.263 764.455 678.42 764.415 678.576 764.435C678.732 764.454 678.873 764.531 678.968 764.648C678.968 764.648 681.188 767.351 684.708 771.099C684.815 771.204 684.875 771.344 684.875 771.489C684.875 771.635 684.815 771.775 684.708 771.88C684.584 771.982 684.422 772.032 684.258 772.021Z" fill="#2F2E41"></path>
<path d="M852.589 775.899C852.464 775.899 852.343 775.861 852.242 775.792C852.142 775.723 852.067 775.625 852.029 775.513C851.981 775.373 851.993 775.221 852.062 775.089C852.131 774.957 852.252 774.856 852.399 774.807C854.919 774.016 857.449 773.093 859.919 772.076C859.991 772.042 860.069 772.022 860.15 772.017C860.23 772.012 860.31 772.023 860.386 772.048C860.462 772.074 860.531 772.114 860.59 772.166C860.649 772.217 860.696 772.28 860.728 772.35C860.76 772.419 860.777 772.494 860.777 772.57C860.777 772.646 860.761 772.721 860.729 772.79C860.697 772.86 860.651 772.923 860.592 772.975C860.534 773.027 860.465 773.067 860.389 773.093C857.889 774.129 855.329 775.061 852.779 775.862C852.72 775.888 852.655 775.901 852.589 775.899Z" fill="#2F2E41"></path>
<path d="M825.36 780.135C807.36 780.135 795.12 774.824 794.96 774.758C794.82 774.693 794.712 774.579 794.659 774.44C794.607 774.301 794.615 774.148 794.68 774.014C794.713 773.948 794.76 773.888 794.818 773.839C794.876 773.79 794.943 773.752 795.017 773.727C795.09 773.703 795.168 773.692 795.246 773.696C795.324 773.7 795.4 773.719 795.47 773.75C795.67 773.835 816.4 782.809 843.57 777.15C843.647 777.13 843.727 777.126 843.806 777.136C843.885 777.147 843.96 777.172 844.028 777.211C844.096 777.249 844.156 777.3 844.202 777.361C844.249 777.422 844.282 777.491 844.299 777.564C844.317 777.637 844.318 777.712 844.304 777.786C844.29 777.86 844.26 777.93 844.216 777.992C844.172 778.055 844.116 778.108 844.049 778.15C843.983 778.191 843.908 778.219 843.83 778.233C837.765 779.498 831.572 780.135 825.36 780.135Z" fill="#2F2E41"></path>
<path d="M879.826 826.43C879.688 826.433 879.553 826.39 879.446 826.307C870.596 819.367 859.216 809.047 855.316 799.253C855.264 799.115 855.271 798.962 855.336 798.829C855.402 798.695 855.52 798.591 855.666 798.538C855.738 798.511 855.816 798.498 855.894 798.5C855.972 798.502 856.049 798.519 856.12 798.55C856.191 798.581 856.255 798.625 856.307 798.679C856.36 798.734 856.4 798.798 856.426 798.867C860.236 808.435 871.426 818.642 880.206 825.451C880.325 825.546 880.399 825.681 880.412 825.828C880.425 825.974 880.376 826.12 880.276 826.232C880.221 826.295 880.153 826.345 880.075 826.38C879.997 826.414 879.912 826.431 879.826 826.43Z" fill="#2F2E41"></path>
<path d="M890.022 833.933C889.901 833.934 889.783 833.901 889.682 833.838C889.682 833.838 887.912 832.68 885.232 830.759C885.17 830.716 885.119 830.661 885.08 830.598C885.041 830.536 885.015 830.467 885.005 830.395C884.995 830.323 885 830.25 885.02 830.18C885.04 830.11 885.075 830.044 885.122 829.987C885.168 829.927 885.226 829.876 885.292 829.838C885.359 829.799 885.434 829.774 885.511 829.763C885.589 829.753 885.668 829.757 885.744 829.776C885.819 829.795 885.89 829.829 885.952 829.874C888.602 831.757 890.342 832.906 890.362 832.916C890.488 833.001 890.575 833.129 890.603 833.273C890.631 833.417 890.598 833.566 890.512 833.688C890.458 833.763 890.385 833.825 890.3 833.868C890.214 833.911 890.119 833.933 890.022 833.933Z" fill="#2F2E41"></path>
<path d="M805.616 1037.75C802.579 1037.75 799.665 1038.89 797.516 1040.91C795.367 1042.93 794.159 1045.67 794.156 1048.53V1098.66C794.156 1100.07 794.453 1101.48 795.029 1102.79C795.605 1104.09 796.449 1105.28 797.513 1106.28C798.578 1107.29 799.841 1108.08 801.231 1108.62C802.622 1109.16 804.112 1109.44 805.616 1109.44H805.746C807.251 1109.44 808.741 1109.16 810.131 1108.62C811.521 1108.08 812.785 1107.29 813.849 1106.28C814.913 1105.28 815.758 1104.09 816.334 1102.79C816.91 1101.48 817.206 1100.07 817.206 1098.66V1048.53C817.204 1045.67 815.995 1042.93 813.846 1040.91C811.697 1038.89 808.784 1037.75 805.746 1037.75H805.616Z" fill="#363649"></path>
<path d="M794.04 1064.76H695.25V1078.73H794.04V1064.76Z" fill="#2F2E41"></path>
<path d="M829.404 1041.8H828.464C822.875 1041.8 818.344 1046.07 818.344 1051.33V1095.78C818.344 1101.04 822.875 1105.31 828.464 1105.31H829.404C834.993 1105.31 839.524 1101.04 839.524 1095.78V1051.33C839.524 1046.07 834.993 1041.8 829.404 1041.8Z" fill="#2F2E41"></path>
<path d="M688.09 1037.75C691.128 1037.75 694.041 1038.89 696.19 1040.91C698.339 1042.93 699.547 1045.67 699.55 1048.53V1098.66C699.55 1100.07 699.253 1101.48 698.677 1102.79C698.101 1104.09 697.257 1105.28 696.193 1106.28C695.129 1107.29 693.865 1108.08 692.475 1108.62C691.084 1109.16 689.594 1109.44 688.09 1109.44H687.95C684.913 1109.44 682.001 1108.3 679.854 1106.28C677.706 1104.26 676.5 1101.52 676.5 1098.66V1048.53C676.5 1047.12 676.796 1045.71 677.372 1044.41C677.947 1043.1 678.79 1041.91 679.854 1040.91C680.917 1039.91 682.179 1039.11 683.568 1038.57C684.957 1038.03 686.446 1037.75 687.95 1037.75H688.09Z" fill="#363649"></path>
<path d="M664.221 1105.28H665.161C670.75 1105.28 675.281 1101.01 675.281 1095.75V1051.3C675.281 1046.04 670.75 1041.78 665.161 1041.78H664.221C658.632 1041.78 654.101 1046.04 654.101 1051.3V1095.75C654.101 1101.01 658.632 1105.28 664.221 1105.28Z" fill="#2F2E41"></path>
<path d="M695.315 672C695.315 672 681.035 702.133 690.115 729.037C699.195 755.94 719.545 779.972 719.545 779.972C719.545 779.972 712.185 812.563 716.945 832.526C721.705 852.489 730.785 884.685 731.225 886.314C731.665 887.943 722.135 914.423 732.525 939.283C742.915 964.143 751.125 1023.62 751.125 1032.18C751.125 1040.74 749.825 1042.77 749.825 1042.77C749.825 1042.77 742.035 1044.4 736.415 1046.03C730.795 1047.66 727.765 1054.99 726.465 1058.66C725.165 1062.32 719.105 1063.96 720.835 1066.8C722.565 1069.65 731.655 1069.63 731.655 1069.63L736.415 1091.22C736.415 1091.22 733.415 1095.3 737.285 1096.12C741.155 1096.94 751.555 1093.67 751.555 1093.67C751.555 1093.67 755.885 1095.3 759.775 1094.49C763.665 1093.68 766.705 1092.04 767.995 1092.44C769.397 1093 770.922 1093.21 772.434 1093.07C773.945 1092.93 775.396 1092.43 776.655 1091.63C780.545 1089.19 781.415 1089.19 783.145 1085.93C784.875 1082.67 785.305 1085.93 785.305 1078.59C785.305 1071.26 784.875 1052.11 785.305 1041.52C785.735 1030.93 788.765 943.737 788.765 943.737C788.765 943.737 789.205 877.726 787.035 869.985C784.865 862.245 783.145 853.28 783.145 853.28C783.145 853.28 798.725 814.983 797.425 795.424C796.125 775.866 791.365 765.291 791.795 761.204C792.225 757.117 793.095 718.01 793.095 718.01" fill="#FFB5A3"></path>
<path d="M775.385 738.828C775.385 738.828 773.655 760.826 748.125 773.868Z" fill="#FFB5A3"></path>
<path d="M778.405 819.516C778.405 819.516 772.345 828.075 767.585 832.143C762.825 836.211 762.825 847.624 752.875 847.624H742.875" fill="#FFB5A3"></path>
<path d="M772.785 863.477C772.785 863.477 781.015 900.145 779.275 905.852C777.535 911.558 770.625 927.444 770.625 927.444" fill="#FFB5A3"></path>
<path d="M787.04 870.016C786.395 873.917 784.926 877.657 782.72 881.014L779.25 885.902" fill="#FFB5A3"></path>
<path d="M1135.52 509.469H1075.59V533.02H1135.52V509.469Z" fill="#E7EDF2"></path>
<path d="M1090.52 478.047H1030.59V501.598H1090.52V478.047Z" fill="#E7EDF2"></path>
<path d="M1159.34 478.047H1099.41V501.598H1159.34V478.047Z" fill="#E7EDF2"></path>
<path d="M1120.52 446.617H1060.59V470.168H1120.52V446.617Z" fill="#E7EDF2"></path>
<path d="M1201.52 509.469H1141.59V533.02H1201.52V509.469Z" fill="#E7EDF2"></path>
<path d="M1728.82 738.828H1788.75V715.277H1728.82V738.828Z" fill="#E7EDF2"></path>
<path d="M1773.82 707.398H1833.75V683.847H1773.82V707.398Z" fill="#E7EDF2"></path>
<path d="M1705.1 707.398H1765.03V683.847H1705.1V707.398Z" fill="#E7EDF2"></path>
<path d="M1743.82 675.969H1803.75V652.418H1743.82V675.969Z" fill="#E7EDF2"></path>
<path d="M1662.82 738.828H1722.75V715.277H1662.82V738.828Z" fill="#E7EDF2"></path>
<path d="M152.32 687.797H212.25V664.246H152.32V687.797Z" fill="#E7EDF2"></path>
<path d="M197.32 719.227H257.25V695.675H197.32V719.227Z" fill="#E7EDF2"></path>
<path d="M128.601 719.227H188.531V695.675H128.601V719.227Z" fill="#E7EDF2"></path>
<path d="M167.32 750.656H227.25V727.105H167.32V750.656Z" fill="#E7EDF2"></path>
<path d="M86.32 687.797H146.25V664.246H86.32V687.797Z" fill="#E7EDF2"></path>
<path d="M401.555 328.672H341.625V352.223H401.555V328.672Z" fill="#E7EDF2"></path>
<path d="M356.555 297.242H296.625V320.793H356.555V297.242Z" fill="#E7EDF2"></path>
<path d="M425.18 297.242H365.25V320.793H425.18V297.242Z" fill="#E7EDF2"></path>
<path d="M386.461 265.812H326.531V289.364H386.461V265.812Z" fill="#E7EDF2"></path>
<path d="M467.461 328.672H407.531V352.223H467.461V328.672Z" fill="#E7EDF2"></path>
</svg>