<svg width="1920" height="1337" viewBox="0 0 1920 1337" fill="none" xmlns="http://www.w3.org/2000/svg">
<g clip-path="url(#clip0_37_481)">
<path d="M797.902 998.802C1130.88 998.802 1400.8 806.328 1400.8 568.901C1400.8 331.473 1130.88 139 797.902 139C464.928 139 195 331.473 195 568.901C195 806.328 464.928 998.802 797.902 998.802Z" fill="#F5F5FF"/>
<path d="M1448.78 1174.41C1600.78 1174.41 1724 1157.31 1724 1136.21C1724 1115.12 1600.78 1098.02 1448.78 1098.02C1296.77 1098.02 1173.55 1115.12 1173.55 1136.21C1173.55 1157.31 1296.77 1174.41 1448.78 1174.41Z" fill="#DFDFEB"/>
<path d="M871.882 1197C1146.49 1197 1369.1 1178.03 1369.1 1154.63C1369.1 1131.24 1146.49 1112.27 871.882 1112.27C597.277 1112.27 374.666 1131.24 374.666 1154.63C374.666 1178.03 597.277 1197 871.882 1197Z" fill="#DFDFEB"/>
<path d="M966.947 403.921C966.947 403.921 957.752 457.351 890.688 526.095C890.688 526.095 883.279 516.922 896.101 478.935C908.924 440.949 963.114 390.991 966.947 403.921Z" fill="#7E9E6E"/>
<path d="M966.947 403.921C966.947 403.921 906.644 447.09 890.688 526.094C890.688 526.094 887.605 553.198 896.904 576.674" stroke="black" stroke-miterlimit="10" stroke-linecap="round"/>
<path d="M804.792 447.064C804.792 447.064 821.707 434.238 792.591 402.211C764.927 371.764 735.604 344.479 678.409 334.478C678.409 334.478 695.687 412.031 732.988 430.506C755.287 441.598 779.888 447.271 804.792 447.064Z" fill="#7E9E6E"/>
<path d="M665.872 504.096C665.872 504.096 725.579 517.051 826.862 483.366C826.862 483.366 820.567 473.002 775.314 469.374C730.061 465.746 654.086 495.389 665.872 504.096Z" fill="#7E9E6E"/>
<path d="M665.872 504.096C665.872 504.096 737.495 466.161 826.862 483.366C826.862 483.366 836.057 485.673 845.408 498.188" stroke="black" stroke-miterlimit="10" stroke-linecap="round"/>
<path d="M715.347 558.225C715.347 558.225 779.251 600.306 880.534 566.491C873.526 555.336 864 545.98 852.722 539.176C841.443 532.371 828.727 528.308 815.594 527.313C770.34 523.789 703.561 549.519 715.347 558.225Z" fill="#7E9E6E"/>
<path d="M715.347 558.225C715.347 558.225 784.225 526.069 880.533 566.491C888.706 570.653 895.8 576.659 901.256 584.033" stroke="black" stroke-miterlimit="10" stroke-linecap="round"/>
<path d="M931.667 353.341C931.667 353.341 950.525 351.087 904.494 393.66C861.054 433.875 866.572 434.186 866.572 434.186C866.572 434.186 883.046 374.019 931.667 353.341Z" fill="black"/>
<path d="M834.943 454.552C834.943 454.552 849.035 459.994 874.446 436.673C899.857 413.353 909.312 361.374 931.667 353.341C931.667 353.341 875.56 371.454 834.943 454.552Z" fill="#7E9E6E"/>
<path d="M927.367 633.162C894.437 566.265 853.277 503.747 804.844 447.064C804.844 447.064 791.555 429.651 745.266 384.539C698.977 339.427 678.357 334.478 678.357 334.478" stroke="black" stroke-miterlimit="10" stroke-linecap="round"/>
<path d="M925.035 356.114C925.035 356.114 871.7 379.434 834.943 454.578C826.059 472.716 836.705 487.201 845.305 498.162" stroke="black" stroke-miterlimit="10" stroke-linecap="round"/>
<path d="M1411.4 979.29C1411.4 979.29 1366.82 1012.2 1264.11 988.048C1264.11 988.048 1264.37 971.569 1301.23 955.711C1338.09 939.853 1417.23 964.028 1411.4 979.29Z" fill="#7E9E6E"/>
<path d="M1408.21 976.31C1408.21 976.31 1337.86 952.783 1264.58 986.26C1264.58 986.26 1240.82 999.683 1227.28 1020.98" stroke="black" stroke-miterlimit="10" stroke-linecap="round"/>
<path d="M1262.76 906.919C1262.76 906.919 1283.07 913.086 1291.93 870.642C1300.32 830.376 1305.22 790.653 1279.7 738.493C1279.7 738.493 1227.1 798.09 1234.01 839.056C1238.14 863.62 1247.99 886.867 1262.76 906.919Z" fill="#7E9E6E"/>
<path d="M1413.86 922.803C1413.86 922.803 1429.53 933.53 1366.87 935.24C1307.68 936.873 1311.62 940.734 1311.62 940.734C1311.62 940.734 1363.66 906.349 1413.86 922.803Z" fill="black"/>
<path d="M1274.47 935.24C1274.47 935.24 1281.49 948.61 1315.92 947.781C1350.34 946.952 1391.76 914.096 1413.86 922.802C1413.86 922.802 1359.75 899.482 1274.47 935.24Z" fill="#7E9E6E"/>
<path d="M1184.1 1115.38C1218.91 1049.45 1245.33 979.415 1262.76 906.919C1262.76 906.919 1269.06 885.93 1278.49 822.032C1287.92 758.134 1279.7 738.467 1279.7 738.467" stroke="black" stroke-miterlimit="10" stroke-linecap="round"/>
<path d="M1407.05 920.522C1407.05 920.522 1351.59 902.876 1274.42 935.24C1255.74 943.014 1250.43 955.451 1242.53 978.383" stroke="black" stroke-miterlimit="10" stroke-linecap="round"/>
<path d="M700.997 598.855C686.57 598.859 672.599 593.797 661.52 584.551L630.799 558.899C620.332 549.89 607.02 544.87 593.213 544.725H440.59C433.947 544.725 427.576 547.365 422.878 552.064C418.181 556.763 415.542 563.136 415.542 569.782V1122.19C415.542 1133.66 420.096 1144.67 428.202 1152.78C436.309 1160.9 447.306 1165.46 458.774 1165.47H1219.17C1228.1 1165.47 1236.66 1161.92 1242.98 1155.6C1249.3 1149.28 1252.84 1140.71 1252.84 1131.78V632.514C1252.84 623.58 1249.3 615.012 1242.98 608.695C1236.66 602.378 1228.1 598.829 1219.17 598.829L700.997 598.855Z" fill="#9E1B25"/>
<path d="M1252.82 1134.63C1252.82 1134.63 1201.01 1037.51 1195.83 1026.37L1054.4 738.156C1052.66 734.402 1049.89 731.224 1046.4 728.997C1042.92 726.77 1038.87 725.587 1034.74 725.588H509.234C490.118 725.588 462.479 715.561 447.817 703.33L426.602 685.633C416.115 676.607 402.773 671.585 388.939 671.459H243.88C240.316 671.463 236.808 672.344 233.666 674.026C230.523 675.707 227.843 678.136 225.861 681.099C223.88 684.062 222.658 687.468 222.304 691.015C221.95 694.562 222.474 698.142 223.831 701.439L399.378 1126.13C404.186 1137.75 412.326 1147.69 422.772 1154.69C433.218 1161.69 445.502 1165.44 458.075 1165.47H1243.39C1245.93 1165.43 1248.37 1164.43 1250.2 1162.67C1252.03 1160.9 1253.11 1158.5 1253.23 1155.96L1252.82 1134.63Z" fill="#C1282D"/>
<path d="M1039.06 753.003L1246.57 1156.55" stroke="white" stroke-linejoin="round"/>
<path d="M953.529 822.55H774.796C772.405 822.558 770.05 821.966 767.947 820.83C765.843 819.694 764.056 818.05 762.751 816.046C761.391 813.909 760.634 811.443 760.561 808.91C760.487 806.377 761.101 803.872 762.335 801.659C763.57 799.447 765.38 797.609 767.574 796.342C769.768 795.075 772.263 794.426 774.796 794.462H953.529C955.917 794.452 958.269 795.042 960.369 796.178C962.469 797.315 964.25 798.961 965.548 800.966C966.907 803.101 967.664 805.565 967.738 808.095C967.813 810.626 967.201 813.13 965.97 815.341C964.738 817.553 962.932 819.391 960.742 820.66C958.552 821.929 956.06 822.582 953.529 822.55Z" stroke="white" stroke-linejoin="round"/>
<path d="M619.142 961.229L758.321 1044.17" stroke="white" stroke-linecap="round" stroke-linejoin="round"/>
<path d="M732.936 957.239L645.486 1044.69" stroke="white" stroke-linecap="round" stroke-linejoin="round"/>
<path d="M787.825 1029.86C799.464 987.765 763.741 941.146 708.036 925.734C652.331 910.323 597.738 931.955 586.099 974.05C574.46 1016.15 610.183 1062.76 665.888 1078.18C721.593 1093.59 776.187 1071.96 787.825 1029.86Z" stroke="white" stroke-linecap="round" stroke-linejoin="round"/>
<path d="M1639.06 1076.17L1631.29 1104.34C1631.29 1104.34 1574.51 1165.93 1582.88 1165.93C1591.24 1165.93 1684.47 1127.79 1684.47 1127.79L1672.53 1069.13L1639.06 1076.17Z" fill="#C1282D"/>
<path d="M1407.56 599.14C1410.91 584.707 1395.54 566.698 1381.01 569.548C1374.29 570.8 1367.71 572.736 1361.38 575.327C1357.67 576.545 1329.93 574.731 1326.75 579.369C1324.47 582.712 1338.92 586.572 1348.17 587.479C1348.59 587.514 1348.99 587.681 1349.31 587.958C1349.63 588.235 1349.85 588.607 1349.95 589.019C1350.04 589.432 1350.01 589.864 1349.84 590.253C1349.67 590.643 1349.39 590.969 1349.02 591.185C1339.93 596.833 1321.82 608.286 1320.27 611.111C1318.22 614.92 1308.82 629.689 1311.46 631.322C1314.1 632.954 1322.13 625.595 1327.34 620.335C1332.55 615.075 1347.75 610.67 1347.75 610.67C1347.75 610.67 1321.31 637.23 1317.81 644.641C1312.63 655.627 1327.68 650.808 1327.68 650.808C1325.32 657 1337.68 655.653 1340.63 653.399C1346.41 648.786 1364.25 627.254 1364.31 629.456C1364.36 631.659 1345.86 655.109 1347.73 660.55C1349.59 665.992 1357.08 659.177 1361.4 653.373C1365.73 647.569 1378.42 631.451 1378.42 631.451C1388.74 623.354 1397.68 613.652 1404.92 602.715C1404.97 602.43 1407.51 599.295 1407.56 599.14Z" fill="#DB9C7F"/>
<path d="M1328.35 650.16L1353.61 620.05" stroke="black" stroke-miterlimit="10" stroke-linecap="round"/>
<path d="M1217.74 513.761L1308.59 457.066C1309.15 456.691 1309.68 456.285 1310.19 455.848L1340.14 425.039C1341.67 423.688 1343.47 422.681 1345.43 422.086C1347.38 421.491 1349.44 421.322 1351.46 421.59C1353.49 421.857 1355.43 422.556 1357.17 423.638C1358.9 424.72 1360.38 426.161 1361.51 427.864L1376.2 449.889C1377.73 452.179 1378.57 454.863 1378.62 457.62C1378.67 460.377 1377.93 463.09 1376.48 465.436L1355.39 499.535C1353.84 502.048 1351.55 504.02 1348.84 505.184C1331.9 512.439 1267.09 539.828 1228.44 550.737C1226.21 551.361 1223.87 551.435 1221.6 550.954C1219.34 550.472 1217.22 549.449 1215.44 547.972C1213.66 546.494 1212.26 544.607 1211.37 542.471C1210.47 540.336 1210.11 538.015 1210.31 535.708L1211.27 524.488C1211.46 522.326 1212.15 520.237 1213.27 518.379C1214.39 516.521 1215.92 514.941 1217.74 513.761Z" fill="#C1282D"/>
<path d="M1426.91 1080.11L1422.12 1112.76C1422.12 1112.76 1332.13 1147.33 1340.47 1147.85C1348.82 1148.36 1478.15 1140.8 1478.15 1140.8L1470.54 1081.56L1426.91 1080.11Z" fill="#C1282D"/>
<path d="M1451.99 551.954C1451.99 551.954 1459.16 620.983 1464.55 624.507C1468.45 626.9 1472.67 628.707 1477.09 629.871L1465.43 550.97L1451.99 551.954Z" stroke="#424242" stroke-miterlimit="10"/>
<path d="M1594.12 504.484C1594.12 504.484 1630.59 578.799 1620.02 620.18L1417.82 592.377L1422.12 515.082L1594.12 504.484Z" fill="#312E41"/>
<path d="M1599.66 519.539C1599.66 519.539 1571.17 572.477 1516.38 576.726" stroke="black" stroke-miterlimit="10" stroke-linecap="round"/>
<path d="M1553.92 565.429C1553.92 565.429 1564.98 599.736 1597.15 600.461" stroke="black" stroke-miterlimit="10" stroke-linecap="round"/>
<path d="M1417.8 592.377C1417.8 592.377 1363.61 785.289 1362.21 847.4L1401.79 1086.69C1401.79 1086.69 1439.55 1105.45 1478.88 1090.3C1480.48 1089.67 1458.96 966.179 1457.43 838.953L1570.47 602.327L1417.8 592.377Z" fill="#312E41"/>
<path d="M1620.88 612.096L1612.93 844.912L1701.88 1088.3C1701.88 1088.3 1664.6 1119.81 1617.54 1091.15L1520.87 859.371L1530.92 690.737L1488.77 665.214L1482.5 592.195L1620.88 612.096Z" fill="#312E41"/>
<path d="M1464.42 569.548L1507.34 601.886L1568.89 533.168L1419.4 554.52L1455.98 603.052L1464.42 569.548Z" fill="white"/>
<path d="M1586.84 537.418C1586.84 537.418 1611.4 597.792 1593.71 851.079C1593.71 851.079 1655.61 987.271 1687.79 1095.27" stroke="black" stroke-miterlimit="10" stroke-linecap="round"/>
<path d="M1496.59 671.252L1434.71 843.72L1461.34 1093.69" stroke="black" stroke-miterlimit="10" stroke-linecap="round"/>
<path d="M1226.65 547.809C1226.65 547.809 1227.85 553.846 1214.48 558.458C1201.11 563.071 1193.24 561.594 1193.24 561.594C1193.24 561.594 1163.24 526.224 1161.92 524.981C1160.6 523.737 1162.85 510.107 1171.74 504.666C1177.13 501.349 1198.01 506.739 1213.6 511.506C1218.85 513.115 1223.34 516.576 1226.23 521.247C1229.12 525.918 1230.22 531.48 1229.32 536.9C1228.84 540.624 1227.95 544.284 1226.65 547.809Z" fill="#DB9C7F"/>
<path d="M1201.94 538.403C1201.94 538.403 1177.41 534.853 1167.05 526.302C1167.05 526.302 1151.51 523.193 1148.3 525.136C1144.48 528.151 1139.98 530.188 1135.19 531.07C1128.07 532.262 1130.22 527.52 1137.78 520.705C1139.93 518.762 1145.55 511.869 1150.6 510.936C1157.75 509.174 1164.81 507.046 1171.74 504.562L1200.73 539.232" fill="#DB9C7F"/>
<path d="M1193.24 561.723C1193.24 561.723 1183.29 567.968 1179.8 567.813C1176.3 567.657 1173.01 565.558 1172.15 559.806C1172.15 559.806 1153.63 563.2 1159.49 549.182C1159.49 549.182 1148.32 547.368 1148.01 540.061C1148.01 540.061 1138.09 535.112 1140.24 527.105C1142.39 519.099 1173.58 519.876 1173.58 519.876L1206.63 536.667L1193.24 561.723Z" fill="#DB9C7F"/>
<path d="M1186.22 562.941C1186.22 562.941 1195.67 554.545 1195.13 551.203C1194.59 547.86 1192.85 546.021 1190.7 546.617C1187.83 547.498 1176.87 555.841 1172.15 559.572" stroke="#1A1C30" stroke-width="0.78" stroke-linecap="round" stroke-linejoin="round"/>
<path d="M1159.49 549.052C1159.49 549.052 1184.67 545.114 1184.9 541.279C1185.13 537.444 1183.37 532.624 1178.11 533.661C1171.87 534.905 1153.94 539.206 1148.01 539.076" stroke="#1A1C30" stroke-width="0.78" stroke-linecap="round" stroke-linejoin="round"/>
<path d="M1190.7 546.617C1190.7 546.617 1195.31 543.767 1193.5 540.553C1191.69 537.34 1189.17 536.226 1183.81 537.6" stroke="#1A1C30" stroke-width="0.78" stroke-linecap="round" stroke-linejoin="round"/>
<path d="M1147.55 528.712C1148.56 527.426 1149.67 526.214 1150.86 525.084" stroke="#1A1C30" stroke-width="0.78" stroke-linecap="round" stroke-linejoin="round"/>
<path d="M1126.69 456.668L1139.4 449.52L1204.78 565.87C1205.69 567.5 1205.92 569.426 1205.42 571.226C1204.91 573.026 1203.72 574.552 1202.09 575.468L1201.66 575.709C1200.85 576.162 1199.96 576.452 1199.04 576.563C1198.13 576.673 1197.19 576.601 1196.3 576.351C1195.41 576.101 1194.58 575.678 1193.85 575.107C1193.12 574.535 1192.52 573.825 1192.06 573.018L1126.69 456.668Z" fill="black"/>
<path d="M1158.97 475.308L1164.46 485.05C1164.83 485.62 1165.09 486.258 1165.22 486.927C1165.34 487.597 1165.34 488.284 1165.2 488.951C1165.06 489.617 1164.79 490.25 1164.4 490.812C1164.02 491.375 1163.53 491.856 1162.96 492.228L1151.09 498.887C1149.86 499.475 1148.44 499.548 1147.15 499.092C1145.86 498.635 1144.8 497.686 1144.2 496.452L1138.48 486.268" fill="#352829"/>
<path d="M1133.61 379.745C1110.92 337.665 1082.48 308.669 1064.4 307.193L1065.02 303.202L1055.56 309.343C1039.32 320.407 1047.95 369.795 1074.83 419.675C1101.72 469.555 1136.64 500.986 1152.88 489.948L1161.74 484.014L1159.15 480.594C1165.44 461.419 1155.71 420.763 1133.61 379.745Z" fill="black"/>
<path d="M1161.1 484.72C1178.4 475.701 1171.2 427.626 1145.01 377.343C1118.82 327.06 1083.56 293.609 1066.26 302.628C1048.95 311.647 1056.15 359.722 1082.34 410.005C1108.53 460.288 1143.79 493.739 1161.1 484.72Z" fill="#352829"/>
<path d="M1152.56 467.543C1164.56 461.225 1156.88 423.015 1135.41 382.201C1113.93 341.386 1086.79 313.422 1074.79 319.74C1062.79 326.059 1070.47 364.268 1091.95 405.083C1113.42 445.898 1140.56 473.862 1152.56 467.543Z" fill="#D3DDF7"/>
<path d="M1201.94 538.403C1201.94 538.403 1177.41 534.853 1167.05 526.302C1167.05 526.302 1151.51 523.193 1148.3 525.136C1144.48 528.151 1139.98 530.188 1135.19 531.07C1128.07 532.262 1130.22 527.52 1137.78 520.705C1139.93 518.762 1145.55 511.869 1150.6 510.936C1157.75 509.174 1164.81 507.046 1171.74 504.562L1200.73 539.232" fill="#DB9C7F"/>
<path d="M1201.94 538.403C1201.94 538.403 1177.41 534.853 1167.05 526.302C1167.05 526.302 1151.51 523.193 1148.3 525.136C1144.48 528.151 1139.98 530.188 1135.19 531.07" stroke="#1A1C30" stroke-width="0.78" stroke-linecap="round" stroke-linejoin="round"/>
<path d="M1134.08 379.719C1112.21 339.116 1085.35 312.349 1074.06 320.123C1073.15 320.784 1072.38 321.61 1071.78 322.558C1084.73 323.336 1107.6 348.107 1126.64 383.399C1146.77 420.789 1155.63 456.91 1148.12 468.389C1149.94 468.568 1151.77 468.11 1153.3 467.094C1164.54 459.424 1155.94 420.297 1134.08 379.719Z" fill="black"/>
<path d="M1128.7 410.541C1135.08 407.181 1130.99 386.852 1119.56 365.134C1108.14 343.416 1093.7 328.533 1087.32 331.893C1080.94 335.252 1085.03 355.582 1096.46 377.3C1107.89 399.018 1122.32 413.9 1128.7 410.541Z" fill="white"/>
<path d="M1553.87 433.279L1535.73 368.889C1529 345.242 1517.54 323.205 1502.06 304.109C1474.91 270.165 1403.63 273.249 1403.63 273.249L1348.82 312.971L1348.3 313.256C1315.92 331.109 1310.04 358.524 1310.89 401.071L1312.89 458.362L1350.06 422.837L1359.44 435.793C1359.44 435.43 1359.44 435.067 1359.44 434.73L1363.87 441.726L1359.54 435.793C1360.86 447.608 1367.03 477.718 1395.67 491.788L1411.99 517.466L1407.67 552.991C1560.83 608.701 1598.99 499.276 1598.99 499.276L1553.87 433.279Z" fill="#C1282D"/>
<path d="M1342.18 416.825L1362.26 441.364C1362.26 441.364 1359.51 479.195 1397.59 491.321" stroke="black" stroke-miterlimit="10" stroke-linecap="round"/>
<path d="M1494.42 466.783L1377.85 568.382C1377.85 568.382 1400.93 600.72 1411.35 601.86L1551.02 512.957" fill="#C1282D"/>
<path d="M1412.46 537.211C1412.46 537.211 1475.95 465.617 1497.94 455.226" stroke="black" stroke-miterlimit="10" stroke-linecap="round"/>
<path d="M1464.27 389.566C1464.27 389.566 1467.3 405.579 1487.58 461.86" stroke="black" stroke-miterlimit="10" stroke-linecap="round"/>
<path d="M1427.46 592.636C1427.46 592.636 1557.91 509.511 1559.05 485.258C1560.19 461.004 1526.15 348.418 1526.15 348.418" stroke="black" stroke-miterlimit="10" stroke-linecap="round"/>
<path d="M1441.76 474.867C1441.76 474.867 1473.15 477.821 1482.87 449.318" stroke="black" stroke-miterlimit="10" stroke-linecap="round"/>
<path d="M1314.62 453.646C1315.77 452.464 1317.17 451.547 1318.7 450.956C1320.24 450.365 1321.89 450.115 1323.54 450.223C1325.18 450.332 1326.78 450.796 1328.23 451.583C1329.68 452.371 1330.94 453.464 1331.93 454.786" stroke="black" stroke-miterlimit="10" stroke-linecap="round"/>
<path d="M1211.89 510.807L1230.44 502.126C1230.44 502.126 1252.95 526.665 1244.86 547.757L1222.35 554.39C1222.35 554.39 1232.69 531.303 1211.89 510.807Z" fill="white"/>
<path d="M1385.18 555.401C1385.18 555.401 1409.43 565.766 1426.63 595.668L1408 609.945C1408 609.945 1385.05 577.037 1369.15 571.855L1385.18 555.401Z" fill="white"/>
<path d="M1364.85 269.621L1441.32 275.243C1441.32 275.243 1444.22 317.324 1398.03 354.43L1377.31 334.27L1365.99 358.809C1365.99 358.809 1348.45 348.936 1346.1 320.589L1349.83 286.178L1364.85 269.621Z" fill="white"/>
<path d="M1403.7 273.352C1405.07 274.523 1406.11 276.029 1406.72 277.724C1407.33 279.419 1407.49 281.243 1407.18 283.017C1404.59 296.698 1397.31 329.839 1382.41 334.011C1363.61 339.194 1351.85 302.088 1351.85 302.088L1361.25 237.127L1403.7 273.352Z" fill="#DB9C7F"/>
<path d="M1344.07 288.744L1343.84 298.202C1343.69 298.202 1340.47 326.238 1349.85 327.3C1389.04 320.227 1391.5 283.043 1394.87 246.145C1394.87 246.145 1340.27 281.385 1344.07 288.744Z" fill="black"/>
<path d="M1278.82 219.119C1278.82 219.119 1269.29 310.199 1325.81 325.927C1382.33 341.655 1395.93 249.332 1393.99 217.435C1392.05 185.538 1377.83 173.644 1338.17 172.219C1279.65 170.016 1278.82 219.119 1278.82 219.119Z" fill="#DB9C7F"/>
<path d="M1329.65 263.117C1329.8 266.408 1328.25 269.128 1326.15 269.232C1324.05 269.336 1322.26 266.641 1322.08 263.505C1321.9 260.37 1323.48 257.468 1325.58 257.364C1327.68 257.261 1329.47 259.826 1329.65 263.117Z" fill="black"/>
<path d="M1335.84 246.326C1335.84 246.326 1317.16 254.463 1315.32 240.341" stroke="black" stroke-miterlimit="10" stroke-linecap="round"/>
<path d="M1292.6 246.378C1292.6 246.378 1286.41 257.105 1279.32 252.338" stroke="black" stroke-miterlimit="10" stroke-linecap="round"/>
<path d="M1282.71 265.423C1285.71 264.83 1288.83 265.395 1291.44 267.004" stroke="black" stroke-miterlimit="10" stroke-linecap="round"/>
<path d="M1338.09 299.393C1340.78 296.807 1343.95 294.773 1347.42 293.408" stroke="black" stroke-miterlimit="10" stroke-linecap="round"/>
<path d="M1299.88 275.917C1299.44 276.956 1299.21 278.077 1299.23 279.208C1299.24 280.339 1299.49 281.455 1299.96 282.483C1300.43 283.511 1301.11 284.429 1301.96 285.177C1302.81 285.925 1303.8 286.487 1304.88 286.826" stroke="black" stroke-miterlimit="10" stroke-linecap="round"/>
<path d="M1278.15 238.682C1278.15 238.682 1279.11 212.019 1290.92 196.965C1290.92 196.965 1307.16 233.889 1377.15 241.403L1397.54 237.128C1397.54 237.128 1405.88 194.373 1376.64 177.531C1347.39 160.688 1302.66 169.99 1288.28 185.149C1281.33 191.973 1276.64 200.759 1274.83 210.328C1273.02 219.897 1274.18 229.791 1278.15 238.682Z" fill="black"/>
<path d="M1363.58 236.532L1375.7 260.474L1384.25 233.578L1363.58 236.532Z" fill="black"/>
<path d="M1405.79 258.215C1409.37 245.518 1405.13 233.203 1396.3 230.708C1387.48 228.214 1377.42 236.485 1373.83 249.182C1370.24 261.879 1374.49 274.194 1383.31 276.689C1392.14 279.183 1402.2 270.913 1405.79 258.215Z" fill="#DB9C7F"/>
<path d="M1397 246.896C1397 246.896 1387.02 238.319 1381.58 253.996C1381.58 253.996 1387.41 260.189 1383.73 265.034C1385.38 265.379 1387.08 265.203 1388.62 264.529C1390.16 263.856 1391.45 262.719 1392.31 261.277" stroke="black" stroke-linecap="round" stroke-linejoin="round"/>
<path d="M1392.7 252.908C1391.96 250.05 1390.42 247.462 1388.27 245.445" stroke="black" stroke-linecap="round" stroke-linejoin="round"/>
<path d="M1397.54 276.358C1397.54 278.069 1397.03 279.743 1396.08 281.166C1395.13 282.589 1393.78 283.698 1392.2 284.353C1390.62 285.008 1388.88 285.18 1387.2 284.846C1385.52 284.512 1383.98 283.688 1382.77 282.477C1381.56 281.267 1380.74 279.725 1380.4 278.046C1380.07 276.367 1380.24 274.627 1380.89 273.046C1381.55 271.464 1382.66 270.113 1384.08 269.162C1385.5 268.211 1387.18 267.703 1388.89 267.703C1391.18 267.703 1393.38 268.615 1395.01 270.238C1396.63 271.861 1397.54 274.062 1397.54 276.358Z" fill="white"/>
<path d="M1373.32 188.595C1373.32 188.595 1383.94 133.066 1408.76 143.716C1433.57 154.366 1444.79 207.511 1421.16 211.656C1406.78 214.028 1392.02 211.529 1379.23 204.557L1373.32 188.595Z" fill="black"/>
<path d="M1373.6 204.634C1373.6 204.634 1414.66 238.915 1428 207.225" stroke="black" stroke-miterlimit="10" stroke-linecap="round"/>
<path d="M1528.74 689.416L1481.23 662.598" stroke="black" stroke-miterlimit="10" stroke-linecap="round"/>
<path d="M450.2 337.147C469.751 337.684 488.711 343.96 504.722 355.196C520.733 366.431 533.086 382.129 540.246 400.335C547.405 418.541 549.053 438.451 544.985 457.587C540.917 476.723 531.313 494.24 517.368 507.956C515.927 509.357 514.847 511.085 514.22 512.994C513.593 514.903 513.438 516.935 513.767 518.917L521.176 562.63L475.715 536.148C473.135 534.621 470.084 534.095 467.141 534.671C453.373 537.441 439.174 537.271 425.476 534.171C411.778 531.071 398.889 525.113 387.652 516.685C376.416 508.257 367.085 497.55 360.272 485.265C353.459 472.98 349.317 459.394 348.116 445.397C346.916 431.399 348.684 417.306 353.306 404.04C357.928 390.774 365.299 378.633 374.936 368.414C384.573 358.195 396.259 350.127 409.229 344.739C422.2 339.35 436.161 336.763 450.2 337.147Z" fill="#D3DDF7"/>
<path d="M424.219 431.31C421.036 427.739 419.251 423.138 419.194 418.354C419.134 415.604 419.73 412.878 420.932 410.405C422.135 407.931 423.91 405.779 426.11 404.128C431.234 400.285 437.534 398.343 443.932 398.635C450.725 398.39 457.387 400.556 462.737 404.75C465.092 406.532 466.998 408.84 468.303 411.49C469.607 414.14 470.274 417.059 470.249 420.012C470.33 423.967 469.23 427.855 467.089 431.18C464.164 435.147 460.506 438.516 456.313 441.104L449.009 446.002C446.537 447.677 444.387 449.783 442.662 452.22C441.146 453.926 440.236 456.085 440.072 458.362L440.279 462.145C440.307 462.458 440.265 462.773 440.158 463.069C440.051 463.364 439.88 463.633 439.658 463.855C439.453 464.086 439.195 464.263 438.906 464.372C438.617 464.48 438.306 464.516 438 464.477C436.964 464.477 436.005 463.673 435.176 462.222C434.352 460.677 433.933 458.947 433.959 457.196C433.959 450.925 437.43 444.24 444.32 437.114C447.812 433.789 450.915 430.077 453.568 426.05C455.142 423.364 455.956 420.301 455.925 417.188C456.076 413.708 454.847 410.309 452.506 407.73C450.209 405.523 447.181 404.24 443.998 404.125C440.816 404.01 437.703 405.072 435.254 407.108C434.175 407.973 433.306 409.069 432.709 410.316C432.113 411.564 431.805 412.929 431.809 414.312C431.809 417.266 433.7 419.883 437.456 422.085L436.756 422.578L433.052 424.702C429.898 426.608 426.939 428.822 424.219 431.31ZM446.004 423.536L444.476 424.365C439.189 427.324 434.077 430.586 429.167 434.134L428.545 434.549L427.431 433.098L428.131 432.605C432.71 429.298 437.485 426.269 442.429 423.536C440.744 422.637 439.332 421.302 438.338 419.67C437.345 418.038 436.808 416.17 436.782 414.26C436.772 413.344 436.972 412.437 437.367 411.611C437.763 410.784 438.342 410.059 439.062 409.492C440.624 408.157 442.629 407.455 444.683 407.523C449.035 407.523 452.29 409.993 454.448 414.934H454.034C453.005 413.307 451.599 411.954 449.934 410.989C448.27 410.023 446.397 409.474 444.476 409.388C440.538 409.388 438.57 411.116 438.57 414.571C438.57 418.354 441.048 421.299 446.004 423.407V423.536ZM444.268 468.027C445.442 468.02 446.605 468.245 447.69 468.691C448.776 469.136 449.763 469.792 450.594 470.62C451.424 471.449 452.083 472.434 452.531 473.519C452.979 474.604 453.208 475.767 453.205 476.94C453.228 478.108 453.01 479.267 452.565 480.346C452.119 481.425 451.455 482.401 450.615 483.211C449.581 484.24 448.311 485 446.915 485.422C445.519 485.844 444.041 485.916 442.611 485.631C441.18 485.346 439.842 484.714 438.714 483.79C437.586 482.865 436.703 481.677 436.142 480.331C435.581 478.984 435.361 477.52 435.5 476.068C435.639 474.616 436.133 473.22 436.938 472.004C437.744 470.788 438.836 469.789 440.119 469.096C441.402 468.402 442.836 468.035 444.294 468.027H444.268ZM455.484 470.903C456.725 471.999 457.712 473.353 458.374 474.87C459.036 476.388 459.358 478.032 459.318 479.687C459.337 482.082 458.615 484.425 457.253 486.395C455.891 488.365 453.954 489.866 451.707 490.694C449.46 491.522 447.012 491.636 444.698 491.02C442.383 490.404 440.316 489.088 438.777 487.253L439.191 486.787C441.59 488.349 444.362 489.243 447.221 489.378C448.586 489.394 449.94 489.137 451.204 488.621C452.468 488.104 453.615 487.34 454.578 486.372C455.565 485.473 456.352 484.377 456.888 483.153C457.424 481.93 457.696 480.608 457.686 479.272C457.581 476.415 456.625 473.654 454.941 471.343L455.484 470.903ZM466.001 402.911C469.121 404.978 471.678 407.789 473.442 411.091C475.205 414.393 476.12 418.082 476.104 421.826C476.079 426.962 474.338 431.942 471.156 435.974C466.702 440.61 461.77 444.762 456.443 448.36L452.583 451.184C447.921 454.639 445.589 457.938 445.589 461.082C445.717 463.082 446.35 465.017 447.429 466.705L444.968 466.031C444.16 464.506 443.734 462.808 443.724 461.082C443.765 458.617 444.684 456.246 446.315 454.397C448.974 451.499 451.995 448.956 455.303 446.831C461.006 443.276 466.126 438.862 470.483 433.745C473.237 430.072 474.695 425.588 474.627 420.997C474.593 417.501 473.704 414.067 472.037 410.995C470.544 407.996 468.283 405.448 465.483 403.61L466.001 402.911Z" fill="black"/>
</g>
<defs>
<clipPath id="clip0_37_481">
<rect width="1529" height="1058" fill="white" transform="translate(195 139)"/>
</clipPath>
</defs>
</svg>
