<svg width="1920" height="1337" viewBox="0 0 1920 1337" fill="none" xmlns="http://www.w3.org/2000/svg">
<g clip-path="url(#clip0_37_481)">
<path d="M797.902 999.802C1130.88 999.802 1400.8 807.328 1400.8 569.901C1400.8 332.473 1130.88 140 797.902 140C464.928 140 195 332.473 195 569.901C195 807.328 464.928 999.802 797.902 999.802Z" fill="#F5F5FF"/>
<path d="M1448.78 1175.41C1600.78 1175.41 1724 1158.31 1724 1137.21C1724 1116.12 1600.78 1099.02 1448.78 1099.02C1296.77 1099.02 1173.55 1116.12 1173.55 1137.21C1173.55 1158.31 1296.77 1175.41 1448.78 1175.41Z" fill="#DFDFEB"/>
<path d="M871.882 1198C1146.49 1198 1369.1 1179.03 1369.1 1155.63C1369.1 1132.24 1146.49 1113.27 871.882 1113.27C597.277 1113.27 374.666 1132.24 374.666 1155.63C374.666 1179.03 597.277 1198 871.882 1198Z" fill="#DFDFEB"/>
<path d="M966.947 404.921C966.947 404.921 957.752 458.351 890.688 527.095C890.688 527.095 883.279 517.922 896.101 479.935C908.924 441.949 963.114 391.991 966.947 404.921Z" fill="#7E9E6E"/>
<path d="M966.947 404.921C966.947 404.921 906.644 448.09 890.688 527.094C890.688 527.094 887.605 554.198 896.904 577.674" stroke="black" stroke-width="2" stroke-miterlimit="10" stroke-linecap="round"/>
<path d="M804.792 448.064C804.792 448.064 821.707 435.238 792.591 403.211C764.927 372.764 735.604 345.479 678.409 335.478C678.409 335.478 695.687 413.031 732.988 431.506C755.287 442.598 779.888 448.271 804.792 448.064Z" fill="#7E9E6E"/>
<path d="M665.872 505.096C665.872 505.096 725.579 518.051 826.862 484.366C826.862 484.366 820.567 474.002 775.314 470.374C730.061 466.746 654.086 496.389 665.872 505.096Z" fill="#7E9E6E"/>
<path d="M665.872 505.096C665.872 505.096 737.495 467.161 826.862 484.366C826.862 484.366 836.057 486.673 845.408 499.188" stroke="black" stroke-width="2" stroke-miterlimit="10" stroke-linecap="round"/>
<path d="M715.347 559.225C715.347 559.225 779.251 601.306 880.534 567.491C873.526 556.336 864 546.98 852.722 540.176C841.443 533.371 828.727 529.308 815.594 528.313C770.34 524.789 703.561 550.519 715.347 559.225Z" fill="#7E9E6E"/>
<path d="M715.347 559.225C715.347 559.225 784.225 527.069 880.533 567.491C888.706 571.653 895.8 577.659 901.256 585.033" stroke="black" stroke-width="2" stroke-miterlimit="10" stroke-linecap="round"/>
<path d="M931.667 354.341C931.667 354.341 950.525 352.087 904.494 394.66C861.054 434.875 866.572 435.186 866.572 435.186C866.572 435.186 883.046 375.019 931.667 354.341Z" fill="black"/>
<path d="M834.943 455.552C834.943 455.552 849.035 460.994 874.446 437.673C899.857 414.353 909.312 362.374 931.667 354.341C931.667 354.341 875.56 372.454 834.943 455.552Z" fill="#7E9E6E"/>
<path d="M927.367 634.162C894.437 567.265 853.277 504.747 804.844 448.064C804.844 448.064 791.555 430.651 745.266 385.539C698.977 340.427 678.357 335.478 678.357 335.478" stroke="black" stroke-width="2" stroke-miterlimit="10" stroke-linecap="round"/>
<path d="M925.035 357.114C925.035 357.114 871.7 380.434 834.943 455.578C826.059 473.716 836.705 488.201 845.305 499.162" stroke="black" stroke-width="2" stroke-miterlimit="10" stroke-linecap="round"/>
<path d="M1411.4 980.29C1411.4 980.29 1366.82 1013.2 1264.11 989.048C1264.11 989.048 1264.37 972.569 1301.23 956.711C1338.09 940.853 1417.23 965.028 1411.4 980.29Z" fill="#7E9E6E"/>
<path d="M1408.21 977.31C1408.21 977.31 1337.86 953.783 1264.58 987.26C1264.58 987.26 1240.82 1000.68 1227.28 1021.98" stroke="black" stroke-width="2" stroke-miterlimit="10" stroke-linecap="round"/>
<path d="M1262.76 907.919C1262.76 907.919 1283.07 914.086 1291.93 871.642C1300.32 831.376 1305.22 791.653 1279.7 739.493C1279.7 739.493 1227.1 799.09 1234.01 840.056C1238.14 864.62 1247.99 887.867 1262.76 907.919Z" fill="#7E9E6E"/>
<path d="M1413.86 923.803C1413.86 923.803 1429.53 934.53 1366.87 936.24C1307.68 937.873 1311.62 941.734 1311.62 941.734C1311.62 941.734 1363.66 907.349 1413.86 923.803Z" fill="black"/>
<path d="M1274.47 936.24C1274.47 936.24 1281.49 949.61 1315.92 948.781C1350.34 947.952 1391.76 915.096 1413.86 923.802C1413.86 923.802 1359.75 900.482 1274.47 936.24Z" fill="#7E9E6E"/>
<path d="M1184.1 1116.38C1218.91 1050.45 1245.33 980.415 1262.76 907.919C1262.76 907.919 1269.06 886.93 1278.49 823.032C1287.92 759.134 1279.7 739.467 1279.7 739.467" stroke="black" stroke-width="2" stroke-miterlimit="10" stroke-linecap="round"/>
<path d="M1407.05 921.522C1407.05 921.522 1351.59 903.876 1274.42 936.24C1255.74 944.014 1250.43 956.451 1242.53 979.383" stroke="black" stroke-width="2" stroke-miterlimit="10" stroke-linecap="round"/>
<path d="M700.997 599.855C686.57 599.859 672.599 594.797 661.52 585.551L630.799 559.899C620.332 550.89 607.02 545.87 593.213 545.725H440.59C433.947 545.725 427.576 548.365 422.878 553.064C418.181 557.763 415.542 564.136 415.542 570.782V1123.19C415.542 1134.66 420.096 1145.67 428.202 1153.78C436.309 1161.9 447.306 1166.46 458.774 1166.47H1219.17C1228.1 1166.47 1236.66 1162.92 1242.98 1156.6C1249.3 1150.28 1252.84 1141.71 1252.84 1132.78V633.514C1252.84 624.58 1249.3 616.012 1242.98 609.695C1236.66 603.378 1228.1 599.829 1219.17 599.829L700.997 599.855Z" fill="#9E1B25"/>
<path d="M1252.82 1135.63C1252.82 1135.63 1201.01 1038.51 1195.83 1027.37L1054.4 739.156C1052.66 735.402 1049.89 732.224 1046.4 729.997C1042.92 727.77 1038.87 726.587 1034.74 726.588H509.234C490.118 726.588 462.479 716.561 447.817 704.33L426.602 686.633C416.115 677.607 402.773 672.585 388.939 672.459H243.88C240.316 672.463 236.808 673.344 233.666 675.026C230.523 676.707 227.843 679.136 225.861 682.099C223.88 685.062 222.658 688.468 222.304 692.015C221.95 695.562 222.474 699.142 223.831 702.439L399.378 1127.13C404.186 1138.75 412.326 1148.69 422.772 1155.69C433.218 1162.69 445.502 1166.44 458.075 1166.47H1243.39C1245.93 1166.43 1248.37 1165.43 1250.2 1163.67C1252.03 1161.9 1253.11 1159.5 1253.23 1156.96L1252.82 1135.63Z" fill="#C1282D"/>
<path d="M1039.06 754.003L1246.57 1157.55" stroke="white" stroke-width="2" stroke-linejoin="round"/>
<path d="M953.529 823.55H774.796C772.405 823.558 770.05 822.966 767.947 821.83C765.843 820.694 764.056 819.05 762.751 817.046C761.391 814.909 760.634 812.443 760.561 809.91C760.487 807.377 761.101 804.872 762.335 802.659C763.57 800.447 765.38 798.609 767.574 797.342C769.768 796.075 772.263 795.426 774.796 795.462H953.529C955.917 795.452 958.269 796.042 960.369 797.178C962.469 798.315 964.25 799.961 965.548 801.966C966.907 804.101 967.664 806.565 967.738 809.095C967.813 811.626 967.201 814.13 965.97 816.341C964.738 818.553 962.932 820.391 960.742 821.66C958.552 822.929 956.06 823.582 953.529 823.55Z" stroke="white" stroke-width="2" stroke-linejoin="round"/>
<path d="M619.142 962.229L758.321 1045.17" stroke="white" stroke-width="2" stroke-linecap="round" stroke-linejoin="round"/>
<path d="M732.936 958.239L645.486 1045.69" stroke="white" stroke-width="2" stroke-linecap="round" stroke-linejoin="round"/>
<path d="M787.825 1030.86C799.464 988.765 763.741 942.146 708.036 926.734C652.331 911.323 597.738 932.955 586.099 975.05C574.46 1017.15 610.183 1063.76 665.888 1079.18C721.593 1094.59 776.187 1072.96 787.825 1030.86Z" stroke="white" stroke-width="2" stroke-linecap="round" stroke-linejoin="round"/>
<path d="M1639.06 1077.17L1631.29 1105.34C1631.29 1105.34 1574.51 1166.93 1582.88 1166.93C1591.24 1166.93 1684.47 1128.79 1684.47 1128.79L1672.53 1070.13L1639.06 1077.17Z" fill="#C1282D"/>
<path d="M1407.56 600.14C1410.91 585.707 1395.54 567.698 1381.01 570.548C1374.29 571.8 1367.71 573.736 1361.38 576.327C1357.67 577.545 1329.93 575.731 1326.75 580.369C1324.47 583.712 1338.92 587.572 1348.17 588.479C1348.59 588.514 1348.99 588.681 1349.31 588.958C1349.63 589.235 1349.85 589.607 1349.95 590.019C1350.04 590.432 1350.01 590.864 1349.84 591.253C1349.67 591.643 1349.39 591.969 1349.02 592.185C1339.93 597.833 1321.82 609.286 1320.27 612.111C1318.22 615.92 1308.82 630.689 1311.46 632.322C1314.1 633.954 1322.13 626.595 1327.34 621.335C1332.55 616.075 1347.75 611.67 1347.75 611.67C1347.75 611.67 1321.31 638.23 1317.81 645.641C1312.63 656.627 1327.68 651.808 1327.68 651.808C1325.32 658 1337.68 656.653 1340.63 654.399C1346.41 649.786 1364.25 628.254 1364.31 630.456C1364.36 632.659 1345.86 656.109 1347.73 661.55C1349.59 666.992 1357.08 660.177 1361.4 654.373C1365.73 648.569 1378.42 632.451 1378.42 632.451C1388.74 624.354 1397.68 614.652 1404.92 603.715C1404.97 603.43 1407.51 600.295 1407.56 600.14Z" fill="#DB9C7F"/>
<path d="M1328.35 651.16L1353.61 621.05" stroke="black" stroke-miterlimit="10" stroke-linecap="round"/>
<path d="M1217.74 514.761L1308.59 458.066C1309.15 457.691 1309.68 457.285 1310.19 456.848L1340.14 426.039C1341.67 424.688 1343.47 423.681 1345.43 423.086C1347.38 422.491 1349.44 422.322 1351.46 422.59C1353.49 422.857 1355.43 423.556 1357.17 424.638C1358.9 425.72 1360.38 427.161 1361.51 428.864L1376.2 450.889C1377.73 453.179 1378.57 455.863 1378.62 458.62C1378.67 461.377 1377.93 464.09 1376.48 466.436L1355.39 500.535C1353.84 503.048 1351.55 505.02 1348.84 506.184C1331.9 513.439 1267.09 540.828 1228.44 551.737C1226.21 552.361 1223.87 552.435 1221.6 551.954C1219.34 551.472 1217.22 550.449 1215.44 548.972C1213.66 547.494 1212.26 545.607 1211.37 543.471C1210.47 541.336 1210.11 539.015 1210.31 536.708L1211.27 525.488C1211.46 523.326 1212.15 521.237 1213.27 519.379C1214.39 517.521 1215.92 515.941 1217.74 514.761Z" fill="#C1282D"/>
<path d="M1426.91 1081.11L1422.12 1113.76C1422.12 1113.76 1332.13 1148.33 1340.47 1148.85C1348.82 1149.36 1478.15 1141.8 1478.15 1141.8L1470.54 1082.56L1426.91 1081.11Z" fill="#C1282D"/>
<path d="M1451.99 552.954C1451.99 552.954 1459.16 621.983 1464.55 625.507C1468.45 627.9 1472.67 629.707 1477.09 630.871L1465.43 551.97L1451.99 552.954Z" stroke="#424242" stroke-miterlimit="10"/>
<path d="M1594.12 505.484C1594.12 505.484 1630.59 579.799 1620.02 621.18L1417.82 593.377L1422.12 516.082L1594.12 505.484Z" fill="#312E41"/>
<path d="M1599.66 520.539C1599.66 520.539 1571.17 573.477 1516.38 577.726" stroke="black" stroke-width="2" stroke-miterlimit="10" stroke-linecap="round"/>
<path d="M1553.92 566.429C1553.92 566.429 1564.98 600.736 1597.15 601.461" stroke="black" stroke-width="2" stroke-miterlimit="10" stroke-linecap="round"/>
<path d="M1417.8 593.377C1417.8 593.377 1363.61 786.289 1362.21 848.4L1401.79 1087.69C1401.79 1087.69 1439.55 1106.45 1478.88 1091.3C1480.48 1090.67 1458.96 967.179 1457.43 839.953L1570.47 603.327L1417.8 593.377Z" fill="#312E41"/>
<path d="M1620.88 613.096L1612.93 845.912L1701.88 1089.3C1701.88 1089.3 1664.6 1120.81 1617.54 1092.15L1520.87 860.371L1530.92 691.737L1488.77 666.214L1482.5 593.195L1620.88 613.096Z" fill="#312E41"/>
<path d="M1464.42 570.548L1507.34 602.886L1568.89 534.168L1419.4 555.52L1455.98 604.052L1464.42 570.548Z" fill="white"/>
<path d="M1586.84 538.418C1586.84 538.418 1611.4 598.792 1593.71 852.079C1593.71 852.079 1655.61 988.271 1687.79 1096.27" stroke="black" stroke-width="2" stroke-miterlimit="10" stroke-linecap="round"/>
<path d="M1496.59 672.252L1434.71 844.72L1461.34 1094.69" stroke="black" stroke-width="2" stroke-miterlimit="10" stroke-linecap="round"/>
<path d="M1226.65 548.809C1226.65 548.809 1227.85 554.846 1214.48 559.458C1201.11 564.071 1193.24 562.594 1193.24 562.594C1193.24 562.594 1163.24 527.224 1161.92 525.981C1160.6 524.737 1162.85 511.107 1171.74 505.666C1177.13 502.349 1198.01 507.739 1213.6 512.506C1218.85 514.115 1223.34 517.576 1226.23 522.247C1229.12 526.918 1230.22 532.48 1229.32 537.9C1228.84 541.624 1227.95 545.284 1226.65 548.809Z" fill="#DB9C7F"/>
<path d="M1201.94 539.403C1201.94 539.403 1177.41 535.853 1167.05 527.302C1167.05 527.302 1151.51 524.193 1148.3 526.136C1144.48 529.151 1139.98 531.188 1135.19 532.07C1128.07 533.262 1130.22 528.52 1137.78 521.705C1139.93 519.762 1145.55 512.869 1150.6 511.936C1157.75 510.174 1164.81 508.046 1171.74 505.562L1200.73 540.232" fill="#DB9C7F"/>
<path d="M1193.24 562.723C1193.24 562.723 1183.29 568.968 1179.8 568.813C1176.3 568.657 1173.01 566.558 1172.15 560.806C1172.15 560.806 1153.63 564.2 1159.49 550.182C1159.49 550.182 1148.32 548.368 1148.01 541.061C1148.01 541.061 1138.09 536.112 1140.24 528.105C1142.39 520.099 1173.58 520.876 1173.58 520.876L1206.63 537.667L1193.24 562.723Z" fill="#DB9C7F"/>
<path d="M1186.22 563.941C1186.22 563.941 1195.67 555.545 1195.13 552.203C1194.59 548.86 1192.85 547.021 1190.7 547.617C1187.83 548.498 1176.87 556.841 1172.15 560.572" stroke="#1A1C30" stroke-width="0.78" stroke-linecap="round" stroke-linejoin="round"/>
<path d="M1159.49 550.052C1159.49 550.052 1184.67 546.114 1184.9 542.279C1185.13 538.444 1183.37 533.624 1178.11 534.661C1171.87 535.905 1153.94 540.206 1148.01 540.076" stroke="#1A1C30" stroke-width="0.78" stroke-linecap="round" stroke-linejoin="round"/>
<path d="M1190.7 547.617C1190.7 547.617 1195.31 544.767 1193.5 541.553C1191.69 538.34 1189.17 537.226 1183.81 538.6" stroke="#1A1C30" stroke-width="0.78" stroke-linecap="round" stroke-linejoin="round"/>
<path d="M1147.55 529.712C1148.56 528.426 1149.67 527.214 1150.86 526.084" stroke="#1A1C30" stroke-width="0.78" stroke-linecap="round" stroke-linejoin="round"/>
<path d="M1126.69 457.668L1139.4 450.52L1204.78 566.87C1205.69 568.5 1205.92 570.426 1205.42 572.226C1204.91 574.026 1203.72 575.552 1202.09 576.468L1201.66 576.709C1200.85 577.162 1199.96 577.452 1199.04 577.563C1198.13 577.673 1197.19 577.601 1196.3 577.351C1195.41 577.101 1194.58 576.678 1193.85 576.107C1193.12 575.535 1192.52 574.825 1192.06 574.018L1126.69 457.668Z" fill="black"/>
<path d="M1158.97 476.308L1164.46 486.05C1164.83 486.62 1165.09 487.258 1165.22 487.927C1165.34 488.597 1165.34 489.284 1165.2 489.951C1165.06 490.617 1164.79 491.25 1164.4 491.812C1164.02 492.375 1163.53 492.856 1162.96 493.228L1151.09 499.887C1149.86 500.475 1148.44 500.548 1147.15 500.092C1145.86 499.635 1144.8 498.686 1144.2 497.452L1138.48 487.268" fill="#352829"/>
<path d="M1133.61 380.745C1110.92 338.665 1082.48 309.669 1064.4 308.193L1065.02 304.202L1055.56 310.343C1039.32 321.407 1047.95 370.795 1074.83 420.675C1101.72 470.555 1136.64 501.986 1152.88 490.948L1161.74 485.014L1159.15 481.594C1165.44 462.419 1155.71 421.763 1133.61 380.745Z" fill="black"/>
<path d="M1161.1 485.72C1178.4 476.701 1171.2 428.626 1145.01 378.343C1118.82 328.06 1083.56 294.609 1066.26 303.628C1048.95 312.647 1056.15 360.722 1082.34 411.005C1108.53 461.288 1143.79 494.739 1161.1 485.72Z" fill="#352829"/>
<path d="M1152.56 468.543C1164.56 462.225 1156.88 424.015 1135.41 383.201C1113.93 342.386 1086.79 314.422 1074.79 320.74C1062.79 327.059 1070.47 365.268 1091.95 406.083C1113.42 446.898 1140.56 474.862 1152.56 468.543Z" fill="#D3DDF7"/>
<path d="M1201.94 539.403C1201.94 539.403 1177.41 535.853 1167.05 527.302C1167.05 527.302 1151.51 524.193 1148.3 526.136C1144.48 529.151 1139.98 531.188 1135.19 532.07C1128.07 533.262 1130.22 528.52 1137.78 521.705C1139.93 519.762 1145.55 512.869 1150.6 511.936C1157.75 510.174 1164.81 508.046 1171.74 505.562L1200.73 540.232" fill="#DB9C7F"/>
<path d="M1201.94 539.403C1201.94 539.403 1177.41 535.853 1167.05 527.302C1167.05 527.302 1151.51 524.193 1148.3 526.136C1144.48 529.151 1139.98 531.188 1135.19 532.07" stroke="#1A1C30" stroke-width="0.78" stroke-linecap="round" stroke-linejoin="round"/>
<path d="M1134.08 380.719C1112.21 340.116 1085.35 313.349 1074.06 321.123C1073.15 321.784 1072.38 322.61 1071.78 323.558C1084.73 324.336 1107.6 349.107 1126.64 384.399C1146.77 421.789 1155.63 457.91 1148.12 469.389C1149.94 469.568 1151.77 469.11 1153.3 468.094C1164.54 460.424 1155.94 421.297 1134.08 380.719Z" fill="black"/>
<path d="M1128.7 411.541C1135.08 408.181 1130.99 387.852 1119.56 366.134C1108.14 344.416 1093.7 329.533 1087.32 332.893C1080.94 336.252 1085.03 356.582 1096.46 378.3C1107.89 400.018 1122.32 414.9 1128.7 411.541Z" fill="white"/>
<path d="M1553.87 434.279L1535.73 369.889C1529 346.242 1517.54 324.205 1502.06 305.109C1474.91 271.165 1403.63 274.249 1403.63 274.249L1348.82 313.971L1348.3 314.256C1315.92 332.109 1310.04 359.524 1310.89 402.071L1312.89 459.362L1350.06 423.837L1359.44 436.793C1359.44 436.43 1359.44 436.067 1359.44 435.73L1363.87 442.726L1359.54 436.793C1360.86 448.608 1367.03 478.718 1395.67 492.788L1411.99 518.466L1407.67 553.991C1560.83 609.701 1598.99 500.276 1598.99 500.276L1553.87 434.279Z" fill="#C1282D"/>
<path d="M1342.18 417.825L1362.26 442.364C1362.26 442.364 1359.51 480.195 1397.59 492.321" stroke="black" stroke-width="2" stroke-miterlimit="10" stroke-linecap="round"/>
<path d="M1494.42 467.783L1377.85 569.382C1377.85 569.382 1400.93 601.72 1411.35 602.86L1551.02 513.957" fill="#C1282D"/>
<path d="M1412.46 538.211C1412.46 538.211 1475.95 466.617 1497.94 456.226" stroke="black" stroke-width="2" stroke-miterlimit="10" stroke-linecap="round"/>
<path d="M1464.27 390.566C1464.27 390.566 1467.3 406.579 1487.58 462.86" stroke="black" stroke-width="2" stroke-miterlimit="10" stroke-linecap="round"/>
<path d="M1427.46 593.636C1427.46 593.636 1557.91 510.511 1559.05 486.258C1560.19 462.004 1526.15 349.418 1526.15 349.418" stroke="black" stroke-width="2" stroke-miterlimit="10" stroke-linecap="round"/>
<path d="M1441.76 475.867C1441.76 475.867 1473.15 478.821 1482.87 450.318" stroke="black" stroke-width="2" stroke-miterlimit="10" stroke-linecap="round"/>
<path d="M1314.62 454.646C1315.77 453.464 1317.17 452.547 1318.7 451.956C1320.24 451.365 1321.89 451.115 1323.54 451.223C1325.18 451.332 1326.78 451.796 1328.23 452.583C1329.68 453.371 1330.94 454.464 1331.93 455.786" stroke="black" stroke-width="2" stroke-miterlimit="10" stroke-linecap="round"/>
<path d="M1211.89 511.807L1230.44 503.126C1230.44 503.126 1252.95 527.665 1244.86 548.757L1222.35 555.39C1222.35 555.39 1232.69 532.303 1211.89 511.807Z" fill="white"/>
<path d="M1385.18 556.401C1385.18 556.401 1409.43 566.766 1426.63 596.668L1408 610.945C1408 610.945 1385.05 578.037 1369.15 572.855L1385.18 556.401Z" fill="white"/>
<path d="M1364.85 270.621L1441.32 276.243C1441.32 276.243 1444.22 318.324 1398.03 355.43L1377.31 335.27L1365.99 359.809C1365.99 359.809 1348.45 349.936 1346.1 321.589L1349.83 287.178L1364.85 270.621Z" fill="white"/>
<path d="M1403.7 274.352C1405.07 275.523 1406.11 277.029 1406.72 278.724C1407.33 280.419 1407.49 282.243 1407.18 284.017C1404.59 297.698 1397.31 330.839 1382.41 335.011C1363.61 340.194 1351.85 303.088 1351.85 303.088L1361.25 238.127L1403.7 274.352Z" fill="#DB9C7F"/>
<path d="M1344.07 289.744L1343.84 299.202C1343.69 299.202 1340.47 327.238 1349.85 328.3C1389.04 321.227 1391.5 284.043 1394.87 247.145C1394.87 247.145 1340.27 282.385 1344.07 289.744Z" fill="black"/>
<path d="M1278.82 220.119C1278.82 220.119 1269.29 311.199 1325.81 326.927C1382.33 342.655 1395.93 250.332 1393.99 218.435C1392.05 186.538 1377.83 174.644 1338.17 173.219C1279.65 171.016 1278.82 220.119 1278.82 220.119Z" fill="#DB9C7F"/>
<path d="M1329.65 264.117C1329.8 267.408 1328.25 270.128 1326.15 270.232C1324.05 270.336 1322.26 267.641 1322.08 264.505C1321.9 261.37 1323.48 258.468 1325.58 258.364C1327.68 258.261 1329.47 260.826 1329.65 264.117Z" fill="black"/>
<path d="M1335.84 247.326C1335.84 247.326 1317.16 255.463 1315.32 241.341" stroke="black" stroke-miterlimit="10" stroke-linecap="round"/>
<path d="M1292.6 247.378C1292.6 247.378 1286.41 258.105 1279.32 253.338" stroke="black" stroke-miterlimit="10" stroke-linecap="round"/>
<path d="M1282.71 266.423C1285.71 265.83 1288.83 266.395 1291.44 268.004" stroke="black" stroke-miterlimit="10" stroke-linecap="round"/>
<path d="M1338.09 300.393C1340.78 297.807 1343.95 295.773 1347.42 294.408" stroke="black" stroke-miterlimit="10" stroke-linecap="round"/>
<path d="M1299.88 276.917C1299.44 277.956 1299.21 279.077 1299.23 280.208C1299.24 281.339 1299.49 282.455 1299.96 283.483C1300.43 284.511 1301.11 285.429 1301.96 286.177C1302.81 286.925 1303.8 287.487 1304.88 287.826" stroke="black" stroke-miterlimit="10" stroke-linecap="round"/>
<path d="M1278.15 239.682C1278.15 239.682 1279.11 213.019 1290.92 197.965C1290.92 197.965 1307.16 234.889 1377.15 242.403L1397.54 238.128C1397.54 238.128 1405.88 195.373 1376.64 178.531C1347.39 161.688 1302.66 170.99 1288.28 186.149C1281.33 192.973 1276.64 201.759 1274.83 211.328C1273.02 220.897 1274.18 230.791 1278.15 239.682Z" fill="black"/>
<path d="M1363.58 237.532L1375.7 261.474L1384.25 234.578L1363.58 237.532Z" fill="black"/>
<path d="M1405.79 259.215C1409.37 246.518 1405.13 234.203 1396.3 231.708C1387.48 229.214 1377.42 237.485 1373.83 250.182C1370.24 262.879 1374.49 275.194 1383.31 277.689C1392.14 280.183 1402.2 271.913 1405.79 259.215Z" fill="#DB9C7F"/>
<path d="M1397 247.896C1397 247.896 1387.02 239.319 1381.58 254.996C1381.58 254.996 1387.41 261.189 1383.73 266.034C1385.38 266.379 1387.08 266.203 1388.62 265.529C1390.16 264.856 1391.45 263.719 1392.31 262.277" stroke="black" stroke-linecap="round" stroke-linejoin="round"/>
<path d="M1392.7 253.908C1391.96 251.05 1390.42 248.462 1388.27 246.445" stroke="black" stroke-linecap="round" stroke-linejoin="round"/>
<path d="M1397.54 277.358C1397.54 279.069 1397.03 280.743 1396.08 282.166C1395.13 283.589 1393.78 284.698 1392.2 285.353C1390.62 286.008 1388.88 286.18 1387.2 285.846C1385.52 285.512 1383.98 284.688 1382.77 283.477C1381.56 282.267 1380.74 280.725 1380.4 279.046C1380.07 277.367 1380.24 275.627 1380.89 274.046C1381.55 272.464 1382.66 271.113 1384.08 270.162C1385.5 269.211 1387.18 268.703 1388.89 268.703C1391.18 268.703 1393.38 269.615 1395.01 271.238C1396.63 272.861 1397.54 275.062 1397.54 277.358Z" fill="white"/>
<path d="M1373.32 189.595C1373.32 189.595 1383.94 134.066 1408.76 144.716C1433.57 155.366 1444.79 208.511 1421.16 212.656C1406.78 215.028 1392.02 212.529 1379.23 205.557L1373.32 189.595Z" fill="black"/>
<path d="M1373.6 205.634C1373.6 205.634 1414.66 239.915 1428 208.225" stroke="black" stroke-width="2" stroke-miterlimit="10" stroke-linecap="round"/>
<path d="M1528.74 690.416L1481.23 663.598" stroke="black" stroke-width="2" stroke-miterlimit="10" stroke-linecap="round"/>
<path d="M450.2 338.147C469.751 338.684 488.711 344.96 504.722 356.196C520.733 367.431 533.086 383.129 540.246 401.335C547.405 419.541 549.053 439.451 544.985 458.587C540.917 477.723 531.313 495.24 517.368 508.956C515.927 510.357 514.847 512.085 514.22 513.994C513.593 515.903 513.438 517.935 513.767 519.917L521.176 563.63L475.715 537.148C473.135 535.621 470.084 535.095 467.141 535.671C453.373 538.441 439.174 538.271 425.476 535.171C411.778 532.071 398.889 526.113 387.652 517.685C376.416 509.257 367.085 498.55 360.272 486.265C353.459 473.98 349.317 460.394 348.116 446.397C346.916 432.399 348.684 418.306 353.306 405.04C357.928 391.774 365.299 379.633 374.936 369.414C384.573 359.195 396.259 351.127 409.229 345.739C422.2 340.35 436.161 337.763 450.2 338.147Z" fill="#D3DDF7"/>
<path d="M424.219 432.31C421.036 428.739 419.251 424.138 419.194 419.354C419.134 416.604 419.73 413.878 420.932 411.405C422.135 408.931 423.91 406.779 426.11 405.128C431.234 401.285 437.534 399.343 443.932 399.635C450.725 399.39 457.387 401.556 462.737 405.75C465.092 407.532 466.998 409.84 468.303 412.49C469.607 415.14 470.274 418.059 470.249 421.012C470.33 424.967 469.23 428.855 467.089 432.18C464.164 436.147 460.506 439.516 456.313 442.104L449.009 447.002C446.537 448.677 444.387 450.783 442.662 453.22C441.146 454.926 440.236 457.085 440.072 459.362L440.279 463.145C440.307 463.458 440.265 463.773 440.158 464.069C440.051 464.364 439.88 464.633 439.658 464.855C439.453 465.086 439.195 465.263 438.906 465.372C438.617 465.48 438.306 465.516 438 465.477C436.964 465.477 436.005 464.673 435.176 463.222C434.352 461.677 433.933 459.947 433.959 458.196C433.959 451.925 437.43 445.24 444.32 438.114C447.812 434.789 450.915 431.077 453.568 427.05C455.142 424.364 455.956 421.301 455.925 418.188C456.076 414.708 454.847 411.309 452.506 408.73C450.209 406.523 447.181 405.24 443.998 405.125C440.816 405.01 437.703 406.072 435.254 408.108C434.175 408.973 433.306 410.069 432.709 411.316C432.113 412.564 431.805 413.929 431.809 415.312C431.809 418.266 433.7 420.883 437.456 423.085L436.756 423.578L433.052 425.702C429.898 427.608 426.939 429.822 424.219 432.31ZM446.004 424.536L444.476 425.365C439.189 428.324 434.077 431.586 429.167 435.134L428.545 435.549L427.431 434.098L428.131 433.605C432.71 430.298 437.485 427.269 442.429 424.536C440.744 423.637 439.332 422.302 438.338 420.67C437.345 419.038 436.808 417.17 436.782 415.26C436.772 414.344 436.972 413.437 437.367 412.611C437.763 411.784 438.342 411.059 439.062 410.492C440.624 409.157 442.629 408.455 444.683 408.523C449.035 408.523 452.29 410.993 454.448 415.934H454.034C453.005 414.307 451.599 412.954 449.934 411.989C448.27 411.023 446.397 410.474 444.476 410.388C440.538 410.388 438.57 412.116 438.57 415.571C438.57 419.354 441.048 422.299 446.004 424.407V424.536ZM444.268 469.027C445.442 469.02 446.605 469.245 447.69 469.691C448.776 470.136 449.763 470.792 450.594 471.62C451.424 472.449 452.083 473.434 452.531 474.519C452.979 475.604 453.208 476.767 453.205 477.94C453.228 479.108 453.01 480.267 452.565 481.346C452.119 482.425 451.455 483.401 450.615 484.211C449.581 485.24 448.311 486 446.915 486.422C445.519 486.844 444.041 486.916 442.611 486.631C441.18 486.346 439.842 485.714 438.714 484.79C437.586 483.865 436.703 482.677 436.142 481.331C435.581 479.984 435.361 478.52 435.5 477.068C435.639 475.616 436.133 474.22 436.938 473.004C437.744 471.788 438.836 470.789 440.119 470.096C441.402 469.402 442.836 469.035 444.294 469.027H444.268ZM455.484 471.903C456.725 472.999 457.712 474.353 458.374 475.87C459.036 477.388 459.358 479.032 459.318 480.687C459.337 483.082 458.615 485.425 457.253 487.395C455.891 489.365 453.954 490.866 451.707 491.694C449.46 492.522 447.012 492.636 444.698 492.02C442.383 491.404 440.316 490.088 438.777 488.253L439.191 487.787C441.59 489.349 444.362 490.243 447.221 490.378C448.586 490.394 449.94 490.137 451.204 489.621C452.468 489.104 453.615 488.34 454.578 487.372C455.565 486.473 456.352 485.377 456.888 484.153C457.424 482.93 457.696 481.608 457.686 480.272C457.581 477.415 456.625 474.654 454.941 472.343L455.484 471.903ZM466.001 403.911C469.121 405.978 471.678 408.789 473.442 412.091C475.205 415.393 476.12 419.082 476.104 422.826C476.079 427.962 474.338 432.942 471.156 436.974C466.702 441.61 461.77 445.762 456.443 449.36L452.583 452.184C447.921 455.639 445.589 458.938 445.589 462.082C445.717 464.082 446.35 466.017 447.429 467.705L444.968 467.031C444.16 465.506 443.734 463.808 443.724 462.082C443.765 459.617 444.684 457.246 446.315 455.397C448.974 452.499 451.995 449.956 455.303 447.831C461.006 444.276 466.126 439.862 470.483 434.745C473.237 431.072 474.695 426.588 474.627 421.997C474.593 418.501 473.704 415.067 472.037 411.995C470.544 408.996 468.283 406.448 465.483 404.61L466.001 403.911Z" fill="black"/>
</g>
<defs>
<clipPath id="clip0_37_481">
<rect width="1529" height="1058" fill="white" transform="translate(195 140)"/>
</clipPath>
</defs>
</svg>
