<svg width="1920" height="1356" viewBox="0 0 1920 1356" fill="none" xmlns="http://www.w3.org/2000/svg">
<g clip-path="url(#clip0_5_1720)">
<path d="M1519.84 738.89C1523.36 733.965 1525.45 728.165 1525.89 722.128C1526.33 716.091 1525.1 710.05 1522.33 704.668C1519.56 699.286 1515.36 694.77 1510.19 691.616C1505.03 688.462 1499.09 686.793 1493.04 686.79C1492.36 686.79 1491.7 686.79 1491.04 686.86C1494.93 682.017 1497.37 676.173 1498.09 670.001C1498.8 663.829 1497.75 657.582 1495.07 651.979C1492.38 646.377 1488.17 641.648 1482.91 638.337C1477.65 635.027 1471.57 633.271 1465.36 633.271C1459.14 633.271 1453.06 635.027 1447.8 638.337C1442.54 641.648 1438.33 646.377 1435.64 651.979C1432.96 657.582 1431.91 663.829 1432.62 670.001C1433.34 676.173 1435.78 682.017 1439.67 686.86C1433.71 686.931 1427.89 688.616 1422.81 691.736C1417.74 694.857 1413.6 699.296 1410.85 704.58C1408.1 709.864 1406.83 715.796 1407.19 721.743C1407.54 727.69 1409.5 733.429 1412.86 738.35C1406.67 740.061 1400.95 743.187 1396.17 747.482C1391.4 751.778 1387.68 757.125 1385.32 763.102C1382.96 769.079 1382.02 775.522 1382.58 781.924C1383.13 788.326 1385.17 794.511 1388.52 799.992C1391.88 805.472 1396.46 810.098 1401.91 813.505C1407.36 816.911 1413.53 819.006 1419.92 819.622C1426.32 820.239 1432.77 819.361 1438.77 817.058C1444.77 814.754 1450.15 811.089 1454.49 806.35C1458.58 811.972 1463.84 816.632 1469.92 820.003C1476 823.374 1482.74 825.376 1489.67 825.867C1496.6 826.358 1503.56 825.326 1510.05 822.845C1516.54 820.364 1522.41 816.492 1527.25 811.503C1532.08 806.513 1535.77 800.525 1538.05 793.96C1540.33 787.395 1541.14 780.41 1540.44 773.497C1539.73 766.583 1537.52 759.907 1533.97 753.938C1530.41 747.968 1525.59 742.85 1519.84 738.94V738.89Z" fill="#D5DADE"></path>
<path d="M1464.21 903V766.87C1466.42 763.77 1484.1 743.73 1495.14 731.38C1495.46 731.009 1495.62 730.526 1495.59 730.036C1495.56 729.546 1495.34 729.089 1494.97 728.762C1494.6 728.435 1494.12 728.265 1493.63 728.289C1493.14 728.313 1492.68 728.529 1492.35 728.89C1476.06 747.12 1468.1 756.26 1464.21 760.96V707.02C1464.21 706.524 1464.01 706.049 1463.66 705.698C1463.31 705.347 1462.84 705.15 1462.34 705.15C1461.84 705.15 1461.37 705.347 1461.02 705.698C1460.67 706.049 1460.47 706.524 1460.47 707.02V785.71C1452.37 772.86 1443.57 761.13 1443.47 760.99C1443.32 760.793 1443.14 760.627 1442.93 760.502C1442.71 760.376 1442.48 760.294 1442.24 760.259C1441.99 760.224 1441.74 760.238 1441.5 760.299C1441.27 760.36 1441.04 760.467 1440.85 760.615C1440.65 760.763 1440.48 760.948 1440.36 761.16C1440.23 761.372 1440.15 761.606 1440.11 761.85C1440.08 762.094 1440.09 762.342 1440.15 762.581C1440.21 762.819 1440.32 763.043 1440.47 763.24C1440.58 763.38 1451.53 777.97 1460.16 792.35C1460.24 792.493 1460.34 792.624 1460.46 792.74V903H1464.21Z" fill="#E6EAED"></path>
<path d="M1623.23 591.33C1627.37 585.534 1629.83 578.711 1630.34 571.609C1630.85 564.507 1629.4 557.401 1626.14 551.07C1622.89 544.739 1617.95 539.427 1611.87 535.717C1605.79 532.008 1598.81 530.044 1591.69 530.04C1590.9 530.04 1590.12 530.04 1589.34 530.12C1593.92 524.428 1596.81 517.557 1597.65 510.298C1598.5 503.039 1597.28 495.689 1594.12 489.095C1590.97 482.501 1586.02 476.933 1579.84 473.032C1573.66 469.131 1566.51 467.056 1559.2 467.048C1551.89 467.039 1544.73 469.097 1538.54 472.984C1532.35 476.87 1527.39 482.427 1524.22 489.014C1521.05 495.6 1519.81 502.948 1520.64 510.209C1521.47 517.47 1524.34 524.348 1528.91 530.05C1521.9 530.137 1515.05 532.123 1509.08 535.795C1503.11 539.467 1498.25 544.688 1495.02 550.903C1491.78 557.119 1490.29 564.095 1490.7 571.091C1491.11 578.086 1493.41 584.839 1497.36 590.63C1490.08 592.647 1483.36 596.328 1477.74 601.383C1472.12 606.438 1467.75 612.73 1464.98 619.761C1462.21 626.792 1461.11 634.371 1461.77 641.901C1462.42 649.43 1464.82 656.704 1468.77 663.15C1472.71 669.595 1478.11 675.035 1484.51 679.041C1490.92 683.047 1498.18 685.51 1505.7 686.236C1513.22 686.961 1520.81 685.929 1527.87 683.221C1534.92 680.512 1541.25 676.202 1546.36 670.63C1551.17 677.245 1557.36 682.728 1564.51 686.696C1571.66 690.663 1579.59 693.019 1587.75 693.598C1595.9 694.176 1604.09 692.964 1611.72 690.045C1619.36 687.126 1626.27 682.572 1631.96 676.702C1637.65 670.832 1641.99 663.788 1644.67 656.064C1647.35 648.34 1648.31 640.122 1647.48 631.988C1646.65 623.854 1644.05 616 1639.87 608.976C1635.68 601.953 1630.01 595.93 1623.25 591.33H1623.23Z" fill="#E6EAED"></path>
<path d="M1557.82 902.87V624.24C1560.42 620.59 1581.23 597.03 1594.21 582.49C1594.42 582.279 1594.59 582.026 1594.7 581.747C1594.81 581.468 1594.87 581.169 1594.86 580.869C1594.85 580.568 1594.78 580.273 1594.66 580C1594.53 579.728 1594.35 579.484 1594.12 579.284C1593.9 579.085 1593.64 578.933 1593.35 578.839C1593.07 578.744 1592.76 578.71 1592.47 578.736C1592.17 578.763 1591.88 578.851 1591.61 578.994C1591.35 579.138 1591.12 579.334 1590.93 579.57C1571.77 601.01 1562.41 611.76 1557.82 617.3V553.81C1557.82 553.227 1557.59 552.667 1557.18 552.254C1556.76 551.842 1556.2 551.61 1555.62 551.61C1555.04 551.61 1554.48 551.842 1554.06 552.254C1553.65 552.667 1553.42 553.227 1553.42 553.81V646.41C1543.9 631.29 1533.54 617.48 1533.42 617.33C1533.25 617.099 1533.03 616.904 1532.78 616.757C1532.53 616.61 1532.26 616.513 1531.97 616.472C1531.69 616.431 1531.39 616.447 1531.11 616.519C1530.83 616.591 1530.57 616.717 1530.34 616.89C1530.11 617.063 1529.91 617.281 1529.77 617.529C1529.62 617.778 1529.52 618.053 1529.48 618.339C1529.44 618.625 1529.46 618.916 1529.53 619.196C1529.6 619.476 1529.73 619.739 1529.9 619.97C1530.03 620.14 1542.9 637.3 1553.06 654.23C1553.16 654.389 1553.28 654.537 1553.41 654.67V902.87H1557.82Z" fill="#D5DADE"></path>
<path d="M210.57 747C207.227 742.318 205.238 736.805 204.821 731.067C204.405 725.328 205.577 719.586 208.21 714.47C210.842 709.354 214.833 705.062 219.744 702.065C224.655 699.068 230.297 697.482 236.05 697.48C236.69 697.48 237.32 697.48 237.95 697.55C234.246 692.951 231.917 687.399 231.232 681.533C230.548 675.668 231.535 669.728 234.081 664.4C236.627 659.072 240.627 654.572 245.621 651.419C250.614 648.266 256.397 646.59 262.302 646.583C268.208 646.575 273.995 648.238 278.996 651.378C283.997 654.518 288.009 659.008 290.568 664.33C293.127 669.653 294.129 675.59 293.459 681.457C292.788 687.324 290.473 692.882 286.78 697.49C292.451 697.552 297.998 699.153 302.83 702.122C307.662 705.092 311.597 709.318 314.214 714.349C316.831 719.38 318.033 725.028 317.69 730.688C317.348 736.349 315.475 741.811 312.27 746.49C318.158 748.116 323.588 751.087 328.132 755.17C332.675 759.253 336.208 764.336 338.452 770.017C340.695 775.699 341.588 781.824 341.059 787.91C340.531 793.995 338.595 799.875 335.406 805.085C332.217 810.295 327.861 814.692 322.681 817.931C317.502 821.169 311.641 823.16 305.561 823.746C299.481 824.332 293.347 823.498 287.644 821.309C281.942 819.119 276.826 815.635 272.7 811.13C268.816 816.476 263.811 820.907 258.033 824.113C252.256 827.319 245.847 829.223 239.257 829.691C232.666 830.158 226.053 829.178 219.881 826.82C213.709 824.461 208.127 820.781 203.528 816.038C198.929 811.294 195.423 805.601 193.256 799.359C191.089 793.117 190.314 786.477 190.985 779.904C191.656 773.331 193.757 766.984 197.14 761.309C200.523 755.633 205.107 750.767 210.57 747.05V747Z" fill="#D5DADE"></path>
<path d="M263.49 903V773.6C261.39 770.6 244.58 751.6 234.08 739.86C233.925 739.686 233.806 739.483 233.729 739.263C233.653 739.043 233.62 738.81 233.634 738.578C233.647 738.345 233.706 738.117 233.808 737.908C233.909 737.698 234.051 737.51 234.225 737.355C234.399 737.2 234.602 737.081 234.822 737.004C235.042 736.928 235.275 736.895 235.508 736.909C235.74 736.922 235.968 736.981 236.178 737.083C236.387 737.184 236.575 737.326 236.73 737.5C252.22 754.83 259.73 763.5 263.49 767.98V716.81C263.48 716.378 263.623 715.956 263.894 715.619C264.164 715.283 264.546 715.053 264.97 714.97C265.225 714.928 265.486 714.942 265.736 715.011C265.985 715.08 266.216 715.203 266.413 715.37C266.61 715.538 266.768 715.746 266.876 715.981C266.985 716.216 267.041 716.471 267.04 716.73V791.53C274.73 779.31 283.11 768.16 283.2 768.03C283.336 767.831 283.51 767.662 283.713 767.532C283.916 767.403 284.144 767.316 284.381 767.277C284.619 767.237 284.862 767.247 285.096 767.304C285.33 767.362 285.55 767.466 285.742 767.611C285.934 767.756 286.095 767.939 286.215 768.148C286.335 768.357 286.411 768.588 286.439 768.827C286.467 769.066 286.446 769.308 286.377 769.539C286.309 769.77 286.194 769.985 286.04 770.17C285.94 770.3 275.53 784.17 267.33 797.84C267.25 797.976 267.153 798.1 267.04 798.21V903.02L263.49 903Z" fill="#E6EAED"></path>
<path d="M307.16 704.02C304.518 700.321 302.946 695.966 302.617 691.432C302.287 686.899 303.213 682.362 305.293 678.32C307.373 674.278 310.526 670.888 314.406 668.52C318.287 666.153 322.744 664.9 327.29 664.9C327.79 664.9 328.29 664.9 328.79 664.9C325.868 661.264 324.034 656.876 323.498 652.242C322.963 647.608 323.749 642.917 325.765 638.71C327.781 634.504 330.946 630.953 334.893 628.467C338.84 625.982 343.41 624.663 348.075 624.663C352.74 624.663 357.309 625.982 361.257 628.467C365.204 630.953 368.369 634.504 370.385 638.71C372.401 642.917 373.187 647.608 372.652 652.242C372.116 656.876 370.282 661.264 367.36 664.9C371.832 664.959 376.205 666.229 380.014 668.575C383.822 670.92 386.924 674.254 388.989 678.222C391.053 682.19 392.004 686.643 391.741 691.108C391.477 695.573 390.008 699.883 387.49 703.58C392.153 704.854 396.456 707.196 400.058 710.42C403.66 713.645 406.462 717.663 408.243 722.158C410.023 726.653 410.733 731.5 410.316 736.316C409.898 741.133 408.366 745.786 405.84 749.908C403.313 754.029 399.862 757.507 395.76 760.064C391.657 762.621 387.016 764.189 382.203 764.642C377.389 765.095 372.537 764.422 368.029 762.676C363.521 760.929 359.481 758.158 356.23 754.58C353.162 758.801 349.209 762.301 344.646 764.833C340.083 767.365 335.022 768.868 329.817 769.237C324.612 769.607 319.389 768.833 314.515 766.97C309.64 765.108 305.232 762.202 301.599 758.456C297.967 754.71 295.197 750.215 293.485 745.286C291.773 740.356 291.16 735.112 291.689 729.921C292.218 724.729 293.876 719.717 296.547 715.234C299.217 710.751 302.836 706.907 307.15 703.97L307.16 704.02Z" fill="#E6EAED"></path>
<path d="M351.75 902.87V744.45C351.84 744.369 351.918 744.274 351.98 744.17C358.46 733.36 366.68 722.41 366.76 722.3C366.984 722.003 367.081 721.629 367.029 721.261C366.978 720.892 366.782 720.559 366.485 720.335C366.188 720.111 365.814 720.014 365.446 720.066C365.077 720.117 364.744 720.313 364.52 720.61C364.44 720.71 357.83 729.52 351.75 739.17V680.09C351.75 679.719 351.603 679.363 351.34 679.1C351.077 678.838 350.721 678.69 350.35 678.69C349.979 678.69 349.623 678.838 349.36 679.1C349.098 679.363 348.95 679.719 348.95 680.09V720.59C346.02 717.06 340.05 710.2 327.81 696.51C327.562 696.233 327.214 696.066 326.843 696.045C326.471 696.024 326.107 696.152 325.83 696.4C325.553 696.648 325.386 696.996 325.365 697.367C325.344 697.739 325.472 698.103 325.72 698.38C334.01 707.66 347.29 722.7 348.95 725.03V902.87H351.75Z" fill="#D5DADE"></path>
<path d="M1199.54 936.43C1195.54 913.36 1149.54 832.9 1149.54 832.9L1018.27 858.81C1012.57 865.16 994.59 948.98 1008.59 979.39C1022.59 1009.8 1030.59 1013.99 1053.59 1013.99C1076.59 1013.99 1092.59 1008.75 1104.59 1008.75C1116.59 1008.75 1143.97 1019.23 1170.77 1005.6C1197.57 991.97 1203.54 959.5 1199.54 936.43Z" fill="#302E41"></path>
<path d="M1150.11 678.56C1138.29 655.39 1119.47 639.24 1115.19 649.98C1096.65 696.52 1141.44 756.56 1141.44 756.56C1141.44 756.56 1161.94 701.73 1150.11 678.56Z" fill="#6055A3"></path>
<path d="M1007.08 711.54L978.76 680.23C958.1 694.75 952.46 724.15 958.97 748.55C965.48 772.95 981.69 793.45 997.97 812.77C1004.97 821.08 1012.61 829.7 1022.97 832.9C1019.25 792.26 1013.95 751.807 1007.08 711.54Z" fill="#6055A3"></path>
<path d="M1147.89 813.92C1145.64 804.92 1144.4 748.8 1138.66 712.54C1132.92 676.28 1118.91 645.4 1106.79 638.93L986.99 697.09C972.08 778.26 1009.34 834.68 1010.05 845.09C1010.76 855.5 1007.16 857.38 1012.57 863.65C1017.98 869.92 1045.39 880.1 1076.62 870.29C1107.85 860.48 1149.62 856.07 1156.09 844.61C1162.56 833.15 1150.14 822.95 1147.89 813.92Z" fill="#6068AE"></path>
<path d="M981.81 594.35C978.757 591.52 975.087 589.442 971.09 588.28C969.716 587.789 968.237 587.665 966.8 587.92C965.812 588.217 964.91 588.749 964.172 589.47C963.434 590.191 962.881 591.079 962.56 592.06C961.939 594.03 961.761 596.113 962.04 598.16C962.789 605.754 966.052 612.88 971.31 618.41C973.265 620.642 975.777 622.316 978.59 623.26C982.14 624.26 985.91 623.44 989.5 622.61C992.26 621.97 995.59 620.74 995.92 617.93L981.81 594.35Z" fill="#F9B3A4"></path>
<path d="M1078.73 569.62C1080.25 565.739 1082.64 562.261 1085.73 559.46C1086.75 558.419 1088.03 557.66 1089.43 557.26C1090.45 557.092 1091.49 557.172 1092.47 557.494C1093.45 557.816 1094.34 558.371 1095.06 559.11C1096.49 560.606 1097.56 562.404 1098.2 564.37C1100.86 571.516 1101.07 579.345 1098.78 586.62C1098 589.487 1096.48 592.096 1094.36 594.18C1091.62 596.64 1087.86 597.56 1084.27 598.39C1081.51 599.03 1077.99 599.39 1076.45 597L1078.73 569.62Z" fill="#C0597A"></path>
<path d="M932.11 886.03L750.82 871.03C750.82 871.03 698.26 971.81 734.73 1000.81C771.2 1029.81 803.38 1017.98 819.47 1017.98C835.56 1017.98 907.47 1035.56 932.11 992.44C956.75 949.32 932.11 886.03 932.11 886.03Z" fill="#302E41"></path>
<path d="M893.67 554.98C898.43 561.29 898.45 569.98 896.83 577.75C895.21 585.52 892.17 592.95 891.49 600.81C907.231 605.154 923.541 607.076 939.86 606.51C940.75 606.586 941.637 606.329 942.35 605.79C942.899 605.102 943.183 604.24 943.15 603.36C943.338 600.518 943.671 597.688 944.15 594.88C946.41 582.88 953.94 572.58 961.27 562.77L893.67 554.98Z" fill="#F9B3A4"></path>
<path d="M881.06 517.04C879.466 513.195 877.001 509.772 873.86 507.04C872.816 506.019 871.523 505.288 870.11 504.92C869.088 504.782 868.047 504.892 867.076 505.24C866.105 505.588 865.232 506.164 864.53 506.92C863.145 508.451 862.12 510.272 861.53 512.25C859.055 519.467 859.055 527.303 861.53 534.52C862.375 537.365 863.959 539.936 866.12 541.97C868.92 544.36 872.7 545.19 876.31 545.97C879.08 546.54 882.62 546.81 884.09 544.39L881.06 517.04Z" fill="#F9B3A4"></path>
<path d="M979.49 535.08C982.466 532.207 986.067 530.061 990.01 528.81C991.376 528.287 992.854 528.129 994.3 528.35C995.29 528.623 996.2 529.128 996.955 529.824C997.71 530.519 998.288 531.386 998.64 532.35C999.307 534.307 999.529 536.387 999.29 538.44C998.716 546.047 995.619 553.244 990.49 558.89C988.59 561.163 986.118 562.889 983.33 563.89C979.81 564.98 976.01 564.24 972.4 563.5C969.63 562.93 966.27 561.77 965.88 558.97L979.49 535.08Z" fill="#C2BEDF"></path>
<path d="M1018.06 462.32C1017.31 458.117 1015.23 454.266 1012.13 451.336C1009.02 448.406 1005.06 446.553 1000.82 446.05C1004.72 444.26 1008.95 442.13 1010.57 438.16C1012.7 432.93 1008.98 426.77 1003.9 424.29C998.82 421.81 992.9 422.07 987.26 422.55L1006.26 408.25C985.336 405.226 964.001 409.255 945.62 419.7C947.34 418.18 949.15 416.51 949.62 414.27C950.09 412.03 948.42 409.27 946.15 409.54C945.404 409.696 944.699 410.006 944.08 410.45L904.08 435.21C896.87 439.67 889.48 444.3 884.46 451.13C877.89 460.08 876.22 471.61 875.02 482.65C873.64 495.36 872.72 508.74 877.88 520.44C877.88 520.44 874.21 548.31 886.78 563.15C888.46 565.15 890.5 567.15 893.09 567.37C895.68 567.59 898.47 564.9 897.35 562.56L906.08 574.36C907.52 576.3 909.72 578.5 911.97 577.6C914.97 576.39 914.11 571.1 916.97 569.5C919.17 572.43 920.82 575.78 923.22 578.56C925.62 581.34 929.07 583.56 932.73 583.23C936.39 582.9 939.66 578.95 938.31 575.53C941.39 578.44 944.75 581.53 948.95 582.08C953.15 582.63 958.08 579.39 957.47 575.2C960.61 578 964.47 581 968.57 580.06C972.67 579.12 975.03 574.29 975.14 569.96C975.25 565.63 973.9 561.38 973.82 557.05C973.63 546.48 980.82 537.46 987.06 528.89C993.236 520.347 998.711 511.317 1003.43 501.89C1005.64 497.49 1007.65 492.1 1005.13 487.89C1004.61 487.01 1003.87 486.09 1004.13 485.09C1004.39 484.09 1005.56 483.52 1006.57 483.09C1010.46 481.322 1013.68 478.347 1015.75 474.606C1017.82 470.865 1018.63 466.557 1018.06 462.32Z" fill="#302E41"></path>
<path d="M810.54 605.03C863.08 583.21 959.43 591.34 995.72 621.57C1032.01 651.8 1165.91 743.57 1166.99 760.86C1168.07 778.15 1161.59 814.86 1144.32 815.93C1127.05 817 987.75 750.07 987.75 750.07C987.75 750.07 958.75 908.81 942.49 924.99C926.23 941.17 880.4 924.99 880.4 924.99C880.4 924.99 809.6 939.6 773.96 909.08C771.8 912.08 744.81 904.23 730.77 877.36C716.73 850.49 741.68 798.25 741.68 798.25C741.68 798.25 710.68 796.5 719.97 740.35C729.26 684.2 770.71 621.57 810.54 605.03Z" fill="#c1272d" class="changeColor"></path>
<path d="M1118.98 631.19C1118.32 625.54 1119.73 619.83 1119.21 614.19C1118.21 603.25 1110.33 593.94 1104.73 584.19C1091.93 561.8 1090.73 535.47 1079.03 512.6C1075.95 506.6 1071.93 500.6 1065.68 496.88C1061.5 494.4 1056.59 493.11 1051.77 491.88C1039.77 488.76 1027.49 485.66 1015 486.24C1002.51 486.82 989.56 491.78 983.36 501.36L985.65 501.55C976.848 503.222 968.996 508.14 963.65 515.33C955.83 526.4 955.34 540.33 957.65 553.23C959.96 566.13 964.91 578.51 967.11 591.4C970.46 610.99 967.41 631.14 960.85 650.1C965.375 647.522 969.208 643.884 972.02 639.5C962.11 668 982.55 701.85 1014.88 710.5C1013.18 706.78 1011.47 703.06 1009.76 699.34C1016.6 705.18 1023.61 711.13 1032.27 714.61C1040.93 718.09 1051.71 718.68 1059.58 713.95C1065.36 710.48 1069.58 704.33 1076.47 703.47C1079.33 703.11 1082.22 703.76 1085.11 703.81C1094.42 703.94 1102.24 697.91 1108.77 692.05C1118.77 683.05 1128.77 672.12 1128.01 659.55C1127.37 649.63 1120.14 640.96 1118.98 631.19Z" fill="#302E41"></path>
<path d="M1118.98 631.19C1118.32 625.54 1119.73 619.83 1119.21 614.19C1118.21 603.25 1110.33 593.94 1104.73 584.19C1091.93 561.8 1090.73 535.47 1079.03 512.6C1075.95 506.6 1071.93 500.6 1065.68 496.88C1061.5 494.4 1056.59 493.11 1051.77 491.88C1039.77 488.76 1027.49 485.66 1015 486.24C1002.51 486.82 989.56 491.78 983.36 501.36L985.65 501.55C976.848 503.222 968.996 508.14 963.65 515.33C955.83 526.4 955.34 540.33 957.65 553.23C959.96 566.13 964.91 578.51 967.11 591.4C970.46 610.99 967.41 631.14 960.85 650.1C965.375 647.522 969.208 643.884 972.02 639.5C962.11 668 982.55 701.85 1014.88 710.5C1013.18 706.78 1011.47 703.06 1009.76 699.34C1016.6 705.18 1023.61 711.13 1032.27 714.61C1040.93 718.09 1051.71 718.68 1059.58 713.95C1065.36 710.48 1069.58 704.33 1076.47 703.47C1079.33 703.11 1082.22 703.76 1085.11 703.81C1094.42 703.94 1102.24 697.91 1108.77 692.05C1118.77 683.05 1128.77 672.12 1128.01 659.55C1127.37 649.63 1120.14 640.96 1118.98 631.19Z" fill="#302E41"></path>
<mask id="mask0_5_1720" style="mask-type:luminance" maskUnits="userSpaceOnUse" x="956" y="486" width="173" height="232">
<path d="M1118.98 631.19C1118.32 625.54 1119.73 619.83 1119.21 614.19C1118.21 603.25 1110.33 593.94 1104.73 584.19C1091.93 561.8 1090.73 535.47 1079.03 512.6C1075.95 506.6 1071.93 500.6 1065.68 496.88C1061.5 494.4 1056.59 493.11 1051.77 491.88C1039.77 488.76 1027.49 485.66 1015 486.24C1002.51 486.82 989.56 491.78 983.36 501.36L985.65 501.55C976.848 503.222 968.996 508.14 963.65 515.33C955.83 526.4 955.34 540.33 957.65 553.23C959.96 566.13 964.91 578.51 967.11 591.4C970.46 610.99 967.41 631.14 960.85 650.1C965.375 647.522 969.208 643.884 972.02 639.5C962.11 668 982.55 701.85 1014.88 710.5C1013.18 706.78 1011.47 703.06 1009.76 699.34C1016.6 705.18 1023.61 711.13 1032.27 714.61C1040.93 718.09 1051.71 718.68 1059.58 713.95C1065.36 710.48 1069.58 704.33 1076.47 703.47C1079.33 703.11 1082.22 703.76 1085.11 703.81C1094.42 703.94 1102.24 697.91 1108.77 692.05C1118.77 683.05 1128.77 672.12 1128.01 659.55C1127.37 649.63 1120.14 640.96 1118.98 631.19Z" fill="white"></path>
</mask>
<g mask="url(#mask0_5_1720)">
<path d="M977.06 500.53C970.96 504.93 970.28 513.86 972.06 521.18C973.84 528.5 977.4 535.42 977.78 542.93C978.41 555.33 970.22 567.09 971.67 579.41C972.67 587.49 977.61 594.52 979.67 602.41C983.55 617.09 977.16 633.84 984.14 647.32C986.65 652.17 990.69 656.08 993.27 660.88C997.04 667.88 997.4 676.21 997.67 684.18C998.123 697.513 998.576 710.847 999.03 724.18C999.32 732.78 999.64 741.5 1002.17 749.72C1005.71 761.07 1013.24 770.756 1023.36 776.99" fill="#302E41"></path>
<path d="M1036.89 484.21C1049.53 487.61 1051.96 503.91 1055.96 516.38C1061.62 534.04 1074.73 548.54 1080.58 566.13C1083.88 576.04 1084.95 587.03 1091.15 595.42C1096.53 602.69 1105.3 607.26 1109.41 615.31C1112.12 620.62 1112.41 626.79 1113.99 632.54C1120.44 656.46 1147.55 672.39 1148.71 697.14" fill="#302E41"></path>
<path d="M1026.37 476.98C1030.48 493.53 1036.7 509.48 1042.91 525.37C1047.9 538.123 1052.89 550.877 1057.86 563.63C1061.03 571.74 1064.25 579.94 1069.33 587.02C1075.16 595.16 1083.56 602.02 1085.76 611.83C1087.09 617.76 1085.95 624.14 1088.03 629.83C1091.51 639.36 1102.65 643.83 1107.76 652.63C1113.48 662.46 1110.33 674.77 1110.37 686.14C1110.44 693.837 1112.05 701.443 1115.09 708.512C1118.14 715.581 1122.56 721.972 1128.11 727.31" fill="#302E41"></path>
<path d="M996.76 481.19C1003.27 485.51 1005.4 494.19 1005.24 501.98C1005.08 509.77 1003.16 517.57 1003.86 525.36C1004.44 531.84 1006.86 538.01 1009.17 544.08C1013.99 556.54 1018.81 569.003 1023.64 581.47C1027.15 590.53 1030.64 599.67 1032.28 609.25C1035.28 627.32 1031.42 646.55 1037.86 663.7C1043.2 677.94 1055.08 688.98 1060.44 703.21C1067.34 721.52 1063.59 744.89 1077.9 758.21" fill="#302E41"></path>
<path d="M992.49 492.33C987.01 499.62 995.12 509.33 996.17 518.33C996.73 523.26 995.1 528.13 994.55 533.06C992.85 548.4 1001.7 563.24 1001.13 578.67C1000.76 588.76 996.37 598.82 998.59 608.67C1000.25 616.05 1005.49 622.37 1006.42 629.88C1007.16 635.83 1005.08 641.88 1005.63 647.81C1006.43 656.67 1012.73 663.91 1016.49 671.97C1026.78 694.03 1018.67 723.74 1035.49 741.34" fill="#302E41"></path>
<path d="M1008.89 475.13C1014.63 490.17 1020.1 505.31 1025.29 520.55C1028.86 531.01 1032.29 541.55 1035.73 552.04L1044.73 579.59C1048.73 591.89 1052.73 604.19 1057.24 616.33C1067.42 644.006 1079.9 670.783 1094.54 696.38C1102.08 709.55 1110.92 723.08 1124.65 729.56" fill="#302E41"></path>
</g>
<path d="M1106.95 395.26C1105.8 391.03 1101.65 388.1 1097.34 387.26C1093.03 386.42 1088.57 387.38 1084.34 388.69C1077.45 390.837 1070.91 393.976 1064.93 398.01C1065.58 390.569 1063.72 383.125 1059.65 376.86C1056.73 372.39 1052.09 368.39 1046.75 368.65C1041.88 368.9 1037.75 372.77 1035.87 377.28C1033.99 381.79 1033.94 386.83 1034.19 391.71C1035.06 409.095 1039.18 426.163 1046.34 442.03L1048.15 445.84C1069.02 436.84 1091.07 426.84 1103.54 407.84C1106.03 404.1 1108.12 399.59 1106.95 395.26Z" fill="#C0597A"></path>
<path d="M1338.31 1008.24H582.52C577.693 1008.24 573.78 1012.15 573.78 1016.98V1021.97C573.78 1026.8 577.693 1030.71 582.52 1030.71H1338.31C1343.14 1030.71 1347.05 1026.8 1347.05 1021.97V1016.98C1347.05 1012.15 1343.14 1008.24 1338.31 1008.24Z" fill="#D5DADE"></path>
<path d="M1323.03 863.17H593.9C581.711 863.17 571.83 873.051 571.83 885.24V960.25C571.83 972.439 581.711 982.32 593.9 982.32H1323.03C1335.22 982.32 1345.1 972.439 1345.1 960.25V885.24C1345.1 873.051 1335.22 863.17 1323.03 863.17Z" fill="#D5DADE"></path>
<path d="M650.45 810.68V1153.62H627.98V810.68C627.98 808.362 628.901 806.139 630.54 804.5C632.179 802.861 634.402 801.94 636.72 801.94H641.72C644.036 801.943 646.257 802.865 647.894 804.503C649.53 806.142 650.45 808.364 650.45 810.68Z" fill="#D5DADE"></path>
<path d="M1292.83 810.67V1153.67H1270.36V810.67C1270.36 808.352 1271.28 806.129 1272.92 804.49C1274.56 802.851 1276.78 801.93 1279.1 801.93H1284.1C1286.42 801.933 1288.64 802.855 1290.27 804.493C1291.91 806.132 1292.83 808.354 1292.83 810.67Z" fill="#D5DADE"></path>
<path d="M1794.85 902.87H125.15C123.963 902.87 123 903.83 123 905.015C123 906.2 123.963 907.16 125.15 907.16H1794.85C1796.04 907.16 1797 906.2 1797 905.015C1797 903.83 1796.04 902.87 1794.85 902.87Z" fill="#D5DADE"></path>
<path d="M1021.82 230.33C1022.02 229.454 1022.12 228.558 1022.12 227.66C1022.12 225.419 1021.51 223.22 1020.34 221.307C1019.17 219.394 1017.5 217.841 1015.5 216.821C1013.51 215.8 1011.27 215.351 1009.03 215.524C1006.8 215.697 1004.65 216.485 1002.84 217.8C1001.86 215.606 1000.4 213.667 998.549 212.132C996.702 210.597 994.527 209.508 992.192 208.949C989.856 208.39 987.424 208.376 985.082 208.909C982.741 209.442 980.554 210.506 978.69 212.02C976.937 208.735 974.255 206.039 970.977 204.272C967.7 202.504 963.974 201.743 960.266 202.084C956.558 202.424 953.033 203.852 950.132 206.187C947.232 208.521 945.085 211.66 943.96 215.21C942.214 213.742 940.135 212.725 937.905 212.247C935.675 211.77 933.362 211.847 931.168 212.472C928.975 213.097 926.968 214.251 925.324 215.831C923.681 217.412 922.45 219.373 921.74 221.54C920.856 221.266 919.935 221.127 919.01 221.13C916.557 221.13 914.202 222.095 912.455 223.816C910.707 225.537 909.707 227.877 909.67 230.33H1021.82Z" fill="#E6EAED"></path>
<path d="M770.33 404.64C770.495 403.878 770.579 403.1 770.58 402.32C770.577 400.38 770.039 398.479 769.024 396.826C768.009 395.173 766.557 393.833 764.829 392.953C763.1 392.072 761.162 391.687 759.229 391.838C757.295 391.989 755.441 392.672 753.87 393.81C753.022 391.91 751.748 390.231 750.148 388.903C748.547 387.574 746.662 386.631 744.638 386.148C742.615 385.665 740.507 385.653 738.479 386.115C736.45 386.577 734.555 387.499 732.94 388.81C731.424 385.959 729.1 383.62 726.259 382.086C723.419 380.551 720.188 379.89 716.973 380.184C713.757 380.479 710.701 381.717 708.187 383.743C705.672 385.768 703.812 388.491 702.84 391.57C701.326 390.299 699.524 389.419 697.591 389.007C695.658 388.594 693.654 388.662 691.753 389.203C689.852 389.745 688.113 390.745 686.689 392.114C685.264 393.484 684.196 395.182 683.58 397.06C682.38 396.697 681.112 396.616 679.875 396.826C678.638 397.035 677.467 397.528 676.454 398.267C675.44 399.005 674.611 399.969 674.033 401.082C673.454 402.194 673.142 403.426 673.12 404.68L770.33 404.64Z" fill="#E6EAED"></path>
<path d="M250.49 311.87C250.676 311.063 250.769 310.238 250.77 309.41C250.769 307.348 250.198 305.326 249.12 303.567C248.043 301.808 246.501 300.381 244.664 299.443C242.827 298.505 240.767 298.093 238.711 298.251C236.654 298.409 234.682 299.132 233.01 300.34C232.109 298.321 230.756 296.536 229.056 295.124C227.355 293.711 225.352 292.709 223.202 292.195C221.052 291.681 218.812 291.668 216.657 292.158C214.501 292.648 212.487 293.627 210.77 295.02C209.163 291.983 206.694 289.49 203.673 287.854C200.652 286.218 197.215 285.512 193.794 285.825C190.373 286.138 187.121 287.457 184.447 289.614C181.774 291.772 179.798 294.672 178.77 297.95C177.16 296.6 175.244 295.665 173.189 295.228C171.134 294.791 169.003 294.865 166.983 295.444C164.963 296.022 163.116 297.088 161.604 298.546C160.092 300.005 158.961 301.812 158.31 303.81C157.493 303.564 156.644 303.44 155.79 303.44C153.533 303.44 151.367 304.327 149.758 305.909C148.149 307.492 147.227 309.644 147.19 311.9L250.49 311.87Z" fill="#E6EAED"></path>
<path d="M413 486.1C413.146 485.443 413.22 484.773 413.22 484.1C413.212 482.437 412.745 480.808 411.872 479.393C410.998 477.978 409.752 476.83 408.269 476.077C406.786 475.324 405.125 474.994 403.467 475.123C401.809 475.252 400.218 475.836 398.87 476.81C398.143 475.175 397.048 473.729 395.672 472.585C394.295 471.441 392.673 470.629 390.932 470.213C389.191 469.797 387.378 469.788 385.633 470.187C383.888 470.585 382.258 471.38 380.87 472.51C379.571 470.071 377.581 468.068 375.151 466.752C372.72 465.436 369.956 464.865 367.203 465.111C364.45 465.356 361.83 466.407 359.671 468.132C357.511 469.857 355.908 472.179 355.06 474.81C353.758 473.712 352.205 472.951 350.54 472.595C348.874 472.239 347.146 472.298 345.509 472.768C343.871 473.237 342.375 474.102 341.151 475.287C339.927 476.471 339.013 477.939 338.49 479.56C337.841 479.366 337.168 479.265 336.49 479.26C334.665 479.257 332.912 479.973 331.611 481.254C330.31 482.534 329.566 484.275 329.54 486.1H413Z" fill="#E6EAED"></path>
<path d="M1562.35 518.24C1561.84 515.956 1562.03 513.57 1562.9 511.399C1563.78 509.228 1565.29 507.375 1567.25 506.087C1569.2 504.799 1571.51 504.137 1573.85 504.19C1576.19 504.242 1578.45 505.006 1580.35 506.38C1581.28 504.304 1582.67 502.469 1584.41 501.017C1586.16 499.565 1588.22 498.535 1590.43 498.006C1592.64 497.477 1594.94 497.464 1597.16 497.968C1599.37 498.471 1601.45 499.478 1603.21 500.91C1604.87 497.798 1607.4 495.245 1610.51 493.569C1613.61 491.894 1617.14 491.171 1620.65 491.491C1624.16 491.812 1627.49 493.161 1630.24 495.37C1632.99 497.579 1635.02 500.55 1636.09 503.91C1637.74 502.529 1639.71 501.574 1641.82 501.127C1643.92 500.68 1646.11 500.756 1648.18 501.348C1650.25 501.94 1652.15 503.03 1653.7 504.522C1655.25 506.014 1656.42 507.864 1657.09 509.91C1658.4 509.512 1659.79 509.424 1661.14 509.653C1662.49 509.881 1663.77 510.419 1664.88 511.225C1665.98 512.032 1666.89 513.084 1667.52 514.299C1668.15 515.515 1668.5 516.86 1668.52 518.23L1562.35 518.24Z" fill="#E6EAED"></path>
<path d="M1700.2 287.63C1699.73 285.53 1699.91 283.337 1700.72 281.341C1701.52 279.346 1702.92 277.643 1704.71 276.459C1706.51 275.274 1708.62 274.664 1710.78 274.708C1712.93 274.753 1715.01 275.451 1716.76 276.71C1717.62 274.809 1718.9 273.129 1720.5 271.801C1722.11 270.473 1724 269.531 1726.03 269.048C1728.06 268.565 1730.17 268.554 1732.2 269.015C1734.24 269.477 1736.14 270.399 1737.76 271.71C1739.28 268.842 1741.62 266.489 1744.48 264.945C1747.34 263.402 1750.59 262.736 1753.82 263.033C1757.05 263.33 1760.13 264.576 1762.66 266.615C1765.18 268.653 1767.05 271.393 1768.03 274.49C1769.55 273.21 1771.37 272.323 1773.31 271.907C1775.26 271.491 1777.27 271.558 1779.19 272.103C1781.1 272.648 1782.85 273.654 1784.28 275.032C1785.72 276.411 1786.79 278.12 1787.41 280.01C1788.62 279.639 1789.89 279.554 1791.14 279.762C1792.39 279.97 1793.57 280.465 1794.59 281.208C1795.61 281.952 1796.44 282.923 1797.02 284.044C1797.6 285.166 1797.91 286.407 1797.93 287.67L1700.2 287.63Z" fill="#E6EAED"></path>
<path d="M1307.01 396.5C1306.87 395.883 1306.8 395.253 1306.8 394.62C1306.8 392.349 1307.7 390.171 1309.31 388.564C1310.91 386.957 1313.09 386.053 1315.36 386.05C1317.16 386.048 1318.91 386.619 1320.36 387.68C1321.04 386.134 1322.08 384.766 1323.38 383.683C1324.68 382.6 1326.21 381.832 1327.85 381.437C1329.5 381.042 1331.21 381.032 1332.86 381.407C1334.51 381.782 1336.05 382.533 1337.36 383.6C1338.59 381.285 1340.49 379.386 1342.79 378.14C1345.1 376.895 1347.73 376.359 1350.34 376.599C1352.95 376.839 1355.44 377.845 1357.48 379.491C1359.53 381.137 1361.04 383.349 1361.83 385.85C1363.06 384.814 1364.52 384.096 1366.1 383.759C1367.67 383.422 1369.3 383.476 1370.85 383.917C1372.39 384.357 1373.81 385.17 1374.96 386.285C1376.12 387.4 1376.99 388.782 1377.49 390.31C1378.11 390.116 1378.76 390.018 1379.41 390.02C1381.14 390.02 1382.8 390.699 1384.03 391.912C1385.26 393.124 1385.96 394.772 1385.99 396.5H1307.01Z" fill="#E6EAED"></path>
<path d="M227.25 967.93C228.59 959.7 230.12 950.46 234.78 943.29C232.45 945.73 230.78 949.65 229.37 952.49C227.209 956.821 225.558 961.388 224.45 966.1C222.444 974.486 221.723 983.128 222.31 991.73C222.276 991.757 222.248 991.79 222.228 991.828C222.207 991.866 222.194 991.907 222.19 991.95C222.03 993.63 220.98 1000.95 224.41 999.16C224.778 998.918 225.086 998.595 225.31 998.215C225.533 997.835 225.667 997.409 225.7 996.97C225.335 987.263 225.854 977.543 227.25 967.93Z" fill="#D5DADE"></path>
<path d="M239.62 956.65C234.643 961.422 230.769 967.224 228.27 973.65C225.27 981.19 223.78 989.59 222.97 997.65C222.67 1001.09 222.6 1004.56 222.76 1008.01V1008.27C222.525 1009.59 222.418 1010.93 222.44 1012.27H225.12C225.2 1011.34 225.29 1010.41 225.39 1009.47C225.522 1006.45 225.886 1003.44 226.48 1000.47C226.68 999.47 226.9 998.55 227.13 997.59C227.857 993.856 228.771 990.162 229.87 986.52C230.667 982.662 231.736 978.866 233.07 975.16C235.331 968.632 238.612 962.502 242.79 957C245.12 954.08 248.43 950.4 252.19 948.57C247.7 949.57 242.49 953.95 239.62 956.65Z" fill="#D5DADE"></path>
<path d="M222.49 1010.59C222.44 1011.11 222.36 1011.7 222.28 1012.31H223.18C223.18 1011.61 223.23 1010.91 223.25 1010.21C223.43 1008.4 223.54 1006.57 223.6 1004.75C223.627 1000.53 223.072 996.328 221.95 992.26C220.144 984.951 216.145 978.37 210.49 973.4C204.91 968.52 197.49 966.46 190.35 968.75C185.898 970.377 182.111 973.433 179.58 977.44C182.023 975.42 184.855 973.922 187.9 973.04C194.38 971.14 200.6 971.84 206.13 975.84C206.73 976.28 207.3 976.73 207.86 977.2C208.793 977.812 209.688 978.48 210.54 979.2C215.71 983.58 218.83 989.6 220.72 995.99C222.15 1000.75 222.3 1005.67 222.49 1010.59Z" fill="#D5DADE"></path>
<path d="M256.71 974.46C250.35 971.64 244 973.98 238.86 978.01C233.07 982.54 229.03 989.1 226.35 995.83C225.01 999.315 223.969 1002.91 223.24 1006.57C222.777 1008.46 222.413 1010.38 222.15 1012.31H222.93C222.93 1012.17 222.93 1012.03 223 1011.89C223.039 1011.87 223.072 1011.83 223.097 1011.8C223.123 1011.76 223.141 1011.71 223.15 1011.67C223.31 1010.55 223.52 1009.39 223.77 1008.21C223.92 1007.63 224.09 1007.06 224.26 1006.49C225.183 1003.31 226.271 1000.17 227.52 997.1C227.87 996.27 228.24 995.44 228.63 994.62C230.805 990.145 233.931 986.2 237.79 983.06C238.08 982.84 238.39 982.63 238.7 982.42C247.16 976.02 260.35 978.09 265.98 986.93C264.34 981.5 262.49 977 256.71 974.46Z" fill="#D5DADE"></path>
<path d="M222.92 1011.59C222.92 1011.83 222.92 1012.07 222.92 1012.31H224.4C224.61 1008.7 224.62 1005.1 224.56 1001.48C224.56 1001.13 224.56 1000.79 224.56 1000.48C224.303 993.318 223.538 986.184 222.27 979.13C220.999 971.754 218.851 964.556 215.87 957.69C214.625 954.708 213.091 951.854 211.29 949.17C210.518 948.059 209.666 947.006 208.74 946.02C208.41 945.7 208.08 945.4 207.74 945.09C207.342 944.752 206.918 944.448 206.47 944.18C206.47 944.23 206.47 944.29 206.47 944.33C210.47 950.09 212.8 957.33 214.94 963.99C216.915 970.544 218.432 977.226 219.48 983.99C220.65 990.71 221.66 997.33 222.23 1004.12C222.278 1006.62 222.508 1009.12 222.92 1011.59Z" fill="#D5DADE"></path>
<path d="M255.19 1000.81C254.94 999.81 254.66 998.81 254.31 997.81C253.04 994.15 250.93 989.55 247.64 987.28C245.64 985.98 243.294 985.314 240.91 985.37C239.93 985.38 238.958 985.545 238.03 985.86C233.624 987.371 229.969 990.518 227.82 994.65C225.781 998.866 224.666 1003.47 224.55 1008.15C224.5 1009.55 224.48 1010.95 224.47 1012.34H226.1C226.48 1009.49 227.096 1006.67 227.94 1003.92C229.44 999.04 231.22 993.46 236.16 991.1C241.1 988.74 246.89 993.73 249.82 997.36C252.228 1000.38 254.16 1003.75 255.55 1007.36C255.51 1005.17 255.39 1002.99 255.19 1000.81Z" fill="#D5DADE"></path>
<path d="M230.77 992.52C229.393 993.527 228.17 994.73 227.14 996.09C225.553 999.899 224.675 1003.97 224.55 1008.09C224.5 1009.49 224.48 1010.89 224.47 1012.28H226.1C226.48 1009.43 227.096 1006.61 227.94 1003.86C229.44 998.98 231.22 993.4 236.16 991.04C237.133 990.607 238.188 990.393 239.252 990.412C240.316 990.431 241.363 990.683 242.32 991.15C242.316 991.123 242.316 991.096 242.32 991.07C240.436 990.281 238.378 989.999 236.351 990.254C234.325 990.508 232.4 991.289 230.77 992.52Z" fill="#D5DADE"></path>
<path d="M222.43 1012.31H224.36C224.36 1010.21 224.36 1008.12 224.25 1006.02C224.106 1000.15 222.708 994.383 220.15 989.1C217.46 983.925 212.88 979.985 207.36 978.1C206.196 977.706 204.978 977.497 203.75 977.48C200.761 977.413 197.82 978.246 195.31 979.87C194.264 980.607 193.323 981.482 192.51 982.47C192.27 982.75 192.05 983.03 191.83 983.32C189.944 985.963 188.439 988.858 187.36 991.92C187.36 992.01 187.3 992.1 187.28 992.19C186.455 995.116 186.09 998.152 186.2 1001.19C186.2 1001.81 186.2 1002.45 186.2 1003.08C187.839 999.301 189.967 995.754 192.53 992.53C196.21 987.98 203.3 981.64 209.66 984.69C215.86 987.69 218.09 994.69 219.96 1000.75C221.137 1004.52 221.964 1008.39 222.43 1012.31Z" fill="#D5DADE"></path>
<path d="M222.43 1012.31H224.36C224.36 1010.21 224.36 1008.12 224.25 1006.02C224.099 1000.84 223.001 995.727 221.01 990.94C219.719 989.233 218.186 987.724 216.46 986.46C214.409 984.922 211.991 983.95 209.446 983.639C206.902 983.328 204.32 983.691 201.96 984.69C201.966 984.723 201.966 984.757 201.96 984.79C203.157 984.2 204.47 983.882 205.804 983.858C207.139 983.833 208.462 984.104 209.68 984.65C215.88 987.65 218.11 994.65 219.98 1000.71C221.153 1004.49 221.973 1008.38 222.43 1012.31Z" fill="#D5DADE"></path>
<g style="mix-blend-mode:screen" opacity="0.5">
<path d="M204.55 978.37C194.26 978.55 188.75 987.37 187.16 996.7C187.16 996.86 187.38 996.79 187.4 996.7C189.63 987.84 195.21 980.29 204.54 978.45C204.56 978.43 204.59 978.37 204.55 978.37Z" fill="#D5DADE"></path>
</g>
<g style="mix-blend-mode:screen" opacity="0.5">
<path d="M207.49 971.81C203.825 969.254 199.384 968.055 194.93 968.42C190.477 968.785 186.29 970.691 183.09 973.81C189.76 968.32 200.01 967.22 207.4 971.81C207.49 971.92 207.56 971.81 207.49 971.81Z" fill="#D5DADE"></path>
</g>
<g style="mix-blend-mode:screen" opacity="0.5">
<path d="M216.27 963.97C214.84 958.37 212.57 952.08 208.99 947.5C208.99 947.5 208.9 947.5 208.93 947.56C212.2 952.71 214.3 959.49 215.82 965.37C217.34 971.25 218.88 976.87 219.89 982.73C219.89 982.8 220.01 982.73 220 982.67C219.172 976.361 217.926 970.114 216.27 963.97Z" fill="#D5DADE"></path>
</g>
<g style="mix-blend-mode:screen" opacity="0.5">
<path d="M228.69 955C225.68 961.497 223.842 968.474 223.26 975.61C223.26 975.74 223.42 975.67 223.43 975.61C224.603 968.608 226.387 961.722 228.76 955.03C228.78 954.94 228.7 954.96 228.69 955Z" fill="#D5DADE"></path>
</g>
<g style="mix-blend-mode:screen" opacity="0.5">
<path d="M241.18 956.18C232.18 964.35 226.03 975.58 225.3 987.91C225.3 988.02 225.44 987.96 225.45 987.91C227.486 976.035 232.97 965.021 241.22 956.24C241.22 956.24 241.21 956.15 241.18 956.18Z" fill="#D5DADE"></path>
</g>
<g style="mix-blend-mode:screen" opacity="0.5">
<path d="M247.17 974.49C245.446 975.003 243.772 975.673 242.17 976.49C240.426 977.529 238.831 978.801 237.43 980.27C237.29 980.4 237.43 980.62 237.59 980.49C239 979.44 240.31 978.3 241.77 977.31C243.491 976.239 245.309 975.331 247.2 974.6C247.2 974.6 247.21 974.48 247.17 974.49Z" fill="#D5DADE"></path>
</g>
<g style="mix-blend-mode:screen" opacity="0.5">
<path d="M244.37 990.68C242.551 989.316 240.339 988.579 238.065 988.579C235.791 988.579 233.579 989.316 231.76 990.68C233.603 990.01 235.526 989.583 237.48 989.41C239.783 989.446 242.052 989.968 244.14 990.94C244.28 991.03 244.49 990.81 244.37 990.68Z" fill="#D5DADE"></path>
</g>
<path d="M258.12 1012.3H187.45V1012.38H258.12V1012.3Z" fill="#D5DADE"></path>
<path d="M439.29 1045.59C441.49 1032.05 444.01 1016.84 451.69 1005.03C447.85 1009.03 445.13 1015.51 442.78 1020.17C439.225 1027.3 436.507 1034.82 434.68 1042.57C431.381 1056.38 430.194 1070.61 431.16 1084.77C431.104 1084.81 431.058 1084.87 431.023 1084.93C430.989 1084.99 430.968 1085.06 430.96 1085.13C430.7 1087.89 428.96 1100.01 434.62 1096.99C435.224 1096.59 435.73 1096.06 436.097 1095.44C436.464 1094.81 436.684 1094.11 436.74 1093.39C436.4 1077.41 436.73 1061.37 439.29 1045.59Z" fill="#D5DADE"></path>
<path d="M459.65 1027.03C451.451 1034.89 445.075 1044.44 440.97 1055.03C435.97 1067.45 433.58 1081.26 432.25 1094.5C431.762 1100.15 431.642 1105.83 431.89 1111.5C431.89 1111.63 431.89 1111.79 431.89 1111.93C431.504 1114.11 431.326 1116.33 431.36 1118.55H435.77C435.91 1117.02 436.05 1115.48 436.21 1113.94C436.435 1108.99 437.037 1104.06 438.01 1099.2C438.34 1097.62 438.7 1096.03 439.09 1094.45C440.275 1088.3 441.777 1082.22 443.59 1076.22C444.898 1069.87 446.662 1063.63 448.87 1057.54C452.73 1047 457.87 1036.46 464.87 1027.64C468.69 1022.83 474.14 1016.78 480.33 1013.76C472.95 1015.37 464.34 1022.59 459.65 1027.03Z" fill="#D5DADE"></path>
<path d="M431.49 1115.81C431.41 1116.67 431.28 1117.64 431.15 1118.65H432.63C432.63 1117.5 432.72 1116.35 432.74 1115.19C433.05 1112.19 433.22 1109.19 433.32 1106.19C433.367 1099.24 432.452 1092.32 430.6 1085.63C427.633 1073.62 421.058 1062.8 411.76 1054.63C402.57 1046.63 390.36 1043.21 378.61 1046.98C372.61 1048.89 364.61 1054.73 360.89 1061.28C364.909 1057.95 369.569 1055.49 374.58 1054.04C385.24 1050.9 395.48 1052.04 404.58 1058.65C405.58 1059.36 406.51 1060.11 407.42 1060.88C408.964 1061.88 410.443 1062.97 411.85 1064.15C420.35 1071.35 425.49 1081.26 428.6 1091.78C430.89 1099.62 431.14 1107.7 431.49 1115.81Z" fill="#D5DADE"></path>
<path d="M487.77 1056.33C477.32 1051.7 466.87 1055.55 458.4 1062.18C448.87 1069.64 442.22 1080.43 437.81 1091.52C435.605 1097.25 433.892 1103.17 432.69 1109.19C431.919 1112.3 431.321 1115.46 430.9 1118.64H432.19C432.19 1118.41 432.25 1118.17 432.29 1117.94C432.354 1117.9 432.41 1117.85 432.453 1117.79C432.496 1117.73 432.526 1117.66 432.54 1117.59C432.8 1115.74 433.15 1113.82 433.54 1111.89C433.8 1110.94 434.06 1110 434.34 1109.06C435.869 1103.82 437.665 1098.67 439.72 1093.61C440.29 1092.23 440.89 1090.87 441.53 1089.51C445.46 1081.95 450.53 1075.14 456.61 1070.51C457.1 1070.14 457.61 1069.79 458.12 1069.45C472.04 1058.91 493.74 1062.33 503.01 1076.87C500.33 1067.93 497.21 1060.51 487.77 1056.33Z" fill="#D5DADE"></path>
<path d="M432.16 1117.46C432.16 1117.85 432.16 1118.25 432.16 1118.64H434.6C434.95 1112.7 434.96 1106.78 434.86 1100.82C434.86 1100.24 434.86 1099.67 434.86 1099.1C434.437 1087.32 433.177 1075.58 431.09 1063.97C428.986 1051.82 425.427 1039.98 420.49 1028.68C418.447 1023.78 415.925 1019.09 412.96 1014.68C411.691 1012.85 410.287 1011.12 408.76 1009.5C408.22 1008.99 407.68 1008.5 407.12 1007.97C406.465 1007.42 405.766 1006.92 405.03 1006.48C404.98 1006.56 404.94 1006.66 405.03 1006.73C411.65 1016.2 415.45 1028.19 418.97 1039.09C422.42 1049.8 424.51 1061.01 426.44 1072.09C428.37 1083.17 430.03 1094.03 430.97 1105.22C431.04 1106.3 431.19 1113.42 432.16 1117.46Z" fill="#D5DADE"></path>
<path d="M485.27 1099.71C484.876 1098.02 484.395 1096.35 483.83 1094.71C481.73 1088.71 478.27 1081.11 472.83 1077.37C469.536 1075.23 465.675 1074.14 461.75 1074.23C460.137 1074.25 458.538 1074.53 457.01 1075.04C449.756 1077.52 443.74 1082.7 440.22 1089.51C436.858 1096.45 435.02 1104.02 434.83 1111.73C434.74 1114.03 434.72 1116.32 434.7 1118.62H437.38C437.995 1113.93 438.998 1109.29 440.38 1104.76C442.84 1096.76 445.77 1087.55 453.9 1083.67C462.26 1079.67 471.56 1087.98 476.39 1093.97C480.366 1098.96 483.546 1104.53 485.82 1110.49C485.79 1106.9 485.6 1103.3 485.27 1099.71Z" fill="#D5DADE"></path>
<path d="M445.08 1086.07C442.805 1087.72 440.783 1089.7 439.08 1091.94C436.462 1098.23 435.018 1104.94 434.82 1111.75C434.73 1114.05 434.71 1116.34 434.69 1118.64H437.37C437.985 1113.94 438.988 1109.31 440.37 1104.78C442.83 1096.78 445.76 1087.57 453.89 1083.69C457.24 1082.09 460.73 1082.46 464.03 1083.87C464.024 1083.83 464.024 1083.78 464.03 1083.74C460.942 1082.44 457.569 1081.98 454.245 1082.39C450.921 1082.79 447.762 1084.06 445.08 1086.07Z" fill="#D5DADE"></path>
<path d="M431.36 1118.64H434.54C434.54 1115.19 434.49 1111.74 434.35 1108.28C434.112 1098.62 431.815 1089.13 427.61 1080.43C423.183 1071.9 415.641 1065.41 406.55 1062.29C404.635 1061.65 402.63 1061.31 400.61 1061.29C395.691 1061.18 390.851 1062.55 386.72 1065.22C385 1066.44 383.447 1067.88 382.1 1069.5C381.72 1069.96 381.35 1070.43 380.99 1070.9C377.887 1075.25 375.413 1080.01 373.64 1085.05C373.64 1085.2 373.54 1085.35 373.5 1085.5C372.145 1090.3 371.544 1095.29 371.72 1100.28C371.72 1101.28 371.72 1102.35 371.8 1103.38C374.489 1097.16 377.99 1091.33 382.21 1086.03C388.27 1078.53 399.93 1068.11 410.41 1073.12C420.6 1077.99 424.27 1089.49 427.36 1099.56C429.275 1105.78 430.614 1112.17 431.36 1118.64Z" fill="#D5DADE"></path>
<path d="M431.36 1118.64H434.54C434.54 1115.19 434.49 1111.74 434.35 1108.28C434.107 1099.75 432.3 1091.34 429.02 1083.46C426.894 1080.65 424.371 1078.17 421.53 1076.09C418.155 1073.56 414.176 1071.96 409.99 1071.45C405.803 1070.93 401.555 1071.53 397.67 1073.17V1073.34C401.81 1071.57 406.19 1071.1 410.38 1073.11C420.57 1077.98 424.24 1089.48 427.33 1099.55C429.255 1105.78 430.604 1112.17 431.36 1118.64Z" fill="#D5DADE"></path>
<g style="mix-blend-mode:screen" opacity="0.5">
<path d="M401.93 1062.81C384.99 1063.1 375.93 1077.59 373.31 1092.97C373.26 1093.24 373.66 1093.13 373.7 1092.97C377.38 1078.39 386.56 1065.97 401.91 1062.97C401.94 1062.87 401.99 1062.81 401.93 1062.81Z" fill="#D5DADE"></path>
</g>
<g style="mix-blend-mode:screen" opacity="0.5">
<path d="M406.8 1051.94C400.753 1047.74 393.431 1045.78 386.095 1046.4C378.759 1047.02 371.868 1050.18 366.61 1055.33C366.61 1055.33 366.61 1055.44 366.66 1055.4C377.66 1046.4 394.51 1044.55 406.66 1052.11C406.75 1052.16 406.88 1051.99 406.8 1051.94Z" fill="#D5DADE"></path>
</g>
<g style="mix-blend-mode:screen" opacity="0.5">
<path d="M421.22 1039.07C418.86 1029.86 415.13 1019.51 409.22 1011.97C409.22 1011.92 409.07 1011.97 409.11 1012.07C414.49 1020.55 417.96 1031.71 420.45 1041.38C422.89 1050.84 425.45 1060.31 427.15 1069.95C427.15 1070.07 427.35 1069.95 427.34 1069.86C425.982 1059.47 423.938 1049.19 421.22 1039.07Z" fill="#D5DADE"></path>
</g>
<g style="mix-blend-mode:screen" opacity="0.5">
<path d="M441.65 1024.3C436.707 1035 433.685 1046.49 432.72 1058.24C432.72 1058.45 432.98 1058.32 433.01 1058.18C434.935 1046.66 437.866 1035.32 441.77 1024.31C441.8 1024.22 441.68 1024.24 441.65 1024.3Z" fill="#D5DADE"></path>
</g>
<g style="mix-blend-mode:screen" opacity="0.5">
<path d="M462.22 1026.25C447.42 1039.69 437.28 1058.19 436.08 1078.48C436.08 1078.67 436.31 1078.55 436.33 1078.43C439.9 1058.13 448.48 1041.5 462.33 1026.3C462.32 1026.25 462.27 1026.2 462.22 1026.25Z" fill="#D5DADE"></path>
</g>
<g style="mix-blend-mode:screen" opacity="0.5">
<path d="M472.08 1056.39C469.225 1057.2 466.453 1058.27 463.8 1059.6C460.927 1061.31 458.299 1063.4 455.99 1065.82C455.76 1066.04 455.99 1066.39 456.26 1066.18C458.57 1064.45 460.73 1062.57 463.13 1060.95C465.967 1059.19 468.964 1057.69 472.08 1056.49C472.08 1056.49 472.14 1056.37 472.08 1056.39Z" fill="#D5DADE"></path>
</g>
<g style="mix-blend-mode:screen" opacity="0.5">
<path d="M467.49 1083.04C464.495 1080.8 460.853 1079.58 457.11 1079.58C453.367 1079.58 449.725 1080.8 446.73 1083.04C446.73 1083.1 446.73 1083.04 446.73 1083.04C449.94 1082.04 452.73 1081.1 456.15 1080.96C459.96 1080.79 463.64 1082.09 467.15 1083.47C467.32 1083.62 467.7 1083.21 467.49 1083.04Z" fill="#D5DADE"></path>
</g>
<path d="M490.09 1118.62H373.78V1118.75H490.09V1118.62Z" fill="#D5DADE"></path>
<path d="M1520.17 966.08C1521.24 959.47 1522.46 952.08 1526.17 946.3C1524.3 948.3 1522.97 951.41 1521.83 953.68C1520.07 957.155 1518.73 960.823 1517.83 964.61C1516.22 971.34 1515.64 978.276 1516.11 985.18C1516.05 985.224 1516.02 985.289 1516.01 985.36C1515.89 986.7 1515.01 992.61 1517.79 991.14C1518.08 990.943 1518.32 990.683 1518.49 990.38C1518.66 990.077 1518.77 989.738 1518.79 989.39C1518.54 981.594 1519 973.792 1520.17 966.08Z" fill="#D5DADE"></path>
<path d="M1530.09 957.03C1526.09 960.867 1522.98 965.533 1520.98 970.7C1518.69 976.892 1517.26 983.369 1516.73 989.95C1516.49 992.713 1516.44 995.489 1516.56 998.26V998.47C1516.37 999.536 1516.29 1000.62 1516.3 1001.7H1518.49C1518.56 1000.95 1518.63 1000.2 1518.71 999.45C1518.82 997.035 1519.11 994.632 1519.58 992.26C1519.74 991.49 1519.92 990.72 1520.11 989.95C1520.69 986.95 1521.42 983.983 1522.31 981.06C1522.94 977.965 1523.8 974.92 1524.88 971.95C1526.69 966.707 1529.32 961.786 1532.68 957.37C1534.54 955.02 1537.2 952.07 1540.22 950.6C1536.58 951.34 1532.38 954.86 1530.09 957.03Z" fill="#D5DADE"></path>
<path d="M1516.34 1000.31C1516.34 1000.73 1516.24 1001.21 1516.18 1001.7H1516.9C1516.9 1001.14 1516.9 1000.57 1516.9 1000.01C1517.05 998.56 1517.13 997.09 1517.18 995.63C1517.2 992.251 1516.76 988.886 1515.86 985.63C1514.42 979.763 1511.21 974.479 1506.67 970.49C1504.53 968.511 1501.92 967.126 1499.08 966.471C1496.24 965.817 1493.29 965.916 1490.5 966.76C1486.92 968.072 1483.89 970.534 1481.86 973.76C1483.82 972.138 1486.1 970.937 1488.54 970.23C1493.74 968.7 1498.73 969.23 1503.17 972.48C1503.65 972.83 1504.11 973.19 1504.56 973.57C1505.31 974.053 1506.03 974.584 1506.71 975.16C1510.86 978.67 1513.37 983.5 1514.88 988.64C1516.07 992.42 1516.19 996.36 1516.34 1000.31Z" fill="#D5DADE"></path>
<path d="M1543.81 971.31C1538.71 969.06 1533.61 970.93 1529.48 974.17C1524.83 977.8 1521.59 983.07 1519.48 988.47C1518.41 991.267 1517.57 994.151 1516.99 997.09C1516.61 998.608 1516.31 1000.15 1516.11 1001.7H1516.74C1516.74 1001.59 1516.74 1001.47 1516.74 1001.36C1516.77 1001.34 1516.8 1001.31 1516.82 1001.28C1516.84 1001.25 1516.85 1001.22 1516.86 1001.18C1516.99 1000.28 1517.16 999.35 1517.36 998.41C1517.48 997.94 1517.61 997.49 1517.75 997.03C1518.52 994.47 1519.35 991.96 1520.37 989.49C1520.65 988.82 1520.95 988.15 1521.26 987.49C1523.01 983.901 1525.52 980.735 1528.61 978.21C1528.85 978.03 1529.1 977.86 1529.35 977.7C1536.13 972.56 1546.72 974.23 1551.24 981.32C1549.93 976.97 1548.41 973.35 1543.81 971.31Z" fill="#D5DADE"></path>
<path d="M1516.69 1001.12C1516.69 1001.31 1516.69 1001.51 1516.69 1001.7H1517.88C1518.05 998.8 1518.05 995.91 1518.01 993.01C1518.01 992.73 1518.01 992.45 1518.01 992.17C1517.8 986.424 1517.19 980.699 1516.17 975.04C1515.15 969.118 1513.43 963.339 1511.03 957.83C1510.04 955.434 1508.81 953.143 1507.36 950.99C1506.76 950.098 1506.09 949.253 1505.36 948.46L1504.56 947.71C1504.25 947.442 1503.91 947.198 1503.56 946.98C1503.56 946.98 1503.56 947.07 1503.56 947.1C1506.78 951.72 1508.64 957.57 1510.35 962.89C1511.94 968.163 1513.16 973.539 1514 978.98C1514.93 984.37 1515.75 989.68 1516.2 995.13C1516.22 997.136 1516.38 999.138 1516.69 1001.12Z" fill="#D5DADE"></path>
<path d="M1542.59 992.47C1542.39 991.65 1542.16 990.84 1541.88 990.04C1540.88 987.1 1539.17 983.4 1536.53 981.58C1534.92 980.54 1533.04 980.006 1531.13 980.05C1530.34 980.062 1529.56 980.197 1528.81 980.45C1525.28 981.648 1522.35 984.153 1520.62 987.45C1518.98 990.836 1518.09 994.531 1518 998.29C1518 999.41 1517.94 1000.53 1517.93 1001.65H1519.24C1519.54 999.359 1520.04 997.097 1520.72 994.89C1521.92 990.97 1523.35 986.5 1527.31 984.6C1531.27 982.7 1535.93 986.71 1538.31 989.6C1540.25 992.03 1541.8 994.745 1542.91 997.65C1542.84 995.97 1542.74 994.22 1542.59 992.47Z" fill="#D5DADE"></path>
<path d="M1522.99 985.81C1521.88 986.62 1520.9 987.587 1520.07 988.68C1518.8 991.748 1518.1 995.021 1518 998.34C1518 999.46 1517.94 1000.58 1517.93 1001.7H1519.24C1519.54 999.409 1520.04 997.147 1520.72 994.94C1521.92 991.02 1523.35 986.55 1527.31 984.65C1528.1 984.296 1528.96 984.12 1529.82 984.136C1530.68 984.152 1531.53 984.358 1532.31 984.74C1532.31 984.72 1532.31 984.7 1532.31 984.68C1530.79 984.034 1529.13 983.798 1527.5 983.997C1525.86 984.195 1524.31 984.82 1522.99 985.81Z" fill="#D5DADE"></path>
<path d="M1516.3 1001.7H1517.85C1517.85 1000.02 1517.85 998.33 1517.76 996.65C1517.64 991.941 1516.52 987.311 1514.47 983.07C1512.31 978.909 1508.63 975.739 1504.2 974.22C1503.26 973.906 1502.29 973.741 1501.3 973.73C1498.9 973.676 1496.55 974.341 1494.53 975.64C1493.69 976.234 1492.93 976.937 1492.28 977.73C1492.09 977.95 1491.91 978.18 1491.73 978.41C1490.22 980.532 1489.02 982.855 1488.15 985.31C1488.15 985.39 1488.1 985.46 1488.08 985.53C1487.42 987.874 1487.13 990.306 1487.21 992.74C1487.21 993.24 1487.21 993.74 1487.21 994.25C1488.52 991.219 1490.23 988.374 1492.29 985.79C1495.29 982.13 1500.93 977.05 1506.04 979.49C1511.15 981.93 1512.8 987.49 1514.31 992.39C1515.25 995.427 1515.92 998.543 1516.3 1001.7Z" fill="#D5DADE"></path>
<path d="M1516.3 1001.7H1517.85C1517.85 1000.02 1517.85 998.33 1517.76 996.65C1517.64 992.488 1516.75 988.383 1515.15 984.54C1514.11 983.173 1512.88 981.964 1511.5 980.95C1509.86 979.716 1507.92 978.935 1505.87 978.686C1503.83 978.436 1501.76 978.728 1499.87 979.53C1499.87 979.53 1499.87 979.53 1499.87 979.61C1500.83 979.14 1501.89 978.885 1502.96 978.864C1504.03 978.844 1505.09 979.057 1506.07 979.49C1511.07 981.87 1512.83 987.49 1514.34 992.39C1515.27 995.428 1515.93 998.544 1516.3 1001.7Z" fill="#D5DADE"></path>
<g style="mix-blend-mode:screen" opacity="0.5">
<path d="M1501.95 974.46C1493.68 974.6 1489.26 981.66 1487.95 989.17C1487.95 989.3 1488.12 989.24 1488.14 989.17C1489.93 982.06 1494.41 976 1501.89 974.53C1501.95 974.5 1501.98 974.46 1501.95 974.46Z" fill="#D5DADE"></path>
</g>
<g style="mix-blend-mode:screen" opacity="0.5">
<path d="M1504.32 969.17C1501.37 967.125 1497.8 966.172 1494.22 966.475C1490.64 966.778 1487.28 968.318 1484.72 970.83C1490.07 966.42 1498.3 965.54 1504.24 969.23C1504.29 969.28 1504.36 969.2 1504.32 969.17Z" fill="#D5DADE"></path>
</g>
<g style="mix-blend-mode:screen" opacity="0.5">
<path d="M1511.35 962.9C1510.2 958.4 1508.35 953.36 1505.51 949.68C1505.51 949.68 1505.44 949.68 1505.51 949.73C1508.13 953.86 1509.82 959.31 1511.04 964.03C1512.26 968.75 1513.49 973.26 1514.3 977.95C1514.3 978.01 1514.4 977.95 1514.4 977.95C1513.72 972.872 1512.7 967.844 1511.35 962.9Z" fill="#D5DADE"></path>
</g>
<g style="mix-blend-mode:screen" opacity="0.5">
<path d="M1521.32 955.7C1518.9 960.913 1517.43 966.513 1516.96 972.24C1516.96 972.35 1517.09 972.24 1517.1 972.24C1518.05 966.621 1519.47 961.094 1521.37 955.72C1521.39 955.65 1521.33 955.67 1521.32 955.7Z" fill="#D5DADE"></path>
</g>
<g style="mix-blend-mode:screen" opacity="0.5">
<path d="M1531.35 956.64C1524.13 963.2 1519.18 972.22 1518.6 982.11C1518.6 982.21 1518.71 982.11 1518.72 982.11C1520.35 972.58 1524.75 963.74 1531.37 956.69C1531.37 956.69 1531.37 956.62 1531.35 956.64Z" fill="#D5DADE"></path>
</g>
<g style="mix-blend-mode:screen" opacity="0.5">
<path d="M1536.15 971.34C1534.77 971.738 1533.43 972.264 1532.15 972.91C1530.75 973.73 1529.47 974.74 1528.34 975.91C1528.22 976.02 1528.34 976.19 1528.47 976.09C1529.6 975.25 1530.65 974.33 1531.82 973.54C1533.2 972.677 1534.66 971.947 1536.18 971.36C1536.18 971.36 1536.18 971.33 1536.15 971.34Z" fill="#D5DADE"></path>
</g>
<g style="mix-blend-mode:screen" opacity="0.5">
<path d="M1533.91 984.34C1532.45 983.247 1530.67 982.656 1528.84 982.656C1527.02 982.656 1525.24 983.247 1523.78 984.34C1525.26 983.808 1526.8 983.472 1528.37 983.34C1530.22 983.372 1532.04 983.791 1533.72 984.57C1533.83 984.62 1534.02 984.42 1533.91 984.34Z" fill="#D5DADE"></path>
</g>
<path d="M1544.94 1001.69H1488.22V1001.75H1544.94V1001.69Z" fill="#D5DADE"></path>
<path d="M1629.58 1011.48C1632.66 992.54 1636.17 971.28 1646.91 954.77C1641.54 960.4 1637.75 969.41 1634.46 975.94C1629.48 985.905 1625.69 996.416 1623.14 1007.26C1618.51 1026.56 1616.85 1046.46 1618.21 1066.26C1618.05 1066.39 1617.95 1066.57 1617.92 1066.77C1617.57 1070.63 1615.15 1087.58 1623.04 1083.36C1624.92 1082.36 1625.65 1080.36 1626.04 1078.36C1625.49 1055.97 1626 1033.55 1629.58 1011.48Z" fill="#D5DADE"></path>
<path d="M1658.04 985.53C1646.57 996.531 1637.65 1009.92 1631.92 1024.74C1625 1042.1 1621.59 1061.41 1619.73 1079.93C1619.05 1087.86 1618.88 1095.82 1619.24 1103.77C1619.24 1103.95 1619.24 1104.17 1619.24 1104.38C1618.69 1107.43 1618.43 1110.53 1618.49 1113.63H1624.66C1624.85 1111.48 1625.05 1109.33 1625.28 1107.19C1625.59 1100.26 1626.43 1093.37 1627.79 1086.57C1628.25 1084.36 1628.79 1082.14 1629.3 1079.93C1630.96 1071.33 1633.06 1062.82 1635.6 1054.44C1637.42 1045.57 1639.89 1036.84 1642.97 1028.32C1648.37 1013.58 1655.53 998.84 1665.34 986.5C1670.68 979.78 1678.34 971.32 1686.96 967.1C1676.65 969.23 1664.61 979.32 1658.04 985.53Z" fill="#D5DADE"></path>
<path d="M1618.61 1109.66C1618.5 1110.86 1618.32 1112.22 1618.14 1113.66H1620.21C1620.28 1112.05 1620.33 1110.43 1620.36 1108.82C1620.79 1104.65 1621.03 1100.44 1621.17 1096.26C1621.48 1086.54 1619.72 1076.9 1617.37 1067.51C1613.23 1050.69 1604.04 1035.54 1591.02 1024.11C1578.18 1012.87 1561.1 1008.11 1544.67 1013.41C1536.32 1016.09 1525.07 1024.25 1519.88 1033.41C1525.51 1028.76 1532.03 1025.31 1539.04 1023.29C1553.95 1018.91 1568.27 1020.52 1581.04 1029.74C1582.42 1030.74 1583.74 1031.74 1585.04 1032.86C1587.19 1034.25 1589.26 1035.78 1591.23 1037.42C1603.12 1047.49 1610.31 1061.35 1614.65 1076.07C1617.83 1087.03 1618.18 1098.33 1618.61 1109.66Z" fill="#D5DADE"></path>
<path d="M1697.37 1026.5C1682.75 1020.03 1668.14 1025.4 1656.3 1034.67C1642.97 1045.11 1633.68 1060.2 1627.5 1075.67C1624.42 1083.69 1622.03 1091.96 1620.35 1100.38C1619.27 1104.74 1618.44 1109.15 1617.85 1113.6H1619.64C1619.7 1113.27 1619.73 1112.94 1619.79 1112.6C1619.88 1112.55 1619.96 1112.47 1620.02 1112.39C1620.08 1112.3 1620.12 1112.2 1620.14 1112.1C1620.5 1109.52 1620.99 1106.84 1621.57 1104.1C1621.92 1102.78 1622.29 1101.47 1622.69 1100.16C1624.82 1092.83 1627.33 1085.61 1630.2 1078.54C1631 1076.62 1631.85 1074.71 1632.74 1072.82C1638.23 1062.24 1645.3 1052.72 1653.83 1046.24C1654.51 1045.71 1655.22 1045.24 1655.94 1044.75C1675.39 1030.02 1705.74 1034.75 1718.7 1055.13C1714.93 1042.72 1710.57 1032.35 1697.37 1026.5Z" fill="#D5DADE"></path>
<path d="M1619.61 1111.97C1619.61 1112.53 1619.61 1113.08 1619.61 1113.63H1623.03C1623.51 1105.32 1623.53 1097.04 1623.39 1088.71C1623.39 1087.9 1623.39 1087.1 1623.39 1086.3C1622.8 1069.82 1621.04 1053.4 1618.12 1037.17C1615.2 1020.19 1610.26 1003.63 1603.39 987.83C1600.39 981.09 1597.14 974.25 1592.85 968.21C1591.08 965.647 1589.11 963.221 1586.98 960.95L1584.69 958.81C1583.77 958.044 1582.79 957.349 1581.77 956.73C1581.73 956.78 1581.71 956.842 1581.71 956.905C1581.71 956.968 1581.73 957.03 1581.77 957.08C1591.03 970.32 1596.34 987.08 1601.26 1002.33C1606.09 1017.33 1609 1032.99 1611.7 1048.48C1614.4 1063.97 1616.7 1079.16 1618.04 1094.8C1618.04 1096.37 1618.25 1106.33 1619.61 1111.97Z" fill="#D5DADE"></path>
<path d="M1693.87 1087.16C1693.32 1084.79 1692.66 1082.46 1691.87 1080.16C1688.93 1071.73 1684.09 1061.16 1676.52 1055.92C1671.91 1052.93 1666.51 1051.4 1661.02 1051.53C1658.76 1051.55 1656.53 1051.94 1654.39 1052.66C1644.25 1056.12 1635.83 1063.37 1630.91 1072.89C1626.08 1082.44 1623.79 1093.3 1623.38 1103.96C1623.25 1107.17 1623.22 1110.39 1623.19 1113.6H1626.95C1627.82 1107.03 1629.23 1100.55 1631.18 1094.22C1634.63 1082.99 1638.72 1070.15 1650.09 1064.72C1661.77 1059.13 1674.79 1070.72 1681.54 1079.13C1687.09 1086.11 1691.54 1093.9 1694.73 1102.23C1694.6 1097.21 1694.33 1092.17 1693.87 1087.16Z" fill="#D5DADE"></path>
<path d="M1637.67 1068.08C1634.5 1070.4 1631.69 1073.17 1629.32 1076.3C1625.66 1085.09 1623.64 1094.47 1623.37 1103.99C1623.24 1107.2 1623.21 1110.42 1623.18 1113.63H1626.94C1627.81 1107.06 1629.22 1100.58 1631.17 1094.25C1634.62 1083.02 1638.71 1070.18 1650.08 1064.75C1654.75 1062.51 1659.64 1063.04 1664.26 1065C1664.26 1064.94 1664.26 1064.88 1664.26 1064.82C1659.93 1062.99 1655.2 1062.33 1650.53 1062.9C1645.86 1063.48 1641.43 1065.26 1637.67 1068.08Z" fill="#D5DADE"></path>
<path d="M1618.49 1113.63H1622.93C1622.93 1108.8 1622.86 1103.97 1622.67 1099.14C1622.16 1085.79 1619.29 1072.14 1613.24 1060.2C1607.06 1048.26 1596.51 1039.16 1583.79 1034.81C1581.12 1033.9 1578.31 1033.42 1575.49 1033.39C1568.61 1033.23 1561.84 1035.15 1556.06 1038.89C1553.66 1040.6 1551.49 1042.62 1549.61 1044.89C1549.08 1045.53 1548.61 1046.18 1548.05 1046.89C1543.58 1052.82 1540.23 1060.09 1537.78 1066.68C1537.71 1066.89 1537.63 1067.09 1537.57 1067.3C1535.68 1074.02 1534.85 1080.99 1535.09 1087.97C1535.09 1089.41 1535.16 1090.86 1535.2 1092.31C1538.96 1083.61 1543.85 1075.46 1549.76 1068.05C1558.23 1057.55 1574.54 1042.99 1589.2 1049.99C1603.45 1056.79 1608.58 1072.88 1612.9 1086.99C1615.57 1095.68 1617.45 1104.6 1618.49 1113.63Z" fill="#D5DADE"></path>
<path d="M1618.49 1113.63H1622.93C1622.93 1108.8 1622.86 1103.97 1622.67 1099.14C1622.33 1087.21 1619.8 1075.45 1615.21 1064.43C1612.24 1060.51 1608.72 1057.04 1604.75 1054.13C1594.75 1046.92 1582.52 1045.34 1571.37 1050.05C1571.39 1050.13 1571.39 1050.2 1571.37 1050.28C1577.16 1047.81 1583.29 1047.15 1589.16 1049.96C1603.41 1056.76 1608.54 1072.85 1612.86 1086.96C1615.55 1095.66 1617.43 1104.59 1618.49 1113.63Z" fill="#D5DADE"></path>
<g style="mix-blend-mode:screen" opacity="0.5">
<path d="M1577.33 1035.52C1553.64 1035.91 1540.97 1056.18 1537.33 1077.69C1537.27 1078.06 1537.82 1077.91 1537.89 1077.69C1543.02 1057.3 1555.89 1039.92 1577.32 1035.69C1577.36 1035.64 1577.42 1035.51 1577.33 1035.52Z" fill="#D5DADE"></path>
</g>
<g style="mix-blend-mode:screen" opacity="0.5">
<path d="M1584.15 1020.36C1575.69 1014.49 1565.45 1011.75 1555.19 1012.62C1544.93 1013.48 1535.29 1017.9 1527.94 1025.11C1527.88 1025.11 1527.94 1025.25 1528.01 1025.19C1543.35 1012.56 1566.95 1010.02 1584.01 1020.6C1584.07 1020.67 1584.26 1020.43 1584.15 1020.36Z" fill="#D5DADE"></path>
</g>
<g style="mix-blend-mode:screen" opacity="0.5">
<path d="M1604.31 1002.36C1601.01 989.48 1595.79 975.01 1587.55 964.47C1587.49 964.4 1587.35 964.53 1587.4 964.6C1594.93 976.46 1599.77 992.06 1603.26 1005.6C1606.68 1018.82 1610.26 1032.07 1612.63 1045.54C1612.63 1045.71 1612.91 1045.54 1612.89 1045.42C1611.16 1030.88 1607.94 1016.53 1604.31 1002.36Z" fill="#D5DADE"></path>
</g>
<g style="mix-blend-mode:screen" opacity="0.5">
<path d="M1632.88 981.72C1625.96 996.68 1621.74 1012.74 1620.4 1029.17C1620.4 1029.46 1620.76 1029.29 1620.79 1029.09C1623.73 1012.84 1627.34 997.25 1633.04 981.73C1633.09 981.6 1632.92 981.63 1632.88 981.72Z" fill="#D5DADE"></path>
</g>
<g style="mix-blend-mode:screen" opacity="0.5">
<path d="M1661.64 984.43C1640.94 1003.24 1626.76 1029.1 1625.09 1057.43C1625.09 1057.69 1625.41 1057.53 1625.44 1057.36C1630.44 1028.97 1642.44 1005.72 1661.72 984.47C1661.78 984.43 1661.71 984.37 1661.64 984.43Z" fill="#D5DADE"></path>
</g>
<g style="mix-blend-mode:screen" opacity="0.5">
<path d="M1675.43 1026.58C1671.44 1027.71 1667.56 1029.22 1663.85 1031.07C1659.65 1033.35 1656.36 1036.48 1652.93 1039.77C1652.6 1040.08 1652.93 1040.57 1653.3 1040.27C1656.54 1037.86 1659.56 1035.27 1662.92 1032.96C1666.89 1030.49 1671.07 1028.4 1675.43 1026.71C1675.49 1026.69 1675.49 1026.56 1675.43 1026.58Z" fill="#D5DADE"></path>
</g>
<g style="mix-blend-mode:screen" opacity="0.5">
<path d="M1668.98 1063.81C1660.16 1057.33 1648.9 1057.43 1639.98 1063.81C1639.98 1063.81 1639.98 1063.9 1639.98 1063.88C1644.47 1062.53 1648.43 1061.17 1653.15 1060.96C1658.47 1060.73 1663.62 1062.55 1668.48 1064.48C1668.77 1064.66 1669.31 1064.08 1668.98 1063.81Z" fill="#D5DADE"></path>
</g>
<path d="M1700.61 1113.6H1537.97V1113.79H1700.61V1113.6Z" fill="#D5DADE"></path>
</g>
<defs>
<clipPath id="clip0_5_1720">
<rect width="1674.98" height="951.62" fill="white" transform="translate(123 202)"></rect>
</clipPath>
</defs>
</svg>