<svg width="1920" height="1356" viewBox="0 0 1920 1356" fill="none" xmlns="http://www.w3.org/2000/svg">
<g clip-path="url(#clip0_2_363)">
<path d="M1083.45 570.2H895.26C893.996 570.222 892.791 570.74 891.905 571.642C891.02 572.543 890.523 573.757 890.523 575.021V701.146H1088.17V574.973C1088.15 573.721 1087.66 572.524 1086.78 571.633C1085.9 570.742 1084.71 570.228 1083.45 570.2Z" fill="#302E41"></path>
<path d="M1079.61 578.42H899.321V694.963H1079.61V578.42Z" fill="#D5DADE"></path>
<path d="M1109.39 712.933H869L857.141 708.546H1121.25L1109.39 712.933Z" fill="#D5DADE"></path>
<path d="M990.02 575.118C990.02 575.284 989.971 575.448 989.878 575.586C989.785 575.725 989.654 575.833 989.499 575.897C989.345 575.961 989.176 575.978 989.012 575.945C988.848 575.912 988.698 575.832 988.58 575.714C988.462 575.596 988.382 575.446 988.349 575.282C988.317 575.118 988.333 574.949 988.397 574.795C988.461 574.641 988.569 574.509 988.708 574.416C988.847 574.323 989.01 574.274 989.177 574.274C989.4 574.274 989.615 574.363 989.773 574.521C989.931 574.679 990.02 574.894 990.02 575.118Z" fill="#808184"></path>
<path d="M1010.51 701.134H967.713V705.509H1010.51V701.134Z" fill="#D5DADE"></path>
<path d="M1007.12 701.134V702.713C1007.12 703.239 1006.91 703.744 1006.54 704.119C1006.17 704.494 1005.67 704.707 1005.14 704.713H973.112C972.585 704.707 972.083 704.494 971.713 704.119C971.343 703.744 971.135 703.239 971.135 702.713V701.134H857.141V708.546H1121.25V701.134H1007.12Z" fill="#E6EAED"></path>
<path d="M1663.75 299.39H1662.63V343.899H1663.75V299.39Z" fill="#E7ECF1"></path>
<path d="M1700.74 257.112H1699.62V297.92H1700.74V257.112Z" fill="#E7ECF1"></path>
<path d="M1781.36 255.641H1639.34V257.112H1781.36V255.641Z" fill="#E7ECF1"></path>
<path d="M1740.62 297.92H1641.56V299.39H1740.62V297.92Z" fill="#E7ECF1"></path>
<path d="M1719.06 343.899H1622.59V345.369H1719.06V343.899Z" fill="#E7ECF1"></path>
<path d="M1598.22 974.728H1597.1V1019.24H1598.22V974.728Z" fill="#E7ECF1"></path>
<path d="M1561.23 1020.69H1560.11V1061.5H1561.23V1020.69Z" fill="#E7ECF1"></path>
<path d="M1621.5 1061.5H1479.48V1062.97H1621.5V1061.5Z" fill="#E7ECF1"></path>
<path d="M1619.28 1019.24H1520.22V1020.71H1619.28V1019.24Z" fill="#E7ECF1"></path>
<path d="M1638.25 973.258H1541.78V974.728H1638.25V973.258Z" fill="#E7ECF1"></path>
<path d="M174.743 635.86H173.622V680.368H174.743V635.86Z" fill="#E7ECF1"></path>
<path d="M137.757 681.839H136.636V722.647H137.757V681.839Z" fill="#E7ECF1"></path>
<path d="M198.026 722.647H56V724.117H198.026V722.647Z" fill="#E7ECF1"></path>
<path d="M195.808 680.368H96.7458V681.839H195.808V680.368Z" fill="#E7ECF1"></path>
<path d="M214.777 634.402H118.306V635.872H214.777V634.402Z" fill="#E7ECF1"></path>
<path d="M456.914 288.761H455.793V333.269H456.914V288.761Z" fill="#E7ECF1"></path>
<path d="M493.888 334.739H492.767V375.547H493.888V334.739Z" fill="#E7ECF1"></path>
<path d="M574.524 375.547H432.498V377.018H574.524V375.547Z" fill="#E7ECF1"></path>
<path d="M533.778 333.269H434.715V334.739H533.778V333.269Z" fill="#E7ECF1"></path>
<path d="M512.218 287.29H415.747V288.761H512.218V287.29Z" fill="#E7ECF1"></path>
<path d="M430.895 882.337H429.774V926.845H430.895V882.337Z" fill="#E7ECF1"></path>
<path d="M467.881 840.058H466.76V880.866H467.881V840.058Z" fill="#E7ECF1"></path>
<path d="M548.517 838.588H406.491V840.058H548.517V838.588Z" fill="#E7ECF1"></path>
<path d="M507.771 880.866H408.708V882.337H507.771V880.866Z" fill="#E7ECF1"></path>
<path d="M486.211 926.845H389.74V928.315H486.211V926.845Z" fill="#E7ECF1"></path>
<path d="M892.85 331.774H891.729V376.283H892.85V331.774Z" fill="#E7ECF1"></path>
<path d="M855.864 289.496H854.743V330.304H855.864V289.496Z" fill="#E7ECF1"></path>
<path d="M916.133 288.025H774.107V289.496H916.133V288.025Z" fill="#E7ECF1"></path>
<path d="M913.916 330.304H814.853V331.774H913.916V330.304Z" fill="#E7ECF1"></path>
<path d="M932.885 376.283H836.413V377.753H932.885V376.283Z" fill="#E7ECF1"></path>
<path d="M1864 1144.47H90.1174V1147H1864V1144.47Z" fill="#D5DADE"></path>
<path d="M892.922 1125.76H879.593C878.02 1125.76 876.512 1125.14 875.4 1124.03C874.288 1122.92 873.664 1121.41 873.664 1119.83V1016.19H898.851V1119.83C898.851 1121.41 898.226 1122.92 897.114 1124.03C896.002 1125.14 894.494 1125.76 892.922 1125.76Z" fill="#E6EAED"></path>
<path d="M562.605 1125.76H549.264C547.692 1125.76 546.184 1125.14 545.072 1124.03C543.96 1122.92 543.335 1121.41 543.335 1119.83V1016.19H568.534V1119.83C568.534 1121.41 567.91 1122.92 566.798 1124.03C565.686 1125.14 564.178 1125.76 562.605 1125.76Z" fill="#E6EAED"></path>
<path d="M907.926 750.668H534.272V1016.21H907.926V750.668Z" fill="#E6EAED"></path>
<path d="M1441.36 712.933H512.772V741.834H1441.36V712.933Z" fill="#E6EAED"></path>
<path d="M907.926 741.834H534.272V758.309H907.926V741.834Z" fill="#D5DADE"></path>
<path d="M665.789 759.514H550.867V1004.71H665.789V759.514Z" fill="#D5DADE"></path>
<path d="M891.319 846.494H675.31V1004.81H891.319V846.494Z" fill="#D5DADE"></path>
<path d="M891.319 759.514H675.31V834.333H891.319V759.514Z" fill="#D5DADE"></path>
<path d="M644.434 891.002C649.526 891.002 653.654 887.02 653.654 882.108C653.654 877.195 649.526 873.213 644.434 873.213C639.342 873.213 635.215 877.195 635.215 882.108C635.215 887.02 639.342 891.002 644.434 891.002Z" fill="#E6EAED"></path>
<path d="M692.362 934.546C697.454 934.546 701.582 930.564 701.582 925.652C701.582 920.74 697.454 916.757 692.362 916.757C687.271 916.757 683.143 920.74 683.143 925.652C683.143 930.564 687.271 934.546 692.362 934.546Z" fill="#E6EAED"></path>
<path d="M783.326 788.09C788.418 788.09 792.546 784.107 792.546 779.195C792.546 774.283 788.418 770.301 783.326 770.301C778.235 770.301 774.107 774.283 774.107 779.195C774.107 784.107 778.235 788.09 783.326 788.09Z" fill="#E6EAED"></path>
<path d="M1390.34 741.834H1417.39V1119.83C1417.39 1120.61 1417.23 1121.38 1416.94 1122.1C1416.64 1122.82 1416.2 1123.48 1415.65 1124.03C1415.1 1124.58 1414.45 1125.01 1413.73 1125.31C1413.01 1125.61 1412.24 1125.76 1411.46 1125.76H1396.27C1394.7 1125.76 1393.19 1125.14 1392.08 1124.03C1390.97 1122.92 1390.34 1121.41 1390.34 1119.83V741.834Z" fill="#E6EAED"></path>
<path d="M1127.37 1046.1L1146.57 1091.3C1146.57 1091.3 1104.56 1125.04 1107.24 1133.67L1201.02 1101.52L1174.15 1029.91L1127.37 1046.1Z" fill="#c1272d" class="changeColor"></path>
<path d="M1201.03 1101.52L1198.01 1094.39L1109.24 1127.89C1109.24 1127.89 1105.73 1131.04 1107.26 1133.67L1201.03 1101.52Z" fill="#D5DADE"></path>
<path d="M1037.64 1056.9L1056.83 1102.09C1056.83 1102.09 1014.83 1135.84 1017.52 1144.47L1111.28 1112.31L1084.42 1040.71L1037.64 1056.9Z" fill="#c1272d" class="changeColor"></path>
<path d="M1111.28 1112.31L1108.28 1105.19L1019.5 1138.68C1019.5 1138.68 1015.99 1141.84 1017.52 1144.47L1111.28 1112.31Z" fill="#D5DADE"></path>
<path d="M1192.04 460.406L1183.08 529.934L1197 562.005L1141.9 563.849L1130.47 538.793C1130.47 538.793 1103.18 535.864 1102.09 519.292C1101.4 508.711 1119.39 431.59 1119.39 431.59L1192.04 460.406Z" fill="#F9B3A4"></path>
<path d="M1174.36 543.168C1180.87 538.998 1184.14 536.201 1187 529.272C1189.86 522.342 1191.7 515.026 1194.95 508.253C1198.36 501.13 1203.27 494.73 1206.64 487.583C1210.02 480.437 1211.72 472.048 1208.44 464.865C1208.44 464.865 1207.23 455.682 1194.21 452.331C1194.21 452.331 1186.83 432.843 1169.92 431.023C1146.92 428.54 1147.71 422.129 1132.71 416.681C1118.67 411.595 1113.23 423.334 1113.23 423.334C1113.23 423.334 1104 427.347 1101.82 435.386C1101.82 435.458 1101.82 435.531 1101.82 435.603C1100.83 439.638 1101.22 443.888 1102.91 447.68C1104.61 451.472 1107.53 454.589 1111.2 456.537C1112.12 457.056 1113.05 457.574 1113.99 458.08C1116.63 459.514 1119.39 461.021 1121.07 463.443C1123.54 467.059 1123.02 471.759 1121.92 475.929C1120.83 480.099 1119.22 484.366 1119.84 488.56C1120.04 490.018 1120.93 491.741 1122.48 491.669C1124.31 491.573 1124.74 489.259 1125.3 487.595C1126.9 482.775 1134.44 480.364 1138.36 484.908C1139.56 486.211 1140.25 487.899 1140.31 489.666C1140.37 491.434 1139.8 493.166 1138.7 494.549C1136.17 497.683 1131.73 499.635 1130.13 503.348C1127.42 509.603 1134.2 516.906 1136.48 521.052C1137.25 522.539 1138.16 523.948 1139.2 525.258C1144.54 531.748 1151.09 537.138 1158.49 541.131C1163.91 544.228 1171.14 545.168 1176.56 541.974" fill="#302E41"></path>
<path d="M947.647 627.231C938.006 623.326 931.739 619.783 925.268 617.589C917.278 614.841 914.193 613.178 914.831 611.792C915.687 609.936 915.265 610.587 930.498 613.66C930.498 613.66 908.806 609.129 914.265 606.598C916.675 605.477 934.825 609.068 934.825 609.068C920.001 607.453 914.687 604.621 915.06 602.512C915.603 599.451 937.548 603.97 937.548 603.97C937.548 603.97 920.737 600.837 917.977 599.415C915.217 597.992 918.736 596.655 921.978 596.317C925.593 595.944 947.117 596.667 953.312 596.57C957.59 596.498 957.337 592.955 957.337 592.955C955.517 584.578 958.819 577.142 960.711 575.515C961.167 575.174 961.718 574.985 962.286 574.973C962.855 574.961 963.414 575.128 963.883 575.45C964.352 575.771 964.709 576.232 964.903 576.767C965.097 577.302 965.119 577.884 964.965 578.432C964.597 581.312 964.642 584.23 965.098 587.097C965.375 589.409 966.061 591.654 967.122 593.726C968.328 596.136 969.533 598.149 970.533 599.824L1001.35 631.774L988.092 662.085L947.647 627.231Z" fill="#F9B3A4"></path>
<path d="M939.669 615.661C939.597 616.022 934.849 615.275 929.124 613.985C923.4 612.696 918.784 611.358 918.892 610.997C919.001 610.635 923.713 611.394 929.45 612.672C935.186 613.949 939.741 615.287 939.669 615.661Z" fill="#F9B3A4"></path>
<path d="M941.525 610.225C941.453 610.587 936.379 610.057 930.173 609.02C923.966 607.984 919.001 606.875 919.074 606.513C919.146 606.152 924.22 606.682 930.414 607.718C936.608 608.755 941.586 609.852 941.525 610.225Z" fill="#F9B3A4"></path>
<path d="M943.417 604.561C943.345 604.922 938.597 604.561 932.656 603.609C926.714 602.657 922.062 601.692 922.123 601.331C922.183 600.969 926.943 601.331 932.885 602.271C938.826 603.211 943.478 604.199 943.417 604.561Z" fill="#F9B3A4"></path>
<path d="M1149.39 763.419L1017.65 782.256C1008.84 783.459 1000.37 786.469 992.773 791.098C985.177 795.727 978.619 801.875 973.509 809.157C968.48 816.387 965.158 824.665 963.793 833.367C962.428 842.068 963.055 850.966 965.628 859.389L1035.18 1069.77L1098 1047.22L1059.44 861.27L1263.2 848.326V763.467L1149.39 759.562" fill="#302E41"></path>
<path d="M1242.16 763.419L1110.43 782.256C1101.61 783.458 1093.14 786.467 1085.55 791.096C1077.96 795.725 1071.4 801.874 1066.29 809.157C1061.26 816.385 1057.93 824.663 1056.57 833.365C1055.2 842.067 1055.83 850.965 1058.4 859.39L1119.08 1057.21L1189.22 1039.64L1152.21 861.27L1288.39 852.616V767.758L1242.22 759.562" fill="#302E41"></path>
<path d="M980.391 607.598C983.103 607.248 1072.6 673.39 1072.6 673.39L1015.44 694.951L957.59 640.476C957.59 640.476 953.974 611.057 980.391 607.598Z" fill="#c1272d" class="changeColor"></path>
<path d="M1269.78 581.662C1254.86 561.173 1229.48 554.075 1220.68 552.17C1218.81 551.764 1216.9 551.562 1214.98 551.568H1138.84C1125.21 551.469 1112.02 556.443 1101.85 565.524C1093.51 573.105 1083.29 584.47 1072.6 601.246L1034.25 651.781L1010.68 689.275L1015.5 694.999C1026.78 708.462 1046.41 713.692 1062.85 706.425C1070.62 702.99 1076.3 696.578 1081.57 689.214C1091.22 675.8 1101.25 661.29 1107.91 650.214L1146.35 754.44L1125.79 766.83L1212.43 800.033L1302.66 763.455L1277.72 679.284C1277.72 679.284 1317.24 682.899 1320.89 668.208C1324.54 653.516 1288.04 606.73 1269.78 581.662Z" fill="#c1272d" class="changeColor"></path>
<path d="M770.672 483.715L768.479 476.062L772.878 476.267L773.275 483.341L770.672 483.715Z" fill="#E0E0E0"></path>
<path d="M764.285 483.486L759.284 510.651L746.63 546.53L817.914 536.25L789.147 504.926L777.132 481.642L764.285 483.486Z" fill="#E0E0E0"></path>
<path d="M594.589 712.933C594.589 712.475 594.517 712.029 594.517 711.583C594.517 704.43 597.359 697.569 602.417 692.511C607.475 687.452 614.335 684.611 621.488 684.611C628.641 684.611 635.502 687.452 640.56 692.511C645.618 697.569 648.459 704.43 648.459 711.583C648.459 712.029 648.459 712.475 648.459 712.933H594.589Z" fill="#E0E0E0"></path>
<path d="M621.488 685.671C621.252 685.671 621.022 685.593 620.835 685.449C620.647 685.306 620.513 685.104 620.452 684.876L584.719 548.687C584.683 548.552 584.674 548.411 584.692 548.272C584.711 548.133 584.757 547.999 584.828 547.878C584.898 547.757 584.992 547.651 585.104 547.567C585.215 547.482 585.343 547.421 585.479 547.386C585.753 547.315 586.045 547.356 586.29 547.498C586.536 547.639 586.716 547.872 586.792 548.145L622.525 684.333C622.561 684.469 622.57 684.61 622.551 684.749C622.533 684.888 622.487 685.021 622.416 685.142C622.346 685.263 622.252 685.369 622.14 685.454C622.028 685.538 621.901 685.6 621.765 685.635C621.675 685.659 621.582 685.671 621.488 685.671Z" fill="#E0E0E0"></path>
<path d="M612.052 689.046C611.815 689.048 611.584 688.971 611.397 688.827C611.209 688.682 611.075 688.48 611.015 688.25L575.271 552.062C575.214 551.792 575.264 551.511 575.408 551.277C575.553 551.043 575.783 550.873 576.049 550.804C576.316 550.734 576.599 550.769 576.84 550.903C577.081 551.036 577.261 551.257 577.344 551.52L613.088 687.708C613.158 687.981 613.118 688.271 612.976 688.515C612.834 688.758 612.601 688.936 612.329 689.01L612.052 689.046Z" fill="#E0E0E0"></path>
<path d="M573.62 549.736C573.62 551.071 574.016 552.377 574.758 553.487C575.5 554.597 576.555 555.462 577.789 555.973C579.023 556.483 580.38 556.616 581.69 556.355C582.999 556.093 584.202 555.449 585.145 554.504C586.089 553.559 586.73 552.355 586.99 551.045C587.249 549.735 587.113 548.378 586.6 547.145C586.088 545.912 585.221 544.858 584.11 544.118C582.998 543.378 581.692 542.984 580.357 542.987C579.471 542.987 578.594 543.161 577.776 543.501C576.958 543.84 576.215 544.337 575.589 544.964C574.963 545.591 574.467 546.335 574.129 547.154C573.792 547.973 573.619 548.85 573.62 549.736Z" fill="#E0E0E0"></path>
<path d="M580.971 550.616L579.754 548.856L706.402 461.479L780.482 503.625L779.434 505.481L706.511 464.01L580.971 550.616Z" fill="#E0E0E0"></path>
<path d="M711.265 467.155L586.543 553.521L587.765 555.285L712.486 468.919L711.265 467.155Z" fill="#E0E0E0"></path>
<path d="M702.413 466.107C702.413 467.299 702.766 468.464 703.429 469.455C704.091 470.446 705.032 471.218 706.133 471.674C707.234 472.13 708.445 472.249 709.614 472.017C710.783 471.784 711.857 471.21 712.7 470.368C713.542 469.525 714.116 468.451 714.349 467.282C714.581 466.113 714.462 464.902 714.006 463.801C713.55 462.7 712.777 461.758 711.786 461.096C710.796 460.434 709.631 460.081 708.439 460.081C706.841 460.081 705.308 460.716 704.178 461.846C703.048 462.976 702.413 464.508 702.413 466.107Z" fill="#E0E0E0"></path>
<path d="M1314.97 1113.8C1313.01 1113.76 1311.12 1113.04 1309.63 1111.75C1308.14 1110.47 1307.14 1108.71 1306.82 1106.77L1263.03 859.185L1283.09 855.485L1323.16 1103.76C1323.39 1104.97 1323.36 1106.22 1323.06 1107.42C1322.75 1108.62 1322.19 1109.73 1321.41 1110.69C1320.63 1111.65 1319.65 1112.42 1318.54 1112.96C1317.43 1113.5 1316.21 1113.78 1314.97 1113.8Z" fill="#E6EAED"></path>
<path d="M1420.36 1145.87C1418.35 1145.68 1416.45 1144.89 1414.89 1143.6C1413.34 1142.31 1412.21 1140.58 1411.66 1138.64L1320.52 861.149L1339.8 854.436L1428.39 1132.84C1430.55 1139.52 1426.46 1146.1 1420.36 1145.87Z" fill="#D5DADE"></path>
<path d="M1419.16 585.989L1312.99 576.455C1310.54 576.26 1308.1 576.879 1306.05 578.216C1303.99 579.552 1302.44 581.531 1301.62 583.843L1217.9 813.628C1217.35 815.19 1216.34 816.547 1215 817.518C1213.66 818.49 1212.06 819.029 1210.4 819.063L1069.88 820.63C1069.88 835.527 1088.36 855.75 1102.79 855.75L1255.91 855.28L1338.61 856.184C1364.85 855.328 1389.22 826.475 1400.26 801.877C1407.77 785.083 1413.43 767.52 1417.13 749.499C1427.1 701.411 1428.93 625.363 1429.27 597.559C1429.34 594.714 1428.34 591.946 1426.47 589.803C1424.6 587.66 1421.99 586.299 1419.16 585.989Z" fill="#D5DADE"></path>
<path d="M1080.9 1146.99C1073.97 1147.27 1069.27 1139.76 1071.54 1132.02L1153.94 851.206L1173.42 857.377L1091.08 1138.06C1089.59 1143.2 1085.46 1146.81 1080.9 1146.99Z" fill="#D5DADE"></path>
<path d="M1354.17 850.146H1136.9C1135.47 850.146 1134.3 851.311 1134.3 852.749V862.005C1134.3 863.443 1135.47 864.608 1136.9 864.608H1354.17C1355.6 864.608 1356.77 863.443 1356.77 862.005V852.749C1356.77 851.311 1355.6 850.146 1354.17 850.146Z" fill="#D5DADE"></path>
<path d="M574.909 962.386H323.963V976.825H574.909V962.386Z" fill="#D5DADE"></path>
<path d="M566.63 976.813H446.574V1059.41H566.63V976.813Z" fill="#D5DADE"></path>
<path d="M446.574 974.366H332.23V1056.96H446.574V974.366Z" fill="#E6EAED"></path>
<path d="M420.061 1012.22H358.755V1036.49H420.061V1012.22Z" fill="white"></path>
<path d="M414.071 986.647H364.733V1002.25H414.071V986.647Z" fill="#D5DADE"></path>
<path d="M553.229 1056.96H302.282V1071.78H553.229V1056.96Z" fill="#D5DADE"></path>
<path d="M544.962 1071.78H424.906V1144.47H544.962V1071.78Z" fill="#D5DADE"></path>
<path d="M424.905 1071.78H310.562V1144.47H424.905V1071.78Z" fill="#E6EAED"></path>
<path d="M398.38 1107.76H337.075V1130.83H398.38V1107.76Z" fill="white"></path>
<path d="M392.403 1081.11H343.064V1095.94H392.403V1081.11Z" fill="#D5DADE"></path>
<path d="M977.065 342.127C1013.82 342.127 1043.62 312.326 1043.62 275.564C1043.62 238.802 1013.82 209 977.065 209C940.305 209 910.505 238.802 910.505 275.564C910.505 312.326 940.305 342.127 977.065 342.127Z" fill="#E6EAED"></path>
<path d="M977.065 330.123C1007.2 330.123 1031.62 305.696 1031.62 275.564C1031.62 245.431 1007.2 221.004 977.065 221.004C946.934 221.004 922.508 245.431 922.508 275.564C922.508 305.696 946.934 330.123 977.065 330.123Z" fill="white"></path>
<path d="M977.27 232.718L979.812 278.589L974.317 278.516L977.053 232.706L977.27 232.718Z" fill="#E6EAED"></path>
<path d="M944.538 275.817L980.234 272.828L980.15 278.311L944.526 276.034L944.538 275.817Z" fill="#E6EAED"></path>
<path d="M978.933 275.539C978.935 275.912 978.827 276.277 978.621 276.588C978.415 276.899 978.122 277.142 977.778 277.286C977.434 277.43 977.055 277.468 976.689 277.396C976.323 277.324 975.987 277.145 975.724 276.881C975.46 276.617 975.281 276.281 975.208 275.915C975.136 275.549 975.174 275.17 975.318 274.826C975.462 274.482 975.705 274.189 976.016 273.983C976.327 273.777 976.692 273.669 977.065 273.671C977.56 273.671 978.035 273.868 978.386 274.218C978.736 274.569 978.933 275.044 978.933 275.539Z" fill="#D5DADE"></path>
<path d="M1760.41 498.418H1336.53V504.492H1760.41V498.418Z" fill="#D5DADE"></path>
<path d="M1394.25 401.954H1367.35V498.418H1394.25V401.954Z" fill="#E6EAED"></path>
<path d="M1387.31 414.97H1374.29V457.056H1387.31V414.97Z" fill="#D5DADE"></path>
<path d="M1380.8 489.596C1384.39 489.596 1387.31 486.682 1387.31 483.088C1387.31 479.494 1384.39 476.58 1380.8 476.58C1377.2 476.58 1374.29 479.494 1374.29 483.088C1374.29 486.682 1377.2 489.596 1380.8 489.596Z" fill="#D5DADE"></path>
<path d="M1426.35 401.954H1399.45V498.418H1426.35V401.954Z" fill="#E6EAED"></path>
<path d="M1419.41 414.97H1406.4V457.056H1419.41V414.97Z" fill="#D5DADE"></path>
<path d="M1412.9 489.596C1416.5 489.596 1419.41 486.682 1419.41 483.088C1419.41 479.494 1416.5 476.58 1412.9 476.58C1409.31 476.58 1406.4 479.494 1406.4 483.088C1406.4 486.682 1409.31 489.596 1412.9 489.596Z" fill="#D5DADE"></path>
<path d="M1458.46 401.954H1431.56V498.418H1458.46V401.954Z" fill="#E6EAED"></path>
<path d="M1451.52 414.97H1438.5V457.056H1451.52V414.97Z" fill="#D5DADE"></path>
<path d="M1445.01 489.596C1448.6 489.596 1451.52 486.682 1451.52 483.088C1451.52 479.494 1448.6 476.58 1445.01 476.58C1441.41 476.58 1438.5 479.494 1438.5 483.088C1438.5 486.682 1441.41 489.596 1445.01 489.596Z" fill="#D5DADE"></path>
<path d="M1529.61 401.954H1502.71V498.418H1529.61V401.954Z" fill="#E6EAED"></path>
<path d="M1522.67 414.97H1509.65V457.056H1522.67V414.97Z" fill="#D5DADE"></path>
<path d="M1516.16 489.596C1519.75 489.596 1522.67 486.682 1522.67 483.088C1522.67 479.494 1519.75 476.58 1516.16 476.58C1512.57 476.58 1509.65 479.494 1509.65 483.088C1509.65 486.682 1512.57 489.596 1516.16 489.596Z" fill="#D5DADE"></path>
<path d="M1561.71 401.954H1534.82V498.418H1561.71V401.954Z" fill="#E6EAED"></path>
<path d="M1554.77 414.97H1541.76V457.056H1554.77V414.97Z" fill="#D5DADE"></path>
<path d="M1548.27 489.596C1551.86 489.596 1554.77 486.682 1554.77 483.088C1554.77 479.494 1551.86 476.58 1548.27 476.58C1544.67 476.58 1541.76 479.494 1541.76 483.088C1541.76 486.682 1544.67 489.596 1548.27 489.596Z" fill="#D5DADE"></path>
<path d="M1593.82 401.954H1566.92V498.418H1593.82V401.954Z" fill="#E6EAED"></path>
<path d="M1586.88 414.97H1573.86V457.056H1586.88V414.97Z" fill="#D5DADE"></path>
<path d="M1580.37 489.596C1583.96 489.596 1586.88 486.682 1586.88 483.088C1586.88 479.494 1583.96 476.58 1580.37 476.58C1576.78 476.58 1573.86 479.494 1573.86 483.088C1573.86 486.682 1576.78 489.596 1580.37 489.596Z" fill="#D5DADE"></path>
<path d="M1656.51 401.954H1629.61V498.418H1656.51V401.954Z" fill="#E6EAED"></path>
<path d="M1649.57 414.97H1636.55V457.056H1649.57V414.97Z" fill="#D5DADE"></path>
<path d="M1643.06 489.596C1646.66 489.596 1649.57 486.682 1649.57 483.088C1649.57 479.494 1646.66 476.58 1643.06 476.58C1639.47 476.58 1636.55 479.494 1636.55 483.088C1636.55 486.682 1639.47 489.596 1643.06 489.596Z" fill="#D5DADE"></path>
<path d="M1688.62 401.954H1661.72V498.418H1688.62V401.954Z" fill="#E6EAED"></path>
<path d="M1681.67 414.97H1668.66V457.056H1681.67V414.97Z" fill="#D5DADE"></path>
<path d="M1675.17 489.596C1678.76 489.596 1681.67 486.682 1681.67 483.088C1681.67 479.494 1678.76 476.58 1675.17 476.58C1671.57 476.58 1668.66 479.494 1668.66 483.088C1668.66 486.682 1671.57 489.596 1675.17 489.596Z" fill="#D5DADE"></path>
<path d="M1715.09 397.915L1688.5 401.929L1703.04 498.315L1729.64 494.302L1715.09 397.915Z" fill="#E6EAED"></path>
<path d="M1710.19 411.944L1697.32 413.886L1703.67 455.941L1716.54 454L1710.19 411.944Z" fill="#D5DADE"></path>
<path d="M1715.01 487.49C1718.56 486.954 1721 483.606 1720.46 480.012C1719.92 476.418 1716.6 473.94 1713.04 474.476C1709.49 475.012 1707.05 478.36 1707.59 481.954C1708.13 485.548 1711.45 488.026 1715.01 487.49Z" fill="#D5DADE"></path>
<path d="M564.895 344.357H204.437V355.023H564.895V344.357Z" fill="#EEEDEE"></path>
<path d="M556.085 355.023H213.259V558.16H556.085V355.023Z" fill="#EEEDEE"></path>
<path d="M550.891 355.023H218.453V553.785H550.891V355.023Z" fill="white"></path>
<path d="M273.058 395.433H259.392V531.586H273.058V395.433Z" fill="#E1E2E1"></path>
<path d="M297.462 440.821H283.796V531.586H297.462V440.821Z" fill="#EBEBEB"></path>
<path d="M320.625 410.269H306.958V531.598H320.625V410.269Z" fill="#E1E2E1"></path>
<path d="M344.414 398.784H330.748V531.586H344.414V398.784Z" fill="#EBEBEB"></path>
<path d="M367.577 442.051H353.911V531.586H367.577V442.051Z" fill="#E1E2E1"></path>
<path d="M391.439 460.298H377.772V531.586H391.439V460.298Z" fill="#EBEBEB"></path>
<path d="M414.602 408.016H400.936V531.598H414.602V408.016Z" fill="#E1E2E1"></path>
<path d="M438.801 429.95H425.135V531.586H438.801V429.95Z" fill="#EBEBEB"></path>
<path d="M462.373 411.499H448.707V531.586H462.373V411.499Z" fill="#E1E2E1"></path>
<path d="M485.958 446.968H472.292V531.586H485.958V446.968Z" fill="#EBEBEB"></path>
<path d="M509.952 431.794H496.286V531.586H509.952V431.794Z" fill="#E1E2E1"></path>
<path d="M268.78 1058.94H166.656V1072.9H268.78V1058.94Z" fill="#D5DADE"></path>
<path d="M268.948 1073.08H166.511V1058.75H268.948V1073.08ZM166.825 1072.74H268.599V1059.1H166.825V1072.74Z" fill="#D5DADE"></path>
<path d="M176.116 1072.64L190.819 1140.47H245.207L259.416 1072.9L176.116 1072.64Z" fill="#D5DADE"></path>
<path d="M176.116 1133.63L183.962 1144.37H250.064L259.416 1133.63H176.116Z" fill="#D5DADE"></path>
<path d="M213.873 1070.36C213.681 1070.36 213.415 1036.92 213.307 995.638C213.199 954.36 213.307 920.915 213.452 920.915C213.596 920.915 213.91 954.36 214.03 995.638C214.151 1036.92 214.078 1070.36 213.873 1070.36Z" fill="#D5DADE"></path>
<path d="M236.627 986.611C236.567 986.879 236.474 987.138 236.349 987.383L235.433 989.552C235.241 990.034 235.012 990.552 234.771 991.107C234.53 991.661 234.337 992.312 234.096 993.011L233.3 995.192C233.035 995.964 232.818 996.807 232.553 997.675C231.336 1001.76 230.382 1005.92 229.697 1010.12C228.898 1015.28 228.371 1020.48 228.118 1025.7C227.736 1035.18 228.005 1044.69 228.926 1054.14C229.251 1057.75 229.576 1060.7 229.817 1062.72C229.926 1063.67 230.01 1064.44 230.083 1065.06C230.115 1065.33 230.115 1065.61 230.083 1065.89C229.994 1065.63 229.933 1065.36 229.902 1065.08C229.797 1064.48 229.665 1063.71 229.504 1062.77C229.179 1060.74 228.769 1057.81 228.371 1054.19C227.303 1044.72 226.96 1035.18 227.347 1025.66C227.609 1020.41 228.16 1015.18 228.998 1009.99C229.72 1005.76 230.731 1001.59 232.023 997.494C232.312 996.627 232.541 995.783 232.83 995.011C233.12 994.24 233.409 993.529 233.674 992.842C233.939 992.155 234.18 991.54 234.421 990.95C234.662 990.359 234.927 989.877 235.144 989.419L236.181 987.298C236.296 987.049 236.446 986.818 236.627 986.611Z" fill="#D5DADE"></path>
<path d="M234.011 959.59C233.936 959.965 233.827 960.332 233.686 960.687L232.625 963.797C232.384 964.484 232.131 965.231 231.842 966.038L231.023 968.738C230.42 970.678 229.733 972.884 229.118 975.355C228.793 976.56 228.444 977.873 228.094 979.223C227.745 980.573 227.467 981.995 227.142 983.454C226.419 986.358 225.937 989.48 225.25 992.83C224.129 999.471 223.129 1006.82 222.454 1014.52C221.779 1022.23 221.526 1029.69 221.43 1036.42C221.333 1043.16 221.49 1049.25 221.767 1054.33C221.863 1056.89 222.02 1059.15 222.153 1061.2C222.285 1063.25 222.394 1064.97 222.526 1066.38C222.659 1067.79 222.719 1068.79 222.779 1069.66C222.814 1070.06 222.814 1070.47 222.779 1070.87C222.691 1070.49 222.63 1070.12 222.599 1069.73C222.502 1068.91 222.37 1067.83 222.213 1066.47C222.056 1065.11 221.863 1063.31 221.707 1061.29C221.55 1059.26 221.345 1056.96 221.213 1054.4C220.875 1049.31 220.731 1043.23 220.719 1036.47C220.707 1029.71 221.044 1022.29 221.683 1014.51C222.321 1006.74 223.394 999.374 224.551 992.71C225.238 989.407 225.756 986.238 226.515 983.321C226.853 981.863 227.19 980.441 227.516 979.091C227.841 977.741 228.239 976.451 228.588 975.222C229.239 972.812 229.962 970.546 230.601 968.617C230.914 967.665 231.203 966.761 231.48 965.93L232.324 963.7C232.818 962.423 233.216 961.398 233.529 960.639C233.657 960.275 233.819 959.924 234.011 959.59Z" fill="#D5DADE"></path>
<path d="M207.414 1076.28C207.404 1076.15 207.404 1076.02 207.414 1075.89C207.414 1075.59 207.414 1075.22 207.318 1074.69C207.245 1073.63 207.149 1072.14 207.028 1070.26C206.775 1066.36 206.426 1060.8 206.004 1053.97C205.112 1040.21 203.835 1021.2 201.509 1000.3C200.304 989.853 198.942 979.934 197.508 970.931C196.748 966.436 196.062 962.17 195.278 958.192C194.495 954.215 193.784 950.515 193.073 947.141C192.362 943.766 191.651 940.729 191.048 938.065C190.446 935.402 189.843 933.1 189.409 931.232C188.975 929.364 188.602 927.954 188.349 926.917C188.24 926.459 188.156 926.086 188.083 925.797C188.05 925.67 188.03 925.541 188.023 925.411C188.086 925.523 188.131 925.646 188.156 925.772L188.481 926.881L189.686 931.16C190.217 933.016 190.819 935.294 191.458 937.969C192.097 940.645 192.88 943.658 193.579 947.032C194.278 950.407 195.134 954.095 195.881 958.084C196.628 962.073 197.399 966.328 198.183 970.823C199.653 979.826 201.051 989.757 202.244 1000.22C204.57 1021.14 205.775 1040.17 206.522 1053.93C206.896 1060.82 207.161 1066.4 207.318 1070.25C207.39 1072.13 207.438 1073.61 207.486 1074.69C207.486 1075.16 207.486 1075.54 207.486 1075.89C207.481 1076.02 207.456 1076.15 207.414 1076.28Z" fill="#D5DADE"></path>
<path d="M213.042 937.017C212.596 932.268 207.787 928.701 203.015 928.653C198.243 928.605 193.772 931.449 190.855 935.221C187.939 938.993 186.312 943.585 184.998 948.153C181.78 959.325 180.021 971.052 181.383 982.586C182.745 994.12 187.408 1005.48 195.772 1013.63C197.122 1014.96 198.869 1016.28 200.725 1015.89C201.722 1015.59 202.624 1015.04 203.34 1014.28C211.479 1006.88 217.934 997.822 222.271 987.713C226.608 977.605 228.725 966.683 228.48 955.686C228.347 951.299 227.769 946.731 225.334 943.079C222.9 939.427 217.212 935.547 213.054 937.053" fill="#D5DADE"></path>
<path d="M177.346 899.053L170.633 911.19C170.476 911.479 170.272 911.792 169.946 911.816C169.621 911.84 169.319 911.515 169.127 911.213L151.351 884.012L155.448 881.698L177.346 899.053Z" fill="#D5DADE"></path>
<g opacity="0.2">
<path d="M177.346 899.053L170.633 911.19C170.476 911.479 170.272 911.792 169.946 911.816C169.621 911.84 169.319 911.515 169.127 911.213L151.351 884.012L155.448 881.698L177.346 899.053Z" fill="#D5DADE"></path>
</g>
<path d="M213.452 920.927L152.737 885.253C152.074 884.967 151.548 884.436 151.266 883.771C151.013 882.867 151.688 882.011 152.339 881.361C156.523 877.041 161.586 873.672 167.185 871.48C172.785 869.289 178.79 868.326 184.793 868.658C190.789 869.085 196.591 870.962 201.701 874.128C206.811 877.293 211.075 881.653 214.127 886.832C219.984 897.257 220.152 911.045 213.452 920.94" fill="#D5DADE"></path>
<path d="M185.456 925.797C180.238 921.844 174.718 921.072 168.162 921.337C161.611 921.757 155.195 923.392 149.242 926.158C139.01 930.629 129.381 937.21 123.259 946.514C117.137 955.818 115.016 968.208 119.643 978.319C120 979.383 120.739 980.276 121.716 980.826C122.857 981.146 124.073 981.052 125.151 980.561C136.793 976.777 148.519 972.968 159.22 967.039C169.922 961.109 179.708 952.877 185.42 942.115C186.894 939.572 187.834 936.754 188.18 933.835C188.338 932.376 188.181 930.9 187.72 929.507C187.258 928.114 186.503 926.836 185.504 925.76" fill="#D5DADE"></path>
<path d="M233.3 961.531L238.784 961.085C242.67 960.764 246.443 959.613 249.847 957.71C251.509 956.741 253.232 955.879 255.005 955.131C261.79 952.419 269.346 952.902 276.637 952.54C288.575 951.939 300.272 948.96 311.044 943.778C311.668 943.491 312.189 943.02 312.538 942.428C313.659 940.379 311.574 938.56 309.778 937.463C300.535 931.798 291.147 926.062 280.674 923.242C270.202 920.421 258.319 920.903 249.341 927.026C238.844 934.257 235.024 948.985 233.252 961.531" fill="#D5DADE"></path>
<path d="M241.339 984.719C236.108 983.345 229.878 988.407 228.805 993.686C227.733 998.965 229.709 1004.35 232.035 1009.21C237.181 1019.97 244.291 1029.95 253.655 1037.37C263.019 1044.8 274.733 1049.55 286.7 1049.49C284.495 1039.27 287.291 1028.59 286.061 1018.15C284.956 1008.99 280.78 1000.48 274.214 993.996C267.648 987.515 259.08 983.451 249.907 982.465C246.569 982.116 242.676 981.586 241.375 984.659" fill="#D5DADE"></path>
<path d="M268.936 1072.84C268.936 1073.05 246.039 1073.21 217.718 1073.21C189.397 1073.21 166.487 1073.05 166.487 1072.84C166.487 1072.64 189.385 1072.48 217.718 1072.48C246.051 1072.48 268.936 1072.65 268.936 1072.84Z" fill="#D5DADE"></path>
</g>
<defs>
<clipPath id="clip0_2_363">
<rect width="1808" height="938" fill="white" transform="translate(56 209)"></rect>
</clipPath>
</defs>
</svg>