<svg width="1920" height="1356" viewBox="0 0 1920 1356" fill="none" xmlns="http://www.w3.org/2000/svg">
<g clip-path="url(#clip0_2_621)">
<path d="M390.989 1081.67C390.761 1081.67 390.478 1044.62 390.341 998.934C390.205 953.243 390.341 916.201 390.512 916.201C390.682 916.201 391.023 953.232 391.148 998.934C391.273 1044.64 391.204 1081.67 390.989 1081.67Z" fill="#c1272d" class="changeColor"></path>
<path d="M416.19 988.958C416.121 989.256 416.018 989.546 415.883 989.821C415.622 990.445 415.292 991.239 414.872 992.215C414.656 992.737 414.407 993.35 414.134 993.94C413.861 994.53 413.657 995.291 413.384 996.04L412.51 998.457C412.215 999.308 411.976 1000.24 411.681 1001.2C410.343 1005.75 409.3 1010.38 408.558 1015.06C407.672 1020.77 407.089 1026.53 406.809 1032.3C406.39 1042.8 406.686 1053.33 407.695 1063.79C408.058 1067.81 408.433 1071.07 408.694 1073.3C408.819 1074.36 408.91 1075.21 408.989 1075.89C409.022 1076.19 409.022 1076.5 408.989 1076.8C408.876 1076.51 408.803 1076.22 408.774 1075.91C408.66 1075.24 408.524 1074.39 408.342 1073.35C407.979 1071.08 407.524 1067.87 407.081 1063.85C405.898 1053.37 405.518 1042.81 405.946 1032.27C406.229 1026.46 406.836 1020.67 407.763 1014.94C408.583 1010.25 409.721 1005.63 411.17 1001.1C411.476 1000.15 411.738 999.218 412.067 998.355L412.998 995.949C413.294 995.211 413.566 994.508 413.816 993.861C414.066 993.214 414.384 992.726 414.622 992.158L415.758 989.809C415.865 989.508 416.01 989.222 416.19 988.958Z" fill="#c1272d" class="changeColor"></path>
<path d="M413.294 959.009C413.22 959.425 413.102 959.832 412.942 960.223C412.646 961.085 412.249 962.232 411.806 963.628C411.545 964.377 411.249 965.205 410.943 966.113C410.636 967.021 410.352 968.031 410.034 969.098C409.364 971.243 408.603 973.637 407.922 976.418L406.786 980.708C406.445 982.206 406.093 983.772 405.719 985.383C404.935 988.606 404.367 992.113 403.629 995.767C402.391 1003.13 401.289 1011.26 400.528 1019.84C399.768 1028.42 399.506 1036.63 399.393 1044.09C399.279 1051.55 399.461 1058.29 399.779 1063.93C399.87 1066.74 400.052 1069.3 400.199 1071.53C400.347 1073.77 400.472 1075.7 400.619 1077.27L400.892 1080.91C400.925 1081.33 400.925 1081.75 400.892 1082.18C400.789 1081.76 400.72 1081.34 400.687 1080.92C400.585 1080.02 400.438 1078.82 400.256 1077.3C400.074 1075.78 399.881 1073.8 399.711 1071.57C399.54 1069.33 399.302 1066.78 399.154 1063.95C398.78 1058.28 398.621 1051.57 398.609 1044.09C398.598 1036.61 398.961 1028.38 399.677 1019.77C400.392 1011.16 401.562 1003.02 402.857 995.643C403.606 991.977 404.208 988.47 405.026 985.236C405.412 983.624 405.775 982.058 406.162 980.549L407.297 976.27C408.024 973.535 408.83 971.095 409.569 968.961C409.921 967.895 410.239 966.907 410.545 965.988L411.477 963.525L412.794 960.121C412.934 959.739 413.101 959.367 413.294 959.009Z" fill="#c1272d" class="changeColor"></path>
<path d="M383.823 1088.22C383.784 1088.07 383.765 1087.93 383.766 1087.78C383.766 1087.45 383.698 1087.03 383.652 1086.51C383.573 1085.38 383.459 1083.69 383.323 1081.61L382.187 1063.57C381.21 1048.34 379.78 1027.25 377.213 1004.14C375.895 992.578 374.362 981.581 372.784 971.617C371.932 966.646 371.171 961.914 370.308 957.511C369.445 953.107 368.65 949.01 367.855 945.277C367.06 941.543 366.287 938.184 365.583 935.221C364.879 932.259 364.3 929.729 363.766 927.663C363.232 925.598 362.869 924.043 362.631 922.885C362.506 922.375 362.415 921.966 362.335 921.648C362.296 921.504 362.273 921.355 362.267 921.206C362.335 921.339 362.384 921.48 362.415 921.626C362.517 921.943 362.631 922.341 362.778 922.851C363.096 923.986 363.539 925.575 364.107 927.584C364.675 929.592 365.356 932.123 366.06 935.119C366.764 938.115 367.639 941.418 368.411 945.152C369.183 948.885 370.137 952.971 370.955 957.386C371.773 961.8 372.647 966.465 373.511 971.504C375.146 981.468 376.69 992.476 378.053 1004.05C380.631 1027.23 381.96 1048.31 382.8 1063.53C383.221 1071.16 383.505 1077.32 383.686 1081.59C383.754 1083.68 383.823 1085.32 383.868 1086.5C383.868 1087.02 383.868 1087.45 383.868 1087.78C383.868 1088.11 383.845 1088.22 383.823 1088.22Z" fill="#c1272d" class="changeColor"></path>
<path d="M451.805 1069.01H338.645V1084.48H451.805V1069.01Z" fill="#D5DADE"></path>
<path d="M452.009 1084.67H338.44V1068.79H452.009V1084.67ZM338.849 1084.29H451.623V1069.21H338.849V1084.29Z" fill="#D5DADE"></path>
<path d="M349.138 1084.17L365.424 1159.29H425.695L441.447 1084.48L349.138 1084.17Z" fill="#D5DADE"></path>
<path d="M349.138 1151.72L357.826 1163.62H431.079L441.447 1151.72H349.138Z" fill="#D5DADE"></path>
<path d="M390.057 934.007C389.569 928.764 384.243 924.803 378.939 924.747C373.635 924.69 368.718 927.856 365.47 932.021C362.222 936.186 360.438 941.282 358.985 946.355C355.419 958.714 353.465 971.708 354.987 984.475C356.509 997.243 361.722 1009.83 370.887 1018.85C372.386 1020.32 374.294 1021.79 376.384 1021.35C377.489 1021.02 378.488 1020.4 379.28 1019.57C388.292 1011.37 395.44 1001.34 400.24 990.144C405.04 978.951 407.381 966.859 407.104 954.685C406.968 949.827 406.321 944.777 403.618 940.726C400.915 936.674 394.623 932.384 389.989 934.007" fill="#c1272d" class="changeColor"></path>
<path d="M350.513 891.971L343.051 905.419C342.881 905.726 342.642 906.078 342.29 906.112C341.938 906.146 341.597 905.771 341.393 905.453L321.666 875.334L326.209 872.769L350.513 891.971Z" fill="#6068AE"></path>
<g opacity="0.2">
<path d="M350.513 891.971L343.051 905.419C342.881 905.726 342.642 906.078 342.29 906.112C341.938 906.146 341.597 905.771 341.393 905.453L321.666 875.334L326.209 872.769L350.513 891.971Z" fill="#c1272d" class="changeColor"></path>
</g>
<path d="M390.512 916.201L323.233 876.695C322.495 876.38 321.908 875.79 321.598 875.05C321.325 874.063 322.075 873.109 322.802 872.372C327.435 867.592 333.043 863.862 339.244 861.436C345.446 859.01 352.097 857.944 358.746 858.31C372.011 859.264 384.765 866.89 391.25 878.432C397.735 889.974 397.962 905.238 390.512 916.201Z" fill="#c1272d" class="changeColor"></path>
<path d="M359.496 921.591C353.704 917.222 347.594 916.36 340.337 916.643C333.071 917.128 325.959 918.956 319.36 922.034C308.004 926.971 297.351 934.268 290.571 944.573C283.791 954.878 281.485 968.542 286.516 979.754C286.901 980.928 287.711 981.916 288.788 982.523C290.046 982.882 291.39 982.781 292.581 982.24C305.494 978.052 318.486 973.819 330.343 967.259C342.199 960.7 353.057 951.586 359.371 939.659C361.012 936.85 362.053 933.731 362.426 930.5C362.603 928.885 362.431 927.251 361.922 925.708C361.412 924.165 360.577 922.75 359.473 921.557" fill="#c1272d" class="changeColor"></path>
<path d="M412.476 961.165L418.541 960.665C422.85 960.307 427.032 959.03 430.806 956.92C432.634 955.846 434.531 954.895 436.485 954.072C444.003 951.064 452.384 951.609 460.459 951.201C473.684 950.537 486.642 947.238 498.573 941.497C499.272 941.183 499.855 940.66 500.242 939.999C501.492 937.729 499.175 935.732 497.176 934.506C486.955 928.231 476.529 921.875 464.934 918.766C453.338 915.656 440.153 916.178 430.261 922.953C418.631 930.897 414.361 947.263 412.442 961.165" fill="#c1272d" class="changeColor"></path>
<path d="M421.414 986.836C415.622 985.315 408.717 990.921 407.524 996.755C406.332 1002.59 408.535 1008.57 411.113 1013.96C416.791 1025.86 424.684 1036.92 435.065 1045.13C445.445 1053.35 458.426 1058.63 471.691 1058.56C469.238 1047.21 472.338 1035.42 470.964 1023.92C469.743 1013.77 465.111 1004.34 457.826 997.164C450.542 989.988 441.035 985.494 430.863 984.419C427.172 984.021 422.913 983.443 421.414 986.847" fill="#c1272d" class="changeColor"></path>
<path d="M451.998 1084.41C451.998 1084.64 426.581 1084.82 395.213 1084.82C363.846 1084.82 338.429 1084.64 338.429 1084.41C338.429 1084.19 363.846 1084.02 395.213 1084.02C426.581 1084.02 451.998 1084.2 451.998 1084.41Z" fill="#D5DADE"></path>
<path d="M1259.76 735.868H1231.51V764.932H1259.76V735.868Z" fill="#c1272d" class="changeColor"></path>
<path d="M1272.16 706.372C1267.1 706.372 1262.99 712.954 1262.99 721.126C1262.99 721.126 1262.99 721.216 1262.99 721.273C1262.99 715.837 1266.33 711.445 1270.39 711.445C1274.46 711.445 1277.81 715.894 1277.81 721.387C1277.81 726.879 1274.49 731.328 1270.39 731.328C1266.56 731.328 1263.41 727.436 1263.02 722.431C1263.43 729.932 1267.36 735.822 1272.11 735.822C1277.17 735.822 1281.27 729.251 1281.27 721.126C1281.27 713 1277.23 706.372 1272.16 706.372Z" fill="#c1272d" class="changeColor"></path>
<path d="M1223.94 689.61H1267.33C1267.59 689.61 1267.84 689.714 1268.02 689.899C1268.21 690.084 1268.31 690.335 1268.31 690.597V746.377C1268.31 748.002 1267.67 749.561 1266.52 750.71C1265.37 751.859 1263.81 752.505 1262.18 752.505H1229.13C1227.51 752.505 1225.95 751.859 1224.8 750.71C1223.65 749.561 1223 748.002 1223 746.377V690.597C1223 690.343 1223.1 690.099 1223.27 689.915C1223.45 689.731 1223.69 689.622 1223.94 689.61Z" fill="#c1272d" class="changeColor"></path>
<path d="M854.534 1164.87H841.962C840.48 1164.87 839.058 1164.28 838.011 1163.23C836.963 1162.18 836.374 1160.76 836.374 1159.28V1058.66H860.121V1159.19C860.133 1159.93 859.998 1160.67 859.722 1161.36C859.447 1162.04 859.037 1162.67 858.517 1163.2C857.997 1163.73 857.377 1164.15 856.693 1164.43C856.009 1164.72 855.275 1164.87 854.534 1164.87Z" fill="#E6EAED"></path>
<path d="M543.24 1164.87H530.668C529.186 1164.87 527.765 1164.28 526.717 1163.23C525.669 1162.18 525.08 1160.76 525.08 1159.28V1058.66H548.828V1159.19C548.84 1159.93 548.704 1160.67 548.429 1161.36C548.153 1162.04 547.743 1162.67 547.223 1163.2C546.703 1163.73 546.083 1164.15 545.399 1164.43C544.715 1164.72 543.981 1164.87 543.24 1164.87Z" fill="#E6EAED"></path>
<path d="M868.662 801.192H516.54V1058.62H868.662V801.192Z" fill="#E6EAED"></path>
<path d="M1371.35 764.603H496.279V792.623H1371.35V764.603Z" fill="#E6EAED"></path>
<path d="M868.662 792.623H516.54V808.591H868.662V792.623Z" fill="#D5DADE"></path>
<path d="M640.478 809.76H532.178V1047.45H640.478V809.76Z" fill="#D5DADE"></path>
<path d="M853.012 894.071H649.45V1047.54H853.012V894.071Z" fill="#D5DADE"></path>
<path d="M853.012 809.76H649.45V882.29H853.012V809.76Z" fill="#D5DADE"></path>
<path d="M620.354 937.23C625.152 937.23 629.042 933.369 629.042 928.605C629.042 923.842 625.152 919.98 620.354 919.98C615.555 919.98 611.666 923.842 611.666 928.605C611.666 933.369 615.555 937.23 620.354 937.23Z" fill="#E6EAED"></path>
<path d="M665.52 979.436C670.318 979.436 674.208 975.575 674.208 970.811C674.208 966.048 670.318 962.186 665.52 962.186C660.722 962.186 656.832 966.048 656.832 970.811C656.832 975.575 660.722 979.436 665.52 979.436Z" fill="#E6EAED"></path>
<path d="M751.231 837.463C756.029 837.463 759.919 833.601 759.919 828.837C759.919 824.074 756.029 820.212 751.231 820.212C746.433 820.212 742.543 824.074 742.543 828.837C742.543 833.601 746.433 837.463 751.231 837.463Z" fill="#E6EAED"></path>
<path d="M1323.28 792.623H1348.77V1159.19C1348.77 1160.67 1348.18 1162.09 1347.13 1163.14C1346.08 1164.19 1344.66 1164.77 1343.18 1164.77H1328.87C1327.39 1164.77 1325.97 1164.19 1324.92 1163.14C1323.87 1162.09 1323.28 1160.67 1323.28 1159.19V792.623Z" fill="#E6EAED"></path>
<path d="M958.677 708.926H929.206V752.585H958.677V708.926Z" fill="#D5DADE"></path>
<path d="M983.742 750.406H904.152C902.368 750.409 900.658 751.119 899.398 752.381C898.137 753.643 897.429 755.353 897.429 757.135V764.603H990.465V757.135C990.465 755.353 989.757 753.643 988.497 752.381C987.236 751.119 985.526 750.409 983.742 750.406Z" fill="#E6EAED"></path>
<path d="M793.99 507.972H1093.89C1094.72 507.972 1095.52 508.302 1096.11 508.889C1096.7 509.477 1097.03 510.273 1097.03 511.104V689.099H790.855V511.104C790.855 510.273 791.186 509.477 791.774 508.889C792.361 508.302 793.159 507.972 793.99 507.972Z" fill="#302E41"></path>
<path d="M1087.79 517.652H800.089V679.419H1087.79V517.652Z" fill="#D5DADE"></path>
<path d="M1097.04 705.476C1097.04 706.352 1096.7 707.194 1096.1 707.829C1095.49 708.463 1094.67 708.839 1093.79 708.88C1072.94 709.777 958.234 714.611 943.947 714.611C929.66 714.611 814.955 709.777 794.104 708.858C793.228 708.817 792.401 708.44 791.797 707.806C791.192 707.172 790.855 706.329 790.855 705.453V689.099H1097.04V705.476Z" fill="#E6EAED"></path>
<path d="M739.306 542.404L737.239 534.982L741.396 535.186L741.759 542.041L739.306 542.404Z" fill="#E0E0E0"></path>
<path d="M733.287 542.188L728.574 568.506L716.649 603.291L783.837 593.326L756.717 562.957L745.405 540.384L733.287 542.188Z" fill="#E0E0E0"></path>
<path d="M573.381 764.603C573.381 764.16 573.313 763.729 573.313 763.298C573.313 748.851 584.67 737.195 598.741 737.195C612.812 737.195 624.158 748.896 624.158 763.298C624.158 763.729 624.158 764.16 624.09 764.603H573.381Z" fill="#E0E0E0"></path>
<path d="M598.741 738.149C598.515 738.15 598.295 738.074 598.118 737.934C597.941 737.793 597.816 737.597 597.764 737.377L564.08 605.367C564.012 605.104 564.049 604.825 564.183 604.589C564.316 604.352 564.535 604.176 564.795 604.096C564.926 604.064 565.061 604.058 565.194 604.078C565.327 604.098 565.455 604.145 565.57 604.214C565.685 604.284 565.785 604.375 565.864 604.484C565.944 604.592 566.001 604.715 566.033 604.845L599.718 736.889C599.788 737.154 599.751 737.435 599.615 737.673C599.479 737.911 599.255 738.086 598.991 738.16C598.908 738.168 598.824 738.164 598.741 738.149Z" fill="#E0E0E0"></path>
<path d="M589.837 741.451C589.612 741.448 589.394 741.371 589.218 741.231C589.041 741.092 588.916 740.898 588.861 740.68L555.187 608.625C555.117 608.361 555.152 608.081 555.286 607.843C555.42 607.606 555.641 607.43 555.903 607.353C556.033 607.32 556.169 607.312 556.303 607.332C556.436 607.351 556.564 607.397 556.68 607.467C556.795 607.537 556.895 607.629 556.974 607.738C557.054 607.847 557.11 607.971 557.141 608.102L590.814 740.146C590.884 740.41 590.849 740.69 590.715 740.927C590.581 741.165 590.36 741.341 590.098 741.417C590.013 741.44 589.925 741.451 589.837 741.451Z" fill="#E0E0E0"></path>
<path d="M553.62 606.4C553.656 607.649 554.059 608.86 554.78 609.881C555.501 610.903 556.507 611.689 557.672 612.142C558.838 612.595 560.111 612.694 561.333 612.428C562.555 612.162 563.671 611.541 564.542 610.645C565.412 609.748 565.999 608.615 566.229 607.386C566.459 606.158 566.321 604.889 565.833 603.739C565.345 602.588 564.529 601.607 563.486 600.918C562.443 600.228 561.219 599.862 559.969 599.863C558.26 599.89 556.632 600.594 555.441 601.819C554.251 603.045 553.596 604.692 553.62 606.4Z" fill="#E0E0E0"></path>
<path d="M560.537 607.251L559.401 605.538L678.751 520.841L748.562 561.697L747.563 563.502L678.853 523.293L560.537 607.251Z" fill="#E0E0E0"></path>
<path d="M566.897 611.825L565.75 610.123L683.305 526.448L684.452 528.15L566.897 611.825Z" fill="#E0E0E0"></path>
<path d="M674.992 525.335C675.032 526.448 675.399 527.525 676.046 528.43C676.694 529.336 677.595 530.032 678.635 530.43C679.676 530.828 680.81 530.912 681.898 530.671C682.986 530.429 683.978 529.873 684.752 529.072C685.526 528.271 686.047 527.26 686.25 526.165C686.453 525.07 686.329 523.94 685.894 522.915C685.459 521.89 684.732 521.016 683.803 520.401C682.874 519.786 681.784 519.457 680.67 519.457C679.14 519.492 677.685 520.13 676.622 521.23C675.559 522.331 674.973 523.806 674.992 525.335Z" fill="#E0E0E0"></path>
<path d="M1287.13 539.34H1286.08V581.251H1287.13V539.34Z" fill="#E7ECF1"></path>
<path d="M1321.97 499.528H1320.92V537.955H1321.97V499.528Z" fill="#E7ECF1"></path>
<path d="M1397.96 498.144H1264.12V499.528H1397.96V498.144Z" fill="#E7ECF1"></path>
<path d="M1359.57 537.955H1266.21V539.34H1359.57V537.955Z" fill="#E7ECF1"></path>
<path d="M1339.25 581.251H1248.34V582.636H1339.25V581.251Z" fill="#E7ECF1"></path>
<path d="M1614.26 896.363H1613.2V938.274H1614.26V896.363Z" fill="#E7ECF1"></path>
<path d="M1579.4 939.659H1578.35V978.086H1579.4V939.659Z" fill="#E7ECF1"></path>
<path d="M1636.2 978.086H1502.36V979.471H1636.2V978.086Z" fill="#E7ECF1"></path>
<path d="M1634.11 938.274H1540.75V939.659H1634.11V938.274Z" fill="#E7ECF1"></path>
<path d="M1651.99 894.978H1561.07V896.363H1651.99V894.978Z" fill="#E7ECF1"></path>
<path d="M517.585 318.719H516.528V360.63H517.585V318.719Z" fill="#E7ECF1"></path>
<path d="M552.439 362.014H551.383V400.441H552.439V362.014Z" fill="#E7ECF1"></path>
<path d="M628.429 400.441H494.587V401.826H628.429V400.441Z" fill="#E7ECF1"></path>
<path d="M590.03 360.63H496.676V362.014H590.03V360.63Z" fill="#E7ECF1"></path>
<path d="M569.713 317.334H478.801V318.719H569.713V317.334Z" fill="#E7ECF1"></path>
<path d="M245.404 870.522H244.348V912.433H245.404V870.522Z" fill="#E7ECF1"></path>
<path d="M280.247 830.721H279.191V869.149H280.247V830.721Z" fill="#E7ECF1"></path>
<path d="M356.236 829.337H222.395V830.721H356.236V829.337Z" fill="#E7ECF1"></path>
<path d="M317.839 869.148H224.484V870.533H317.839V869.148Z" fill="#E7ECF1"></path>
<path d="M297.521 912.433H206.608V913.817H297.521V912.433Z" fill="#E7ECF1"></path>
<path d="M1781 1163.62H140V1166H1781V1163.62Z" fill="#D5DADE"></path>
<path d="M1351.38 992.76H1114.89V1006.36H1351.38V992.76Z" fill="#D5DADE"></path>
<path d="M1343.58 1006.36H1230.44V1084.13H1343.58V1006.36Z" fill="#D5DADE"></path>
<path d="M1230.44 1004.04H1122.68V1081.81H1230.44V1004.04Z" fill="#E6EAED"></path>
<path d="M1205.44 1039.69H1147.67V1062.54H1205.44V1039.69Z" fill="white"></path>
<path d="M1199.81 1015.61H1153.31V1030.3H1199.81V1015.61Z" fill="#D5DADE"></path>
<path d="M1330.95 1081.81H1094.46V1095.77H1330.95V1081.81Z" fill="#D5DADE"></path>
<path d="M1323.16 1095.77H1210.02V1164.22H1323.16V1095.77Z" fill="#D5DADE"></path>
<path d="M1210.01 1095.77H1102.25V1164.22H1210.01V1095.77Z" fill="#E6EAED"></path>
<path d="M1185.02 1129.65H1127.25V1151.37H1185.02V1129.65Z" fill="white"></path>
<path d="M1179.39 1104.57H1132.89V1118.53H1179.39V1104.57Z" fill="#D5DADE"></path>
<path d="M933.817 315.359C968.458 315.359 996.541 287.297 996.541 252.68C996.541 218.063 968.458 190 933.817 190C899.175 190 871.092 218.063 871.092 252.68C871.092 287.297 899.175 315.359 933.817 315.359Z" fill="#E6EAED"></path>
<path d="M933.817 304.056C962.211 304.056 985.23 281.054 985.23 252.68C985.23 224.305 962.211 201.303 933.817 201.303C905.422 201.303 882.404 224.305 882.404 252.68C882.404 281.054 905.422 304.056 933.817 304.056Z" fill="white"></path>
<path d="M934.01 212.335L936.395 255.528L931.228 255.46L933.794 212.323L934.01 212.335Z" fill="#E6EAED"></path>
<path d="M903.164 252.918L936.804 250.103L936.724 255.267L903.142 253.122L903.164 252.918Z" fill="#E6EAED"></path>
<path d="M935.588 252.691C935.588 253.041 935.484 253.383 935.29 253.675C935.095 253.966 934.818 254.193 934.495 254.327C934.171 254.461 933.815 254.496 933.471 254.427C933.127 254.359 932.812 254.19 932.564 253.943C932.316 253.695 932.147 253.38 932.079 253.036C932.011 252.693 932.046 252.337 932.18 252.013C932.314 251.69 932.541 251.413 932.832 251.219C933.124 251.024 933.466 250.921 933.817 250.921C934.286 250.921 934.737 251.107 935.069 251.439C935.402 251.771 935.588 252.221 935.588 252.691Z" fill="#D5DADE"></path>
<path d="M1735.59 346.512H1321.7V358.746H1735.59V346.512Z" fill="#EEEDEE"></path>
<path d="M1725.46 358.746H1331.82V591.817H1725.46V358.746Z" fill="#EEEDEE"></path>
<path d="M1719.5 358.746H1337.78V586.801H1719.5V358.746Z" fill="white"></path>
<path d="M1400.49 405.117H1384.79V561.334H1400.49V405.117Z" fill="#E1E2E1"></path>
<path d="M1428.5 457.197H1412.81V561.345H1428.5V457.197Z" fill="#EBEBEB"></path>
<path d="M1455.11 422.14H1439.42V561.334H1455.11V422.14Z" fill="#E1E2E1"></path>
<path d="M1482.43 408.964H1466.73V561.334H1482.43V408.964Z" fill="#EBEBEB"></path>
<path d="M1509.02 458.604H1493.33V561.334H1509.02V458.604Z" fill="#E1E2E1"></path>
<path d="M1536.42 479.543H1520.72V561.334H1536.42V479.543Z" fill="#EBEBEB"></path>
<path d="M1563.01 419.553H1547.32V561.345H1563.01V419.553Z" fill="#E1E2E1"></path>
<path d="M1590.81 444.725H1575.11V561.334H1590.81V444.725Z" fill="#EBEBEB"></path>
<path d="M1617.87 423.548H1602.17V561.334H1617.87V423.548Z" fill="#E1E2E1"></path>
<path d="M1644.94 464.256H1629.25V561.345H1644.94V464.256Z" fill="#EBEBEB"></path>
<path d="M1672.5 446.847H1656.8V561.345H1672.5V446.847Z" fill="#E1E2E1"></path>
<path d="M488.851 347.454H155.877V580.899H488.851V347.454Z" fill="#D7DCE0"></path>
<path d="M478.585 359.359H166.144V568.983H478.585V359.359Z" fill="#E7EDF2"></path>
<path d="M247.278 400.873H192.867V455.268H247.278V400.873Z" fill="white"></path>
<path d="M247.289 456.028H192.866C192.766 456.028 192.666 456.008 192.573 455.969C192.48 455.93 192.395 455.873 192.324 455.801C192.254 455.73 192.198 455.644 192.16 455.551C192.123 455.457 192.104 455.357 192.106 455.256V400.873C192.104 400.772 192.123 400.672 192.16 400.578C192.198 400.485 192.254 400.4 192.324 400.328C192.395 400.256 192.48 400.199 192.573 400.16C192.666 400.121 192.766 400.101 192.866 400.101H247.289C247.391 400.1 247.492 400.118 247.586 400.157C247.681 400.195 247.766 400.252 247.838 400.324C247.91 400.396 247.967 400.481 248.006 400.576C248.044 400.67 248.063 400.771 248.061 400.873V455.256C248.063 455.358 248.044 455.459 248.006 455.554C247.967 455.648 247.91 455.734 247.838 455.806C247.766 455.877 247.681 455.934 247.586 455.972C247.492 456.011 247.391 456.03 247.289 456.028ZM193.65 454.496H246.528V401.633H193.639L193.65 454.496Z" fill="#D7DCE0"></path>
<path d="M243.689 404.448H196.933V440.457H243.689V404.448Z" fill="#E7EDF2"></path>
<path d="M243.7 441.218H196.944C196.743 441.215 196.551 441.134 196.409 440.992C196.267 440.85 196.186 440.658 196.183 440.457V404.493C196.186 404.292 196.267 404.101 196.409 403.959C196.551 403.817 196.743 403.736 196.944 403.733H243.7C243.905 403.732 244.102 403.811 244.251 403.953C244.399 404.095 244.486 404.288 244.495 404.493V440.503C244.478 440.7 244.386 440.884 244.239 441.017C244.091 441.15 243.899 441.221 243.7 441.218ZM197.704 439.674H242.962V405.219H197.704V439.674Z" fill="#D7DCE0"></path>
<path d="M251.991 520.546L198.557 530.93L188.176 477.546L241.577 467.173L251.991 520.546Z" fill="white"></path>
<path d="M198.568 531.691C198.388 531.693 198.214 531.633 198.073 531.521C197.933 531.409 197.835 531.253 197.796 531.078L187.415 477.738C187.382 477.54 187.428 477.337 187.542 477.171C187.657 477.006 187.831 476.892 188.029 476.853L241.463 466.48C241.562 466.462 241.663 466.464 241.761 466.485C241.858 466.506 241.951 466.546 242.033 466.603C242.116 466.66 242.186 466.733 242.24 466.817C242.294 466.901 242.331 466.995 242.349 467.093L252.741 520.433C252.76 520.533 252.76 520.636 252.74 520.735C252.72 520.835 252.68 520.93 252.623 521.014C252.566 521.099 252.493 521.171 252.408 521.227C252.323 521.283 252.227 521.322 252.127 521.341L198.75 531.714L198.568 531.691ZM189.074 478.147L199.181 530.045L251.083 519.956L240.998 468.047L189.074 478.147Z" fill="#D7DCE0"></path>
<path d="M389.103 398.194H335.453V446.064H389.103V398.194Z" fill="#FCF6BD"></path>
<path d="M389.103 446.824H335.465C335.258 446.827 335.057 446.75 334.907 446.608C334.756 446.466 334.667 446.271 334.658 446.064V398.194C334.667 397.987 334.756 397.79 334.906 397.647C335.056 397.503 335.256 397.423 335.465 397.423H389.103C389.308 397.423 389.505 397.504 389.65 397.649C389.794 397.793 389.876 397.99 389.876 398.194V446.064C389.876 446.165 389.856 446.264 389.817 446.357C389.778 446.45 389.721 446.535 389.649 446.606C389.577 446.676 389.492 446.732 389.398 446.77C389.304 446.807 389.204 446.826 389.103 446.824ZM336.225 445.349H388.343V398.955H336.225V445.349Z" fill="#E0D6AA"></path>
<path d="M389.103 398.194H335.453V446.064H389.103V398.194Z" fill="white"></path>
<path d="M389.103 446.824H335.465C335.258 446.827 335.057 446.75 334.907 446.608C334.756 446.466 334.667 446.271 334.658 446.064V398.194C334.667 397.987 334.756 397.79 334.906 397.647C335.056 397.503 335.256 397.423 335.465 397.423H389.103C389.308 397.423 389.505 397.504 389.65 397.649C389.794 397.793 389.876 397.99 389.876 398.194V446.064C389.876 446.165 389.856 446.264 389.817 446.357C389.778 446.45 389.721 446.535 389.649 446.606C389.577 446.676 389.492 446.732 389.398 446.77C389.304 446.807 389.204 446.826 389.103 446.824ZM336.225 445.349H388.343V398.955H336.225V445.349Z" fill="#D7DCE0"></path>
<path d="M389.103 453.282H335.453V501.162H389.103V453.282Z" fill="white"></path>
<path d="M389.103 501.923H335.465C335.259 501.926 335.061 501.85 334.911 501.71C334.76 501.571 334.67 501.378 334.658 501.174V453.293C334.667 453.086 334.756 452.891 334.907 452.749C335.057 452.607 335.258 452.53 335.465 452.533H389.103C389.204 452.531 389.304 452.55 389.398 452.587C389.492 452.625 389.577 452.681 389.649 452.751C389.721 452.822 389.778 452.906 389.817 452.999C389.856 453.092 389.876 453.192 389.876 453.293V501.185C389.87 501.385 389.785 501.574 389.641 501.712C389.496 501.85 389.303 501.926 389.103 501.923ZM336.225 500.402H388.343V454.053H336.225V500.402Z" fill="#D7DCE0"></path>
<path d="M456.575 417.283H402.891V465.153H456.575V417.283Z" fill="white"></path>
<path d="M456.575 465.936H402.88C402.677 465.927 402.485 465.841 402.343 465.695C402.202 465.55 402.121 465.356 402.119 465.153V417.283C402.121 417.081 402.202 416.888 402.344 416.745C402.486 416.601 402.678 416.517 402.88 416.511H456.564C456.766 416.517 456.958 416.601 457.099 416.745C457.241 416.888 457.322 417.081 457.325 417.283V465.153C457.322 465.354 457.243 465.546 457.104 465.692C456.965 465.837 456.776 465.924 456.575 465.936ZM403.663 464.404H455.803V418.044H403.663V464.404Z" fill="#D7DCE0"></path>
<path d="M320.11 399.874H266.459V490.358H320.11V399.874Z" fill="white"></path>
<path d="M320.11 490.892H266.46C266.028 490.892 265.699 490.653 265.699 490.358V399.874C265.699 399.579 266.028 399.341 266.46 399.341H320.11C320.541 399.341 320.871 399.579 320.871 399.874V490.358C320.871 490.653 320.541 490.892 320.11 490.892ZM267.232 489.757H319.338V400.407H267.232V489.757Z" fill="#D7DCE0"></path>
<path d="M315.51 424.615H274.114V426.147H315.51V424.615Z" fill="#D7DCE0"></path>
<path d="M307.776 433.024H274.114V434.556H307.776V433.024Z" fill="#D7DCE0"></path>
<path d="M315.51 449.854H274.114V451.386H315.51V449.854Z" fill="#D7DCE0"></path>
<path d="M305.88 466.696H274.114V468.228H305.88V466.696Z" fill="#D7DCE0"></path>
<path d="M293.217 416.194H274.114V417.726H293.217V416.194Z" fill="#D7DCE0"></path>
<path d="M301.859 441.434H274.114V442.966H301.859V441.434Z" fill="#D7DCE0"></path>
<path d="M290.514 458.275H274.114V459.807H290.514V458.275Z" fill="#D7DCE0"></path>
<path d="M285.846 475.117H274.114V476.649H285.846V475.117Z" fill="#D7DCE0"></path>
<path d="M308.821 407.898C306.58 410.451 304.54 413.176 302.723 416.046C302.465 415.185 302.083 414.367 301.587 413.617C301.28 413.232 300.451 414.185 300.701 414.548C301.439 415.558 301.223 416.818 301.928 417.828C302.257 418.316 302.848 417.737 303.063 417.419C304.199 415.751 305.21 414.071 306.47 412.494C307.538 411.155 309.287 409.804 309.741 408.147C309.923 407.421 309.185 407.512 308.821 407.898Z" fill="#D7DCE0"></path>
<path d="M294.807 402.098C296.036 402.098 297.032 401.103 297.032 399.874C297.032 398.646 296.036 397.65 294.807 397.65C293.577 397.65 292.581 398.646 292.581 399.874C292.581 401.103 293.577 402.098 294.807 402.098Z" fill="#D7DCE0"></path>
<path d="M211.026 475.117C212.256 475.117 213.252 474.121 213.252 472.892C213.252 471.664 212.256 470.668 211.026 470.668C209.797 470.668 208.8 471.664 208.8 472.892C208.8 474.121 209.797 475.117 211.026 475.117Z" fill="#D7DCE0"></path>
<path d="M220.328 402.632C221.557 402.632 222.553 401.636 222.553 400.407C222.553 399.179 221.557 398.183 220.328 398.183C219.098 398.183 218.102 399.179 218.102 400.407C218.102 401.636 219.098 402.632 220.328 402.632Z" fill="#D7DCE0"></path>
<path d="M363.437 399.341C364.666 399.341 365.663 398.345 365.663 397.116C365.663 395.888 364.666 394.892 363.437 394.892C362.208 394.892 361.211 395.888 361.211 397.116C361.211 398.345 362.208 399.341 363.437 399.341Z" fill="#D7DCE0"></path>
<path d="M362.278 455.506C363.508 455.506 364.504 454.51 364.504 453.282C364.504 452.053 363.508 451.057 362.278 451.057C361.049 451.057 360.052 452.053 360.052 453.282C360.052 454.51 361.049 455.506 362.278 455.506Z" fill="#D7DCE0"></path>
<path d="M427.967 419.508C429.196 419.508 430.193 418.512 430.193 417.283C430.193 416.055 429.196 415.059 427.967 415.059C426.737 415.059 425.741 416.055 425.741 417.283C425.741 418.512 426.737 419.508 427.967 419.508Z" fill="#D7DCE0"></path>
</g>
<defs>
<clipPath id="clip0_2_621">
<rect width="1641" height="976" fill="white" transform="translate(140 190)"></rect>
</clipPath>
</defs>
</svg>