<?xml version="1.0" encoding="UTF-8"?> <svg xmlns="http://www.w3.org/2000/svg" id="Layer_1" data-name="Layer 1" viewBox="0 0 1920 1356"><defs><style>.cls-1{fill:none;stroke:#010101;stroke-miterlimit:10;stroke-width:2px;}.cls-2{fill:#322d41;}.cls-3{fill:#fff;}.cls-4{fill:#be292d;}.cls-5{fill:#fac99c;}.cls-6{fill:#7d5120;}.cls-7{fill:#d8dddc;}</style></defs><line class="cls-1" x1="488.48" y1="836.24" x2="668.76" y2="836.24"></line><path class="cls-2" d="M1080.88,1144.25h-548a49,49,0,0,1-49-49V300.57a49,49,0,0,1,49-49h548a49,49,0,0,1,49,49v794.7A49,49,0,0,1,1080.88,1144.25Z"></path><path class="cls-3" d="M1081.85,1113.17H531.94a15.11,15.11,0,0,1-15.1-15.1v-800a15.12,15.12,0,0,1,15.1-15.1h549.91a15.13,15.13,0,0,1,15.1,15.1v800A15.12,15.12,0,0,1,1081.85,1113.17Z"></path><line class="cls-1" x1="583.88" y1="474.25" x2="660.65" y2="474.25"></line><line class="cls-1" x1="583.88" y1="515.87" x2="997.64" y2="515.87"></line><line class="cls-1" x1="583.88" y1="549.79" x2="764.15" y2="549.79"></line><line class="cls-1" x1="583.88" y1="760.7" x2="851.97" y2="760.7"></line><line class="cls-1" x1="583.88" y1="802.32" x2="810.35" y2="802.32"></line><rect class="cls-4" x="566.99" y="606" width="459.1" height="100.12"></rect><polygon class="cls-5" points="1272.19 1120.97 1247.24 1120.97 1235.38 1024.74 1272.19 1024.75 1272.19 1120.97"></polygon><polygon class="cls-5" points="1463.64 1107.36 1439.15 1112.09 1409.25 1019.87 1445.4 1012.89 1463.64 1107.36"></polygon><path class="cls-2" d="M1278.55,1145.15h-80.44v-1a31.32,31.32,0,0,1,31.31-31.31h49.13Z"></path><path class="cls-2" d="M1474.47,1129.9l-79,15.25-.19-1a31.32,31.32,0,0,1,24.8-36.68h0l48.23-9.31Z"></path><path class="cls-2" d="M1197.16,617.05l166.46-3.9c11.05-.22,27.89,8.1,29.69,19,12.44,76.76,16.58,161.5,29,238.25,9.35,57.66,27,107.33,36.35,165l-53.3,9.11L1353,886.81l-57.92-195L1283,881.65l3.22,184.23-55.22,8.91-17.82-228.87S1185.9,675.47,1197.16,617.05Z"></path><path class="cls-5" d="M1431.08,621.67l-.36-4-24.46-164.65-23.09,4.21,14.5,163.85.35,4c-4.52,6.58-6.69,15.75-5.71,25.55,1.89,18.31,14.6,31.89,28.26,30.45s23.32-17.36,21.33-35.57C1440.92,635.71,1436.85,627.17,1431.08,621.67Z"></path><path class="cls-5" d="M1193.5,646.41l.93-3.86,38.71-159.87-32.41-7.35L1162,635.2l-.93,3.86c-6.39,4.79-11.38,12.78-13.59,22.38-4.07,17.95,3.62,34.88,17,37.89s27.65-9,31.6-26.87C1198.32,662.87,1197.21,653.47,1193.5,646.41Z"></path><path class="cls-6" d="M1233.08,357.13l14.49,39.39,108.56-33.91-11.89-76.36c-9.42-60.45-47.15-104.1-89.83-90.77s-62.59,72.41-53.18,132.85l17.5,77.2,17.69-5.53Z"></path><polygon class="cls-5" points="1318.16 378.93 1268.38 386.69 1254.35 296.75 1301.58 289.39 1318.16 378.93"></polygon><circle class="cls-5" cx="1274.9" cy="271.08" r="49.87"></circle><path class="cls-4" d="M1345.18,347.5s35-1.6,45.7,9.09l-9.5,200.28s7.12,5.35,3.56,17.81a50.86,50.86,0,0,0,0,24.94s10.69,12.47,5.35,17.81-197.71,1.78-197.71,1.78-7.12-12.47,3.57-19.59,5.34-26.72,5.34-26.72-3.56-5.34,5.34-14.25,16-81.93,16-81.93l-23.15-89.05s23.31-26.31,50-28.29Z"></path><path class="cls-4" d="M1227.3,388.9l-27.59-1.23s-16,32.06-17.81,60.56l-9.81,106.31,63.24,9.46Z"></path><path class="cls-6" d="M1232.08,273.55,1214,250.8a2.12,2.12,0,0,1-.41-.87A18.87,18.87,0,0,1,1228.32,228L1298,213a19.34,19.34,0,0,1,23,14.31l0,.17-5,27.93-.88-.15c-37.48,2-52.86,3.44-82.33,17.68Z"></path><path class="cls-4" d="M1353.89,350l21.19-2a18.38,18.38,0,0,1,19,11.88q.81,2.22,1.64,5c5.35,17.82,34.72,206.06,34.72,206.06l-65,5.89Z"></path><line class="cls-1" x1="583.88" y1="620.42" x2="830.62" y2="620.42"></line><line class="cls-1" x1="583.88" y1="655.73" x2="997.64" y2="655.73"></line><line class="cls-1" x1="583.88" y1="695.2" x2="764.15" y2="695.2"></line><ellipse class="cls-7" cx="960" cy="1153.47" rx="960" ry="9.45"></ellipse></svg> 