<svg width="1920" height="1356" viewBox="0 0 1920 1356" fill="none" xmlns="http://www.w3.org/2000/svg">
<g clip-path="url(#clip0_2_906)">
<path d="M1410.2 466.447H1409.14V508.393H1410.2V466.447Z" fill="#E7ECF1"></path>
<path d="M1445.11 426.603H1444.05V465.062H1445.11V426.603Z" fill="#E7ECF1"></path>
<path d="M1521.24 425.228H1387.14V426.614H1521.24V425.228Z" fill="#E7ECF1"></path>
<path d="M1482.77 465.073H1389.24V466.459H1482.77V465.073Z" fill="#E7ECF1"></path>
<path d="M1462.41 508.393H1371.33V509.779H1462.41V508.393Z" fill="#E7ECF1"></path>
<path d="M317.145 637.184H316.086V679.13H317.145V637.184Z" fill="#E7ECF1"></path>
<path d="M282.223 680.505H281.165V718.964H282.223V680.505Z" fill="#E7ECF1"></path>
<path d="M339.129 718.963H205.028V720.349H339.129V718.963Z" fill="#E7ECF1"></path>
<path d="M337.035 679.13H243.5V680.516H337.035V679.13Z" fill="#E7ECF1"></path>
<path d="M354.946 635.798H263.857V637.184H354.946V635.798Z" fill="#E7ECF1"></path>
<path d="M866.294 351.706H865.235V393.652H866.294V351.706Z" fill="#E7ECF1"></path>
<path d="M831.383 311.862H830.324V350.321H831.383V311.862Z" fill="#E7ECF1"></path>
<path d="M888.278 310.476H754.177V311.862H888.278V310.476Z" fill="#E7ECF1"></path>
<path d="M886.195 350.321H792.66V351.706H886.195V350.321Z" fill="#E7ECF1"></path>
<path d="M904.094 393.652H813.006V395.038H904.094V393.652Z" fill="#E7ECF1"></path>
<path d="M705.065 635.776H559.039C559.039 635.776 563.09 632.732 563.09 622.509C563.09 612.287 559.039 609.232 559.039 609.232H705.065V635.776Z" fill="#E5EAEE"></path>
<path d="M540.844 639.354H707.455C707.455 639.354 702.835 643.772 702.835 658.663C702.835 673.553 707.455 677.972 707.455 677.972H540.844V639.354Z" fill="#E5EAEE"></path>
<path d="M706.055 681.061H540.787C537.142 681.061 534.188 684.011 534.188 687.649V704.663C534.188 708.302 537.142 711.251 540.787 711.251H706.055C709.7 711.251 712.655 708.302 712.655 704.663V687.649C712.655 684.011 709.7 681.061 706.055 681.061Z" fill="#D5DADE"></path>
<path d="M570.941 683.378H556.239V708.946H570.941V683.378Z" fill="#c1272d" class="changeColor"></path>
<path d="M587.179 683.378H575.766V708.946H587.179V683.378Z" fill="#c1272d" class="changeColor"></path>
<path d="M540.844 639.354V654.119C541.413 654.04 541.982 653.938 542.573 653.824C579.248 647.009 703.017 653.824 703.017 653.824C703.87 642.818 707.466 639.365 707.466 639.365L540.844 639.354Z" fill="#D5DADE"></path>
<path d="M563.09 622.509C583.857 616.83 676.743 615.524 705.065 624.383V610.492H560.154C561.292 612.196 563.09 615.808 563.09 622.509C563.124 621.964 563.09 623.1 563.09 622.509Z" fill="#D5DADE"></path>
<path d="M544.03 681.061H712.667V675.382H548.218C545.1 675.382 542.528 672.292 542.528 668.487V650.144C542.528 646.328 545.055 643.25 548.218 643.25H712.667V637.241H544.03C537.476 637.241 532.162 643.727 532.162 651.734V666.579C532.162 674.576 537.476 681.061 544.03 681.061Z" fill="#c1272d" class="changeColor"></path>
<path d="M702.311 607.039H554.476V610.935H698.59C699.877 610.911 701.121 611.397 702.049 612.287C702.977 613.177 703.513 614.399 703.54 615.683V628.347C703.513 629.632 702.977 630.853 702.049 631.743C701.121 632.633 699.877 633.12 698.59 633.095H554.476V637.241H702.311C705.012 637.281 707.619 636.254 709.565 634.384C711.51 632.514 712.637 629.952 712.7 627.257V617.035C712.64 614.337 711.515 611.773 709.569 609.901C707.622 608.028 705.014 607 702.311 607.039Z" fill="#c1272d" class="changeColor"></path>
<path d="M1004.6 710.161H1150.64C1150.64 710.161 1146.59 707.117 1146.59 696.894C1146.59 686.672 1150.64 683.628 1150.64 683.628H1004.6V710.161Z" fill="#E5EAEE"></path>
<path d="M1146.57 696.894C1125.8 691.215 1032.92 689.92 1004.6 698.768V684.889H1149.5C1148.37 686.592 1146.57 690.204 1146.57 696.906C1146.57 697.485 1146.55 696.349 1146.57 696.894Z" fill="#D5DADE"></path>
<path d="M1007.39 681.481H1155.19V685.377H1011.07C1009.78 685.353 1008.54 685.839 1007.61 686.729C1006.68 687.619 1006.15 688.841 1006.12 690.125V702.778C1006.15 704.062 1006.68 705.284 1007.61 706.174C1008.54 707.064 1009.78 707.55 1011.07 707.526H1155.19V711.672H1007.39C1004.69 711.714 1002.08 710.689 1000.13 708.818C998.183 706.948 997.055 704.385 996.992 701.688V691.465C997.055 688.768 998.183 686.205 1000.13 684.334C1002.08 682.464 1004.69 681.439 1007.39 681.481Z" fill="#c1272d" class="changeColor"></path>
<path d="M344.466 1106.43L353.159 1118.32H426.565L436.943 1106.43H344.466Z" fill="#D5DADE"></path>
<path d="M386.386 1036.31C386.158 1036.31 385.874 999.239 385.748 953.511C385.623 907.783 385.692 870.709 385.919 870.709C386.147 870.709 386.431 907.771 386.556 953.511C386.682 999.251 386.613 1036.31 386.386 1036.31Z" fill="#6068AE"></path>
<path d="M411.647 943.527C411.578 943.826 411.475 944.115 411.34 944.39C411.078 945.026 410.737 945.821 410.327 946.787L409.588 948.525C409.349 949.172 409.098 949.876 408.837 950.626C408.575 951.376 408.268 952.182 407.96 953.034C407.653 953.886 407.414 954.829 407.118 955.794C405.771 960.323 404.71 964.932 403.944 969.594C403.061 975.311 402.476 981.07 402.191 986.847C401.774 997.362 402.075 1007.89 403.09 1018.37C403.454 1022.39 403.819 1025.64 404.092 1027.88C404.205 1028.93 404.296 1029.79 404.376 1030.47C404.409 1030.78 404.409 1031.08 404.376 1031.38C404.275 1031.1 404.206 1030.8 404.171 1030.5C404.057 1029.82 403.91 1028.98 403.727 1027.92C403.363 1025.65 402.908 1022.44 402.476 1018.42C401.29 1007.93 400.909 997.356 401.338 986.802C401.626 980.995 402.237 975.209 403.17 969.469C403.986 964.781 405.127 960.155 406.584 955.624C406.902 954.658 407.164 953.727 407.483 952.875C407.801 952.023 408.131 951.217 408.416 950.467L409.246 948.377C409.519 947.741 409.804 947.241 410.054 946.662C410.521 945.708 410.896 944.936 411.192 944.322C411.307 944.038 411.46 943.77 411.647 943.527Z" fill="#6068AE"></path>
<path d="M408.734 913.542C408.644 913.959 408.522 914.369 408.37 914.768C408.074 915.62 407.687 916.779 407.232 918.176C406.97 918.937 406.686 919.766 406.367 920.663C406.049 921.56 405.787 922.594 405.457 923.662C404.797 925.808 404.023 928.205 403.34 930.988L402.202 935.27L401.144 939.961C400.348 943.186 399.779 946.696 399.05 950.354C397.799 957.714 396.695 965.858 395.944 974.444C395.193 983.031 394.909 991.243 394.806 998.717C394.704 1006.19 394.874 1012.91 395.182 1018.56C395.284 1021.39 395.466 1023.93 395.614 1026.18C395.762 1028.43 395.887 1030.35 396.024 1031.86C396.16 1033.37 396.24 1034.6 396.308 1035.49C396.346 1035.92 396.346 1036.34 396.308 1036.77C396.212 1036.36 396.144 1035.94 396.103 1035.52C396.001 1034.61 395.864 1033.4 395.682 1031.89C395.5 1030.38 395.295 1028.4 395.125 1026.22C394.954 1024.03 394.715 1021.42 394.579 1018.59C394.192 1012.91 394.044 1006.2 394.021 998.717C393.998 991.232 394.385 982.986 395.102 974.376C395.819 965.767 396.991 957.6 398.277 950.229C399.039 946.549 399.631 943.039 400.45 939.813C400.837 938.189 401.212 936.621 401.588 935.122C401.963 933.623 402.396 932.203 402.783 930.84C403.5 928.091 404.308 925.661 405.059 923.525C405.411 922.458 405.741 921.458 406.037 920.538C406.333 919.618 406.686 918.823 406.97 918.073L408.302 914.666C408.416 914.281 408.561 913.905 408.734 913.542Z" fill="#6068AE"></path>
<path d="M379.217 1042.87C379.181 1042.72 379.158 1042.58 379.149 1042.43C379.149 1042.11 379.092 1041.69 379.047 1041.16C378.967 1040.03 378.853 1038.33 378.705 1036.24C378.443 1031.93 378.045 1025.77 377.567 1018.18C376.577 1002.94 375.155 981.838 372.572 958.724C371.252 947.139 369.727 936.144 368.134 926.172C367.292 921.197 366.518 916.46 365.654 912.053C364.789 907.646 363.992 903.535 363.207 899.798C362.422 896.061 361.625 892.699 360.931 889.746C360.237 886.793 359.634 884.248 359.099 882.181C358.564 880.114 358.212 878.547 357.961 877.4C357.848 876.888 357.745 876.48 357.677 876.15C357.609 875.821 357.586 875.719 357.609 875.719C357.669 875.851 357.718 875.987 357.757 876.127L358.121 877.354C358.439 878.49 358.883 880.08 359.441 882.102C359.998 884.124 360.704 886.645 361.398 889.644C362.092 892.642 362.98 895.936 363.765 899.684C364.55 903.433 365.483 907.51 366.314 911.929C367.144 916.347 368.009 921.015 368.874 926.047C370.501 936.031 372.06 947.037 373.425 958.634C376.008 981.816 377.34 1002.93 378.182 1018.15C378.591 1025.78 378.887 1031.96 379.058 1036.23C379.138 1038.32 379.195 1039.97 379.24 1041.15C379.24 1041.67 379.24 1042.09 379.24 1042.43C379.252 1042.58 379.245 1042.72 379.217 1042.87Z" fill="#6068AE"></path>
<path d="M447.332 1023.64H333.952V1039.12H447.332V1023.64Z" fill="#D5DADE"></path>
<path d="M447.525 1039.32H333.735V1023.42H447.525V1039.32ZM334.145 1038.94H447.138V1023.83H334.145V1038.94Z" fill="#D5DADE"></path>
<path d="M344.466 1038.82L360.783 1113.99H421.171L436.943 1039.13L344.466 1038.82Z" fill="#D5DADE"></path>
<path d="M385.464 888.531C384.964 883.272 379.627 879.308 374.324 879.262C369.022 879.217 364.083 882.363 360.817 886.543C357.552 890.723 355.788 895.811 354.32 900.877C350.747 913.257 348.79 926.251 350.326 939.041C351.862 951.83 357.074 964.404 366.257 973.445C367.759 974.91 369.67 976.375 371.753 975.943C372.859 975.605 373.862 974.992 374.666 974.16C383.696 965.957 390.857 955.916 395.666 944.713C400.476 933.511 402.821 921.409 402.544 909.225C402.396 904.364 401.759 899.298 399.051 895.254C396.342 891.211 390.027 886.906 385.396 888.531" fill="#c1272d" class="changeColor"></path>
<path d="M345.831 846.46L338.355 859.908C338.185 860.226 337.957 860.578 337.593 860.612C337.229 860.646 336.91 860.271 336.694 859.942L316.929 829.797L321.48 827.23L345.831 846.46Z" fill="#6055A3"></path>
<g opacity="0.2">
<path d="M345.831 846.46L338.355 859.908C338.185 860.226 337.957 860.578 337.593 860.612C337.229 860.646 336.91 860.271 336.694 859.942L316.929 829.797L321.48 827.23L345.831 846.46Z" fill="#c1272d" class="changeColor"></path>
</g>
<path d="M385.976 870.698L318.567 831.172C317.829 830.853 317.243 830.263 316.929 829.525C316.655 828.525 317.406 827.571 318.123 826.833C322.763 822.052 328.378 818.322 334.588 815.896C340.797 813.47 347.457 812.404 354.115 812.771C367.394 813.714 380.173 821.347 386.682 832.898C393.19 844.449 393.407 859.737 385.942 870.698" fill="#c1272d" class="changeColor"></path>
<path d="M354.832 876.093C349.04 871.72 342.907 870.868 335.636 871.152C328.36 871.632 321.237 873.458 314.63 876.536C303.251 881.488 292.578 888.78 285.785 899.105C278.991 909.43 276.624 923.094 281.711 934.316C282.11 935.483 282.918 936.468 283.987 937.087C285.252 937.448 286.605 937.343 287.799 936.792C300.725 932.6 313.743 928.375 325.634 921.81C337.525 915.245 348.335 906.124 354.718 894.187C356.356 891.369 357.398 888.245 357.779 885.009C357.955 883.392 357.781 881.756 357.269 880.212C356.756 878.668 355.918 877.252 354.809 876.059" fill="#c1272d" class="changeColor"></path>
<path d="M407.915 915.699L414.003 915.2C418.32 914.848 422.511 913.574 426.292 911.463C428.124 910.386 430.025 909.43 431.981 908.601C439.503 905.602 447.912 906.136 455.991 905.738C469.244 905.067 482.23 901.765 494.19 896.027C494.885 895.709 495.465 895.185 495.852 894.528C497.103 892.256 494.782 890.246 492.779 889.019C482.538 882.749 472.104 876.389 460.474 873.276C448.845 870.164 435.657 870.687 425.734 877.468C414.094 885.419 409.804 901.786 407.881 915.699" fill="#c1272d" class="changeColor"></path>
<path d="M416.87 941.392C411.067 939.87 404.148 945.481 402.953 951.33C401.759 957.18 403.966 963.154 406.549 968.538C412.239 980.464 420.204 991.516 430.547 999.75C440.891 1007.99 453.954 1013.24 467.245 1013.18C464.787 1001.82 467.893 990.016 466.528 978.51C465.298 968.355 460.655 958.916 453.358 951.735C446.06 944.554 436.539 940.055 426.349 938.972C422.639 938.575 418.383 937.996 416.87 941.392Z" fill="#c1272d" class="changeColor"></path>
<path d="M447.525 1039.06C447.525 1039.28 422.059 1039.46 390.63 1039.46C359.201 1039.46 333.735 1039.28 333.735 1039.06C333.735 1038.85 359.19 1038.65 390.63 1038.65C422.07 1038.65 447.525 1038.83 447.525 1039.06Z" fill="#D5DADE"></path>
<path d="M1761.99 351.627H1462.41V561.425H1761.99V351.627Z" fill="#302E41"></path>
<path d="M1752.76 362.326H1471.65V550.725H1752.76V362.326Z" fill="#E7EDF2"></path>
<path d="M1544.65 399.627H1495.7V448.513H1544.65V399.627Z" fill="white"></path>
<path d="M1544.65 449.194H1495.72C1495.63 449.196 1495.54 449.179 1495.46 449.145C1495.37 449.112 1495.3 449.062 1495.23 448.998C1495.17 448.935 1495.12 448.859 1495.08 448.776C1495.05 448.693 1495.03 448.603 1495.03 448.513V399.672C1495.03 399.582 1495.05 399.492 1495.08 399.409C1495.12 399.325 1495.17 399.25 1495.23 399.186C1495.3 399.123 1495.37 399.073 1495.46 399.039C1495.54 399.006 1495.63 398.989 1495.72 398.991H1544.65C1544.74 398.989 1544.83 399.006 1544.92 399.039C1545 399.073 1545.08 399.123 1545.14 399.186C1545.21 399.25 1545.26 399.325 1545.29 399.409C1545.33 399.492 1545.35 399.582 1545.35 399.672V448.513C1545.35 448.603 1545.33 448.693 1545.29 448.776C1545.26 448.859 1545.21 448.935 1545.14 448.998C1545.08 449.062 1545 449.112 1544.92 449.145C1544.83 449.179 1544.74 449.196 1544.65 449.194ZM1496.39 447.82H1543.97V400.32H1496.39V447.82Z" fill="#D7DCE0"></path>
<path d="M1541.43 402.852H1499.36V435.212H1541.43V402.852Z" fill="#E7EDF2"></path>
<path d="M1541.43 435.894H1499.33C1499.15 435.888 1498.98 435.814 1498.85 435.688C1498.72 435.561 1498.65 435.391 1498.65 435.212V402.853C1498.65 402.672 1498.72 402.499 1498.85 402.37C1498.98 402.241 1499.15 402.165 1499.33 402.16H1541.43C1541.52 402.158 1541.62 402.175 1541.7 402.209C1541.79 402.243 1541.87 402.294 1541.93 402.358C1542 402.422 1542.05 402.499 1542.09 402.584C1542.13 402.669 1542.15 402.76 1542.15 402.853V435.212C1542.14 435.397 1542.06 435.572 1541.93 435.699C1541.79 435.827 1541.62 435.897 1541.43 435.894ZM1500.06 434.519H1540.77V403.534H1500.06V434.519Z" fill="#D7DCE0"></path>
<path d="M1548.89 507.189L1500.82 516.514L1491.48 468.537L1539.52 459.212L1548.89 507.189Z" fill="white"></path>
<path d="M1500.83 517.207C1500.67 517.206 1500.51 517.151 1500.39 517.05C1500.26 516.948 1500.17 516.808 1500.14 516.651L1490.79 468.662C1490.76 468.485 1490.8 468.303 1490.91 468.154C1491.01 468.006 1491.16 467.903 1491.34 467.867L1539.42 458.542C1539.5 458.525 1539.59 458.527 1539.68 458.545C1539.77 458.564 1539.85 458.599 1539.93 458.65C1540 458.7 1540.06 458.765 1540.11 458.84C1540.16 458.915 1540.2 458.999 1540.21 459.087L1549.57 507.064C1549.58 507.154 1549.58 507.246 1549.57 507.336C1549.55 507.425 1549.51 507.51 1549.46 507.586C1549.41 507.661 1549.34 507.725 1549.26 507.774C1549.19 507.823 1549.1 507.856 1549.01 507.871L1500.97 517.207H1500.83ZM1492.28 469.082L1501.39 515.719L1548.04 506.633L1538.94 460.007L1492.28 469.082Z" fill="#D7DCE0"></path>
<path d="M1672.25 397.219H1623.98V440.244H1672.25V397.219Z" fill="#FCF6BD"></path>
<path d="M1672.25 440.925H1624.01C1623.91 440.928 1623.82 440.913 1623.74 440.88C1623.65 440.848 1623.57 440.799 1623.5 440.735C1623.43 440.672 1623.38 440.596 1623.34 440.512C1623.3 440.427 1623.28 440.336 1623.28 440.244V397.219C1623.29 397.033 1623.37 396.858 1623.51 396.731C1623.64 396.604 1623.82 396.534 1624.01 396.537H1672.27C1672.36 396.536 1672.45 396.552 1672.53 396.586C1672.61 396.619 1672.69 396.669 1672.76 396.733C1672.82 396.796 1672.87 396.872 1672.91 396.955C1672.94 397.039 1672.96 397.128 1672.96 397.219V440.244C1672.96 440.335 1672.94 440.426 1672.91 440.51C1672.87 440.594 1672.82 440.67 1672.75 440.734C1672.69 440.798 1672.61 440.847 1672.52 440.88C1672.44 440.913 1672.35 440.928 1672.25 440.925ZM1624.68 439.551H1671.57V397.912H1624.68V439.551Z" fill="#E0D6AA"></path>
<path d="M1672.25 397.219H1623.98V440.244H1672.25V397.219Z" fill="white"></path>
<path d="M1672.25 440.925H1624.01C1623.91 440.928 1623.82 440.913 1623.74 440.88C1623.65 440.848 1623.57 440.799 1623.5 440.735C1623.43 440.672 1623.38 440.596 1623.34 440.512C1623.3 440.427 1623.28 440.336 1623.28 440.244V397.219C1623.29 397.033 1623.37 396.858 1623.51 396.731C1623.64 396.604 1623.82 396.534 1624.01 396.537H1672.27C1672.36 396.536 1672.45 396.552 1672.53 396.586C1672.61 396.619 1672.69 396.669 1672.76 396.733C1672.82 396.796 1672.87 396.872 1672.91 396.955C1672.94 397.039 1672.96 397.128 1672.96 397.219V440.244C1672.96 440.335 1672.94 440.426 1672.91 440.51C1672.87 440.594 1672.82 440.67 1672.75 440.734C1672.69 440.798 1672.61 440.847 1672.52 440.88C1672.44 440.913 1672.35 440.928 1672.25 440.925ZM1624.68 439.551H1671.57V397.912H1624.68V439.551Z" fill="#D7DCE0"></path>
<path d="M1672.25 446.729H1623.98V489.766H1672.25V446.729Z" fill="white"></path>
<path d="M1672.25 490.447H1624.01C1623.82 490.45 1623.64 490.381 1623.51 490.254C1623.37 490.127 1623.29 489.952 1623.28 489.766V446.729C1623.29 446.544 1623.37 446.369 1623.51 446.241C1623.64 446.114 1623.82 446.045 1624.01 446.048H1672.27C1672.36 446.046 1672.45 446.063 1672.53 446.096C1672.61 446.13 1672.69 446.18 1672.76 446.243C1672.82 446.307 1672.87 446.382 1672.91 446.466C1672.94 446.549 1672.96 446.639 1672.96 446.729V489.766C1672.96 489.857 1672.94 489.948 1672.91 490.032C1672.87 490.116 1672.82 490.192 1672.75 490.256C1672.69 490.319 1672.61 490.369 1672.52 490.402C1672.44 490.435 1672.35 490.45 1672.25 490.447ZM1624.68 489.084H1671.57V447.422H1624.68V489.084Z" fill="#D7DCE0"></path>
<path d="M1732.95 414.381H1684.66V457.406H1732.95V414.381Z" fill="white"></path>
<path d="M1732.96 458.099H1684.66C1684.48 458.09 1684.3 458.013 1684.18 457.882C1684.05 457.751 1683.98 457.577 1683.97 457.395V414.381C1683.98 414.2 1684.05 414.027 1684.18 413.898C1684.3 413.769 1684.48 413.694 1684.66 413.688H1732.96C1733.14 413.694 1733.31 413.769 1733.44 413.898C1733.57 414.027 1733.64 414.2 1733.64 414.381V457.395C1733.64 457.577 1733.57 457.751 1733.44 457.882C1733.32 458.013 1733.14 458.09 1732.96 458.099ZM1685.35 456.725H1732.27V415.063H1685.35V456.725Z" fill="#D7DCE0"></path>
<path d="M1610.17 398.729H1561.9V480.054H1610.17V398.729Z" fill="white"></path>
<path d="M1610.18 480.543H1561.91C1561.53 480.543 1561.22 480.316 1561.22 480.054V398.729C1561.22 398.468 1561.53 398.252 1561.91 398.252H1610.18C1610.57 398.252 1610.86 398.468 1610.86 398.729V480.054C1610.86 480.316 1610.57 480.543 1610.18 480.543ZM1562.61 479.566H1609.49V399.218H1562.56L1562.61 479.566Z" fill="#D7DCE0"></path>
<path d="M1606.04 420.969H1568.8V422.343H1606.04V420.969Z" fill="#D7DCE0"></path>
<path d="M1599.09 428.533H1568.8V429.908H1599.09V428.533Z" fill="#D7DCE0"></path>
<path d="M1606.04 443.651H1568.8V445.026H1606.04V443.651Z" fill="#D7DCE0"></path>
<path d="M1597.37 458.792H1568.8V460.166H1597.37V458.792Z" fill="#D7DCE0"></path>
<path d="M1585.99 413.404H1568.8V414.779H1585.99V413.404Z" fill="#D7DCE0"></path>
<path d="M1593.76 436.087H1568.8V437.461H1593.76V436.087Z" fill="#D7DCE0"></path>
<path d="M1583.56 451.216H1568.8V452.59H1583.56V451.216Z" fill="#D7DCE0"></path>
<path d="M1579.36 466.356H1568.8V467.731H1579.36V466.356Z" fill="#D7DCE0"></path>
<path d="M1600.02 405.976C1598.01 408.274 1596.17 410.723 1594.54 413.302C1594.31 412.529 1593.98 411.791 1593.55 411.11C1593.27 410.769 1592.5 411.621 1592.75 411.95C1593.41 412.859 1593.22 413.984 1593.89 414.892C1594.18 415.335 1594.71 414.813 1594.88 414.54C1595.89 413.041 1596.8 411.53 1597.9 410.11C1598.87 408.895 1600.44 407.691 1600.86 406.203C1601.02 405.476 1600.35 405.59 1600.02 405.976Z" fill="#D7DCE0"></path>
<path d="M1587.41 400.728C1588.52 400.728 1589.42 399.833 1589.42 398.729C1589.42 397.625 1588.52 396.73 1587.41 396.73C1586.31 396.73 1585.41 397.625 1585.41 398.729C1585.41 399.833 1586.31 400.728 1587.41 400.728Z" fill="#D7DCE0"></path>
<path d="M1512.04 466.356C1513.14 466.356 1514.04 465.461 1514.04 464.357C1514.04 463.253 1513.14 462.358 1512.04 462.358C1510.93 462.358 1510.04 463.253 1510.04 464.357C1510.04 465.461 1510.93 466.356 1512.04 466.356Z" fill="#D7DCE0"></path>
<path d="M1520.4 401.217C1521.51 401.217 1522.4 400.322 1522.4 399.218C1522.4 398.114 1521.51 397.219 1520.4 397.219C1519.3 397.219 1518.4 398.114 1518.4 399.218C1518.4 400.322 1519.3 401.217 1520.4 401.217Z" fill="#D7DCE0"></path>
<path d="M1649.15 398.252C1650.26 398.252 1651.16 397.357 1651.16 396.253C1651.16 395.149 1650.26 394.254 1649.15 394.254C1648.05 394.254 1647.15 395.149 1647.15 396.253C1647.15 397.357 1648.05 398.252 1649.15 398.252Z" fill="#D7DCE0"></path>
<path d="M1648.12 448.728C1649.23 448.728 1650.12 447.833 1650.12 446.729C1650.12 445.625 1649.23 444.73 1648.12 444.73C1647.01 444.73 1646.12 445.625 1646.12 446.729C1646.12 447.833 1647.01 448.728 1648.12 448.728Z" fill="#D7DCE0"></path>
<path d="M1707.22 416.38C1708.33 416.38 1709.22 415.485 1709.22 414.381C1709.22 413.277 1708.33 412.382 1707.22 412.382C1706.12 412.382 1705.22 413.277 1705.22 414.381C1705.22 415.485 1706.12 416.38 1707.22 416.38Z" fill="#D7DCE0"></path>
<path d="M1732.63 1120L159 1118.81L1732.63 1117.61V1120Z" fill="#D5DADE"></path>
<path d="M1025.47 1118.53H1037.99C1039.48 1118.53 1040.9 1117.95 1041.95 1116.9C1043 1115.85 1043.59 1114.43 1043.59 1112.95V1010.47H1019.78V1112.95C1019.78 1113.69 1019.93 1114.42 1020.22 1115.11C1020.51 1115.79 1020.93 1116.41 1021.46 1116.93C1021.99 1117.45 1022.61 1117.86 1023.3 1118.14C1023.99 1118.41 1024.73 1118.55 1025.47 1118.53Z" fill="#E6EAED"></path>
<path d="M1337.18 1118.53H1349.77C1351.26 1118.53 1352.68 1117.95 1353.73 1116.9C1354.78 1115.85 1355.37 1114.43 1355.37 1112.95V1010.47H1331.57V1112.95C1331.57 1113.68 1331.71 1114.41 1332 1115.09C1332.28 1115.77 1332.69 1116.38 1333.21 1116.9C1333.73 1117.42 1334.35 1117.83 1335.03 1118.11C1335.71 1118.39 1336.44 1118.54 1337.18 1118.53Z" fill="#E6EAED"></path>
<path d="M1011.25 1010.47H1363.91V748.506H1011.25V1010.47Z" fill="#E6EAED"></path>
<path d="M507.788 739.772L1384.2 739.772V711.251L507.788 711.251V739.772Z" fill="#E6EAED"></path>
<path d="M1011.25 756.037H1363.91V739.783H1011.25V756.037Z" fill="#D5DADE"></path>
<path d="M1239.79 999.103H1348.25V757.207H1239.79V999.103Z" fill="#D5DADE"></path>
<path d="M1026.92 999.205H1230.8V843.018H1026.92V999.205Z" fill="#D5DADE"></path>
<path d="M1026.92 831.024H1230.8V757.207H1026.92V831.024Z" fill="#D5DADE"></path>
<path d="M1259.94 886.94C1264.74 886.94 1268.64 883.01 1268.64 878.161C1268.64 873.311 1264.74 869.381 1259.94 869.381C1255.13 869.381 1251.23 873.311 1251.23 878.161C1251.23 883.01 1255.13 886.94 1259.94 886.94Z" fill="#E6EAED"></path>
<path d="M1214.7 929.897C1219.5 929.897 1223.4 925.966 1223.4 921.117C1223.4 916.268 1219.5 912.337 1214.7 912.337C1209.89 912.337 1205.99 916.268 1205.99 921.117C1205.99 925.966 1209.89 929.897 1214.7 929.897Z" fill="#E6EAED"></path>
<path d="M1128.85 785.409C1133.66 785.409 1137.56 781.478 1137.56 776.629C1137.56 771.78 1133.66 767.849 1128.85 767.849C1124.04 767.849 1120.15 771.78 1120.15 776.629C1120.15 781.478 1124.04 785.409 1128.85 785.409Z" fill="#E6EAED"></path>
<path d="M550.334 1118.55H536.008C534.523 1118.55 533.099 1117.96 532.049 1116.91C530.999 1115.86 530.41 1114.44 530.41 1112.96V739.783H555.933V1112.96C555.933 1114.44 555.343 1115.86 554.293 1116.91C553.243 1117.96 551.819 1118.55 550.334 1118.55Z" fill="#E6EAED"></path>
<path d="M1155.38 495.149L1157.45 487.926L1153.29 488.119L1152.92 494.797L1155.38 495.149Z" fill="#E0E0E0"></path>
<path d="M1161.41 494.934L1166.13 520.569L1178.07 554.428L1110.78 544.728L1137.94 515.163L1149.28 493.184L1161.41 494.934Z" fill="#E0E0E0"></path>
<path d="M1321.57 711.478C1321.57 711.047 1321.63 710.638 1321.63 710.206C1321.71 706.824 1321.1 703.461 1319.85 700.315C1318.61 697.169 1316.74 694.303 1314.37 691.885C1312 689.468 1309.17 687.547 1306.04 686.236C1302.92 684.925 1299.56 684.249 1296.17 684.249C1292.78 684.249 1289.43 684.925 1286.3 686.236C1283.18 687.547 1280.35 689.468 1277.98 691.885C1275.61 694.303 1273.74 697.169 1272.49 700.315C1271.25 703.461 1270.64 706.824 1270.71 710.206C1270.71 710.638 1270.71 711.047 1270.78 711.478H1321.57Z" fill="#E0E0E0"></path>
<path d="M1296.18 685.752C1296.4 685.753 1296.62 685.68 1296.79 685.544C1296.97 685.408 1297.09 685.217 1297.15 685.002L1330.89 556.438C1330.95 556.178 1330.91 555.902 1330.78 555.67C1330.64 555.439 1330.42 555.27 1330.16 555.2C1329.9 555.135 1329.62 555.175 1329.39 555.311C1329.16 555.447 1329 555.669 1328.93 555.927L1295.16 684.491C1295.12 684.619 1295.11 684.752 1295.13 684.883C1295.15 685.014 1295.19 685.14 1295.26 685.254C1295.32 685.368 1295.41 685.468 1295.52 685.547C1295.62 685.627 1295.74 685.685 1295.87 685.718C1295.97 685.745 1296.08 685.756 1296.18 685.752Z" fill="#E0E0E0"></path>
<path d="M1305.09 688.932C1305.31 688.934 1305.53 688.861 1305.7 688.725C1305.88 688.589 1306 688.398 1306.06 688.183L1339.8 559.619C1339.86 559.358 1339.82 559.082 1339.69 558.851C1339.55 558.619 1339.33 558.45 1339.07 558.381C1338.81 558.315 1338.53 558.355 1338.3 558.491C1338.07 558.627 1337.91 558.849 1337.84 559.108L1304.11 687.672C1304.07 687.821 1304.06 687.979 1304.08 688.133C1304.11 688.286 1304.18 688.431 1304.27 688.555C1304.37 688.678 1304.49 688.777 1304.64 688.843C1304.78 688.908 1304.93 688.939 1305.09 688.932Z" fill="#E0E0E0"></path>
<path d="M1341.37 557.449C1341.37 558.707 1340.99 559.937 1340.29 560.983C1339.59 562.029 1338.6 562.844 1337.43 563.326C1336.27 563.807 1334.99 563.933 1333.75 563.688C1332.51 563.442 1331.38 562.837 1330.49 561.947C1329.6 561.057 1328.99 559.924 1328.74 558.69C1328.5 557.456 1328.62 556.178 1329.11 555.015C1329.59 553.853 1330.41 552.86 1331.45 552.161C1332.5 551.462 1333.73 551.089 1334.99 551.089C1336.68 551.092 1338.3 551.763 1339.5 552.955C1340.69 554.147 1341.36 555.763 1341.37 557.449Z" fill="#E0E0E0"></path>
<path d="M1334.41 558.29L1335.56 556.62L1216.03 474.159L1146.11 513.936L1147.1 515.685L1215.92 476.545L1334.41 558.29Z" fill="#E0E0E0"></path>
<path d="M1328.05 562.742L1329.2 561.073L1211.46 479.611L1210.31 481.27L1328.05 562.742Z" fill="#E0E0E0"></path>
<path d="M1219.8 478.532C1219.8 479.656 1219.47 480.754 1218.84 481.688C1218.22 482.621 1217.33 483.349 1216.29 483.779C1215.25 484.209 1214.11 484.322 1213 484.102C1211.9 483.883 1210.89 483.342 1210.09 482.548C1209.3 481.754 1208.75 480.742 1208.53 479.64C1208.31 478.539 1208.43 477.397 1208.86 476.359C1209.29 475.321 1210.02 474.434 1210.95 473.81C1211.89 473.186 1212.99 472.853 1214.11 472.853C1215.62 472.853 1217.07 473.452 1218.14 474.517C1219.2 475.582 1219.8 477.026 1219.8 478.532Z" fill="#E0E0E0"></path>
<path d="M865.747 963.29H718.241C700.638 963.29 685.425 957.361 681.681 949.047L636.563 848.697C633.15 841.155 646.338 834.295 662.132 835.351C700.32 837.93 762.346 841.746 793.616 841.746C824.68 841.746 885.387 837.975 923.12 835.408C938.982 834.272 952.182 841.246 948.677 848.811L902.239 949.15C898.439 957.418 883.236 963.29 865.747 963.29Z" fill="#D5DADE"></path>
<path d="M867.909 1074.94L861.4 960.894L872.301 961.042L878.753 1074.19C878.947 1077.7 876.477 1080.67 873.326 1080.67C871.857 1080.6 870.472 1079.96 869.462 1078.89C868.452 1077.83 867.896 1076.41 867.909 1074.94Z" fill="#D5DADE"></path>
<path d="M875.818 963.291H708.001C687.974 963.291 670.655 947.662 666.399 925.808L615.069 661.389C611.211 641.523 626.186 623.441 644.153 626.246C687.61 633.061 758.171 643.079 793.753 643.079C829.096 643.079 898.166 633.141 941.099 626.371C959.146 623.52 974.098 641.762 970.172 661.684L917.374 926.036C913.004 947.809 895.754 963.291 875.818 963.291Z" fill="#E6EAED"></path>
<path d="M912.481 1114.15L860.764 962.927L872.53 961.019L923.325 1109.52C923.903 1111.08 923.881 1112.8 923.263 1114.35C922.645 1115.9 921.476 1117.16 919.98 1117.9C919.243 1118.18 918.456 1118.3 917.668 1118.26C916.881 1118.23 916.11 1118.02 915.405 1117.67C914.7 1117.32 914.076 1116.82 913.572 1116.22C913.069 1115.61 912.697 1114.91 912.481 1114.15Z" fill="#E6EAED"></path>
<path d="M701.47 1080.64C698.056 1080.64 695.496 1077.24 696.008 1073.52L711.256 960.871L722.418 961.019L706.932 1075.39C706.812 1076.77 706.193 1078.07 705.189 1079.04C704.185 1080 702.863 1080.57 701.47 1080.64Z" fill="#D5DADE"></path>
<path d="M658.707 1117.84C657.239 1117.09 656.104 1115.82 655.522 1114.27C654.94 1112.73 654.952 1111.03 655.555 1109.49L711.016 960.894L722.395 961.042L666.274 1114.38C666.028 1115.12 665.632 1115.8 665.111 1116.38C664.59 1116.96 663.955 1117.43 663.245 1117.75C662.535 1118.08 661.766 1118.25 660.985 1118.27C660.205 1118.28 659.429 1118.14 658.707 1117.84Z" fill="#E6EAED"></path>
<path d="M945.81 361.463C980.519 361.463 1008.66 333.377 1008.66 298.732C1008.66 264.086 980.519 236 945.81 236C911.101 236 882.964 264.086 882.964 298.732C882.964 333.377 911.101 361.463 945.81 361.463Z" fill="#E6EAED"></path>
<path d="M945.809 350.15C974.259 350.15 997.322 327.129 997.322 298.732C997.322 270.334 974.259 247.313 945.809 247.313C917.36 247.313 894.297 270.334 894.297 298.732C894.297 327.129 917.36 350.15 945.809 350.15Z" fill="white"></path>
<path d="M946.014 258.353L948.404 301.582L943.227 301.514L945.798 258.342L946.014 258.353Z" fill="#E6EAED"></path>
<path d="M915.11 298.97L948.814 296.153L948.735 301.321L915.087 299.175L915.11 298.97Z" fill="#E6EAED"></path>
<path d="M947.596 298.709C947.598 299.06 947.496 299.403 947.302 299.696C947.109 299.989 946.832 300.218 946.508 300.354C946.184 300.49 945.827 300.526 945.482 300.459C945.137 300.392 944.819 300.224 944.57 299.977C944.32 299.73 944.15 299.414 944.081 299.07C944.011 298.726 944.046 298.369 944.18 298.045C944.314 297.72 944.541 297.443 944.834 297.248C945.126 297.053 945.469 296.948 945.821 296.948C946.29 296.948 946.74 297.133 947.072 297.463C947.405 297.793 947.593 298.241 947.596 298.709Z" fill="#D5DADE"></path>
</g>
<defs>
<clipPath id="clip0_2_906">
<rect width="1603" height="884" fill="white" transform="translate(159 236)"></rect>
</clipPath>
</defs>
</svg>