<svg width="1920" height="1356" viewBox="0 0 1920 1356" fill="none" xmlns="http://www.w3.org/2000/svg">
<g clip-path="url(#clip0_1_2)">
<path d="M743.961 429.758C734.938 426.66 666.033 417.054 687.816 475.442C709.599 533.829 735.314 595.841 742.725 622.592C748.032 641.75 753.574 667.448 748.096 734.117L941.439 686.874L833.543 456.8C833.543 456.8 752.983 432.856 743.961 429.758Z" fill="#D5DADE"></path>
<path d="M1016.57 769.539H1203.73L1109.38 689.262C1109.38 689.262 1277.2 637.125 1271.79 700.589C1266.37 764.053 1219.15 836.897 1206.82 842.319L973.266 838.446L1016.57 769.539Z" fill="#E5EAEE"></path>
<path d="M776.324 782.598C776.324 782.598 788.14 608.727 714.562 496.955C709.383 489.197 705.258 480.783 702.295 471.935C696.925 455.563 694.476 433.942 716.431 429.134C752.779 421.174 802.275 457.79 866.078 454.692C929.881 451.594 985.392 425.477 1011.39 423.326C1037.38 421.174 1091.25 424.165 1080.57 476.453C1041.58 667.448 1185.17 745.272 1203.73 769.539C1222.29 793.806 776.324 782.598 776.324 782.598Z" fill="#E5EAEE"></path>
<path d="M730.577 757.879C735.735 742.157 746.526 728.905 760.867 720.682C801.201 697.566 884.875 670.987 962.438 686.261C981.547 690.037 991.44 692.07 1007.68 747.832C1023.92 803.595 1045.83 806.919 1062.2 815.212C1072.39 820.375 1228.48 816.481 1228.48 816.481C1228.48 816.481 1162.96 921.574 1037.84 936.031L833.317 921.531C833.317 921.531 685.184 896.36 730.577 757.879Z" fill="#D5DADE"></path>
<path d="M809.794 1106.77L796.539 1101.25L859.118 947.701L879.311 956.113L809.794 1106.77Z" fill="#2F2E41"></path>
<path d="M926.219 1100.82H911.868L910.794 955.995H932.663L926.219 1100.82Z" fill="#2F2E41"></path>
<path d="M997.949 1100.25L983.685 1101.77L966.703 951.628L988.443 949.315L997.949 1100.25Z" fill="#D5DADE"></path>
<path d="M1084.55 1099.2L1070.98 1103.91L1017.67 953.112L1038.34 945.937L1084.55 1099.2Z" fill="#D5DADE"></path>
<path d="M1044.85 919.982H850.729C844.109 919.982 838.742 925.356 838.742 931.986V943.99C838.742 950.62 844.109 955.995 850.729 955.995H1044.85C1051.47 955.995 1056.83 950.62 1056.83 943.99V931.986C1056.83 925.356 1051.47 919.982 1044.85 919.982Z" fill="#2F2E41"></path>
<path d="M1372.94 702.611C1372.94 702.611 1346.08 716.38 1345.11 720.984C1343.56 728.728 1360.51 720.198 1360.51 720.198C1361.49 718.606 1359.79 720.564 1349.02 738.044C1342.49 748.65 1364.8 765.032 1374.8 758.836C1386.22 751.748 1394.19 724.964 1385.67 703.353L1372.94 702.611Z" fill="#FFB5A3"></path>
<path d="M1386.74 708.818C1405.98 689.155 1474.42 459.425 1404.28 463.19C1372.48 464.9 1372.19 515.994 1369.96 539.035L1370.21 704.139L1386.74 708.818Z" fill="#c1272d" class="changeColor"></path>
<path d="M1385.57 1060.94L1352.83 1063.71L1376.03 755.684L1427.39 743.659C1414.36 824.527 1391.8 997.688 1385.57 1060.94Z" fill="#FFB5A3"></path>
<path d="M1497.68 1059.26L1530.42 1062.03L1507.21 754.007L1455.86 741.981C1468.86 822.828 1491.45 995.988 1497.68 1059.26Z" fill="#FFB5A3"></path>
<path d="M1392.42 1051.65C1374.08 1053.46 1367.72 1056.09 1349.55 1051.73L1382.54 674.773L1463.36 642.503L1392.42 1051.65Z" fill="#2F2E41"></path>
<path d="M1535.37 1051.19C1519.65 1053.34 1505.71 1055.67 1490.6 1053.04L1417.8 675.741L1508.1 674.321L1535.37 1051.19Z" fill="#2F2E41"></path>
<path d="M1453.6 441.451C1446.17 443.602 1436.23 443.397 1430.05 442.956L1429.82 452.96C1429.45 469.751 1465.37 470.569 1465.75 453.788L1466.14 436.427C1462.09 438.4 1457.9 440.078 1453.6 441.451Z" fill="#FFB5A3"></path>
<path d="M1469.01 437.922C1464.55 434.76 1451.19 433.426 1449.62 434.082C1448.07 433.351 1435.83 435.771 1431.23 438.729C1413.35 450.228 1403.48 455.208 1388.34 467.32C1380.38 473.71 1378.2 511.261 1377.86 526.213C1376.89 568.099 1378.16 693.802 1378.16 693.802C1403.83 723.006 1467.06 711.55 1496.23 704.268C1505.56 701.944 1511.43 700.04 1511.43 700.04L1507.36 633.822L1507.55 579.243L1507.73 519.694L1521.05 519.996C1535.53 520.329 1536.55 500.031 1536.55 500.031C1537.17 471.687 1496.14 457.177 1469.01 437.922Z" fill="#c1272d" class="changeColor"></path>
<path d="M1466.99 397.929L1431.07 397.101L1430.52 421.002C1441.94 419.701 1457.57 417.893 1466.56 416.764L1466.99 397.929Z" fill="#FFB5A3"></path>
<path d="M1453.6 441.451C1457.9 440.078 1462.09 438.4 1466.14 436.427L1466.59 416.764C1457.6 417.893 1441.97 419.701 1430.55 421.002L1430.05 442.956C1436.23 443.397 1446.17 443.634 1453.6 441.451Z" fill="#F29E8C"></path>
<path d="M1425.62 434.179C1410.17 431.492 1396.41 422.766 1387.37 409.92C1378.34 397.075 1374.77 381.161 1377.45 365.681L1388.37 302.593C1389.7 294.927 1392.52 287.597 1396.68 281.023C1400.83 274.449 1406.24 268.759 1412.59 264.279C1418.94 259.799 1426.12 256.616 1433.7 254.912C1441.28 253.208 1449.12 253.017 1456.77 254.349C1464.43 255.679 1471.75 258.505 1478.31 262.667C1484.87 266.829 1490.56 272.245 1495.03 278.605C1499.5 284.966 1502.68 292.147 1504.38 299.739C1506.09 307.33 1506.28 315.182 1504.95 322.848L1494.02 385.925C1492.7 393.591 1489.88 400.921 1485.72 407.496C1481.57 414.07 1476.16 419.761 1469.81 424.242C1463.45 428.723 1456.28 431.907 1448.7 433.612C1441.12 435.317 1433.28 435.51 1425.62 434.179Z" fill="#F29E8C"></path>
<path d="M1417.32 432.748C1387.73 427.607 1371.43 400.575 1376.57 370.93L1385.58 297.279C1386.8 290.231 1389.4 283.493 1393.22 277.449C1397.04 271.405 1402.01 266.175 1407.85 262.055C1413.69 257.936 1420.28 255.009 1427.25 253.441C1434.22 251.874 1441.43 251.696 1448.47 252.919C1462.68 255.385 1475.33 263.404 1483.64 275.211C1491.95 287.018 1495.23 301.646 1492.77 315.877L1480.21 388.377C1478.99 395.426 1476.4 402.166 1472.58 408.211C1468.76 414.256 1463.78 419.488 1457.94 423.608C1452.1 427.728 1445.51 430.656 1438.54 432.225C1431.57 433.793 1424.36 433.971 1417.32 432.748Z" fill="#FFB5A3"></path>
<path d="M1488.47 373.587C1484.17 386.495 1488.14 398.564 1497.28 400.478C1506.42 402.393 1517.29 393.444 1521.57 380.503C1525.84 367.563 1521.89 355.537 1512.75 353.612C1503.61 351.686 1492.69 360.679 1488.47 373.587Z" fill="#F29E8C"></path>
<path d="M1489.24 304.604C1489.24 304.604 1418.8 260.502 1375.27 312.371C1375.27 312.371 1373 271.345 1394.6 254.661C1416.2 237.978 1479.8 225.887 1507.32 274.497C1530.07 276.809 1542.05 300.183 1533.1 320.46C1527.64 332.873 1519.26 344.038 1514.11 350.266C1511.93 352.989 1509.08 355.085 1505.83 356.344C1501.19 358.198 1497.26 361.469 1494.58 365.691C1494.58 365.691 1491.47 357.764 1488.36 350.976C1488.4 350.998 1479.64 328.646 1489.24 304.604Z" fill="#2F2E41"></path>
<path d="M1286.59 1100.82L1391.85 1100.45L1391.96 1093.46H1286.7C1286.36 1095.9 1286.33 1098.37 1286.59 1100.82Z" fill="#D5DADE"></path>
<path d="M1392.42 1060.25C1392.42 1059.26 1392.03 1058.31 1391.33 1057.62C1390.64 1056.92 1389.69 1056.52 1388.71 1056.52L1350.16 1056.34L1338.8 1069.38L1311.85 1072.1C1298.9 1072.1 1288.45 1080.49 1286.7 1093.46H1391.96L1392.34 1068.56H1392.41L1392.42 1060.25Z" fill="#2F2E41"></path>
<path d="M1534.91 1093.46L1534.8 1100.45L1429.53 1100.82C1429.27 1098.38 1429.3 1095.91 1429.62 1093.46H1534.91Z" fill="#D5DADE"></path>
<path d="M1429.62 1093.46C1431.28 1080.71 1441.37 1072.92 1454.32 1072.92L1482.62 1069.8L1493.11 1056.34L1531.67 1056.52C1532.66 1056.52 1533.6 1056.92 1534.29 1057.62C1534.99 1058.32 1535.38 1059.26 1535.38 1060.25V1068.55H1535.31L1534.93 1093.45L1429.62 1093.46Z" fill="#2F2E41"></path>
<path d="M1551.2 587.398L1431.04 556.384C1427.59 555.493 1424.07 557.574 1423.18 561.031L1403.75 636.521C1402.86 639.978 1404.94 643.504 1408.39 644.395L1528.55 675.409C1532.01 676.3 1535.53 674.219 1536.42 670.762L1555.85 595.272C1556.74 591.815 1554.66 588.289 1551.2 587.398Z" fill="#D5DADE"></path>
<path d="M1444.43 704.988C1444.43 704.988 1415.61 714.11 1413.95 718.499C1411.13 725.878 1429.27 720.274 1429.27 720.274C1430.49 718.864 1428.49 720.51 1414.98 735.968C1406.78 745.347 1426.09 765.193 1436.95 760.708C1449.38 755.609 1461.65 730.514 1456.82 707.796L1444.43 704.988Z" fill="#FFB5A3"></path>
<path d="M1457.03 713.4C1479.25 697.19 1584.7 481.96 1514.89 474.065C1483.26 470.483 1474.53 520.813 1468.54 543.176L1441.5 706.043L1457.03 713.4Z" fill="#c1272d" class="changeColor"></path>
<path d="M660.469 799.722H386.759C382.595 799.722 379.219 803.103 379.219 807.273V833.487C379.219 837.658 382.595 841.039 386.759 841.039H660.469C664.633 841.039 668.009 837.658 668.009 833.487V807.273C668.009 803.103 664.633 799.722 660.469 799.722Z" fill="#2F2E41"></path>
<path d="M413.956 829.077L367.275 1112.85H384.643L455.214 829.077H413.956Z" fill="#2F2E41"></path>
<path d="M636.526 829.077L683.208 1112.85H665.839L595.269 829.077H636.526Z" fill="#2F2E41"></path>
<path d="M646.387 919.734H402.001V938.074H646.387V919.734Z" fill="#2F2E41"></path>
<path d="M639.469 634.661H437.641C437.641 634.661 443.248 628.003 443.248 605.619C443.248 583.234 437.641 576.576 437.641 576.576H639.469V634.661Z" fill="#E5EAEE"></path>
<path d="M412.495 642.503H642.789C642.789 642.503 636.397 652.184 636.397 684.626C636.397 717.068 642.789 726.749 642.789 726.749H412.495V642.503Z" fill="#E5EAEE"></path>
<path d="M643.755 733.698H409.531C406.09 733.698 403.301 736.491 403.301 739.937V793.483C403.301 796.929 406.09 799.722 409.531 799.722H643.755C647.196 799.722 649.985 796.929 649.985 793.483V739.937C649.985 736.491 647.196 733.698 643.755 733.698Z" fill="#D5DADE"></path>
<path d="M454.107 738.754H433.785V794.667H454.107V738.754Z" fill="#c1272d" class="changeColor"></path>
<path d="M476.535 738.754H460.767V794.667H476.535V738.754Z" fill="#c1272d" class="changeColor"></path>
<path d="M412.495 642.503V674.773C413.28 674.59 414.074 674.375 414.891 674.128C465.59 659.24 636.645 674.128 636.645 674.128C637.815 650.033 642.789 642.503 642.789 642.503H412.495Z" fill="#D5DADE"></path>
<path d="M443.248 605.64C471.948 593.173 600.339 590.387 639.469 609.749V579.372H439.188C440.842 583.083 443.248 591 443.248 605.64C443.28 604.446 443.248 606.942 443.248 605.64Z" fill="#D5DADE"></path>
<path d="M416.889 733.698H649.974V721.328H422.689C418.392 721.328 414.891 714.583 414.891 706.269V666.071C414.891 657.745 418.382 651.012 422.689 651.012H649.985V637.856H416.899C407.855 637.856 400.508 652.044 400.508 669.545V702.009C400.497 719.51 407.898 733.698 416.889 733.698Z" fill="#c1272d" class="changeColor"></path>
<path d="M635.613 571.832H431.336V580.351H630.543C634.314 580.351 637.375 584.998 637.375 590.731V618.419C637.375 624.152 634.314 628.81 630.543 628.81H431.336V637.856H635.613C643.54 637.856 649.974 628.078 649.974 616.031V593.668C649.985 581.61 643.551 571.832 635.613 571.832Z" fill="#c1272d" class="changeColor"></path>
<path d="M1762.43 1100.82H157.573C153.39 1100.82 150 1104.22 150 1108.41V1108.42C150 1112.6 153.39 1116 157.573 1116H1762.43C1766.61 1116 1770 1112.6 1770 1108.42V1108.41C1770 1104.22 1766.61 1100.82 1762.43 1100.82Z" fill="#D5DADE"></path>
</g>
<defs>
<clipPath id="clip0_1_2">
<rect width="1620" height="876" fill="white" transform="translate(150 240)"></rect>
</clipPath>
</defs>
</svg>