<?xml version="1.0" encoding="UTF-8"?><svg id="Layer_1" xmlns="http://www.w3.org/2000/svg" viewBox="0 0 498.68 143.33"><defs><style>.cls-1{fill:#c1272d;}.cls-2{fill:#292a33;}</style></defs><path class="cls-1" d="M0,100.72h9.31v15.74h43.29v11.06H9.31v15.81H0v-42.61Z"/><path class="cls-1" d="M52.6,62.93h-23.48v20.56h23.48v10.88H0v-10.88h20.06v-20.56H0v-10.92h52.6v10.92Z"/><path class="cls-1" d="M29.62,4.9v25.55h13.53V1.33h9.46v39.86H0V2.62h9.31v27.84h11.17V4.9h9.14Z"/><path class="cls-2" d="M145.35,30.97c-3.41-3.95-8.3-5.92-14.65-5.92-8.7,0-14.62,3.14-17.77,9.42-1.81,3.62-2.88,9.39-3.21,17.28h-27.8c.47-11.97,2.71-21.65,6.72-29.03,7.63-14.05,21.18-21.07,40.65-21.07,15.39,0,27.63,4.13,36.73,12.38,9.1,8.25,13.65,19.18,13.65,32.77,0,10.42-3.21,19.68-9.64,27.77-4.22,5.37-29.2,24.61-46.92,36.51-17.73,11.89-16.43,32.04-16.43,32.04h-26.38c.27-10.1,2.51-19.32,6.72-27.67,4.08-9.39,13.72-19.32,28.91-29.81,13.18-9.13,21.71-15.66,25.59-19.61,5.96-6.15,8.93-12.88,8.93-20.2,0-5.96-1.7-10.91-5.12-14.86Z"/><path class="cls-2" d="M266.69,91.66h-31.42v51.46h-30.71V0h64.44c14.86,0,26.7,3.69,35.53,11.07s13.25,18.8,13.25,34.27c0,16.89-4.42,28.84-13.25,35.83-8.83,6.99-21.45,10.49-37.84,10.49ZM281.15,61.85c4.02-3.43,6.02-8.87,6.02-16.31s-2.03-12.75-6.07-15.92c-4.05-3.17-9.72-4.76-17.01-4.76h-28.81v42.14h28.81c7.29,0,12.98-1.72,17.06-5.15Z"/><path class="cls-2" d="M459.9,143.12h-37.54l-28.1-48.74-29.71,48.74h-35.93l47.58-72.92L330.93,0h36.94l26.4,46.51L421.36,0h35.73l-45.26,69.03,48.08,74.08Z"/><path class="cls-1" d="M151.85,116.65h27.82v26.47h-27.82v-26.47Z"/><path class="cls-1" d="M470.85,116.65h27.82v26.47h-27.82v-26.47Z"/></svg>