<svg id="Layer_1" data-name="Layer 1" xmlns="http://www.w3.org/2000/svg" viewBox="0 0 1920 1920"><defs><style>.cls-1{fill:#fff;}.cls-2{fill:#d7dcdc;}.cls-3{fill:#e6ebf0;}.cls-4{fill:#be282d;}.cls-5{fill:#fab4a5;}.cls-6{fill:#7d501e;}.cls-7{fill:#322d41;}</style></defs><rect class="cls-1" x="293.37" y="503" width="1327.35" height="881.87"/><rect class="cls-2" x="293.37" y="503" width="1327.35" height="881.87" rx="10.15"/><rect class="cls-1" x="301.74" y="514.23" width="1310.62" height="859.4" rx="10.15"/><path class="cls-3" d="M486.29,614.64h-125a17,17,0,1,1,0-34.09h125a17,17,0,1,1,0,34.09Z"/><path class="cls-3" d="M577.2,760.11H361.28a17.05,17.05,0,1,1,0-34.1H577.2a17.05,17.05,0,0,1,0,34.1Z"/><path class="cls-3" d="M694.26,823.75H357.87a13.64,13.64,0,0,1,0-27.28H694.26a13.64,13.64,0,0,1,0,27.28Z"/><path class="cls-3" d="M694.26,864.66H357.87a13.64,13.64,0,1,1,0-27.28H694.26a13.64,13.64,0,0,1,0,27.28Z"/><path class="cls-3" d="M697.66,1273.77H354.46a10.23,10.23,0,1,1,0-20.45h343.2a10.23,10.23,0,1,1,0,20.45Z"/><path class="cls-3" d="M697.66,1314.68H354.46a10.23,10.23,0,1,1,0-20.45h343.2a10.23,10.23,0,1,1,0,20.45Z"/><path class="cls-3" d="M1346.84,606.41H1290a17,17,0,0,1,0-34.09h56.82a17,17,0,1,1,0,34.09Z"/><path class="cls-3" d="M418.1,930.57H361.28a17,17,0,1,1,0-34.09H418.1a17,17,0,1,1,0,34.09Z"/><path class="cls-3" d="M1449.12,606.41H1392.3a17,17,0,1,1,0-34.09h56.82a17,17,0,1,1,0,34.09Z"/><path class="cls-3" d="M1551.4,606.41h-56.82a17,17,0,1,1,0-34.09h56.82a17,17,0,1,1,0,34.09Z"/><path class="cls-2" d="M1548.49,1095.08H883.82a20,20,0,0,1-20-20V696.83a20,20,0,0,1,20-20h664.67a20,20,0,0,1,20,20v378.28A20,20,0,0,1,1548.49,1095.08Z"/><path class="cls-3" d="M526.06,1239.68a33,33,0,1,1,33-33A33,33,0,0,1,526.06,1239.68Z"/><path class="cls-3" d="M1128.65,1274.63H785.45a10.23,10.23,0,1,1,0-20.45h343.2a10.23,10.23,0,1,1,0,20.45Z"/><path class="cls-3" d="M1128.65,1315.54H785.45a10.23,10.23,0,1,1,0-20.45h343.2a10.23,10.23,0,1,1,0,20.45Z"/><path class="cls-3" d="M957.05,1240.54a33,33,0,1,1,33-33A33,33,0,0,1,957.05,1240.54Z"/><path class="cls-3" d="M1560.49,1274.63h-343.2a10.23,10.23,0,1,1,0-20.45h343.2a10.23,10.23,0,1,1,0,20.45Z"/><path class="cls-3" d="M1560.49,1315.54h-343.2a10.23,10.23,0,1,1,0-20.45h343.2a10.23,10.23,0,1,1,0,20.45Z"/><path class="cls-3" d="M1388.89,1240.54a33,33,0,1,1,33-33A33,33,0,0,1,1388.89,1240.54Z"/><polygon class="cls-4" points="1436.43 390.69 1212.79 500.5 1275.95 552.26 946 977.64 817 874.11 435.15 1373.63 537.73 1373.63 836.68 980.42 903.35 1032.62 956.06 1073.88 998.26 1019.58 1328.15 595.04 1393.24 648.38 1436.43 390.69"/><path class="cls-5" d="M1342.32,1453.85c-40.36-11.7-81-27.71-105.24-65.28-30.67-47.65-26.16-108.87,12.68-172.39l40,25.37c-21.75,35.56-48.92,81.92-20.39,126.24,18.21,28.3,52.73,40.23,83.65,49.19Z"/><path class="cls-6" d="M1458.61,1019.44c13-37.91,5.4-81.75-36.21-95.57-15.35-5.09-31.78-7.69-47.79-5.4-10.18,1.45-18.86,7-28.56,10-9,2.73-17.22,3.78-23.66,11.63-10,12.14-9.79,31.87-9.57,46.74.55,36.32,15.55,78.81,53.59,91.12C1409.33,1091.85,1445.1,1058.85,1458.61,1019.44Z"/><path class="cls-5" d="M1439.26,1453.85,1428.58,1417c30.92-9,65.43-20.89,83.65-49.19,28.52-44.32,2.47-91.64-19.28-127.2l38.87-24.41c38.85,63.52,43.35,124.74,12.69,172.39C1520.32,1426.14,1479.63,1442.15,1439.26,1453.85Z"/><path class="cls-7" d="M1555.92,1224.87c-17.62,14.52-47,29.18-67.35,39.49,3.86-1.95-.27-53.56-1.78-58.86-5.37-19-16.42-37.75-20.59-56.68-6.24-28.34,47.54,18.54,53,24.47A256.41,256.41,0,0,1,1555.92,1224.87Z"/><path class="cls-7" d="M1225.66,1224.87c17.63,14.52,47.71,27.09,68.09,37.4-3.86-2-.46-51.47,1-56.77,5.38-19,16.43-37.75,20.6-56.68,6.24-28.34-47.55,18.54-53,24.47A256.46,256.46,0,0,0,1225.66,1224.87Z"/><path class="cls-7" d="M1394.16,1470.6c-29.14-.77-57.87-4-84.4-15.58-12-5.25-24.19-13.15-28.32-25.61-1.75-5.29-1.88-11-1.93-16.54-.15-20.81,1.2-40.83.15-61.56-1.09-21.41-1.11-42.85-1.4-64.28-.48-36.67,1-73.42,5.86-109.8a70.19,70.19,0,0,1,4.54-17.14,46.87,46.87,0,0,1,9.27-15c3.86-4,8.61-7.07,13.31-10.07,16.36-10.45,39.2-19.61,47.74-38,5.49-11.83,6.75-25.14,7.36-38.17a375.7,375.7,0,0,1,47.69-.33c-1.19,11.64-1.42,23.62,2,34.81,1,3.28,1.66,6.75,4,9.38,7.66,8.77,16.9,14.57,27.14,19.46a175.32,175.32,0,0,1,27.94,17c7.7,5.65,13.09,15.47,17.35,24.06,11.83,23.86,12.42,51.53,12.77,78.16.34,26.3.85,53.38,1.41,80,.8,38.55,1.54,76.57,1.39,115.1,0,4.62-.06,9.37-1.73,13.68-1.93,5-5.9,9-10.38,11.87-13.38,8.7-30.42,8.59-46.38,8.6C1431.19,1470.59,1412.6,1471.09,1394.16,1470.6Z"/><path class="cls-5" d="M1433.59,1119.77c1-1.1,1.93-2.3,2.84-3.5a70.27,70.27,0,0,1-16.44-13.58c-2.29-2.63-2.94-6.1-4-9.38-3.43-11.19-3.2-23.17-2-34.81a375.7,375.7,0,0,0-47.69.33c-.61,13-1.87,26.34-7.36,38.17-4.12,8.9-11.61,15.61-20.06,21.37a50.82,50.82,0,0,0,13.14,10.56l.36.2C1377.38,1142.46,1413.32,1142,1433.59,1119.77Z"/><path class="cls-5" d="M1322.06,997.05c-.37,20,3.45,39.82,10.44,53.64,9.71,19.22,28,35,49.35,37.57,21.7,2.62,42.23-9.09,53-27.72,20.47-35.37,22.38-92.82-8.82-123.13C1376.56,889.34,1323.08,942,1322.06,997.05Z"/><path class="cls-2" d="M1506.35,1447.35H1280.54a14.42,14.42,0,0,1-14.35-13l-15.83-162a14.41,14.41,0,0,1,14.34-15.82h257.48a14.42,14.42,0,0,1,14.35,15.82l-15.84,162A14.41,14.41,0,0,1,1506.35,1447.35Z"/><path class="cls-7" d="M1269.13,1497.73c.74-9.56-5.85-21-14-23.66s-17.93-1.92-26.27-2.55c-15.49-1.16-31.19-1.66-46.58,1.12-13.52,2.44-30.79,6.78-30.3,26.31.34,13.44,9.75,21.94,20.21,26,15,5.75,31,5.07,46.48,2.45C1234.67,1524.66,1267.22,1522.35,1269.13,1497.73Z"/><path class="cls-4" d="M1469,1499.83q9.43-2.28,18.81-4.84a645.94,645.94,0,0,0,62.63-20.66c18.88-7.3,38.57-14.58,54.74-28.9,25.46-22.56,32.65-76.1-3-90.57-20.65-8.39-42.81-4-63.19,3.36-22.32,8-43.88,18.39-65.78,27.84-28.19,12.16-56.36,24.32-84.34,37.17-34.71,16.08-69.62,31.73-105.52,43.55a3.4,3.4,0,0,0-1.89,1.16,4.79,4.79,0,0,0-.59,2.44c-.21,3.88,2.85,48.41,4.76,48.43,25.61.13,51-1.39,76.6-2.93A617.29,617.29,0,0,0,1469,1499.83Z"/><path class="cls-5" d="M1285.67,1518.81c0-.3-15.39,0-16.48,0-9.89,0-25.37-.41-30.31-13.18-3.11-8-1.06-22.25,4.37-28.21,5.08-5.59,12.82-5.22,19.19-6.7s12.74-1.58,19.06-2.79C1281.5,1467.94,1285.66,1518.77,1285.67,1518.81Z"/><path class="cls-7" d="M1509.49,1497.73c-.74-9.56,5.85-21,14-23.66s17.93-1.92,26.27-2.55c15.49-1.16,31.19-1.66,46.58,1.12,13.52,2.44,30.79,6.78,30.3,26.31-.34,13.44-9.75,21.94-20.21,26-15,5.75-31.05,5.07-46.48,2.45C1544,1524.66,1511.4,1522.35,1509.49,1497.73Z"/><path class="cls-4" d="M1309.62,1499.83q-9.43-2.28-18.81-4.84a646.84,646.84,0,0,1-62.63-20.66c-18.88-7.3-38.57-14.58-54.74-28.9-25.46-22.56-32.65-76.1,3-90.57,20.66-8.39,42.81-4,63.19,3.36,22.32,8,43.88,18.39,65.78,27.84,28.19,12.16,56.36,24.32,84.34,37.17,34.71,16.08,69.63,31.73,105.52,43.55a3.4,3.4,0,0,1,1.89,1.16,4.79,4.79,0,0,1,.59,2.44c.21,3.88-2.85,48.41-4.76,48.43-25.61.13-51-1.39-76.6-2.93A617.44,617.44,0,0,1,1309.62,1499.83Z"/><path class="cls-5" d="M1493,1518.81c0-.3,15.39,0,16.48,0,9.89,0,25.37-.41,30.32-13.18,3.1-8,1-22.25-4.38-28.21-5.08-5.59-12.82-5.22-19.19-6.7s-12.74-1.58-19.06-2.79C1497.12,1467.94,1493,1518.77,1493,1518.81Z"/><path class="cls-5" d="M1333.22,1013.24c3.33,10.51,1,20.62-5.15,22.57s-13.89-5-17.22-15.48-1-20.61,5.15-22.57S1329.89,1002.73,1333.22,1013.24Z"/><path class="cls-5" d="M1440.81,1013.24c-3.33,10.51-1,20.62,5.16,22.57s13.88-5,17.21-15.48,1-20.61-5.15-22.57S1444.14,1002.73,1440.81,1013.24Z"/><path class="cls-6" d="M1450.52,905.77a43.21,43.21,0,0,0-11.82-8.16c-12.11-5.58-24.51-1.5-37.23-3.25s-26.42-8-38-2.27c-7.46,3.71-11.92,7.93-21,6.86-5.93-.69-11.78-2.55-17.73-2.12-32.73,2.39-33.39,56.93-4.51,65.61,10.06,3,21.12.12,30.17-5.21,2.64-1.56,5.23-3.34,8.21-4.1,5.58-1.42,11.31,1,17,2,11.72,2.07,24.33-2.93,35.8.14,20.89,5.6,31.6,44.41,35.4,62.87,5.65-15.63,12.56-30.86,16.52-47s4.78-33.63-1.61-49A49.26,49.26,0,0,0,1450.52,905.77Z"/><path class="cls-6" d="M1322.9,1014a306.54,306.54,0,0,1,18.17-65.53c-1.28,3.19-11.35,6.74-14,10.29-3,4-3.7,8.41-4.72,13.34C1319.51,986.05,1319.19,1000.06,1322.9,1014Z"/><path class="cls-7" d="M1411.29,1351.92a17.85,17.85,0,1,1-17.85-17.85A17.85,17.85,0,0,1,1411.29,1351.92Z"/></svg>