<?xml version="1.0" encoding="UTF-8"?> <svg xmlns="http://www.w3.org/2000/svg" id="Layer_1" data-name="Layer 1" viewBox="0 0 1920 1356"><defs><style>.cls-1{fill:#fff;}.cls-2{fill:#d7dcdc;}.cls-3{fill:#e6ebf0;}.cls-4{fill:#be282d;}.cls-5{fill:#fab4a5;}.cls-6{fill:#7d501e;}.cls-7{fill:#322d41;}</style></defs><rect class="cls-1" x="359.73" y="266.49" width="1195.23" height="794.09"></rect><rect class="cls-2" x="359.73" y="266.49" width="1195.23" height="794.09" rx="9.14"></rect><rect class="cls-1" x="367.26" y="276.6" width="1180.17" height="773.86" rx="9.14"></rect><path class="cls-3" d="M533.44,367H420.88a15.35,15.35,0,0,1,0-30.7H533.44a15.35,15.35,0,0,1,0,30.7Z"></path><path class="cls-3" d="M615.31,498H420.88a15.35,15.35,0,1,1,0-30.7H615.31a15.35,15.35,0,1,1,0,30.7Z"></path><path class="cls-3" d="M720.71,555.31H417.81a12.28,12.28,0,0,1,0-24.56h302.9a12.28,12.28,0,0,1,0,24.56Z"></path><path class="cls-3" d="M720.71,592.15H417.81a12.28,12.28,0,0,1,0-24.56h302.9a12.28,12.28,0,0,1,0,24.56Z"></path><path class="cls-3" d="M723.78,960.54h-309a9.21,9.21,0,0,1,0-18.42h309a9.21,9.21,0,1,1,0,18.42Z"></path><path class="cls-3" d="M723.78,997.38h-309a9.21,9.21,0,0,1,0-18.42h309a9.21,9.21,0,1,1,0,18.42Z"></path><path class="cls-3" d="M1308.34,359.61h-51.17a15.35,15.35,0,0,1,0-30.7h51.17a15.35,15.35,0,1,1,0,30.7Z"></path><path class="cls-3" d="M472,651.5H420.88a15.35,15.35,0,0,1,0-30.7H472a15.35,15.35,0,0,1,0,30.7Z"></path><path class="cls-3" d="M1400.44,359.61h-51.17a15.35,15.35,0,1,1,0-30.7h51.17a15.35,15.35,0,0,1,0,30.7Z"></path><path class="cls-3" d="M1492.53,359.61h-51.16a15.35,15.35,0,1,1,0-30.7h51.16a15.35,15.35,0,1,1,0,30.7Z"></path><path class="cls-2" d="M1489.91,799.63H891.41a18,18,0,0,1-18-18V441a18,18,0,0,1,18-18h598.5a18,18,0,0,1,18,18V781.66A18,18,0,0,1,1489.91,799.63Z"></path><path class="cls-3" d="M569.26,929.84a29.68,29.68,0,1,1,29.67-29.67A29.71,29.71,0,0,1,569.26,929.84Z"></path><path class="cls-3" d="M1111.86,961.31h-309a9.21,9.21,0,1,1,0-18.41h309a9.21,9.21,0,1,1,0,18.41Z"></path><path class="cls-3" d="M1111.86,998.15h-309a9.21,9.21,0,0,1,0-18.42h309a9.21,9.21,0,0,1,0,18.42Z"></path><path class="cls-3" d="M957.34,930.62A29.68,29.68,0,1,1,987,900.94,29.71,29.71,0,0,1,957.34,930.62Z"></path><path class="cls-3" d="M1500.72,961.31h-309a9.21,9.21,0,1,1,0-18.41h309a9.21,9.21,0,1,1,0,18.41Z"></path><path class="cls-3" d="M1500.72,998.15h-309a9.21,9.21,0,0,1,0-18.42h309a9.21,9.21,0,1,1,0,18.42Z"></path><path class="cls-3" d="M1346.2,930.62a29.68,29.68,0,1,1,29.68-29.68A29.72,29.72,0,0,1,1346.2,930.62Z"></path><polygon class="cls-4" points="1389.01 165.36 1187.63 264.23 1244.5 310.84 947.39 693.88 831.23 600.66 487.39 1050.46 579.76 1050.46 848.95 696.39 908.99 743.39 956.45 780.55 994.45 731.65 1291.51 349.37 1350.11 397.4 1389.01 165.36"></polygon><path class="cls-5" d="M1304.27,1122.7c-36.35-10.54-73-25-94.77-58.79-27.62-42.9-23.56-98,11.42-155.23l36,22.85c-19.59,32-44,73.76-18.37,113.67,16.41,25.48,47.49,36.22,75.33,44.29Z"></path><path class="cls-6" d="M1409,731.52c11.7-34.13,4.87-73.61-32.61-86-13.82-4.59-28.61-6.93-43-4.87-9.16,1.31-17,6.35-25.71,9-8.14,2.46-15.51,3.4-21.31,10.47-9,10.93-8.82,28.7-8.62,42.09.49,32.71,14,71,48.26,82.05C1364.6,796.72,1396.82,767,1409,731.52Z"></path><path class="cls-5" d="M1391.56,1122.7l-9.62-33.21c27.84-8.07,58.92-18.81,75.32-44.29,25.69-39.91,2.23-82.52-17.36-114.54l35-22c35,57.2,39,112.33,11.43,155.23C1464.55,1097.74,1427.91,1112.16,1391.56,1122.7Z"></path><path class="cls-7" d="M1496.61,916.51c-15.88,13.07-42.31,26.27-60.65,35.55,3.47-1.76-.25-48.22-1.6-53-4.84-17.06-14.79-34-18.55-51-5.62-25.53,42.82,16.69,47.71,22A231.11,231.11,0,0,1,1496.61,916.51Z"></path><path class="cls-7" d="M1199.22,916.51c15.87,13.07,43,24.39,61.31,33.67-3.48-1.76-.42-46.34.94-51.12,4.84-17.06,14.79-34,18.54-51,5.62-25.53-42.81,16.69-47.71,22A230.67,230.67,0,0,0,1199.22,916.51Z"></path><path class="cls-7" d="M1351,1137.78c-26.25-.7-52.12-3.62-76-14-10.83-4.72-21.78-11.84-25.5-23-1.58-4.77-1.7-9.88-1.74-14.9-.14-18.74,1.08-36.76.13-55.43-1-19.28-1-38.59-1.26-57.88-.43-33,.94-66.11,5.28-98.87a62.88,62.88,0,0,1,4.08-15.43,42.24,42.24,0,0,1,8.36-13.5c3.47-3.62,7.75-6.36,12-9.06,14.73-9.42,35.29-17.66,43-34.25,4.94-10.66,6.08-22.64,6.62-34.37a338.2,338.2,0,0,1,42.95-.3c-1.08,10.48-1.28,21.27,1.81,31.34.9,3,1.49,6.08,3.56,8.45,6.89,7.89,15.21,13.12,24.43,17.52a157.85,157.85,0,0,1,25.16,15.3c6.93,5.09,11.79,13.93,15.62,21.67,10.65,21.48,11.18,46.39,11.5,70.37.31,23.69.77,48.07,1.27,72,.73,34.71,1.39,68.95,1.25,103.64,0,4.17,0,8.44-1.55,12.32-1.74,4.49-5.32,8.06-9.35,10.69-12,7.84-27.39,7.74-41.77,7.74C1384.29,1137.77,1367.55,1138.22,1351,1137.78Z"></path><path class="cls-5" d="M1386.45,821.87c.91-1,1.74-2.07,2.56-3.15a63.33,63.33,0,0,1-14.8-12.23c-2.07-2.37-2.66-5.5-3.56-8.45-3.09-10.07-2.89-20.86-1.81-31.34a338.2,338.2,0,0,0-42.95.3c-.54,11.73-1.68,23.71-6.62,34.37-3.72,8-10.46,14-18.06,19.24a45.52,45.52,0,0,0,11.83,9.51l.32.17C1335.84,842.3,1368.2,841.87,1386.45,821.87Z"></path><path class="cls-5" d="M1286,711.36c-.33,18,3.11,35.86,9.4,48.31,8.75,17.3,25.19,31.5,44.44,33.83,19.54,2.36,38-8.19,47.74-25,18.43-31.85,20.14-83.58-7.95-110.87C1335.1,614.38,1286.94,661.81,1286,711.36Z"></path><path class="cls-2" d="M1452,1116.84H1248.63a13,13,0,0,1-12.91-11.72l-14.26-145.9A13,13,0,0,1,1234.37,945h231.86a13,13,0,0,1,12.91,14.24l-14.26,145.9A13,13,0,0,1,1452,1116.84Z"></path><path class="cls-7" d="M1238.36,1162.21c.67-8.61-5.27-19-12.59-21.31s-16.14-1.73-23.65-2.29c-14-1-28.09-1.5-41.95,1-12.17,2.2-27.72,6.1-27.28,23.69.31,12.1,8.78,19.76,18.19,23.38,13.49,5.18,28,4.56,41.86,2.21C1207.33,1186.45,1236.64,1184.38,1238.36,1162.21Z"></path><path class="cls-4" d="M1418.33,1164.09q8.51-2,16.94-4.35a584.74,584.74,0,0,0,56.4-18.6c17-6.58,34.73-13.13,49.29-26,22.92-20.31,29.4-68.53-2.66-81.55-18.6-7.56-38.56-3.57-56.91,3-20.09,7.21-39.51,16.55-59.23,25.06-25.38,10.95-50.75,21.9-76,33.47-31.25,14.48-62.69,28.57-95,39.22a3,3,0,0,0-1.7,1,4.2,4.2,0,0,0-.53,2.2c-.19,3.49,2.57,43.59,4.28,43.61,23.06.12,45.94-1.25,69-2.64A555.66,555.66,0,0,0,1418.33,1164.09Z"></path><path class="cls-5" d="M1253.25,1181.19c0-.27-13.86,0-14.83,0-8.91,0-22.85-.37-27.3-11.87-2.8-7.22-.95-20,3.93-25.41,4.58-5,11.55-4.7,17.29-6s11.46-1.42,17.16-2.51C1249.5,1135.38,1253.25,1181.15,1253.25,1181.19Z"></path><path class="cls-7" d="M1454.79,1162.21c-.66-8.61,5.27-19,12.59-21.31s16.15-1.73,23.66-2.29c14-1,28.09-1.5,42,1,12.16,2.2,27.71,6.1,27.27,23.69-.3,12.1-8.77,19.76-18.19,23.38-13.48,5.18-28,4.56-41.86,2.21C1485.83,1186.45,1456.52,1184.38,1454.79,1162.21Z"></path><path class="cls-4" d="M1274.82,1164.09q-8.5-2-16.94-4.35a584.55,584.55,0,0,1-56.39-18.6c-17-6.58-34.74-13.13-49.29-26-22.93-20.31-29.4-68.53,2.66-81.55,18.6-7.56,38.55-3.57,56.9,3,20.1,7.21,39.51,16.55,59.23,25.06,25.38,10.95,50.76,21.9,76,33.47,31.25,14.48,62.69,28.57,95,39.22a3,3,0,0,1,1.71,1,4.29,4.29,0,0,1,.53,2.2c.18,3.49-2.57,43.59-4.29,43.61-23.06.12-45.94-1.25-69-2.64A556,556,0,0,1,1274.82,1164.09Z"></path><path class="cls-5" d="M1439.9,1181.19c0-.27,13.86,0,14.84,0,8.91,0,22.84-.37,27.3-11.87,2.8-7.22,1-20-3.94-25.41-4.58-5-11.55-4.7-17.28-6s-11.47-1.42-17.16-2.51C1443.66,1135.38,1439.91,1181.15,1439.9,1181.19Z"></path><path class="cls-5" d="M1296.07,725.94c3,9.47.92,18.57-4.64,20.33s-12.5-4.48-15.5-13.94-.92-18.56,4.64-20.33S1293.07,716.48,1296.07,725.94Z"></path><path class="cls-5" d="M1393,725.94c-3,9.47-.92,18.57,4.64,20.33s12.51-4.48,15.51-13.94.92-18.56-4.64-20.33S1396,716.48,1393,725.94Z"></path><path class="cls-6" d="M1401.7,629.17a39.06,39.06,0,0,0-10.65-7.35c-10.9-5-22.07-1.35-33.53-2.92s-23.78-7.23-34.22-2c-6.72,3.34-10.74,7.14-18.88,6.18-5.33-.63-10.6-2.3-16-1.91-29.47,2.15-30.07,51.26-4.06,59.08,9.06,2.72,19,.11,27.17-4.69,2.38-1.4,4.71-3,7.39-3.69,5-1.28,10.19.91,15.29,1.81,10.55,1.85,21.91-2.64,32.23.12,18.82,5,28.46,40,31.89,56.61,5.08-14.07,11.3-27.79,14.87-42.32s4.31-30.29-1.45-44.09A44.4,44.4,0,0,0,1401.7,629.17Z"></path><path class="cls-6" d="M1286.78,726.59a275.76,275.76,0,0,1,16.36-59c-1.16,2.88-10.22,6.07-12.56,9.26-2.66,3.64-3.34,7.58-4.25,12C1283.72,701.45,1283.43,714.08,1286.78,726.59Z"></path><path class="cls-7" d="M1366.37,1030.91a16.08,16.08,0,1,1-16.07-16.08A16.07,16.07,0,0,1,1366.37,1030.91Z"></path></svg> 